<svg width="3982pt" height="392pt"
 viewBox="0.00 0.00 3982.44 392.00" xmlns="http://www.w3.org/2000/svg" xmlns:xlink="http://www.w3.org/1999/xlink">
<g id="graph0" class="graph" transform="scale(1 1) rotate(0) translate(4 388)">
<title>Perl</title>
<polygon fill="#ffffff" stroke="transparent" points="-4,4 -4,-388 3978.4354,-388 3978.4354,4 -4,4"/>
<!-- treatment_surgery -->
<g id="node1" class="node">
<title>treatment_surgery</title>
<ellipse fill="none" stroke="#000000" cx="2003.0923" cy="-279" rx="98.5829" ry="18"/>
<text text-anchor="middle" x="2003.0923" y="-275.3" font-family="Times,serif" font-size="14.00" fill="#000000">treatment_surgery</text>
</g>
<!-- participant -->
<g id="node23" class="node">
<title>participant</title>
<ellipse fill="none" stroke="#000000" cx="2085.0923" cy="-192" rx="62.2891" ry="18"/>
<text text-anchor="middle" x="2085.0923" y="-188.3" font-family="Times,serif" font-size="14.00" fill="#000000">participant</text>
</g>
<!-- treatment_surgery&#45;&gt;participant -->
<g id="edge9" class="edge">
<title>treatment_surgery&#45;&gt;participant</title>
<path fill="none" stroke="#000000" d="M1994.796,-260.6139C1991.4472,-250.2351 1989.6972,-237.4851 1996.0923,-228 2002.6503,-218.2732 2012.3296,-211.1736 2022.9182,-205.9919"/>
<polygon fill="#000000" stroke="#000000" points="2024.5976,-209.0797 2032.4018,-201.9142 2021.8325,-202.6489 2024.5976,-209.0797"/>
<text text-anchor="middle" x="2074.5923" y="-231.8" font-family="Times,serif" font-size="14.00" fill="#000000">of_treatment_surgery</text>
</g>
<!-- study_personnel -->
<g id="node2" class="node">
<title>study_personnel</title>
<ellipse fill="none" stroke="#000000" cx="87.0923" cy="-105" rx="87.1846" ry="18"/>
<text text-anchor="middle" x="87.0923" y="-101.3" font-family="Times,serif" font-size="14.00" fill="#000000">study_personnel</text>
</g>
<!-- study -->
<g id="node3" class="node">
<title>study</title>
<ellipse fill="none" stroke="#000000" cx="774.0923" cy="-18" rx="36.2938" ry="18"/>
<text text-anchor="middle" x="774.0923" y="-14.3" font-family="Times,serif" font-size="14.00" fill="#000000">study</text>
</g>
<!-- study_personnel&#45;&gt;study -->
<g id="edge22" class="edge">
<title>study_personnel&#45;&gt;study</title>
<path fill="none" stroke="#000000" d="M101.5576,-87.2108C112.231,-75.5002 127.8484,-61.0725 145.0923,-54 198.4755,-32.1053 591.1732,-21.8463 727.5727,-18.9164"/>
<polygon fill="#000000" stroke="#000000" points="727.777,-22.4129 737.7007,-18.7022 727.629,-15.4145 727.777,-22.4129"/>
<text text-anchor="middle" x="214.5923" y="-57.8" font-family="Times,serif" font-size="14.00" fill="#000000">of_study_personnel</text>
</g>
<!-- sequencing_file -->
<g id="node4" class="node">
<title>sequencing_file</title>
<ellipse fill="none" stroke="#000000" cx="2942.0923" cy="-366" rx="83.3857" ry="18"/>
<text text-anchor="middle" x="2942.0923" y="-362.3" font-family="Times,serif" font-size="14.00" fill="#000000">sequencing_file</text>
</g>
<!-- sample -->
<g id="node25" class="node">
<title>sample</title>
<ellipse fill="none" stroke="#000000" cx="3431.0923" cy="-279" rx="44.393" ry="18"/>
<text text-anchor="middle" x="3431.0923" y="-275.3" font-family="Times,serif" font-size="14.00" fill="#000000">sample</text>
</g>
<!-- sequencing_file&#45;&gt;sample -->
<g id="edge8" class="edge">
<title>sequencing_file&#45;&gt;sample</title>
<path fill="none" stroke="#000000" d="M2956.8482,-348.1561C2967.7245,-336.4204 2983.6167,-321.9851 3001.0923,-315 3078.9745,-283.8699 3295.6899,-312.6387 3378.0923,-297 3381.7441,-296.3069 3385.4878,-295.4192 3389.2145,-294.4103"/>
<polygon fill="#000000" stroke="#000000" points="3390.3789,-297.7155 3398.9645,-291.5076 3388.3815,-291.0065 3390.3789,-297.7155"/>
<text text-anchor="middle" x="3067.5923" y="-318.8" font-family="Times,serif" font-size="14.00" fill="#000000">of_sequencing_file</text>
</g>
<!-- study_admin -->
<g id="node5" class="node">
<title>study_admin</title>
<ellipse fill="none" stroke="#000000" cx="262.0923" cy="-105" rx="70.3881" ry="18"/>
<text text-anchor="middle" x="262.0923" y="-101.3" font-family="Times,serif" font-size="14.00" fill="#000000">study_admin</text>
</g>
<!-- study_admin&#45;&gt;study -->
<g id="edge23" class="edge">
<title>study_admin&#45;&gt;study</title>
<path fill="none" stroke="#000000" d="M272.6651,-87.1153C280.5711,-75.521 292.5082,-61.2689 307.0923,-54 344.0628,-35.5735 616.5586,-23.718 727.4002,-19.6112"/>
<polygon fill="#000000" stroke="#000000" points="727.7434,-23.1011 737.6088,-19.238 727.4876,-16.1058 727.7434,-23.1011"/>
<text text-anchor="middle" x="363.5923" y="-57.8" font-family="Times,serif" font-size="14.00" fill="#000000">of_study_admin</text>
</g>
<!-- study_arm -->
<g id="node6" class="node">
<title>study_arm</title>
<ellipse fill="none" stroke="#000000" cx="410.0923" cy="-105" rx="59.5901" ry="18"/>
<text text-anchor="middle" x="410.0923" y="-101.3" font-family="Times,serif" font-size="14.00" fill="#000000">study_arm</text>
</g>
<!-- study_arm&#45;&gt;study -->
<g id="edge28" class="edge">
<title>study_arm&#45;&gt;study</title>
<path fill="none" stroke="#000000" d="M414.8912,-86.9228C418.8949,-75.5549 425.8099,-61.6388 437.0923,-54 460.6484,-38.0512 640.9293,-25.6547 727.7048,-20.5449"/>
<polygon fill="#000000" stroke="#000000" points="728.0266,-24.0322 737.8068,-19.9581 727.6207,-17.044 728.0266,-24.0322"/>
<text text-anchor="middle" x="485.5923" y="-57.8" font-family="Times,serif" font-size="14.00" fill="#000000">of_study_arm</text>
</g>
<!-- medical_history -->
<g id="node7" class="node">
<title>medical_history</title>
<ellipse fill="none" stroke="#000000" cx="2205.0923" cy="-279" rx="85.2851" ry="18"/>
<text text-anchor="middle" x="2205.0923" y="-275.3" font-family="Times,serif" font-size="14.00" fill="#000000">medical_history</text>
</g>
<!-- medical_history&#45;&gt;participant -->
<g id="edge37" class="edge">
<title>medical_history&#45;&gt;participant</title>
<path fill="none" stroke="#000000" d="M2189.3457,-261.1484C2179.5646,-250.7018 2166.3625,-237.7019 2153.0923,-228 2145.2491,-222.2658 2136.3735,-216.884 2127.6853,-212.1172"/>
<polygon fill="#000000" stroke="#000000" points="2129.2252,-208.9722 2118.7502,-207.3832 2125.948,-215.1577 2129.2252,-208.9722"/>
<text text-anchor="middle" x="2237.0923" y="-231.8" font-family="Times,serif" font-size="14.00" fill="#000000">of_medical_history</text>
</g>
<!-- genetic_analysis -->
<g id="node8" class="node">
<title>genetic_analysis</title>
<ellipse fill="none" stroke="#000000" cx="1658.0923" cy="-366" rx="87.9851" ry="18"/>
<text text-anchor="middle" x="1658.0923" y="-362.3" font-family="Times,serif" font-size="14.00" fill="#000000">genetic_analysis</text>
</g>
<!-- genetic_analysis&#45;&gt;participant -->
<g id="edge13" class="edge">
<title>genetic_analysis&#45;&gt;participant</title>
<path fill="none" stroke="#000000" d="M1574.6975,-360.2362C1531.3159,-355.3149 1484.5659,-346.3149 1471.0923,-330 1457.5914,-313.6521 1455.222,-288.3365 1485.0923,-261 1523.4423,-225.9031 1862.4523,-203.775 2013.2764,-195.585"/>
<polygon fill="#000000" stroke="#000000" points="2013.5712,-199.0744 2023.3689,-195.0426 2013.1954,-192.0844 2013.5712,-199.0744"/>
<text text-anchor="middle" x="1555.0923" y="-275.3" font-family="Times,serif" font-size="14.00" fill="#000000">of_genetic_analysis</text>
</g>
<!-- genetic_analysis&#45;&gt;sample -->
<g id="edge12" class="edge">
<title>genetic_analysis&#45;&gt;sample</title>
<path fill="none" stroke="#000000" d="M1733.2759,-356.5426C1833.2752,-344.4223 2015.6401,-323.9135 2172.0923,-315 2305.8902,-307.3772 3246.0356,-319.8265 3378.0923,-297 3381.8058,-296.3581 3385.6105,-295.4976 3389.3935,-294.4995"/>
<polygon fill="#000000" stroke="#000000" points="3390.6735,-297.7713 3399.2793,-291.5915 3388.698,-291.0558 3390.6735,-297.7713"/>
<text text-anchor="middle" x="2242.0923" y="-318.8" font-family="Times,serif" font-size="14.00" fill="#000000">of_genetic_analysis</text>
</g>
<!-- publication -->
<g id="node9" class="node">
<title>publication</title>
<ellipse fill="none" stroke="#000000" cx="551.0923" cy="-105" rx="63.0888" ry="18"/>
<text text-anchor="middle" x="551.0923" y="-101.3" font-family="Times,serif" font-size="14.00" fill="#000000">publication</text>
</g>
<!-- publication&#45;&gt;study -->
<g id="edge27" class="edge">
<title>publication&#45;&gt;study</title>
<path fill="none" stroke="#000000" d="M541.3681,-87.0384C537.0046,-76.2902 534.3704,-63.0125 542.0923,-54 553.9935,-40.1096 663.2741,-27.9986 727.518,-22.0012"/>
<polygon fill="#000000" stroke="#000000" points="728.1658,-25.4565 737.804,-21.0571 727.526,-18.4858 728.1658,-25.4565"/>
<text text-anchor="middle" x="593.0923" y="-57.8" font-family="Times,serif" font-size="14.00" fill="#000000">of_publication</text>
</g>
<!-- generic_file -->
<g id="node10" class="node">
<title>generic_file</title>
<ellipse fill="none" stroke="#000000" cx="726.0923" cy="-366" rx="65.7887" ry="18"/>
<text text-anchor="middle" x="726.0923" y="-362.3" font-family="Times,serif" font-size="14.00" fill="#000000">generic_file</text>
</g>
<!-- generic_file&#45;&gt;study -->
<g id="edge2" class="edge">
<title>generic_file&#45;&gt;study</title>
<path fill="none" stroke="#000000" d="M695.2907,-350.0985C671.3172,-335.2752 642.0923,-310.7031 642.0923,-279 642.0923,-279 642.0923,-279 642.0923,-148.5 642.0923,-119.892 644.6224,-110.3915 661.0923,-87 679.163,-61.3347 710.1076,-43.4172 735.05,-32.2845"/>
<polygon fill="#000000" stroke="#000000" points="736.4519,-35.4917 744.2762,-28.348 733.7048,-29.0532 736.4519,-35.4917"/>
<text text-anchor="middle" x="695.0923" y="-188.3" font-family="Times,serif" font-size="14.00" fill="#000000">of_generic_file</text>
</g>
<!-- generic_file&#45;&gt;participant -->
<g id="edge4" class="edge">
<title>generic_file&#45;&gt;participant</title>
<path fill="none" stroke="#000000" d="M725.2177,-347.6375C725.1612,-324.1912 728.803,-283.9211 752.0923,-261 798.58,-215.2473 830.4043,-236.3598 895.0923,-228 1112.7669,-199.8692 1788.2847,-193.6365 2012.1742,-192.3292"/>
<polygon fill="#000000" stroke="#000000" points="2012.5107,-195.8275 2022.4906,-192.2706 2012.4708,-188.8276 2012.5107,-195.8275"/>
<text text-anchor="middle" x="805.0923" y="-275.3" font-family="Times,serif" font-size="14.00" fill="#000000">of_generic_file</text>
</g>
<!-- generic_file&#45;&gt;sample -->
<g id="edge3" class="edge">
<title>generic_file&#45;&gt;sample</title>
<path fill="none" stroke="#000000" d="M774.6808,-353.7953C785.3018,-351.5227 796.5271,-349.4197 807.0923,-348 1106.9746,-307.7017 1184.6416,-323.775 1487.0923,-315 1592.1084,-311.9532 3274.5192,-314.6148 3378.0923,-297 3381.8075,-296.3681 3385.6134,-295.5146 3389.3973,-294.5212"/>
<polygon fill="#000000" stroke="#000000" points="3390.6741,-297.7942 3399.2843,-291.6205 3388.7034,-291.0773 3390.6741,-297.7942"/>
<text text-anchor="middle" x="1540.0923" y="-318.8" font-family="Times,serif" font-size="14.00" fill="#000000">of_generic_file</text>
</g>
<!-- study_status -->
<g id="node11" class="node">
<title>study_status</title>
<ellipse fill="none" stroke="#000000" cx="740.0923" cy="-105" rx="70.3881" ry="18"/>
<text text-anchor="middle" x="740.0923" y="-101.3" font-family="Times,serif" font-size="14.00" fill="#000000">study_status</text>
</g>
<!-- study_status&#45;&gt;study -->
<g id="edge10" class="edge">
<title>study_status&#45;&gt;study</title>
<path fill="none" stroke="#000000" d="M720.2691,-87.4896C711.5752,-77.6282 704.6507,-65.1 711.0923,-54 716.4588,-44.7524 725.1919,-37.6797 734.4693,-32.3561"/>
<polygon fill="#000000" stroke="#000000" points="736.1257,-35.4402 743.4388,-27.7741 732.9413,-29.2065 736.1257,-35.4402"/>
<text text-anchor="middle" x="767.5923" y="-57.8" font-family="Times,serif" font-size="14.00" fill="#000000">of_study_status</text>
</g>
<!-- treatment_radiation -->
<g id="node12" class="node">
<title>treatment_radiation</title>
<ellipse fill="none" stroke="#000000" cx="3264.0923" cy="-279" rx="104.7816" ry="18"/>
<text text-anchor="middle" x="3264.0923" y="-275.3" font-family="Times,serif" font-size="14.00" fill="#000000">treatment_radiation</text>
</g>
<!-- treatment_radiation&#45;&gt;participant -->
<g id="edge40" class="edge">
<title>treatment_radiation&#45;&gt;participant</title>
<path fill="none" stroke="#000000" d="M3190.2246,-266.2013C3166.0292,-260.6605 3139.3918,-253.0784 3116.0923,-243 3104.8912,-238.1549 3104.7264,-231.6857 3093.0923,-228 3004.862,-200.0484 2374.906,-193.7115 2158.1444,-192.352"/>
<polygon fill="#000000" stroke="#000000" points="2157.8524,-188.8503 2147.8312,-192.2892 2157.8097,-195.8502 2157.8524,-188.8503"/>
<text text-anchor="middle" x="3199.0923" y="-231.8" font-family="Times,serif" font-size="14.00" fill="#000000">of_treatment_radiation</text>
</g>
<!-- cell_line -->
<g id="node13" class="node">
<title>cell_line</title>
<ellipse fill="none" stroke="#000000" cx="3400.0923" cy="-192" rx="49.2915" ry="18"/>
<text text-anchor="middle" x="3400.0923" y="-188.3" font-family="Times,serif" font-size="14.00" fill="#000000">cell_line</text>
</g>
<!-- cell_line&#45;&gt;study -->
<g id="edge32" class="edge">
<title>cell_line&#45;&gt;study</title>
<path fill="none" stroke="#000000" d="M3351.4441,-188.8475C3255.406,-182.6184 3034.6625,-168.2722 2849.0923,-156 2171.7232,-111.204 2002.4614,-98.796 1325.0923,-54 1137.9294,-41.6225 914.9868,-27.1352 820.2954,-20.9939"/>
<polygon fill="#000000" stroke="#000000" points="820.401,-17.4935 810.1955,-20.3389 819.948,-24.4788 820.401,-17.4935"/>
<text text-anchor="middle" x="2389.5923" y="-101.3" font-family="Times,serif" font-size="14.00" fill="#000000">of_cell_line</text>
</g>
<!-- cell_line&#45;&gt;sample -->
<g id="edge33" class="edge">
<title>cell_line&#45;&gt;sample</title>
<path fill="none" stroke="#000000" d="M3395.363,-210.0637C3393.6257,-220.0982 3392.9635,-232.6151 3397.0923,-243 3398.7816,-247.2489 3401.2365,-251.2863 3404.0661,-255.0166"/>
<polygon fill="#000000" stroke="#000000" points="3401.5046,-257.4048 3410.7071,-262.6552 3406.7874,-252.8121 3401.5046,-257.4048"/>
<text text-anchor="middle" x="3437.5923" y="-231.8" font-family="Times,serif" font-size="14.00" fill="#000000">of_cell_line</text>
</g>
<!-- synonym -->
<g id="node14" class="node">
<title>synonym</title>
<ellipse fill="none" stroke="#000000" cx="868.0923" cy="-366" rx="51.9908" ry="18"/>
<text text-anchor="middle" x="868.0923" y="-362.3" font-family="Times,serif" font-size="14.00" fill="#000000">synonym</text>
</g>
<!-- synonym&#45;&gt;study -->
<g id="edge7" class="edge">
<title>synonym&#45;&gt;study</title>
<path fill="none" stroke="#000000" d="M831.65,-352.9457C794.5053,-338.8128 740.7339,-315.7759 729.0923,-297 693.665,-239.8617 785.6992,-218.8879 819.0923,-123 829.2043,-93.9633 838.11,-81.3658 824.0923,-54 820.6055,-47.1931 815.1661,-41.3802 809.1368,-36.5371"/>
<polygon fill="#000000" stroke="#000000" points="810.8576,-33.4665 800.6773,-30.5317 806.8055,-39.1744 810.8576,-33.4665"/>
<text text-anchor="middle" x="834.5923" y="-188.3" font-family="Times,serif" font-size="14.00" fill="#000000">of_synonym</text>
</g>
<!-- synonym&#45;&gt;participant -->
<g id="edge5" class="edge">
<title>synonym&#45;&gt;participant</title>
<path fill="none" stroke="#000000" d="M863.5798,-347.7411C859.0083,-324.4067 855.3538,-284.2575 877.0923,-261 942.8061,-190.6941 995.2873,-237.0904 1091.0923,-228 1269.9031,-211.0337 1814.4784,-197.8693 2012.2967,-193.5313"/>
<polygon fill="#000000" stroke="#000000" points="2012.6568,-197.0244 2022.578,-193.307 2012.504,-190.0261 2012.6568,-197.0244"/>
<text text-anchor="middle" x="919.5923" y="-275.3" font-family="Times,serif" font-size="14.00" fill="#000000">of_synonym</text>
</g>
<!-- synonym&#45;&gt;sample -->
<g id="edge6" class="edge">
<title>synonym&#45;&gt;sample</title>
<path fill="none" stroke="#000000" d="M919.7999,-363.4545C1039.1351,-357.5782 1343.0209,-342.604 1597.0923,-330 1730.8715,-323.3634 1764.2127,-319.1485 1898.0923,-315 2062.47,-309.9064 3216.0003,-324.7876 3378.0923,-297 3381.8067,-296.3632 3385.612,-295.5063 3389.3954,-294.5106"/>
<polygon fill="#000000" stroke="#000000" points="3390.6738,-297.783 3399.2819,-291.6063 3388.7008,-291.0668 3390.6738,-297.783"/>
<text text-anchor="middle" x="1940.5923" y="-318.8" font-family="Times,serif" font-size="14.00" fill="#000000">of_synonym</text>
</g>
<!-- treatment_other -->
<g id="node15" class="node">
<title>treatment_other</title>
<ellipse fill="none" stroke="#000000" cx="1058.0923" cy="-279" rx="87.1846" ry="18"/>
<text text-anchor="middle" x="1058.0923" y="-275.3" font-family="Times,serif" font-size="14.00" fill="#000000">treatment_other</text>
</g>
<!-- treatment_other&#45;&gt;participant -->
<g id="edge29" class="edge">
<title>treatment_other&#45;&gt;participant</title>
<path fill="none" stroke="#000000" d="M1073.4466,-261.091C1084.7366,-249.3254 1101.1811,-234.8812 1119.0923,-228 1160.5853,-212.059 1795.1585,-197.8441 2012.6226,-193.4185"/>
<polygon fill="#000000" stroke="#000000" points="2012.7317,-196.9171 2022.6588,-193.2151 2012.5899,-189.9185 2012.7317,-196.9171"/>
<text text-anchor="middle" x="1188.5923" y="-231.8" font-family="Times,serif" font-size="14.00" fill="#000000">of_treatment_other</text>
</g>
<!-- pathology_file -->
<g id="node16" class="node">
<title>pathology_file</title>
<ellipse fill="none" stroke="#000000" cx="2765.0923" cy="-366" rx="76.0865" ry="18"/>
<text text-anchor="middle" x="2765.0923" y="-362.3" font-family="Times,serif" font-size="14.00" fill="#000000">pathology_file</text>
</g>
<!-- pathology_file&#45;&gt;sample -->
<g id="edge44" class="edge">
<title>pathology_file&#45;&gt;sample</title>
<path fill="none" stroke="#000000" d="M2787.3432,-348.5332C2803.8988,-336.6478 2827.6021,-321.8746 2851.0923,-315 2963.5545,-282.087 3262.8223,-318.0675 3378.0923,-297 3381.7995,-296.3225 3385.5997,-295.4371 3389.3798,-294.4225"/>
<polygon fill="#000000" stroke="#000000" points="3390.6709,-297.6902 3399.261,-291.4886 3388.6784,-290.9798 3390.6709,-297.6902"/>
<text text-anchor="middle" x="2912.0923" y="-318.8" font-family="Times,serif" font-size="14.00" fill="#000000">of_pathology_file</text>
</g>
<!-- pdx -->
<g id="node17" class="node">
<title>pdx</title>
<ellipse fill="none" stroke="#000000" cx="3625.0923" cy="-192" rx="27.8951" ry="18"/>
<text text-anchor="middle" x="3625.0923" y="-188.3" font-family="Times,serif" font-size="14.00" fill="#000000">pdx</text>
</g>
<!-- pdx&#45;&gt;study -->
<g id="edge42" class="edge">
<title>pdx&#45;&gt;study</title>
<path fill="none" stroke="#000000" d="M3597.3359,-188.8141C3564.2139,-185.0574 3507.1471,-178.7269 3458.0923,-174 3003.4474,-130.1903 2889.9326,-115.8246 2434.0923,-87 1795.6168,-46.6267 1017.4403,-24.4181 820.8852,-19.204"/>
<polygon fill="#000000" stroke="#000000" points="820.7201,-15.6986 810.6312,-18.9335 820.5354,-22.6961 820.7201,-15.6986"/>
<text text-anchor="middle" x="2941.0923" y="-101.3" font-family="Times,serif" font-size="14.00" fill="#000000">of_pdx</text>
</g>
<!-- pdx&#45;&gt;sample -->
<g id="edge41" class="edge">
<title>pdx&#45;&gt;sample</title>
<path fill="none" stroke="#000000" d="M3609.5271,-207.4076C3597.2905,-218.7321 3579.3188,-233.7073 3561.0923,-243 3536.4288,-255.5746 3506.8229,-264.2124 3482.0983,-269.8678"/>
<polygon fill="#000000" stroke="#000000" points="3481.2028,-266.4809 3472.1824,-272.0381 3482.6995,-273.319 3481.2028,-266.4809"/>
<text text-anchor="middle" x="3607.0923" y="-231.8" font-family="Times,serif" font-size="14.00" fill="#000000">of_pdx</text>
</g>
<!-- treatment_chemotherapy -->
<g id="node18" class="node">
<title>treatment_chemotherapy</title>
<ellipse fill="none" stroke="#000000" cx="1292.0923" cy="-279" rx="129.1772" ry="18"/>
<text text-anchor="middle" x="1292.0923" y="-275.3" font-family="Times,serif" font-size="14.00" fill="#000000">treatment_chemotherapy</text>
</g>
<!-- treatment_chemotherapy&#45;&gt;participant -->
<g id="edge16" class="edge">
<title>treatment_chemotherapy&#45;&gt;participant</title>
<path fill="none" stroke="#000000" d="M1272.905,-260.8812C1264.0037,-250.3399 1257.1594,-237.3342 1266.0923,-228 1291.6808,-201.262 1816.4951,-194.2071 2012.2878,-192.5019"/>
<polygon fill="#000000" stroke="#000000" points="2012.5069,-196.0003 2022.4768,-192.4155 2012.4474,-189.0005 2012.5069,-196.0003"/>
<text text-anchor="middle" x="1368.0923" y="-231.8" font-family="Times,serif" font-size="14.00" fill="#000000">of_treatment_chemotherapy</text>
</g>
<!-- radiology_file -->
<g id="node19" class="node">
<title>radiology_file</title>
<ellipse fill="none" stroke="#000000" cx="1813.0923" cy="-279" rx="73.387" ry="18"/>
<text text-anchor="middle" x="1813.0923" y="-275.3" font-family="Times,serif" font-size="14.00" fill="#000000">radiology_file</text>
</g>
<!-- radiology_file&#45;&gt;participant -->
<g id="edge1" class="edge">
<title>radiology_file&#45;&gt;participant</title>
<path fill="none" stroke="#000000" d="M1827.8656,-261.0356C1838.2047,-249.7153 1853.0039,-235.8098 1869.0923,-228 1894.4749,-215.6785 1963.0399,-205.5426 2016.1779,-199.2002"/>
<polygon fill="#000000" stroke="#000000" points="2016.719,-202.6609 2026.2441,-198.0216 2015.9049,-195.7084 2016.719,-202.6609"/>
<text text-anchor="middle" x="1928.0923" y="-231.8" font-family="Times,serif" font-size="14.00" fill="#000000">of_radiology_file</text>
</g>
<!-- consent_group -->
<g id="node20" class="node">
<title>consent_group</title>
<ellipse fill="none" stroke="#000000" cx="1523.0923" cy="-105" rx="79.0865" ry="18"/>
<text text-anchor="middle" x="1523.0923" y="-101.3" font-family="Times,serif" font-size="14.00" fill="#000000">consent_group</text>
</g>
<!-- consent_group&#45;&gt;study -->
<g id="edge11" class="edge">
<title>consent_group&#45;&gt;study</title>
<path fill="none" stroke="#000000" d="M1452.2909,-96.7761C1300.3045,-79.1221 946.3565,-38.0093 819.9653,-23.3284"/>
<polygon fill="#000000" stroke="#000000" points="820.192,-19.8313 809.8549,-22.154 819.3842,-26.7845 820.192,-19.8313"/>
<text text-anchor="middle" x="1257.5923" y="-57.8" font-family="Times,serif" font-size="14.00" fill="#000000">of_consent_group</text>
</g>
<!-- clinical_measure_file -->
<g id="node21" class="node">
<title>clinical_measure_file</title>
<ellipse fill="none" stroke="#000000" cx="3692.0923" cy="-366" rx="108.5808" ry="18"/>
<text text-anchor="middle" x="3692.0923" y="-362.3" font-family="Times,serif" font-size="14.00" fill="#000000">clinical_measure_file</text>
</g>
<!-- clinical_measure_file&#45;&gt;study -->
<g id="edge17" class="edge">
<title>clinical_measure_file&#45;&gt;study</title>
<path fill="none" stroke="#000000" d="M3733.3434,-349.3462C3760.8896,-335.197 3792.0923,-311.9069 3792.0923,-279 3792.0923,-279 3792.0923,-279 3792.0923,-105 3792.0923,-27.3059 1202.0844,-18.8986 820.751,-18.0819"/>
<polygon fill="#000000" stroke="#000000" points="820.6306,-14.5817 810.6233,-18.0609 820.616,-21.5817 820.6306,-14.5817"/>
<text text-anchor="middle" x="3878.0923" y="-188.3" font-family="Times,serif" font-size="14.00" fill="#000000">of_clinical_measure_file</text>
</g>
<!-- clinical_measure_file&#45;&gt;participant -->
<g id="edge18" class="edge">
<title>clinical_measure_file&#45;&gt;participant</title>
<path fill="none" stroke="#000000" d="M3691.5211,-347.6574C3690.2113,-336.7658 3686.76,-323.4712 3678.0923,-315 3654.5026,-291.9451 3632.9583,-316.1368 3606.0923,-297 3576.2719,-275.7588 3593.0695,-245.8297 3561.0923,-228 3530.134,-210.7385 2450.1876,-196.4237 2157.5818,-192.8557"/>
<polygon fill="#000000" stroke="#000000" points="2157.5498,-189.3551 2147.508,-192.7333 2157.4647,-196.3546 2157.5498,-189.3551"/>
<text text-anchor="middle" x="3692.0923" y="-275.3" font-family="Times,serif" font-size="14.00" fill="#000000">of_clinical_measure_file</text>
</g>
<!-- clinical_measure_file&#45;&gt;sample -->
<g id="edge19" class="edge">
<title>clinical_measure_file&#45;&gt;sample</title>
<path fill="none" stroke="#000000" d="M3601.4786,-356.0163C3570.4357,-350.6395 3536.0053,-342.4423 3506.0923,-330 3503.5594,-328.9464 3481.5539,-313.9233 3462.0296,-300.4538"/>
<polygon fill="#000000" stroke="#000000" points="3463.8128,-297.4317 3453.5961,-294.6265 3459.8335,-303.1907 3463.8128,-297.4317"/>
<text text-anchor="middle" x="3592.0923" y="-318.8" font-family="Times,serif" font-size="14.00" fill="#000000">of_clinical_measure_file</text>
</g>
<!-- diagnosis -->
<g id="node22" class="node">
<title>diagnosis</title>
<ellipse fill="none" stroke="#000000" cx="1950.0923" cy="-366" rx="54.6905" ry="18"/>
<text text-anchor="middle" x="1950.0923" y="-362.3" font-family="Times,serif" font-size="14.00" fill="#000000">diagnosis</text>
</g>
<!-- diagnosis&#45;&gt;participant -->
<g id="edge21" class="edge">
<title>diagnosis&#45;&gt;participant</title>
<path fill="none" stroke="#000000" d="M1929.2447,-349.0943C1913.4617,-337.3197 1890.7053,-322.4421 1868.0923,-315 1769.9962,-282.716 1575.276,-339.7444 1642.0923,-261 1665.8864,-232.9582 1895.9886,-208.7143 2014.8174,-197.9438"/>
<polygon fill="#000000" stroke="#000000" points="2015.2693,-201.4173 2024.916,-197.0366 2014.6429,-194.4454 2015.2693,-201.4173"/>
<text text-anchor="middle" x="1686.5923" y="-275.3" font-family="Times,serif" font-size="14.00" fill="#000000">of_diagnosis</text>
</g>
<!-- diagnosis&#45;&gt;sample -->
<g id="edge20" class="edge">
<title>diagnosis&#45;&gt;sample</title>
<path fill="none" stroke="#000000" d="M2001.9683,-360.1741C2102.1511,-349.1881 2329.2969,-325.5672 2521.0923,-315 2711.2903,-304.5208 3190.4888,-330.0152 3378.0923,-297 3381.8038,-296.3468 3385.6072,-295.4785 3389.3893,-294.4751"/>
<polygon fill="#000000" stroke="#000000" points="3390.6728,-297.7457 3399.2737,-291.5589 3388.6919,-291.0318 3390.6728,-297.7457"/>
<text text-anchor="middle" x="2565.5923" y="-318.8" font-family="Times,serif" font-size="14.00" fill="#000000">of_diagnosis</text>
</g>
<!-- participant&#45;&gt;consent_group -->
<g id="edge36" class="edge">
<title>participant&#45;&gt;consent_group</title>
<path fill="none" stroke="#000000" d="M2029.925,-183.4599C1928.8503,-167.8131 1713.8291,-134.5269 1599.033,-116.7559"/>
<polygon fill="#000000" stroke="#000000" points="1599.3365,-113.2613 1588.9188,-115.1902 1598.2656,-120.1789 1599.3365,-113.2613"/>
<text text-anchor="middle" x="1887.5923" y="-144.8" font-family="Times,serif" font-size="14.00" fill="#000000">of_participant</text>
</g>
<!-- exposure -->
<g id="node24" class="node">
<title>exposure</title>
<ellipse fill="none" stroke="#000000" cx="2528.0923" cy="-279" rx="53.0913" ry="18"/>
<text text-anchor="middle" x="2528.0923" y="-275.3" font-family="Times,serif" font-size="14.00" fill="#000000">exposure</text>
</g>
<!-- exposure&#45;&gt;participant -->
<g id="edge30" class="edge">
<title>exposure&#45;&gt;participant</title>
<path fill="none" stroke="#000000" d="M2488.8252,-266.8104C2451.0277,-255.4439 2392.1017,-238.6824 2340.0923,-228 2277.5809,-215.1606 2205.5052,-205.4473 2153.9633,-199.3655"/>
<polygon fill="#000000" stroke="#000000" points="2154.2754,-195.8783 2143.9376,-198.1977 2153.4654,-202.8313 2154.2754,-195.8783"/>
<text text-anchor="middle" x="2445.5923" y="-231.8" font-family="Times,serif" font-size="14.00" fill="#000000">of_exposure</text>
</g>
<!-- sample&#45;&gt;cell_line -->
<g id="edge24" class="edge">
<title>sample&#45;&gt;cell_line</title>
<path fill="none" stroke="#000000" d="M3460.343,-265.2861C3476.4287,-255.7604 3491.4042,-242.258 3482.0923,-228 3475.1827,-217.4204 3464.3955,-209.9298 3452.8893,-204.6333"/>
<polygon fill="#000000" stroke="#000000" points="3454.1494,-201.3674 3443.5677,-200.8388 3451.5102,-207.8508 3454.1494,-201.3674"/>
<text text-anchor="middle" x="3520.5923" y="-231.8" font-family="Times,serif" font-size="14.00" fill="#000000">of_sample</text>
</g>
<!-- sample&#45;&gt;pdx -->
<g id="edge25" class="edge">
<title>sample&#45;&gt;pdx</title>
<path fill="none" stroke="#000000" d="M3473.2752,-273.4596C3541.9897,-264.337 3670.8275,-246.7841 3674.0923,-243 3684.485,-230.9542 3671.8051,-218.0372 3656.7459,-208.2167"/>
<polygon fill="#000000" stroke="#000000" points="3658.1359,-204.9689 3647.7608,-202.8224 3654.5328,-210.9704 3658.1359,-204.9689"/>
<text text-anchor="middle" x="3713.5923" y="-231.8" font-family="Times,serif" font-size="14.00" fill="#000000">of_sample</text>
</g>
<!-- sample&#45;&gt;participant -->
<g id="edge26" class="edge">
<title>sample&#45;&gt;participant</title>
<path fill="none" stroke="#000000" d="M3397.231,-267.2725C3390.8862,-265.1397 3384.2983,-262.9686 3378.0923,-261 3351.1485,-252.4532 3343.6847,-252.5841 3317.0923,-243 3301.1708,-237.2618 3298.6176,-231.6517 3282.0923,-228 3172.7688,-203.8424 2399.9406,-194.8505 2157.5943,-192.6062"/>
<polygon fill="#000000" stroke="#000000" points="2157.515,-189.1055 2147.4834,-192.5137 2157.4509,-196.1052 2157.515,-189.1055"/>
<text text-anchor="middle" x="3353.5923" y="-231.8" font-family="Times,serif" font-size="14.00" fill="#000000">of_sample</text>
</g>
<!-- laboratory_test -->
<g id="node26" class="node">
<title>laboratory_test</title>
<ellipse fill="none" stroke="#000000" cx="2495.0923" cy="-366" rx="81.7856" ry="18"/>
<text text-anchor="middle" x="2495.0923" y="-362.3" font-family="Times,serif" font-size="14.00" fill="#000000">laboratory_test</text>
</g>
<!-- laboratory_test&#45;&gt;participant -->
<g id="edge39" class="edge">
<title>laboratory_test&#45;&gt;participant</title>
<path fill="none" stroke="#000000" d="M2424.7743,-356.6325C2389.9529,-350.6538 2352.7025,-341.7943 2340.0923,-330 2305.4883,-297.6349 2344.7899,-259.1547 2309.0923,-228 2286.8364,-208.5764 2213.7623,-199.5553 2157.0607,-195.4148"/>
<polygon fill="#000000" stroke="#000000" points="2157.2569,-191.9201 2147.0389,-194.7206 2156.7731,-198.9033 2157.2569,-191.9201"/>
<text text-anchor="middle" x="2390.5923" y="-275.3" font-family="Times,serif" font-size="14.00" fill="#000000">of_laboratory_test</text>
</g>
<!-- laboratory_test&#45;&gt;sample -->
<g id="edge38" class="edge">
<title>laboratory_test&#45;&gt;sample</title>
<path fill="none" stroke="#000000" d="M2539.2803,-350.7898C2576.9819,-338.596 2632.8997,-322.3497 2683.0923,-315 2835.9583,-292.6157 3226.0002,-324.1496 3378.0923,-297 3381.8022,-296.3377 3385.6044,-295.4631 3389.3858,-294.4555"/>
<polygon fill="#000000" stroke="#000000" points="3390.6721,-297.725 3399.269,-291.5327 3388.687,-291.0124 3390.6721,-297.725"/>
<text text-anchor="middle" x="2748.5923" y="-318.8" font-family="Times,serif" font-size="14.00" fill="#000000">of_laboratory_test</text>
</g>
<!-- survival -->
<g id="node27" class="node">
<title>survival</title>
<ellipse fill="none" stroke="#000000" cx="2647.0923" cy="-279" rx="48.1917" ry="18"/>
<text text-anchor="middle" x="2647.0923" y="-275.3" font-family="Times,serif" font-size="14.00" fill="#000000">survival</text>
</g>
<!-- survival&#45;&gt;participant -->
<g id="edge43" class="edge">
<title>survival&#45;&gt;participant</title>
<path fill="none" stroke="#000000" d="M2614.3543,-265.6916C2583.586,-253.78 2535.9801,-236.8683 2493.0923,-228 2430.7971,-215.1187 2256.2862,-202.6583 2156.8434,-196.3225"/>
<polygon fill="#000000" stroke="#000000" points="2156.7771,-192.8114 2146.5761,-195.6731 2156.3352,-199.7974 2156.7771,-192.8114"/>
<text text-anchor="middle" x="2587.5923" y="-231.8" font-family="Times,serif" font-size="14.00" fill="#000000">of_survival</text>
</g>
<!-- treatment_response -->
<g id="node28" class="node">
<title>treatment_response</title>
<ellipse fill="none" stroke="#000000" cx="2818.0923" cy="-279" rx="104.7816" ry="18"/>
<text text-anchor="middle" x="2818.0923" y="-275.3" font-family="Times,serif" font-size="14.00" fill="#000000">treatment_response</text>
</g>
<!-- treatment_response&#45;&gt;participant -->
<g id="edge31" class="edge">
<title>treatment_response&#45;&gt;participant</title>
<path fill="none" stroke="#000000" d="M2769.8637,-262.9773C2732.4468,-251.25 2679.0492,-236.037 2631.0923,-228 2542.0382,-213.0756 2284.1623,-200.4649 2157.3011,-194.9615"/>
<polygon fill="#000000" stroke="#000000" points="2157.4301,-191.4639 2147.2886,-194.5301 2157.1287,-198.4574 2157.4301,-191.4639"/>
<text text-anchor="middle" x="2781.0923" y="-231.8" font-family="Times,serif" font-size="14.00" fill="#000000">of_treatment_response</text>
</g>
<!-- cytogenomic_file -->
<g id="node29" class="node">
<title>cytogenomic_file</title>
<ellipse fill="none" stroke="#000000" cx="3133.0923" cy="-366" rx="89.8845" ry="18"/>
<text text-anchor="middle" x="3133.0923" y="-362.3" font-family="Times,serif" font-size="14.00" fill="#000000">cytogenomic_file</text>
</g>
<!-- cytogenomic_file&#45;&gt;sample -->
<g id="edge35" class="edge">
<title>cytogenomic_file&#45;&gt;sample</title>
<path fill="none" stroke="#000000" d="M3133.8693,-347.8208C3135.3797,-336.5609 3139.2933,-322.8051 3149.0923,-315 3189.02,-283.1966 3328.0938,-307.2873 3378.0923,-297 3381.6824,-296.2613 3385.3652,-295.3496 3389.0353,-294.3317"/>
<polygon fill="#000000" stroke="#000000" points="3390.0833,-297.6715 3398.6488,-291.4359 3388.0642,-290.969 3390.0833,-297.6715"/>
<text text-anchor="middle" x="3220.5923" y="-318.8" font-family="Times,serif" font-size="14.00" fill="#000000">of_cytogenomic_file</text>
</g>
<!-- family_relationship -->
<g id="node30" class="node">
<title>family_relationship</title>
<ellipse fill="none" stroke="#000000" cx="3041.0923" cy="-279" rx="100.1823" ry="18"/>
<text text-anchor="middle" x="3041.0923" y="-275.3" font-family="Times,serif" font-size="14.00" fill="#000000">family_relationship</text>
</g>
<!-- family_relationship&#45;&gt;participant -->
<g id="edge34" class="edge">
<title>family_relationship&#45;&gt;participant</title>
<path fill="none" stroke="#000000" d="M2996.978,-262.7895C2962.4234,-250.8797 2912.8691,-235.5163 2868.0923,-228 2732.7796,-205.2862 2324.8029,-196.0187 2157.6799,-193.1075"/>
<polygon fill="#000000" stroke="#000000" points="2157.5627,-189.6051 2147.5041,-192.9329 2157.4426,-196.604 2157.5627,-189.6051"/>
<text text-anchor="middle" x="3009.5923" y="-231.8" font-family="Times,serif" font-size="14.00" fill="#000000">of_family_relationship</text>
</g>
<!-- methylation_array_file -->
<g id="node31" class="node">
<title>methylation_array_file</title>
<ellipse fill="none" stroke="#000000" cx="3356.0923" cy="-366" rx="115.8798" ry="18"/>
<text text-anchor="middle" x="3356.0923" y="-362.3" font-family="Times,serif" font-size="14.00" fill="#000000">methylation_array_file</text>
</g>
<!-- methylation_array_file&#45;&gt;sample -->
<g id="edge15" class="edge">
<title>methylation_array_file&#45;&gt;sample</title>
<path fill="none" stroke="#000000" d="M3317.5337,-348.7985C3302.1556,-339.5264 3290.1867,-327.4518 3300.0923,-315 3322.2413,-287.1576 3343.8717,-306.7329 3378.0923,-297 3381.2702,-296.0961 3384.5389,-295.1149 3387.8181,-294.0927"/>
<polygon fill="#000000" stroke="#000000" points="3389.1619,-297.337 3397.6075,-290.9399 3387.016,-290.674 3389.1619,-297.337"/>
<text text-anchor="middle" x="3391.5923" y="-318.8" font-family="Times,serif" font-size="14.00" fill="#000000">of_methylation_array_file</text>
</g>
<!-- study_funding -->
<g id="node32" class="node">
<title>study_funding</title>
<ellipse fill="none" stroke="#000000" cx="3897.0923" cy="-105" rx="77.1866" ry="18"/>
<text text-anchor="middle" x="3897.0923" y="-101.3" font-family="Times,serif" font-size="14.00" fill="#000000">study_funding</text>
</g>
<!-- study_funding&#45;&gt;study -->
<g id="edge14" class="edge">
<title>study_funding&#45;&gt;study</title>
<path fill="none" stroke="#000000" d="M3873.8071,-87.62C3856.2174,-75.6096 3830.936,-60.6448 3806.0923,-54 3730.7733,-33.8548 1196.9458,-20.1584 820.623,-18.2333"/>
<polygon fill="#000000" stroke="#000000" points="820.6402,-14.7334 810.6224,-18.1823 820.6044,-21.7333 820.6402,-14.7334"/>
<text text-anchor="middle" x="3904.0923" y="-57.8" font-family="Times,serif" font-size="14.00" fill="#000000">of_study_funding</text>
</g>
</g>
</svg>
