<svg width="2872pt" height="392pt"
 viewBox="0.00 0.00 2872.14 392.00" xmlns="http://www.w3.org/2000/svg" xmlns:xlink="http://www.w3.org/1999/xlink">
<g id="graph0" class="graph" transform="scale(1 1) rotate(0) translate(4 388)">
<title>Perl</title>
<polygon fill="#ffffff" stroke="transparent" points="-4,4 -4,-388 2868.1378,-388 2868.1378,4 -4,4"/>
<!-- study_arm -->
<g id="node1" class="node">
<title>study_arm</title>
<ellipse fill="none" stroke="#000000" cx="59.7947" cy="-105" rx="59.5901" ry="18"/>
<text text-anchor="middle" x="59.7947" y="-101.3" font-family="Times,serif" font-size="14.00" fill="#000000">study_arm</text>
</g>
<!-- study -->
<g id="node19" class="node">
<title>study</title>
<ellipse fill="none" stroke="#000000" cx="945.7947" cy="-18" rx="36.2938" ry="18"/>
<text text-anchor="middle" x="945.7947" y="-14.3" font-family="Times,serif" font-size="14.00" fill="#000000">study</text>
</g>
<!-- study_arm&#45;&gt;study -->
<g id="edge14" class="edge">
<title>study_arm&#45;&gt;study</title>
<path fill="none" stroke="#000000" d="M54.5148,-86.5738C52.606,-75.6508 52.6163,-62.3524 60.7947,-54 90.3297,-23.8366 720.5566,-18.9318 899.058,-18.147"/>
<polygon fill="#000000" stroke="#000000" points="899.1941,-21.6465 909.1794,-18.1048 899.1649,-14.6466 899.1941,-21.6465"/>
<text text-anchor="middle" x="109.2947" y="-57.8" font-family="Times,serif" font-size="14.00" fill="#000000">of_study_arm</text>
</g>
<!-- exposure -->
<g id="node2" class="node">
<title>exposure</title>
<ellipse fill="none" stroke="#000000" cx="1791.7947" cy="-279" rx="53.0913" ry="18"/>
<text text-anchor="middle" x="1791.7947" y="-275.3" font-family="Times,serif" font-size="14.00" fill="#000000">exposure</text>
</g>
<!-- participant -->
<g id="node11" class="node">
<title>participant</title>
<ellipse fill="none" stroke="#000000" cx="1279.7947" cy="-192" rx="62.2891" ry="18"/>
<text text-anchor="middle" x="1279.7947" y="-188.3" font-family="Times,serif" font-size="14.00" fill="#000000">participant</text>
</g>
<!-- exposure&#45;&gt;participant -->
<g id="edge1" class="edge">
<title>exposure&#45;&gt;participant</title>
<path fill="none" stroke="#000000" d="M1772.6738,-262.1017C1758.1456,-250.3309 1737.0914,-235.4546 1715.7947,-228 1650.6882,-205.2103 1458.4732,-196.637 1352.3023,-193.5792"/>
<polygon fill="#000000" stroke="#000000" points="1352.3973,-190.0806 1342.3035,-193.3002 1352.202,-197.0779 1352.3973,-190.0806"/>
<text text-anchor="middle" x="1789.2947" y="-231.8" font-family="Times,serif" font-size="14.00" fill="#000000">of_exposure</text>
</g>
<!-- medical_history -->
<g id="node3" class="node">
<title>medical_history</title>
<ellipse fill="none" stroke="#000000" cx="2123.7947" cy="-279" rx="85.2851" ry="18"/>
<text text-anchor="middle" x="2123.7947" y="-275.3" font-family="Times,serif" font-size="14.00" fill="#000000">medical_history</text>
</g>
<!-- medical_history&#45;&gt;participant -->
<g id="edge21" class="edge">
<title>medical_history&#45;&gt;participant</title>
<path fill="none" stroke="#000000" d="M2064.1672,-266.0719C2033.0436,-259.2831 1994.3473,-250.779 1959.7947,-243 1930.8705,-236.4882 1924.1418,-232.2145 1894.7947,-228 1791.9637,-213.2325 1491.0554,-200.1471 1351.9028,-194.6947"/>
<polygon fill="#000000" stroke="#000000" points="1351.8941,-191.1918 1341.7654,-194.2998 1351.6216,-198.1865 1351.8941,-191.1918"/>
<text text-anchor="middle" x="2027.7947" y="-231.8" font-family="Times,serif" font-size="14.00" fill="#000000">of_medical_history</text>
</g>
<!-- consent_group -->
<g id="node4" class="node">
<title>consent_group</title>
<ellipse fill="none" stroke="#000000" cx="945.7947" cy="-105" rx="79.0865" ry="18"/>
<text text-anchor="middle" x="945.7947" y="-101.3" font-family="Times,serif" font-size="14.00" fill="#000000">consent_group</text>
</g>
<!-- consent_group&#45;&gt;study -->
<g id="edge15" class="edge">
<title>consent_group&#45;&gt;study</title>
<path fill="none" stroke="#000000" d="M945.7947,-86.9735C945.7947,-75.1918 945.7947,-59.5607 945.7947,-46.1581"/>
<polygon fill="#000000" stroke="#000000" points="949.2948,-46.0033 945.7947,-36.0034 942.2948,-46.0034 949.2948,-46.0033"/>
<text text-anchor="middle" x="1009.2947" y="-57.8" font-family="Times,serif" font-size="14.00" fill="#000000">of_consent_group</text>
</g>
<!-- diagnosis -->
<g id="node5" class="node">
<title>diagnosis</title>
<ellipse fill="none" stroke="#000000" cx="1332.7947" cy="-366" rx="54.6905" ry="18"/>
<text text-anchor="middle" x="1332.7947" y="-362.3" font-family="Times,serif" font-size="14.00" fill="#000000">diagnosis</text>
</g>
<!-- diagnosis&#45;&gt;participant -->
<g id="edge19" class="edge">
<title>diagnosis&#45;&gt;participant</title>
<path fill="none" stroke="#000000" d="M1286.1433,-356.3384C1233.1771,-344.3115 1151.7636,-322.2488 1133.7947,-297 1104.3966,-255.6915 1171.0453,-224.5393 1223.7166,-207.2805"/>
<polygon fill="#000000" stroke="#000000" points="1224.8892,-210.5805 1233.3625,-204.2203 1222.7723,-203.9083 1224.8892,-210.5805"/>
<text text-anchor="middle" x="1178.2947" y="-275.3" font-family="Times,serif" font-size="14.00" fill="#000000">of_diagnosis</text>
</g>
<!-- sample -->
<g id="node24" class="node">
<title>sample</title>
<ellipse fill="none" stroke="#000000" cx="2270.7947" cy="-279" rx="44.393" ry="18"/>
<text text-anchor="middle" x="2270.7947" y="-275.3" font-family="Times,serif" font-size="14.00" fill="#000000">sample</text>
</g>
<!-- diagnosis&#45;&gt;sample -->
<g id="edge20" class="edge">
<title>diagnosis&#45;&gt;sample</title>
<path fill="none" stroke="#000000" d="M1377.9151,-355.5776C1432.8313,-343.3982 1528.5497,-323.7938 1611.7947,-315 1745.7753,-300.8467 2085.2104,-320.9274 2217.7947,-297 2221.5034,-296.3307 2225.3047,-295.4511 2229.0855,-294.4403"/>
<polygon fill="#000000" stroke="#000000" points="2230.374,-297.709 2238.9678,-291.5124 2228.3855,-290.9974 2230.374,-297.709"/>
<text text-anchor="middle" x="1656.2947" y="-318.8" font-family="Times,serif" font-size="14.00" fill="#000000">of_diagnosis</text>
</g>
<!-- treatment -->
<g id="node6" class="node">
<title>treatment</title>
<ellipse fill="none" stroke="#000000" cx="437.7947" cy="-279" rx="57.6901" ry="18"/>
<text text-anchor="middle" x="437.7947" y="-275.3" font-family="Times,serif" font-size="14.00" fill="#000000">treatment</text>
</g>
<!-- treatment&#45;&gt;participant -->
<g id="edge34" class="edge">
<title>treatment&#45;&gt;participant</title>
<path fill="none" stroke="#000000" d="M428.8945,-261.1823C424.8142,-250.2138 422.5078,-236.6457 430.7947,-228 457.4632,-200.1767 1006.4164,-193.7891 1207.1233,-192.3813"/>
<polygon fill="#000000" stroke="#000000" points="1207.296,-195.8803 1217.272,-192.3123 1207.2484,-188.8805 1207.296,-195.8803"/>
<text text-anchor="middle" x="477.7947" y="-231.8" font-family="Times,serif" font-size="14.00" fill="#000000">of_treatment</text>
</g>
<!-- study_admin -->
<g id="node7" class="node">
<title>study_admin</title>
<ellipse fill="none" stroke="#000000" cx="269.7947" cy="-105" rx="70.3881" ry="18"/>
<text text-anchor="middle" x="269.7947" y="-101.3" font-family="Times,serif" font-size="14.00" fill="#000000">study_admin</text>
</g>
<!-- study_admin&#45;&gt;study -->
<g id="edge16" class="edge">
<title>study_admin&#45;&gt;study</title>
<path fill="none" stroke="#000000" d="M273.0368,-86.812C276.0903,-75.3973 281.9006,-61.4707 292.7947,-54 317.7167,-36.9096 752.9058,-23.3446 898.6629,-19.2633"/>
<polygon fill="#000000" stroke="#000000" points="899.152,-22.7511 909.0509,-18.9748 898.9576,-15.7538 899.152,-22.7511"/>
<text text-anchor="middle" x="349.2947" y="-57.8" font-family="Times,serif" font-size="14.00" fill="#000000">of_study_admin</text>
</g>
<!-- publication -->
<g id="node8" class="node">
<title>publication</title>
<ellipse fill="none" stroke="#000000" cx="420.7947" cy="-105" rx="63.0888" ry="18"/>
<text text-anchor="middle" x="420.7947" y="-101.3" font-family="Times,serif" font-size="14.00" fill="#000000">publication</text>
</g>
<!-- publication&#45;&gt;study -->
<g id="edge40" class="edge">
<title>publication&#45;&gt;study</title>
<path fill="none" stroke="#000000" d="M412.2798,-86.7468C408.6061,-75.8888 406.7597,-62.5981 414.7947,-54 431.2284,-36.4145 772.7712,-23.604 899.2365,-19.4475"/>
<polygon fill="#000000" stroke="#000000" points="899.4994,-22.9409 909.3803,-19.1176 899.2718,-15.9446 899.4994,-22.9409"/>
<text text-anchor="middle" x="465.7947" y="-57.8" font-family="Times,serif" font-size="14.00" fill="#000000">of_publication</text>
</g>
<!-- generic_file -->
<g id="node9" class="node">
<title>generic_file</title>
<ellipse fill="none" stroke="#000000" cx="255.7947" cy="-366" rx="65.7887" ry="18"/>
<text text-anchor="middle" x="255.7947" y="-362.3" font-family="Times,serif" font-size="14.00" fill="#000000">generic_file</text>
</g>
<!-- generic_file&#45;&gt;participant -->
<g id="edge31" class="edge">
<title>generic_file&#45;&gt;participant</title>
<path fill="none" stroke="#000000" d="M251.4786,-347.9197C247.1194,-324.7784 243.6942,-284.8377 264.7947,-261 312.0546,-207.6095 351.0445,-236.8581 421.7947,-228 572.8981,-209.0815 1029.2029,-197.4323 1207.3967,-193.4977"/>
<polygon fill="#000000" stroke="#000000" points="1207.5348,-196.9956 1217.4556,-193.2773 1207.3813,-189.9973 1207.5348,-196.9956"/>
<text text-anchor="middle" x="317.7947" y="-275.3" font-family="Times,serif" font-size="14.00" fill="#000000">of_generic_file</text>
</g>
<!-- generic_file&#45;&gt;study -->
<g id="edge32" class="edge">
<title>generic_file&#45;&gt;study</title>
<path fill="none" stroke="#000000" d="M224.9932,-350.0985C201.0196,-335.2752 171.7947,-310.7031 171.7947,-279 171.7947,-279 171.7947,-279 171.7947,-105 171.7947,-70.6637 208.5607,-68.5491 276.7947,-54 395.8587,-28.6128 767.5206,-20.673 899.0721,-18.6219"/>
<polygon fill="#000000" stroke="#000000" points="899.276,-22.1193 909.2217,-18.468 899.1698,-15.1201 899.276,-22.1193"/>
<text text-anchor="middle" x="224.7947" y="-188.3" font-family="Times,serif" font-size="14.00" fill="#000000">of_generic_file</text>
</g>
<!-- generic_file&#45;&gt;sample -->
<g id="edge30" class="edge">
<title>generic_file&#45;&gt;sample</title>
<path fill="none" stroke="#000000" d="M315.4869,-358.293C410.2854,-346.4408 601.1801,-324.1516 763.7947,-315 925.1074,-305.9216 2058.5528,-324.3169 2217.7947,-297 2221.509,-296.3628 2225.3143,-295.5056 2229.0977,-294.5097"/>
<polygon fill="#000000" stroke="#000000" points="2230.3762,-297.7821 2238.9841,-291.6051 2228.403,-291.0659 2230.3762,-297.7821"/>
<text text-anchor="middle" x="816.7947" y="-318.8" font-family="Times,serif" font-size="14.00" fill="#000000">of_generic_file</text>
</g>
<!-- pathology_file -->
<g id="node10" class="node">
<title>pathology_file</title>
<ellipse fill="none" stroke="#000000" cx="2264.7947" cy="-366" rx="76.0865" ry="18"/>
<text text-anchor="middle" x="2264.7947" y="-362.3" font-family="Times,serif" font-size="14.00" fill="#000000">pathology_file</text>
</g>
<!-- pathology_file&#45;&gt;sample -->
<g id="edge35" class="edge">
<title>pathology_file&#45;&gt;sample</title>
<path fill="none" stroke="#000000" d="M2258.9728,-348.0172C2256.5585,-338.2298 2254.7456,-325.9229 2256.7947,-315 2257.3279,-312.1576 2258.0788,-309.2513 2258.9588,-306.3832"/>
<polygon fill="#000000" stroke="#000000" points="2262.2683,-307.5226 2262.32,-296.9279 2255.6727,-305.1779 2262.2683,-307.5226"/>
<text text-anchor="middle" x="2317.7947" y="-318.8" font-family="Times,serif" font-size="14.00" fill="#000000">of_pathology_file</text>
</g>
<!-- participant&#45;&gt;consent_group -->
<g id="edge39" class="edge">
<title>participant&#45;&gt;consent_group</title>
<path fill="none" stroke="#000000" d="M1233.3534,-179.903C1174.6183,-164.6037 1073.2807,-138.2074 1007.9293,-121.1848"/>
<polygon fill="#000000" stroke="#000000" points="1008.7194,-117.7738 998.16,-118.6401 1006.9549,-124.5478 1008.7194,-117.7738"/>
<text text-anchor="middle" x="1183.2947" y="-144.8" font-family="Times,serif" font-size="14.00" fill="#000000">of_participant</text>
</g>
<!-- family_relationship -->
<g id="node12" class="node">
<title>family_relationship</title>
<ellipse fill="none" stroke="#000000" cx="780.7947" cy="-279" rx="100.1823" ry="18"/>
<text text-anchor="middle" x="780.7947" y="-275.3" font-family="Times,serif" font-size="14.00" fill="#000000">family_relationship</text>
</g>
<!-- family_relationship&#45;&gt;participant -->
<g id="edge10" class="edge">
<title>family_relationship&#45;&gt;participant</title>
<path fill="none" stroke="#000000" d="M766.266,-261.0741C759.3905,-250.3393 754.3406,-237.0632 762.7947,-228 777.7257,-211.9932 1068.7857,-199.517 1207.4787,-194.4551"/>
<polygon fill="#000000" stroke="#000000" points="1207.7312,-197.9483 1217.5981,-194.089 1207.4781,-190.9529 1207.7312,-197.9483"/>
<text text-anchor="middle" x="842.2947" y="-231.8" font-family="Times,serif" font-size="14.00" fill="#000000">of_family_relationship</text>
</g>
<!-- clinical_measure_file -->
<g id="node13" class="node">
<title>clinical_measure_file</title>
<ellipse fill="none" stroke="#000000" cx="596.7947" cy="-366" rx="108.5808" ry="18"/>
<text text-anchor="middle" x="596.7947" y="-362.3" font-family="Times,serif" font-size="14.00" fill="#000000">clinical_measure_file</text>
</g>
<!-- clinical_measure_file&#45;&gt;participant -->
<g id="edge6" class="edge">
<title>clinical_measure_file&#45;&gt;participant</title>
<path fill="none" stroke="#000000" d="M596.7805,-347.837C597.8172,-336.5838 601.185,-322.8293 610.7947,-315 634.878,-295.3787 860.1066,-306.1443 889.7947,-297 919.8802,-287.7333 921.4441,-272.3821 950.7947,-261 1037.356,-227.4317 1143.383,-208.9382 1211.2562,-199.7468"/>
<polygon fill="#000000" stroke="#000000" points="1211.9454,-203.1862 1221.3995,-198.404 1211.0267,-196.2467 1211.9454,-203.1862"/>
<text text-anchor="middle" x="1036.7947" y="-275.3" font-family="Times,serif" font-size="14.00" fill="#000000">of_clinical_measure_file</text>
</g>
<!-- clinical_measure_file&#45;&gt;study -->
<g id="edge5" class="edge">
<title>clinical_measure_file&#45;&gt;study</title>
<path fill="none" stroke="#000000" d="M494.251,-359.9535C402.1622,-352.1277 276.8139,-334.7106 245.7947,-297 235.6305,-284.6432 236.5198,-274.0375 245.7947,-261 325.5474,-148.8929 760.7119,-54.4816 901.6925,-26.4594"/>
<polygon fill="#000000" stroke="#000000" points="902.5809,-29.8516 911.7137,-24.4811 901.2252,-22.9841 902.5809,-29.8516"/>
<text text-anchor="middle" x="459.7947" y="-188.3" font-family="Times,serif" font-size="14.00" fill="#000000">of_clinical_measure_file</text>
</g>
<!-- clinical_measure_file&#45;&gt;sample -->
<g id="edge7" class="edge">
<title>clinical_measure_file&#45;&gt;sample</title>
<path fill="none" stroke="#000000" d="M677.5902,-353.9273C764.0247,-341.6015 905.2479,-323.1557 1027.7947,-315 1159.7402,-306.2189 2087.4919,-319.5368 2217.7947,-297 2221.5082,-296.3577 2225.3128,-295.497 2229.0958,-294.4987"/>
<polygon fill="#000000" stroke="#000000" points="2230.3759,-297.7705 2238.9816,-291.5904 2228.4003,-291.055 2230.3759,-297.7705"/>
<text text-anchor="middle" x="1113.7947" y="-318.8" font-family="Times,serif" font-size="14.00" fill="#000000">of_clinical_measure_file</text>
</g>
<!-- study_personnel -->
<g id="node14" class="node">
<title>study_personnel</title>
<ellipse fill="none" stroke="#000000" cx="1129.7947" cy="-105" rx="87.1846" ry="18"/>
<text text-anchor="middle" x="1129.7947" y="-101.3" font-family="Times,serif" font-size="14.00" fill="#000000">study_personnel</text>
</g>
<!-- study_personnel&#45;&gt;study -->
<g id="edge4" class="edge">
<title>study_personnel&#45;&gt;study</title>
<path fill="none" stroke="#000000" d="M1115.2904,-87.056C1105.4922,-76.0371 1091.6681,-62.4603 1076.7947,-54 1050.3701,-38.9691 1017.3467,-29.948 991.0675,-24.6953"/>
<polygon fill="#000000" stroke="#000000" points="991.4651,-21.2087 980.9901,-22.7975 990.1695,-28.0878 991.4651,-21.2087"/>
<text text-anchor="middle" x="1166.2947" y="-57.8" font-family="Times,serif" font-size="14.00" fill="#000000">of_study_personnel</text>
</g>
<!-- laboratory_test -->
<g id="node15" class="node">
<title>laboratory_test</title>
<ellipse fill="none" stroke="#000000" cx="891.7947" cy="-366" rx="81.7856" ry="18"/>
<text text-anchor="middle" x="891.7947" y="-362.3" font-family="Times,serif" font-size="14.00" fill="#000000">laboratory_test</text>
</g>
<!-- laboratory_test&#45;&gt;participant -->
<g id="edge3" class="edge">
<title>laboratory_test&#45;&gt;participant</title>
<path fill="none" stroke="#000000" d="M815.7358,-359.2241C764.4253,-353.6988 695.4546,-344.4114 635.7947,-330 592.3473,-319.5049 566.701,-333.4238 540.7947,-297 531.5211,-283.9615 530.3787,-273.1453 540.7947,-261 583.6873,-210.9862 1029.754,-196.8453 1207.3893,-193.1809"/>
<polygon fill="#000000" stroke="#000000" points="1207.4985,-196.6795 1217.4261,-192.9791 1207.3577,-189.6809 1207.4985,-196.6795"/>
<text text-anchor="middle" x="606.2947" y="-275.3" font-family="Times,serif" font-size="14.00" fill="#000000">of_laboratory_test</text>
</g>
<!-- laboratory_test&#45;&gt;sample -->
<g id="edge2" class="edge">
<title>laboratory_test&#45;&gt;sample</title>
<path fill="none" stroke="#000000" d="M962.3218,-356.7191C1056.5799,-344.7433 1228.9246,-324.3407 1376.7947,-315 1563.3545,-303.2153 2033.6986,-329.4359 2217.7947,-297 2221.5061,-296.3461 2225.3094,-295.4772 2229.0914,-294.4735"/>
<polygon fill="#000000" stroke="#000000" points="2230.3752,-297.744 2238.9757,-291.5568 2228.394,-291.0302 2230.3752,-297.744"/>
<text text-anchor="middle" x="1442.2947" y="-318.8" font-family="Times,serif" font-size="14.00" fill="#000000">of_laboratory_test</text>
</g>
<!-- sequencing_file -->
<g id="node16" class="node">
<title>sequencing_file</title>
<ellipse fill="none" stroke="#000000" cx="2441.7947" cy="-366" rx="83.3857" ry="18"/>
<text text-anchor="middle" x="2441.7947" y="-362.3" font-family="Times,serif" font-size="14.00" fill="#000000">sequencing_file</text>
</g>
<!-- sequencing_file&#45;&gt;sample -->
<g id="edge17" class="edge">
<title>sequencing_file&#45;&gt;sample</title>
<path fill="none" stroke="#000000" d="M2423.5074,-348.2205C2411.5726,-337.4059 2395.2093,-323.9916 2378.7947,-315 2360.1959,-304.812 2338.2154,-296.8401 2318.9553,-291.0163"/>
<polygon fill="#000000" stroke="#000000" points="2319.7434,-287.6005 2309.1637,-288.1663 2317.7871,-294.3216 2319.7434,-287.6005"/>
<text text-anchor="middle" x="2467.2947" y="-318.8" font-family="Times,serif" font-size="14.00" fill="#000000">of_sequencing_file</text>
</g>
<!-- survival -->
<g id="node17" class="node">
<title>survival</title>
<ellipse fill="none" stroke="#000000" cx="1279.7947" cy="-279" rx="48.1917" ry="18"/>
<text text-anchor="middle" x="1279.7947" y="-275.3" font-family="Times,serif" font-size="14.00" fill="#000000">survival</text>
</g>
<!-- survival&#45;&gt;participant -->
<g id="edge24" class="edge">
<title>survival&#45;&gt;participant</title>
<path fill="none" stroke="#000000" d="M1279.7947,-260.9735C1279.7947,-249.1918 1279.7947,-233.5607 1279.7947,-220.1581"/>
<polygon fill="#000000" stroke="#000000" points="1283.2948,-220.0033 1279.7947,-210.0034 1276.2948,-220.0034 1283.2948,-220.0033"/>
<text text-anchor="middle" x="1319.2947" y="-231.8" font-family="Times,serif" font-size="14.00" fill="#000000">of_survival</text>
</g>
<!-- methylation_array_file -->
<g id="node18" class="node">
<title>methylation_array_file</title>
<ellipse fill="none" stroke="#000000" cx="1857.7947" cy="-366" rx="115.8798" ry="18"/>
<text text-anchor="middle" x="1857.7947" y="-362.3" font-family="Times,serif" font-size="14.00" fill="#000000">methylation_array_file</text>
</g>
<!-- methylation_array_file&#45;&gt;sample -->
<g id="edge18" class="edge">
<title>methylation_array_file&#45;&gt;sample</title>
<path fill="none" stroke="#000000" d="M1869.9421,-347.9956C1878.9048,-336.3479 1892.2172,-322.0811 1907.7947,-315 1970.6138,-286.4442 2150.067,-310.2151 2217.7947,-297 2221.4429,-296.2882 2225.1841,-295.3872 2228.909,-294.3695"/>
<polygon fill="#000000" stroke="#000000" points="2230.0795,-297.6727 2238.6564,-291.4528 2228.0727,-290.9665 2230.0795,-297.6727"/>
<text text-anchor="middle" x="1999.2947" y="-318.8" font-family="Times,serif" font-size="14.00" fill="#000000">of_methylation_array_file</text>
</g>
<!-- treatment_response -->
<g id="node20" class="node">
<title>treatment_response</title>
<ellipse fill="none" stroke="#000000" cx="1450.7947" cy="-279" rx="104.7816" ry="18"/>
<text text-anchor="middle" x="1450.7947" y="-275.3" font-family="Times,serif" font-size="14.00" fill="#000000">treatment_response</text>
</g>
<!-- treatment_response&#45;&gt;participant -->
<g id="edge29" class="edge">
<title>treatment_response&#45;&gt;participant</title>
<path fill="none" stroke="#000000" d="M1422.7205,-261.612C1405.6623,-251.3298 1383.2896,-238.3398 1362.7947,-228 1350.9549,-222.0268 1337.8968,-216.0778 1325.7118,-210.7868"/>
<polygon fill="#000000" stroke="#000000" points="1326.7371,-207.4184 1316.1668,-206.6967 1323.9799,-213.8525 1326.7371,-207.4184"/>
<text text-anchor="middle" x="1473.7947" y="-231.8" font-family="Times,serif" font-size="14.00" fill="#000000">of_treatment_response</text>
</g>
<!-- radiology_file -->
<g id="node21" class="node">
<title>radiology_file</title>
<ellipse fill="none" stroke="#000000" cx="1646.7947" cy="-279" rx="73.387" ry="18"/>
<text text-anchor="middle" x="1646.7947" y="-275.3" font-family="Times,serif" font-size="14.00" fill="#000000">radiology_file</text>
</g>
<!-- radiology_file&#45;&gt;participant -->
<g id="edge25" class="edge">
<title>radiology_file&#45;&gt;participant</title>
<path fill="none" stroke="#000000" d="M1623.6212,-261.6977C1607.0039,-250.2104 1583.6106,-235.8494 1560.7947,-228 1523.0604,-215.0183 1420.2614,-204.0296 1350.0433,-197.7232"/>
<polygon fill="#000000" stroke="#000000" points="1350.2012,-194.2236 1339.9312,-196.8271 1349.5832,-201.1962 1350.2012,-194.2236"/>
<text text-anchor="middle" x="1652.7947" y="-231.8" font-family="Times,serif" font-size="14.00" fill="#000000">of_radiology_file</text>
</g>
<!-- genetic_analysis -->
<g id="node22" class="node">
<title>genetic_analysis</title>
<ellipse fill="none" stroke="#000000" cx="1610.7947" cy="-366" rx="87.9851" ry="18"/>
<text text-anchor="middle" x="1610.7947" y="-362.3" font-family="Times,serif" font-size="14.00" fill="#000000">genetic_analysis</text>
</g>
<!-- genetic_analysis&#45;&gt;participant -->
<g id="edge22" class="edge">
<title>genetic_analysis&#45;&gt;participant</title>
<path fill="none" stroke="#000000" d="M1594.7137,-348.1961C1587.0194,-337.5072 1581.1665,-324.2365 1589.7947,-315 1629.9355,-272.0291 1813.6539,-339.9709 1853.7947,-297 1875.3548,-273.9198 1863.2164,-245.3039 1836.7947,-228 1797.2516,-202.1027 1494.4176,-194.7692 1352.6121,-192.7457"/>
<polygon fill="#000000" stroke="#000000" points="1352.3224,-189.2415 1342.2752,-192.6036 1352.2261,-196.2408 1352.3224,-189.2415"/>
<text text-anchor="middle" x="1935.7947" y="-275.3" font-family="Times,serif" font-size="14.00" fill="#000000">of_genetic_analysis</text>
</g>
<!-- genetic_analysis&#45;&gt;sample -->
<g id="edge23" class="edge">
<title>genetic_analysis&#45;&gt;sample</title>
<path fill="none" stroke="#000000" d="M1650.8156,-349.8917C1686.417,-335.6884 1734.2858,-316.948 1743.7947,-315 1950.3241,-272.6911 2010.4841,-335.2981 2217.7947,-297 2221.4498,-296.3248 2225.1959,-295.4495 2228.9241,-294.449"/>
<polygon fill="#000000" stroke="#000000" points="2230.0829,-297.7561 2238.6766,-291.5596 2228.0943,-291.0445 2230.0829,-297.7561"/>
<text text-anchor="middle" x="1813.7947" y="-318.8" font-family="Times,serif" font-size="14.00" fill="#000000">of_genetic_analysis</text>
</g>
<!-- cytogenomic_file -->
<g id="node23" class="node">
<title>cytogenomic_file</title>
<ellipse fill="none" stroke="#000000" cx="2080.7947" cy="-366" rx="89.8845" ry="18"/>
<text text-anchor="middle" x="2080.7947" y="-362.3" font-family="Times,serif" font-size="14.00" fill="#000000">cytogenomic_file</text>
</g>
<!-- cytogenomic_file&#45;&gt;sample -->
<g id="edge33" class="edge">
<title>cytogenomic_file&#45;&gt;sample</title>
<path fill="none" stroke="#000000" d="M2086.1891,-347.8714C2090.4884,-336.6323 2097.6664,-322.8806 2108.7947,-315 2148.8652,-286.6236 2170.1667,-308.9349 2217.7947,-297 2221.1969,-296.1474 2224.6934,-295.1775 2228.1898,-294.1402"/>
<polygon fill="#000000" stroke="#000000" points="2229.4676,-297.4077 2237.9653,-291.08 2227.3763,-290.7274 2229.4676,-297.4077"/>
<text text-anchor="middle" x="2180.2947" y="-318.8" font-family="Times,serif" font-size="14.00" fill="#000000">of_cytogenomic_file</text>
</g>
<!-- sample&#45;&gt;participant -->
<g id="edge28" class="edge">
<title>sample&#45;&gt;participant</title>
<path fill="none" stroke="#000000" d="M2237.62,-267.0607C2231.091,-264.902 2224.2604,-262.7758 2217.7947,-261 2180.558,-250.7729 2169.7205,-254.298 2132.7947,-243 2115.8267,-237.8084 2113.132,-231.7792 2095.7947,-228 2024.3626,-212.4292 1538.4788,-198.5832 1352.2394,-193.7876"/>
<polygon fill="#000000" stroke="#000000" points="1352.0891,-190.2827 1342.0027,-193.5254 1351.9098,-197.2804 1352.0891,-190.2827"/>
<text text-anchor="middle" x="2169.2947" y="-231.8" font-family="Times,serif" font-size="14.00" fill="#000000">of_sample</text>
</g>
<!-- cell_line -->
<g id="node26" class="node">
<title>cell_line</title>
<ellipse fill="none" stroke="#000000" cx="2461.7947" cy="-192" rx="49.2915" ry="18"/>
<text text-anchor="middle" x="2461.7947" y="-188.3" font-family="Times,serif" font-size="14.00" fill="#000000">cell_line</text>
</g>
<!-- sample&#45;&gt;cell_line -->
<g id="edge27" class="edge">
<title>sample&#45;&gt;cell_line</title>
<path fill="none" stroke="#000000" d="M2300.6384,-265.4063C2333.1922,-250.5781 2385.4735,-226.7641 2421.6175,-210.3006"/>
<polygon fill="#000000" stroke="#000000" points="2423.2454,-213.4052 2430.895,-206.0747 2420.3437,-207.0349 2423.2454,-213.4052"/>
<text text-anchor="middle" x="2413.2947" y="-231.8" font-family="Times,serif" font-size="14.00" fill="#000000">of_sample</text>
</g>
<!-- pdx -->
<g id="node27" class="node">
<title>pdx</title>
<ellipse fill="none" stroke="#000000" cx="2213.7947" cy="-192" rx="27.8951" ry="18"/>
<text text-anchor="middle" x="2213.7947" y="-188.3" font-family="Times,serif" font-size="14.00" fill="#000000">pdx</text>
</g>
<!-- sample&#45;&gt;pdx -->
<g id="edge26" class="edge">
<title>sample&#45;&gt;pdx</title>
<path fill="none" stroke="#000000" d="M2271.2653,-260.8513C2270.7555,-250.5517 2268.7555,-237.8017 2262.7947,-228 2258.2217,-220.4802 2251.4299,-214.0401 2244.3497,-208.7739"/>
<polygon fill="#000000" stroke="#000000" points="2246.2646,-205.8437 2236.0214,-203.1369 2242.3409,-211.6407 2246.2646,-205.8437"/>
<text text-anchor="middle" x="2304.2947" y="-231.8" font-family="Times,serif" font-size="14.00" fill="#000000">of_sample</text>
</g>
<!-- synonym -->
<g id="node25" class="node">
<title>synonym</title>
<ellipse fill="none" stroke="#000000" cx="2656.7947" cy="-366" rx="51.9908" ry="18"/>
<text text-anchor="middle" x="2656.7947" y="-362.3" font-family="Times,serif" font-size="14.00" fill="#000000">synonym</text>
</g>
<!-- synonym&#45;&gt;participant -->
<g id="edge36" class="edge">
<title>synonym&#45;&gt;participant</title>
<path fill="none" stroke="#000000" d="M2656.1059,-347.7755C2654.7518,-336.9283 2651.2953,-323.6389 2642.7947,-315 2642.0387,-314.2317 2345.859,-228.1706 2344.7947,-228 2247.6379,-212.4284 1576.4341,-197.8753 1352.4037,-193.4022"/>
<polygon fill="#000000" stroke="#000000" points="1352.1453,-189.8964 1342.0777,-193.1968 1352.0061,-196.895 1352.1453,-189.8964"/>
<text text-anchor="middle" x="2620.2947" y="-275.3" font-family="Times,serif" font-size="14.00" fill="#000000">of_synonym</text>
</g>
<!-- synonym&#45;&gt;study -->
<g id="edge38" class="edge">
<title>synonym&#45;&gt;study</title>
<path fill="none" stroke="#000000" d="M2665.1193,-348.1C2672.3918,-330.8051 2681.7947,-303.6732 2681.7947,-279 2681.7947,-279 2681.7947,-279 2681.7947,-105 2681.7947,-61.4501 1269.453,-25.6823 992.5665,-19.0886"/>
<polygon fill="#000000" stroke="#000000" points="992.5343,-15.587 982.4541,-18.8488 992.3682,-22.585 992.5343,-15.587"/>
<text text-anchor="middle" x="2724.2947" y="-188.3" font-family="Times,serif" font-size="14.00" fill="#000000">of_synonym</text>
</g>
<!-- synonym&#45;&gt;sample -->
<g id="edge37" class="edge">
<title>synonym&#45;&gt;sample</title>
<path fill="none" stroke="#000000" d="M2617.3815,-353.9832C2598.8788,-347.7621 2576.7727,-339.4816 2557.7947,-330 2546.8774,-324.5456 2546.2305,-319.2616 2534.7947,-315 2497.3533,-301.0472 2390.2192,-289.5316 2324.5054,-283.5179"/>
<polygon fill="#000000" stroke="#000000" points="2324.6054,-280.0128 2314.3314,-282.6005 2323.9767,-286.9845 2324.6054,-280.0128"/>
<text text-anchor="middle" x="2600.2947" y="-318.8" font-family="Times,serif" font-size="14.00" fill="#000000">of_synonym</text>
</g>
<!-- cell_line&#45;&gt;study -->
<g id="edge9" class="edge">
<title>cell_line&#45;&gt;study</title>
<path fill="none" stroke="#000000" d="M2417.3237,-184.0292C2308.8627,-164.8329 2021.9554,-115.5198 1780.7947,-87 1481.1723,-51.5665 1118.9212,-28.2549 992.2227,-20.6833"/>
<polygon fill="#000000" stroke="#000000" points="992.2924,-17.1814 982.1024,-20.0822 991.8772,-24.1691 992.2924,-17.1814"/>
<text text-anchor="middle" x="2081.2947" y="-101.3" font-family="Times,serif" font-size="14.00" fill="#000000">of_cell_line</text>
</g>
<!-- cell_line&#45;&gt;sample -->
<g id="edge8" class="edge">
<title>cell_line&#45;&gt;sample</title>
<path fill="none" stroke="#000000" d="M2500.6396,-203.1205C2525.4875,-212.1532 2550.5227,-226.1359 2535.7947,-243 2522.1217,-258.6561 2397.9057,-270.0245 2324.4915,-275.4429"/>
<polygon fill="#000000" stroke="#000000" points="2324.2072,-271.9542 2314.4863,-276.1678 2324.7132,-278.9359 2324.2072,-271.9542"/>
<text text-anchor="middle" x="2580.2947" y="-231.8" font-family="Times,serif" font-size="14.00" fill="#000000">of_cell_line</text>
</g>
<!-- pdx&#45;&gt;study -->
<g id="edge11" class="edge">
<title>pdx&#45;&gt;study</title>
<path fill="none" stroke="#000000" d="M2186.3189,-187.913C2071.0722,-170.8111 1615.2532,-103.5809 1239.7947,-54 1152.2071,-42.4337 1049.765,-30.1777 991.8562,-23.3672"/>
<polygon fill="#000000" stroke="#000000" points="991.9151,-19.8502 981.5752,-22.1603 991.0989,-26.8024 991.9151,-19.8502"/>
<text text-anchor="middle" x="1752.7947" y="-101.3" font-family="Times,serif" font-size="14.00" fill="#000000">of_pdx</text>
</g>
<!-- pdx&#45;&gt;sample -->
<g id="edge12" class="edge">
<title>pdx&#45;&gt;sample</title>
<path fill="none" stroke="#000000" d="M2210.1479,-210.0783C2209.0156,-220.3544 2209.2656,-233.1044 2214.7947,-243 2218.6793,-249.9524 2224.5299,-255.7704 2231.0067,-260.5608"/>
<polygon fill="#000000" stroke="#000000" points="2229.1616,-263.5362 2239.4447,-266.0873 2232.9969,-257.6803 2229.1616,-263.5362"/>
<text text-anchor="middle" x="2238.7947" y="-231.8" font-family="Times,serif" font-size="14.00" fill="#000000">of_pdx</text>
</g>
<!-- study_funding -->
<g id="node28" class="node">
<title>study_funding</title>
<ellipse fill="none" stroke="#000000" cx="2786.7947" cy="-105" rx="77.1866" ry="18"/>
<text text-anchor="middle" x="2786.7947" y="-101.3" font-family="Times,serif" font-size="14.00" fill="#000000">study_funding</text>
</g>
<!-- study_funding&#45;&gt;study -->
<g id="edge13" class="edge">
<title>study_funding&#45;&gt;study</title>
<path fill="none" stroke="#000000" d="M2763.4922,-87.6842C2745.8939,-75.7058 2720.6093,-60.7528 2695.7947,-54 2611.3845,-31.0295 1262.5969,-20.2534 992.6184,-18.3211"/>
<polygon fill="#000000" stroke="#000000" points="992.4057,-14.8196 982.3811,-18.2484 992.356,-21.8195 992.4057,-14.8196"/>
<text text-anchor="middle" x="2791.7947" y="-57.8" font-family="Times,serif" font-size="14.00" fill="#000000">of_study_funding</text>
</g>
</g>
</svg>
