<svg width="2938pt" height="392pt"
 viewBox="0.00 0.00 2937.54 392.00" xmlns="http://www.w3.org/2000/svg" xmlns:xlink="http://www.w3.org/1999/xlink">
<g id="graph0" class="graph" transform="scale(1 1) rotate(0) translate(4 388)">
<title>Perl</title>
<polygon fill="#ffffff" stroke="transparent" points="-4,4 -4,-388 2933.5404,-388 2933.5404,4 -4,4"/>
<!-- genetic_analysis -->
<g id="node1" class="node">
<title>genetic_analysis</title>
<ellipse fill="none" stroke="#000000" cx="1391.5404" cy="-366" rx="87.9851" ry="18"/>
<text text-anchor="middle" x="1391.5404" y="-362.3" font-family="Times,serif" font-size="14.00" fill="#000000">genetic_analysis</text>
</g>
<!-- participant -->
<g id="node7" class="node">
<title>participant</title>
<ellipse fill="none" stroke="#000000" cx="1361.5404" cy="-192" rx="62.2891" ry="18"/>
<text text-anchor="middle" x="1361.5404" y="-188.3" font-family="Times,serif" font-size="14.00" fill="#000000">participant</text>
</g>
<!-- genetic_analysis&#45;&gt;participant -->
<g id="edge38" class="edge">
<title>genetic_analysis&#45;&gt;participant</title>
<path fill="none" stroke="#000000" d="M1307.5008,-360.6946C1262.5317,-355.9121 1213.5645,-346.898 1199.5404,-330 1179.9555,-306.4017 1182.63,-286.5829 1199.5404,-261 1220.7897,-228.8529 1260.3919,-211.6346 1295.1204,-202.4376"/>
<polygon fill="#000000" stroke="#000000" points="1296.3691,-205.7346 1305.24,-199.9419 1294.6929,-198.9383 1296.3691,-205.7346"/>
<text text-anchor="middle" x="1269.5404" y="-275.3" font-family="Times,serif" font-size="14.00" fill="#000000">of_genetic_analysis</text>
</g>
<!-- sample -->
<g id="node17" class="node">
<title>sample</title>
<ellipse fill="none" stroke="#000000" cx="2178.5404" cy="-279" rx="44.393" ry="18"/>
<text text-anchor="middle" x="2178.5404" y="-275.3" font-family="Times,serif" font-size="14.00" fill="#000000">sample</text>
</g>
<!-- genetic_analysis&#45;&gt;sample -->
<g id="edge37" class="edge">
<title>genetic_analysis&#45;&gt;sample</title>
<path fill="none" stroke="#000000" d="M1447.3797,-352.0274C1472.3,-345.6117 1501.9743,-337.7241 1528.5404,-330 1549.5954,-323.8783 1553.9395,-318.7675 1575.5404,-315 1791.9743,-277.2511 1850.9376,-318.9425 2069.5404,-297 2088.9434,-295.0524 2110.1273,-291.8126 2128.6169,-288.6142"/>
<polygon fill="#000000" stroke="#000000" points="2129.3465,-292.0396 2138.5833,-286.8501 2128.1263,-285.1467 2129.3465,-292.0396"/>
<text text-anchor="middle" x="1645.5404" y="-318.8" font-family="Times,serif" font-size="14.00" fill="#000000">of_genetic_analysis</text>
</g>
<!-- clinical_measure_file -->
<g id="node2" class="node">
<title>clinical_measure_file</title>
<ellipse fill="none" stroke="#000000" cx="108.5404" cy="-366" rx="108.5808" ry="18"/>
<text text-anchor="middle" x="108.5404" y="-362.3" font-family="Times,serif" font-size="14.00" fill="#000000">clinical_measure_file</text>
</g>
<!-- clinical_measure_file&#45;&gt;participant -->
<g id="edge31" class="edge">
<title>clinical_measure_file&#45;&gt;participant</title>
<path fill="none" stroke="#000000" d="M103.9358,-347.9779C99.1388,-324.5235 95.1074,-283.8455 117.5404,-261 167.1629,-210.4649 363.8951,-233.0435 434.5404,-228 752.157,-205.3246 1132.0849,-196.2016 1288.6401,-193.2226"/>
<polygon fill="#000000" stroke="#000000" points="1289.1418,-196.7139 1299.0744,-193.0269 1289.0105,-189.7151 1289.1418,-196.7139"/>
<text text-anchor="middle" x="203.5404" y="-275.3" font-family="Times,serif" font-size="14.00" fill="#000000">of_clinical_measure_file</text>
</g>
<!-- clinical_measure_file&#45;&gt;sample -->
<g id="edge32" class="edge">
<title>clinical_measure_file&#45;&gt;sample</title>
<path fill="none" stroke="#000000" d="M212.2959,-360.5152C411.5364,-350.1628 861.5599,-327.6498 1240.5404,-315 1608.8665,-302.7059 1702.5909,-331.1085 2069.5404,-297 2089.0378,-295.1877 2110.3198,-291.9581 2128.862,-288.7299"/>
<polygon fill="#000000" stroke="#000000" points="2129.6237,-292.1493 2138.8526,-286.9456 2128.393,-285.2583 2129.6237,-292.1493"/>
<text text-anchor="middle" x="1326.5404" y="-318.8" font-family="Times,serif" font-size="14.00" fill="#000000">of_clinical_measure_file</text>
</g>
<!-- study -->
<g id="node24" class="node">
<title>study</title>
<ellipse fill="none" stroke="#000000" cx="2088.5404" cy="-18" rx="36.2938" ry="18"/>
<text text-anchor="middle" x="2088.5404" y="-14.3" font-family="Times,serif" font-size="14.00" fill="#000000">study</text>
</g>
<!-- clinical_measure_file&#45;&gt;study -->
<g id="edge33" class="edge">
<title>clinical_measure_file&#45;&gt;study</title>
<path fill="none" stroke="#000000" d="M92.4518,-348.1027C79.1867,-331.4504 62.5404,-305.3116 62.5404,-279 62.5404,-279 62.5404,-279 62.5404,-105 62.5404,-53.7612 1738.8852,-23.7533 2041.8875,-18.7478"/>
<polygon fill="#000000" stroke="#000000" points="2042.1408,-22.2442 2052.0819,-18.5803 2042.0257,-15.2452 2042.1408,-22.2442"/>
<text text-anchor="middle" x="148.5404" y="-188.3" font-family="Times,serif" font-size="14.00" fill="#000000">of_clinical_measure_file</text>
</g>
<!-- study_personnel -->
<g id="node3" class="node">
<title>study_personnel</title>
<ellipse fill="none" stroke="#000000" cx="1493.5404" cy="-105" rx="87.1846" ry="18"/>
<text text-anchor="middle" x="1493.5404" y="-101.3" font-family="Times,serif" font-size="14.00" fill="#000000">study_personnel</text>
</g>
<!-- study_personnel&#45;&gt;study -->
<g id="edge34" class="edge">
<title>study_personnel&#45;&gt;study</title>
<path fill="none" stroke="#000000" d="M1509.2707,-87.2583C1520.8029,-75.5694 1537.534,-61.1481 1555.5404,-54 1600.0904,-36.3146 1920.2527,-23.7167 2041.8526,-19.5222"/>
<polygon fill="#000000" stroke="#000000" points="2042.0924,-23.0161 2051.9672,-19.1769 2041.8535,-16.0202 2042.0924,-23.0161"/>
<text text-anchor="middle" x="1625.0404" y="-57.8" font-family="Times,serif" font-size="14.00" fill="#000000">of_study_personnel</text>
</g>
<!-- methylation_array_file -->
<g id="node4" class="node">
<title>methylation_array_file</title>
<ellipse fill="none" stroke="#000000" cx="2414.5404" cy="-366" rx="115.8798" ry="18"/>
<text text-anchor="middle" x="2414.5404" y="-362.3" font-family="Times,serif" font-size="14.00" fill="#000000">methylation_array_file</text>
</g>
<!-- methylation_array_file&#45;&gt;sample -->
<g id="edge40" class="edge">
<title>methylation_array_file&#45;&gt;sample</title>
<path fill="none" stroke="#000000" d="M2386.9937,-348.2479C2365.5022,-334.5034 2338.3479,-317.4078 2332.5404,-315 2299.8403,-301.4428 2261.0179,-292.4102 2230.5334,-286.7834"/>
<polygon fill="#000000" stroke="#000000" points="2230.9944,-283.3105 2220.5358,-285.0041 2229.7678,-290.2022 2230.9944,-283.3105"/>
<text text-anchor="middle" x="2448.0404" y="-318.8" font-family="Times,serif" font-size="14.00" fill="#000000">of_methylation_array_file</text>
</g>
<!-- publication -->
<g id="node5" class="node">
<title>publication</title>
<ellipse fill="none" stroke="#000000" cx="1661.5404" cy="-105" rx="63.0888" ry="18"/>
<text text-anchor="middle" x="1661.5404" y="-101.3" font-family="Times,serif" font-size="14.00" fill="#000000">publication</text>
</g>
<!-- publication&#45;&gt;study -->
<g id="edge8" class="edge">
<title>publication&#45;&gt;study</title>
<path fill="none" stroke="#000000" d="M1677.3412,-87.4319C1688.9057,-75.8227 1705.6465,-61.4252 1723.5404,-54 1779.928,-30.6014 1956.6262,-22.0577 2041.7658,-19.243"/>
<polygon fill="#000000" stroke="#000000" points="2042.0422,-22.7361 2051.9259,-18.92 2041.8197,-15.7396 2042.0422,-22.7361"/>
<text text-anchor="middle" x="1774.5404" y="-57.8" font-family="Times,serif" font-size="14.00" fill="#000000">of_publication</text>
</g>
<!-- laboratory_test -->
<g id="node6" class="node">
<title>laboratory_test</title>
<ellipse fill="none" stroke="#000000" cx="1647.5404" cy="-366" rx="81.7856" ry="18"/>
<text text-anchor="middle" x="1647.5404" y="-362.3" font-family="Times,serif" font-size="14.00" fill="#000000">laboratory_test</text>
</g>
<!-- laboratory_test&#45;&gt;participant -->
<g id="edge24" class="edge">
<title>laboratory_test&#45;&gt;participant</title>
<path fill="none" stroke="#000000" d="M1575.9788,-357.211C1548.6463,-354.0348 1517.1758,-350.5958 1488.5404,-348 1459.259,-345.3457 1244.6108,-351.4854 1224.5404,-330 1219.9895,-325.1283 1220.2061,-320.0654 1224.5404,-315 1258.1743,-275.6922 1302.0336,-332.6313 1339.5404,-297 1360.0324,-277.5326 1363.9601,-244.2472 1363.761,-220.3676"/>
<polygon fill="#000000" stroke="#000000" points="1367.2516,-220.0205 1363.4238,-210.1413 1360.2554,-220.2512 1367.2516,-220.0205"/>
<text text-anchor="middle" x="1424.0404" y="-275.3" font-family="Times,serif" font-size="14.00" fill="#000000">of_laboratory_test</text>
</g>
<!-- laboratory_test&#45;&gt;sample -->
<g id="edge23" class="edge">
<title>laboratory_test&#45;&gt;sample</title>
<path fill="none" stroke="#000000" d="M1677.7142,-349.0166C1700.3145,-337.2034 1732.401,-322.3115 1762.5404,-315 1895.3667,-282.7779 1933.7045,-312.1555 2069.5404,-297 2088.8403,-294.8467 2109.9241,-291.581 2128.3618,-288.4197"/>
<polygon fill="#000000" stroke="#000000" points="2129.0565,-291.8514 2138.3046,-286.6818 2127.8513,-284.9559 2129.0565,-291.8514"/>
<text text-anchor="middle" x="1828.0404" y="-318.8" font-family="Times,serif" font-size="14.00" fill="#000000">of_laboratory_test</text>
</g>
<!-- consent_group -->
<g id="node9" class="node">
<title>consent_group</title>
<ellipse fill="none" stroke="#000000" cx="1821.5404" cy="-105" rx="79.0865" ry="18"/>
<text text-anchor="middle" x="1821.5404" y="-101.3" font-family="Times,serif" font-size="14.00" fill="#000000">consent_group</text>
</g>
<!-- participant&#45;&gt;consent_group -->
<g id="edge14" class="edge">
<title>participant&#45;&gt;consent_group</title>
<path fill="none" stroke="#000000" d="M1414.577,-182.4788C1486.7946,-169.4421 1620.0721,-145.126 1733.5404,-123 1739.7679,-121.7856 1746.2388,-120.5026 1752.7185,-119.2034"/>
<polygon fill="#000000" stroke="#000000" points="1753.7631,-122.5633 1762.8741,-117.156 1752.3797,-115.7013 1753.7631,-122.5633"/>
<text text-anchor="middle" x="1681.0404" y="-144.8" font-family="Times,serif" font-size="14.00" fill="#000000">of_participant</text>
</g>
<!-- sequencing_file -->
<g id="node8" class="node">
<title>sequencing_file</title>
<ellipse fill="none" stroke="#000000" cx="2631.5404" cy="-366" rx="83.3857" ry="18"/>
<text text-anchor="middle" x="2631.5404" y="-362.3" font-family="Times,serif" font-size="14.00" fill="#000000">sequencing_file</text>
</g>
<!-- sequencing_file&#45;&gt;sample -->
<g id="edge25" class="edge">
<title>sequencing_file&#45;&gt;sample</title>
<path fill="none" stroke="#000000" d="M2599.1968,-349.3334C2588.0966,-343.4262 2575.6696,-336.603 2564.5404,-330 2554.0446,-323.7729 2553.0524,-319.0512 2541.5404,-315 2486.0007,-295.455 2319.6372,-285.3102 2232.7406,-281.2214"/>
<polygon fill="#000000" stroke="#000000" points="2232.7005,-277.716 2222.5502,-280.7526 2232.3787,-284.7086 2232.7005,-277.716"/>
<text text-anchor="middle" x="2631.0404" y="-318.8" font-family="Times,serif" font-size="14.00" fill="#000000">of_sequencing_file</text>
</g>
<!-- consent_group&#45;&gt;study -->
<g id="edge39" class="edge">
<title>consent_group&#45;&gt;study</title>
<path fill="none" stroke="#000000" d="M1823.6099,-86.9597C1825.8742,-75.7569 1830.6152,-62.0124 1840.5404,-54 1870.6837,-29.6659 1978.9025,-21.7664 2041.9834,-19.212"/>
<polygon fill="#000000" stroke="#000000" points="2042.216,-22.7058 2052.0777,-18.8332 2041.9534,-15.7108 2042.216,-22.7058"/>
<text text-anchor="middle" x="1904.0404" y="-57.8" font-family="Times,serif" font-size="14.00" fill="#000000">of_consent_group</text>
</g>
<!-- medical_history -->
<g id="node10" class="node">
<title>medical_history</title>
<ellipse fill="none" stroke="#000000" cx="1595.5404" cy="-279" rx="85.2851" ry="18"/>
<text text-anchor="middle" x="1595.5404" y="-275.3" font-family="Times,serif" font-size="14.00" fill="#000000">medical_history</text>
</g>
<!-- medical_history&#45;&gt;participant -->
<g id="edge9" class="edge">
<title>medical_history&#45;&gt;participant</title>
<path fill="none" stroke="#000000" d="M1553.4356,-263.3457C1512.9073,-248.2774 1451.6947,-225.5189 1409.3514,-209.7759"/>
<polygon fill="#000000" stroke="#000000" points="1410.4114,-206.436 1399.8185,-206.2316 1407.972,-212.9972 1410.4114,-206.436"/>
<text text-anchor="middle" x="1560.5404" y="-231.8" font-family="Times,serif" font-size="14.00" fill="#000000">of_medical_history</text>
</g>
<!-- treatment_response -->
<g id="node11" class="node">
<title>treatment_response</title>
<ellipse fill="none" stroke="#000000" cx="403.5404" cy="-279" rx="104.7816" ry="18"/>
<text text-anchor="middle" x="403.5404" y="-275.3" font-family="Times,serif" font-size="14.00" fill="#000000">treatment_response</text>
</g>
<!-- treatment_response&#45;&gt;participant -->
<g id="edge15" class="edge">
<title>treatment_response&#45;&gt;participant</title>
<path fill="none" stroke="#000000" d="M417.968,-261.1178C428.6241,-249.3645 444.2363,-234.924 461.5404,-228 499.6877,-212.736 1081.9732,-198.2672 1289.0948,-193.5787"/>
<polygon fill="#000000" stroke="#000000" points="1289.3408,-197.0742 1299.2594,-193.3497 1289.1831,-190.076 1289.3408,-197.0742"/>
<text text-anchor="middle" x="544.5404" y="-231.8" font-family="Times,serif" font-size="14.00" fill="#000000">of_treatment_response</text>
</g>
<!-- radiology_file -->
<g id="node12" class="node">
<title>radiology_file</title>
<ellipse fill="none" stroke="#000000" cx="732.5404" cy="-279" rx="73.387" ry="18"/>
<text text-anchor="middle" x="732.5404" y="-275.3" font-family="Times,serif" font-size="14.00" fill="#000000">radiology_file</text>
</g>
<!-- radiology_file&#45;&gt;participant -->
<g id="edge30" class="edge">
<title>radiology_file&#45;&gt;participant</title>
<path fill="none" stroke="#000000" d="M743.7279,-261.0314C752.0499,-249.3997 764.5352,-235.1373 779.5404,-228 824.43,-206.6479 1143.0287,-196.8686 1288.9163,-193.4729"/>
<polygon fill="#000000" stroke="#000000" points="1289.1983,-196.9674 1299.1156,-193.2394 1289.038,-189.9693 1289.1983,-196.9674"/>
<text text-anchor="middle" x="838.5404" y="-231.8" font-family="Times,serif" font-size="14.00" fill="#000000">of_radiology_file</text>
</g>
<!-- family_relationship -->
<g id="node13" class="node">
<title>family_relationship</title>
<ellipse fill="none" stroke="#000000" cx="924.5404" cy="-279" rx="100.1823" ry="18"/>
<text text-anchor="middle" x="924.5404" y="-275.3" font-family="Times,serif" font-size="14.00" fill="#000000">family_relationship</text>
</g>
<!-- family_relationship&#45;&gt;participant -->
<g id="edge17" class="edge">
<title>family_relationship&#45;&gt;participant</title>
<path fill="none" stroke="#000000" d="M910.0418,-261.1021C903.1776,-250.3779 898.1292,-237.103 906.5404,-228 919.3225,-214.1665 1164.1562,-201.0213 1289.2579,-195.1742"/>
<polygon fill="#000000" stroke="#000000" points="1289.6898,-198.6581 1299.5169,-194.6986 1289.3655,-191.6656 1289.6898,-198.6581"/>
<text text-anchor="middle" x="986.0404" y="-231.8" font-family="Times,serif" font-size="14.00" fill="#000000">of_family_relationship</text>
</g>
<!-- diagnosis -->
<g id="node14" class="node">
<title>diagnosis</title>
<ellipse fill="none" stroke="#000000" cx="1095.5404" cy="-366" rx="54.6905" ry="18"/>
<text text-anchor="middle" x="1095.5404" y="-362.3" font-family="Times,serif" font-size="14.00" fill="#000000">diagnosis</text>
</g>
<!-- diagnosis&#45;&gt;participant -->
<g id="edge21" class="edge">
<title>diagnosis&#45;&gt;participant</title>
<path fill="none" stroke="#000000" d="M1088.7766,-347.9645C1081.5273,-325.2358 1073.4436,-286.1132 1092.5404,-261 1116.6355,-229.3137 1221.5691,-209.7961 1293.0286,-199.9325"/>
<polygon fill="#000000" stroke="#000000" points="1293.872,-203.3505 1303.3153,-198.5469 1292.9375,-196.4132 1293.872,-203.3505"/>
<text text-anchor="middle" x="1137.0404" y="-275.3" font-family="Times,serif" font-size="14.00" fill="#000000">of_diagnosis</text>
</g>
<!-- diagnosis&#45;&gt;sample -->
<g id="edge22" class="edge">
<title>diagnosis&#45;&gt;sample</title>
<path fill="none" stroke="#000000" d="M1148.1732,-360.8591C1236.056,-352.1675 1404.319,-335.0235 1416.5404,-330 1426.4914,-325.9097 1425.4277,-318.6724 1435.5404,-315 1501.7807,-290.9452 1999.3922,-303.7566 2069.5404,-297 2088.9511,-295.1304 2110.1365,-291.9066 2128.6253,-288.6993"/>
<polygon fill="#000000" stroke="#000000" points="2129.3579,-292.124 2138.591,-286.9278 2128.1327,-285.232 2129.3579,-292.124"/>
<text text-anchor="middle" x="1480.0404" y="-318.8" font-family="Times,serif" font-size="14.00" fill="#000000">of_diagnosis</text>
</g>
<!-- study_arm -->
<g id="node15" class="node">
<title>study_arm</title>
<ellipse fill="none" stroke="#000000" cx="1978.5404" cy="-105" rx="59.5901" ry="18"/>
<text text-anchor="middle" x="1978.5404" y="-101.3" font-family="Times,serif" font-size="14.00" fill="#000000">study_arm</text>
</g>
<!-- study_arm&#45;&gt;study -->
<g id="edge7" class="edge">
<title>study_arm&#45;&gt;study</title>
<path fill="none" stroke="#000000" d="M1973.1324,-86.8651C1971.1346,-76.3181 1970.7709,-63.3121 1977.5404,-54 1985.7362,-42.7258 2017.1907,-33.1707 2044.5327,-26.7438"/>
<polygon fill="#000000" stroke="#000000" points="2045.3871,-30.1391 2054.3693,-24.5202 2043.8436,-23.3113 2045.3871,-30.1391"/>
<text text-anchor="middle" x="2026.0404" y="-57.8" font-family="Times,serif" font-size="14.00" fill="#000000">of_study_arm</text>
</g>
<!-- synonym -->
<g id="node16" class="node">
<title>synonym</title>
<ellipse fill="none" stroke="#000000" cx="2819.5404" cy="-366" rx="51.9908" ry="18"/>
<text text-anchor="middle" x="2819.5404" y="-362.3" font-family="Times,serif" font-size="14.00" fill="#000000">synonym</text>
</g>
<!-- synonym&#45;&gt;participant -->
<g id="edge5" class="edge">
<title>synonym&#45;&gt;participant</title>
<path fill="none" stroke="#000000" d="M2819.1926,-347.9768C2817.994,-336.9264 2814.582,-323.3442 2805.5404,-315 2786.5073,-297.4351 2373.2772,-230.8974 2347.5404,-228 2170.5931,-208.0794 1630.7341,-196.7711 1434.1318,-193.2252"/>
<polygon fill="#000000" stroke="#000000" points="1433.9734,-189.7219 1423.9123,-193.0423 1433.8481,-196.7207 1433.9734,-189.7219"/>
<text text-anchor="middle" x="2780.0404" y="-275.3" font-family="Times,serif" font-size="14.00" fill="#000000">of_synonym</text>
</g>
<!-- synonym&#45;&gt;sample -->
<g id="edge4" class="edge">
<title>synonym&#45;&gt;sample</title>
<path fill="none" stroke="#000000" d="M2780.1272,-353.9832C2761.6245,-347.7621 2739.5184,-339.4816 2720.5404,-330 2709.6231,-324.5456 2709.1111,-318.8804 2697.5404,-315 2654.3327,-300.5097 2356.6698,-286.4915 2232.6239,-281.2074"/>
<polygon fill="#000000" stroke="#000000" points="2232.7224,-277.7085 2222.5833,-280.7826 2232.4264,-284.7023 2232.7224,-277.7085"/>
<text text-anchor="middle" x="2763.0404" y="-318.8" font-family="Times,serif" font-size="14.00" fill="#000000">of_synonym</text>
</g>
<!-- synonym&#45;&gt;study -->
<g id="edge6" class="edge">
<title>synonym&#45;&gt;study</title>
<path fill="none" stroke="#000000" d="M2827.865,-348.1C2835.1375,-330.8051 2844.5404,-303.6732 2844.5404,-279 2844.5404,-279 2844.5404,-279 2844.5404,-105 2844.5404,-33.2508 2300.184,-20.6239 2135.3055,-18.445"/>
<polygon fill="#000000" stroke="#000000" points="2135.0469,-14.9416 2125.0038,-18.316 2134.9592,-21.941 2135.0469,-14.9416"/>
<text text-anchor="middle" x="2887.0404" y="-188.3" font-family="Times,serif" font-size="14.00" fill="#000000">of_synonym</text>
</g>
<!-- sample&#45;&gt;participant -->
<g id="edge12" class="edge">
<title>sample&#45;&gt;participant</title>
<path fill="none" stroke="#000000" d="M2143.5582,-267.9046C2103.964,-255.8587 2037.32,-237.1231 1978.5404,-228 1875.5509,-212.0152 1573.5729,-199.56 1433.9136,-194.4823"/>
<polygon fill="#000000" stroke="#000000" points="1433.8591,-190.9781 1423.7393,-194.115 1433.6065,-197.9736 1433.8591,-190.9781"/>
<text text-anchor="middle" x="2087.0404" y="-231.8" font-family="Times,serif" font-size="14.00" fill="#000000">of_sample</text>
</g>
<!-- cell_line -->
<g id="node25" class="node">
<title>cell_line</title>
<ellipse fill="none" stroke="#000000" cx="2274.5404" cy="-192" rx="49.2915" ry="18"/>
<text text-anchor="middle" x="2274.5404" y="-188.3" font-family="Times,serif" font-size="14.00" fill="#000000">cell_line</text>
</g>
<!-- sample&#45;&gt;cell_line -->
<g id="edge11" class="edge">
<title>sample&#45;&gt;cell_line</title>
<path fill="none" stroke="#000000" d="M2172.2682,-260.9611C2169.8024,-250.4481 2168.9255,-237.4441 2175.5404,-228 2181.6137,-219.3291 2202.4402,-211.1383 2223.4344,-204.7667"/>
<polygon fill="#000000" stroke="#000000" points="2224.4157,-208.1264 2233.0398,-201.972 2222.4601,-201.4051 2224.4157,-208.1264"/>
<text text-anchor="middle" x="2212.0404" y="-231.8" font-family="Times,serif" font-size="14.00" fill="#000000">of_sample</text>
</g>
<!-- pdx -->
<g id="node26" class="node">
<title>pdx</title>
<ellipse fill="none" stroke="#000000" cx="2634.5404" cy="-192" rx="27.8951" ry="18"/>
<text text-anchor="middle" x="2634.5404" y="-188.3" font-family="Times,serif" font-size="14.00" fill="#000000">pdx</text>
</g>
<!-- sample&#45;&gt;pdx -->
<g id="edge13" class="edge">
<title>sample&#45;&gt;pdx</title>
<path fill="none" stroke="#000000" d="M2222.634,-277.4732C2342.7633,-273.1012 2667.9285,-259.7644 2683.5404,-243 2694.5546,-231.1726 2681.289,-218.0252 2665.7993,-208.0418"/>
<polygon fill="#000000" stroke="#000000" points="2667.4852,-204.972 2657.1052,-202.8495 2663.896,-210.9818 2667.4852,-204.972"/>
<text text-anchor="middle" x="2724.0404" y="-231.8" font-family="Times,serif" font-size="14.00" fill="#000000">of_sample</text>
</g>
<!-- pathology_file -->
<g id="node18" class="node">
<title>pathology_file</title>
<ellipse fill="none" stroke="#000000" cx="2007.5404" cy="-366" rx="76.0865" ry="18"/>
<text text-anchor="middle" x="2007.5404" y="-362.3" font-family="Times,serif" font-size="14.00" fill="#000000">pathology_file</text>
</g>
<!-- pathology_file&#45;&gt;sample -->
<g id="edge29" class="edge">
<title>pathology_file&#45;&gt;sample</title>
<path fill="none" stroke="#000000" d="M2021.0871,-348.1337C2030.2762,-337.1459 2043.3084,-323.5745 2057.5404,-315 2070.0932,-307.4372 2102.5512,-297.9517 2130.6921,-290.6162"/>
<polygon fill="#000000" stroke="#000000" points="2131.6102,-293.9941 2140.4262,-288.1179 2129.87,-287.2138 2131.6102,-293.9941"/>
<text text-anchor="middle" x="2118.5404" y="-318.8" font-family="Times,serif" font-size="14.00" fill="#000000">of_pathology_file</text>
</g>
<!-- survival -->
<g id="node19" class="node">
<title>survival</title>
<ellipse fill="none" stroke="#000000" cx="1888.5404" cy="-279" rx="48.1917" ry="18"/>
<text text-anchor="middle" x="1888.5404" y="-275.3" font-family="Times,serif" font-size="14.00" fill="#000000">survival</text>
</g>
<!-- survival&#45;&gt;participant -->
<g id="edge20" class="edge">
<title>survival&#45;&gt;participant</title>
<path fill="none" stroke="#000000" d="M1855.2025,-265.9186C1823.6075,-254.0805 1774.5669,-237.1421 1730.5404,-228 1628.9677,-206.9085 1509.0335,-198.1052 1434.1164,-194.4774"/>
<polygon fill="#000000" stroke="#000000" points="1434.0027,-190.9684 1423.8506,-193.9991 1433.6768,-197.9608 1434.0027,-190.9684"/>
<text text-anchor="middle" x="1827.0404" y="-231.8" font-family="Times,serif" font-size="14.00" fill="#000000">of_survival</text>
</g>
<!-- study_admin -->
<g id="node20" class="node">
<title>study_admin</title>
<ellipse fill="none" stroke="#000000" cx="2186.5404" cy="-105" rx="70.3881" ry="18"/>
<text text-anchor="middle" x="2186.5404" y="-101.3" font-family="Times,serif" font-size="14.00" fill="#000000">study_admin</text>
</g>
<!-- study_admin&#45;&gt;study -->
<g id="edge10" class="edge">
<title>study_admin&#45;&gt;study</title>
<path fill="none" stroke="#000000" d="M2166.7086,-87.3943C2151.5203,-73.9107 2130.4533,-55.2084 2114.0165,-40.6166"/>
<polygon fill="#000000" stroke="#000000" points="2116.1675,-37.8459 2106.3656,-33.8244 2111.5203,-43.0808 2116.1675,-37.8459"/>
<text text-anchor="middle" x="2199.0404" y="-57.8" font-family="Times,serif" font-size="14.00" fill="#000000">of_study_admin</text>
</g>
<!-- cytogenomic_file -->
<g id="node21" class="node">
<title>cytogenomic_file</title>
<ellipse fill="none" stroke="#000000" cx="2191.5404" cy="-366" rx="89.8845" ry="18"/>
<text text-anchor="middle" x="2191.5404" y="-362.3" font-family="Times,serif" font-size="14.00" fill="#000000">cytogenomic_file</text>
</g>
<!-- cytogenomic_file&#45;&gt;sample -->
<g id="edge1" class="edge">
<title>cytogenomic_file&#45;&gt;sample</title>
<path fill="none" stroke="#000000" d="M2188.8468,-347.9735C2187.0863,-336.1918 2184.7506,-320.5607 2182.7479,-307.1581"/>
<polygon fill="#000000" stroke="#000000" points="2186.17,-306.3763 2181.2305,-297.0034 2179.2469,-307.4108 2186.17,-306.3763"/>
<text text-anchor="middle" x="2257.0404" y="-318.8" font-family="Times,serif" font-size="14.00" fill="#000000">of_cytogenomic_file</text>
</g>
<!-- study_funding -->
<g id="node22" class="node">
<title>study_funding</title>
<ellipse fill="none" stroke="#000000" cx="2352.5404" cy="-105" rx="77.1866" ry="18"/>
<text text-anchor="middle" x="2352.5404" y="-101.3" font-family="Times,serif" font-size="14.00" fill="#000000">study_funding</text>
</g>
<!-- study_funding&#45;&gt;study -->
<g id="edge16" class="edge">
<title>study_funding&#45;&gt;study</title>
<path fill="none" stroke="#000000" d="M2326.2729,-87.8624C2308.1698,-76.7484 2283.1988,-62.7582 2259.5404,-54 2218.3671,-38.7579 2169.0997,-29.2443 2134.0464,-23.8533"/>
<polygon fill="#000000" stroke="#000000" points="2134.5087,-20.3837 2124.1028,-22.3758 2133.4798,-27.3077 2134.5087,-20.3837"/>
<text text-anchor="middle" x="2352.5404" y="-57.8" font-family="Times,serif" font-size="14.00" fill="#000000">of_study_funding</text>
</g>
<!-- exposure -->
<g id="node23" class="node">
<title>exposure</title>
<ellipse fill="none" stroke="#000000" cx="2007.5404" cy="-279" rx="53.0913" ry="18"/>
<text text-anchor="middle" x="2007.5404" y="-275.3" font-family="Times,serif" font-size="14.00" fill="#000000">exposure</text>
</g>
<!-- exposure&#45;&gt;participant -->
<g id="edge18" class="edge">
<title>exposure&#45;&gt;participant</title>
<path fill="none" stroke="#000000" d="M1967.4113,-267.1412C1936.7788,-257.9886 1898.6489,-246.3414 1891.5404,-243 1880.4957,-237.8083 1880.1079,-231.8898 1868.5404,-228 1828.4338,-214.5132 1563.8157,-201.0271 1433.6268,-195.1116"/>
<polygon fill="#000000" stroke="#000000" points="1433.5004,-191.6024 1423.3527,-194.6478 1433.1846,-198.5953 1433.5004,-191.6024"/>
<text text-anchor="middle" x="1935.0404" y="-231.8" font-family="Times,serif" font-size="14.00" fill="#000000">of_exposure</text>
</g>
<!-- cell_line&#45;&gt;sample -->
<g id="edge2" class="edge">
<title>cell_line&#45;&gt;sample</title>
<path fill="none" stroke="#000000" d="M2270.0918,-210.3155C2266.7383,-220.9265 2261.2004,-233.9365 2252.5404,-243 2244.3724,-251.5486 2233.7519,-258.3323 2223.1183,-263.5988"/>
<polygon fill="#000000" stroke="#000000" points="2221.4721,-260.5029 2213.8315,-267.8427 2224.3816,-266.8696 2221.4721,-260.5029"/>
<text text-anchor="middle" x="2303.0404" y="-231.8" font-family="Times,serif" font-size="14.00" fill="#000000">of_cell_line</text>
</g>
<!-- cell_line&#45;&gt;study -->
<g id="edge3" class="edge">
<title>cell_line&#45;&gt;study</title>
<path fill="none" stroke="#000000" d="M2321.6528,-186.3079C2360.3133,-178.8788 2412.7345,-161.8543 2438.5404,-123 2456.2054,-96.4029 2445.4678,-71.1571 2418.5404,-54 2395.1531,-39.0985 2220.3939,-26.2545 2135.0992,-20.7975"/>
<polygon fill="#000000" stroke="#000000" points="2135.1117,-17.2914 2124.9109,-20.1537 2134.6702,-24.2775 2135.1117,-17.2914"/>
<text text-anchor="middle" x="2487.0404" y="-101.3" font-family="Times,serif" font-size="14.00" fill="#000000">of_cell_line</text>
</g>
<!-- pdx&#45;&gt;sample -->
<g id="edge36" class="edge">
<title>pdx&#45;&gt;sample</title>
<path fill="none" stroke="#000000" d="M2607.6454,-197.1313C2533.4728,-211.2826 2325.1376,-251.0308 2228.6927,-269.4315"/>
<polygon fill="#000000" stroke="#000000" points="2227.7745,-266.0434 2218.6077,-271.3556 2229.0865,-272.9194 2227.7745,-266.0434"/>
<text text-anchor="middle" x="2457.5404" y="-231.8" font-family="Times,serif" font-size="14.00" fill="#000000">of_pdx</text>
</g>
<!-- pdx&#45;&gt;study -->
<g id="edge35" class="edge">
<title>pdx&#45;&gt;study</title>
<path fill="none" stroke="#000000" d="M2622.329,-175.5437C2604.6341,-152.7439 2569.772,-111.5836 2531.5404,-87 2495.3541,-63.7316 2482.4786,-63.5944 2440.5404,-54 2333.1092,-29.4226 2203.3818,-21.6125 2135.3683,-19.1392"/>
<polygon fill="#000000" stroke="#000000" points="2135.1086,-15.6284 2124.9953,-18.7863 2134.8705,-22.6244 2135.1086,-15.6284"/>
<text text-anchor="middle" x="2598.5404" y="-101.3" font-family="Times,serif" font-size="14.00" fill="#000000">of_pdx</text>
</g>
<!-- generic_file -->
<g id="node27" class="node">
<title>generic_file</title>
<ellipse fill="none" stroke="#000000" cx="1847.5404" cy="-366" rx="65.7887" ry="18"/>
<text text-anchor="middle" x="1847.5404" y="-362.3" font-family="Times,serif" font-size="14.00" fill="#000000">generic_file</text>
</g>
<!-- generic_file&#45;&gt;participant -->
<g id="edge27" class="edge">
<title>generic_file&#45;&gt;participant</title>
<path fill="none" stroke="#000000" d="M1852.0807,-347.8267C1853.633,-336.9987 1853.3452,-323.7116 1845.5404,-315 1809.554,-274.8326 1773.6922,-321.2867 1725.5404,-297 1705.3373,-286.81 1707.4837,-274.7854 1689.5404,-261 1666.3275,-243.166 1660.2484,-237.4422 1632.5404,-228 1596.4857,-215.7135 1499.1075,-204.6818 1431.4784,-198.1614"/>
<polygon fill="#000000" stroke="#000000" points="1431.5975,-194.657 1421.3107,-197.1934 1430.934,-201.6255 1431.5975,-194.657"/>
<text text-anchor="middle" x="1778.5404" y="-275.3" font-family="Times,serif" font-size="14.00" fill="#000000">of_generic_file</text>
</g>
<!-- generic_file&#45;&gt;sample -->
<g id="edge26" class="edge">
<title>generic_file&#45;&gt;sample</title>
<path fill="none" stroke="#000000" d="M1868.8162,-348.753C1884.3865,-337.1346 1906.5497,-322.5939 1928.5404,-315 2002.0281,-289.623 2025.8866,-309.9861 2102.5404,-297 2111.8673,-295.4199 2121.755,-293.3642 2131.2052,-291.2095"/>
<polygon fill="#000000" stroke="#000000" points="2132.307,-294.5459 2141.2407,-288.8503 2130.7051,-287.7317 2132.307,-294.5459"/>
<text text-anchor="middle" x="1981.5404" y="-318.8" font-family="Times,serif" font-size="14.00" fill="#000000">of_generic_file</text>
</g>
<!-- generic_file&#45;&gt;study -->
<g id="edge28" class="edge">
<title>generic_file&#45;&gt;study</title>
<path fill="none" stroke="#000000" d="M1860.1174,-348.2247C1869.3428,-336.6791 1882.9444,-322.4404 1898.5404,-315 1933.0268,-298.5475 2040.0229,-321.2635 2069.5404,-297 2091.6403,-278.8337 2088.5404,-264.108 2088.5404,-235.5 2088.5404,-235.5 2088.5404,-235.5 2088.5404,-105 2088.5404,-85.5475 2088.5404,-63.6484 2088.5404,-46.6877"/>
<polygon fill="#000000" stroke="#000000" points="2092.0405,-46.3305 2088.5404,-36.3306 2085.0405,-46.3306 2092.0405,-46.3305"/>
<text text-anchor="middle" x="2141.5404" y="-188.3" font-family="Times,serif" font-size="14.00" fill="#000000">of_generic_file</text>
</g>
<!-- treatment -->
<g id="node28" class="node">
<title>treatment</title>
<ellipse fill="none" stroke="#000000" cx="583.5404" cy="-279" rx="57.6901" ry="18"/>
<text text-anchor="middle" x="583.5404" y="-275.3" font-family="Times,serif" font-size="14.00" fill="#000000">treatment</text>
</g>
<!-- treatment&#45;&gt;participant -->
<g id="edge19" class="edge">
<title>treatment&#45;&gt;participant</title>
<path fill="none" stroke="#000000" d="M603.173,-261.9044C618.0878,-250.0355 639.6977,-235.123 661.5404,-228 719.9708,-208.9457 1122.1026,-197.5457 1289.0905,-193.5853"/>
<polygon fill="#000000" stroke="#000000" points="1289.3497,-197.0803 1299.2647,-193.3463 1289.1852,-190.0822 1289.3497,-197.0803"/>
<text text-anchor="middle" x="708.5404" y="-231.8" font-family="Times,serif" font-size="14.00" fill="#000000">of_treatment</text>
</g>
</g>
</svg>
