<svg width="3183pt" height="392pt"
 viewBox="0.00 0.00 3182.79 392.00" xmlns="http://www.w3.org/2000/svg" xmlns:xlink="http://www.w3.org/1999/xlink">
<g id="graph0" class="graph" transform="scale(1 1) rotate(0) translate(4 388)">
<title>Perl</title>
<polygon fill="#ffffff" stroke="transparent" points="-4,4 -4,-388 3178.7947,-388 3178.7947,4 -4,4"/>
<!-- sample -->
<g id="node1" class="node">
<title>sample</title>
<ellipse fill="none" stroke="#000000" cx="2413.7947" cy="-279" rx="44.393" ry="18"/>
<text text-anchor="middle" x="2413.7947" y="-275.3" font-family="Times,serif" font-size="14.00" fill="#000000">sample</text>
</g>
<!-- cell_line -->
<g id="node13" class="node">
<title>cell_line</title>
<ellipse fill="none" stroke="#000000" cx="2391.7947" cy="-192" rx="49.2915" ry="18"/>
<text text-anchor="middle" x="2391.7947" y="-188.3" font-family="Times,serif" font-size="14.00" fill="#000000">cell_line</text>
</g>
<!-- sample&#45;&gt;cell_line -->
<g id="edge11" class="edge">
<title>sample&#45;&gt;cell_line</title>
<path fill="none" stroke="#000000" d="M2401.1982,-261.4969C2397.8134,-255.8606 2394.5949,-249.4088 2392.7947,-243 2390.7762,-235.8143 2389.9785,-227.8322 2389.8164,-220.3569"/>
<polygon fill="#000000" stroke="#000000" points="2393.3172,-220.3079 2389.9495,-210.2625 2386.3178,-220.2155 2393.3172,-220.3079"/>
<text text-anchor="middle" x="2429.2947" y="-231.8" font-family="Times,serif" font-size="14.00" fill="#000000">of_sample</text>
</g>
<!-- pdx -->
<g id="node18" class="node">
<title>pdx</title>
<ellipse fill="none" stroke="#000000" cx="2861.7947" cy="-192" rx="27.8951" ry="18"/>
<text text-anchor="middle" x="2861.7947" y="-188.3" font-family="Times,serif" font-size="14.00" fill="#000000">pdx</text>
</g>
<!-- sample&#45;&gt;pdx -->
<g id="edge9" class="edge">
<title>sample&#45;&gt;pdx</title>
<path fill="none" stroke="#000000" d="M2453.946,-271.2028C2540.1405,-254.4641 2741.8021,-215.3021 2824.9506,-199.155"/>
<polygon fill="#000000" stroke="#000000" points="2825.8013,-202.5553 2834.9506,-197.213 2824.4668,-195.6836 2825.8013,-202.5553"/>
<text text-anchor="middle" x="2700.2947" y="-231.8" font-family="Times,serif" font-size="14.00" fill="#000000">of_sample</text>
</g>
<!-- participant -->
<g id="node19" class="node">
<title>participant</title>
<ellipse fill="none" stroke="#000000" cx="1461.7947" cy="-192" rx="62.2891" ry="18"/>
<text text-anchor="middle" x="1461.7947" y="-188.3" font-family="Times,serif" font-size="14.00" fill="#000000">participant</text>
</g>
<!-- sample&#45;&gt;participant -->
<g id="edge10" class="edge">
<title>sample&#45;&gt;participant</title>
<path fill="none" stroke="#000000" d="M2380.4214,-267.11C2360.9636,-260.1467 2335.9636,-251.1467 2313.7947,-243 2295.9733,-236.4509 2292.3971,-231.8007 2273.7947,-228 2202.5578,-213.4454 1719.709,-198.9922 1534.1929,-193.911"/>
<polygon fill="#000000" stroke="#000000" points="1534.0864,-190.4069 1523.9947,-193.6329 1533.8956,-197.4043 1534.0864,-190.4069"/>
<text text-anchor="middle" x="2350.2947" y="-231.8" font-family="Times,serif" font-size="14.00" fill="#000000">of_sample</text>
</g>
<!-- study_arm -->
<g id="node2" class="node">
<title>study_arm</title>
<ellipse fill="none" stroke="#000000" cx="59.7947" cy="-105" rx="59.5901" ry="18"/>
<text text-anchor="middle" x="59.7947" y="-101.3" font-family="Times,serif" font-size="14.00" fill="#000000">study_arm</text>
</g>
<!-- study -->
<g id="node5" class="node">
<title>study</title>
<ellipse fill="none" stroke="#000000" cx="652.7947" cy="-18" rx="36.2938" ry="18"/>
<text text-anchor="middle" x="652.7947" y="-14.3" font-family="Times,serif" font-size="14.00" fill="#000000">study</text>
</g>
<!-- study_arm&#45;&gt;study -->
<g id="edge31" class="edge">
<title>study_arm&#45;&gt;study</title>
<path fill="none" stroke="#000000" d="M75.8868,-87.5104C87.8507,-75.7776 105.253,-61.2 123.7947,-54 168.0904,-36.7994 485.0746,-23.9258 606.0458,-19.5891"/>
<polygon fill="#000000" stroke="#000000" points="606.2426,-23.0844 616.1121,-19.2317 605.9942,-16.0888 606.2426,-23.0844"/>
<text text-anchor="middle" x="172.2947" y="-57.8" font-family="Times,serif" font-size="14.00" fill="#000000">of_study_arm</text>
</g>
<!-- family_relationship -->
<g id="node3" class="node">
<title>family_relationship</title>
<ellipse fill="none" stroke="#000000" cx="856.7947" cy="-279" rx="100.1823" ry="18"/>
<text text-anchor="middle" x="856.7947" y="-275.3" font-family="Times,serif" font-size="14.00" fill="#000000">family_relationship</text>
</g>
<!-- family_relationship&#45;&gt;participant -->
<g id="edge32" class="edge">
<title>family_relationship&#45;&gt;participant</title>
<path fill="none" stroke="#000000" d="M842.2284,-261.0389C835.3388,-250.2908 830.2873,-237.0132 838.7947,-228 857.4301,-208.2567 1228.93,-197.3585 1389.2105,-193.5597"/>
<polygon fill="#000000" stroke="#000000" points="1389.5412,-197.053 1399.4565,-193.3198 1389.3772,-190.055 1389.5412,-197.053"/>
<text text-anchor="middle" x="918.2947" y="-231.8" font-family="Times,serif" font-size="14.00" fill="#000000">of_family_relationship</text>
</g>
<!-- treatment_response -->
<g id="node4" class="node">
<title>treatment_response</title>
<ellipse fill="none" stroke="#000000" cx="1479.7947" cy="-279" rx="104.7816" ry="18"/>
<text text-anchor="middle" x="1479.7947" y="-275.3" font-family="Times,serif" font-size="14.00" fill="#000000">treatment_response</text>
</g>
<!-- treatment_response&#45;&gt;participant -->
<g id="edge2" class="edge">
<title>treatment_response&#45;&gt;participant</title>
<path fill="none" stroke="#000000" d="M1469.4126,-260.8593C1466.7381,-255.3037 1464.2152,-249.0563 1462.7947,-243 1461.0903,-235.7334 1460.3997,-227.7236 1460.2402,-220.2477"/>
<polygon fill="#000000" stroke="#000000" points="1463.7406,-220.1943 1460.318,-210.1676 1456.7408,-220.1403 1463.7406,-220.1943"/>
<text text-anchor="middle" x="1545.7947" y="-231.8" font-family="Times,serif" font-size="14.00" fill="#000000">of_treatment_response</text>
</g>
<!-- study_admin -->
<g id="node6" class="node">
<title>study_admin</title>
<ellipse fill="none" stroke="#000000" cx="207.7947" cy="-105" rx="70.3881" ry="18"/>
<text text-anchor="middle" x="207.7947" y="-101.3" font-family="Times,serif" font-size="14.00" fill="#000000">study_admin</text>
</g>
<!-- study_admin&#45;&gt;study -->
<g id="edge12" class="edge">
<title>study_admin&#45;&gt;study</title>
<path fill="none" stroke="#000000" d="M213.9521,-86.7877C218.8224,-75.3627 226.8232,-61.4337 238.7947,-54 269.3917,-35.0007 504.1426,-23.7377 605.9462,-19.7017"/>
<polygon fill="#000000" stroke="#000000" points="606.384,-23.1874 616.24,-19.3003 606.1112,-16.1927 606.384,-23.1874"/>
<text text-anchor="middle" x="295.2947" y="-57.8" font-family="Times,serif" font-size="14.00" fill="#000000">of_study_admin</text>
</g>
<!-- study_funding -->
<g id="node7" class="node">
<title>study_funding</title>
<ellipse fill="none" stroke="#000000" cx="373.7947" cy="-105" rx="77.1866" ry="18"/>
<text text-anchor="middle" x="373.7947" y="-101.3" font-family="Times,serif" font-size="14.00" fill="#000000">study_funding</text>
</g>
<!-- study_funding&#45;&gt;study -->
<g id="edge24" class="edge">
<title>study_funding&#45;&gt;study</title>
<path fill="none" stroke="#000000" d="M361.4704,-87.0842C355.7373,-76.3532 351.7642,-63.0776 359.7947,-54 375.8411,-35.8614 527.9177,-24.8825 606.4054,-20.3789"/>
<polygon fill="#000000" stroke="#000000" points="606.7252,-23.8666 616.5132,-19.8114 606.3327,-16.8776 606.7252,-23.8666"/>
<text text-anchor="middle" x="421.7947" y="-57.8" font-family="Times,serif" font-size="14.00" fill="#000000">of_study_funding</text>
</g>
<!-- clinical_measure_file -->
<g id="node8" class="node">
<title>clinical_measure_file</title>
<ellipse fill="none" stroke="#000000" cx="369.7947" cy="-366" rx="108.5808" ry="18"/>
<text text-anchor="middle" x="369.7947" y="-362.3" font-family="Times,serif" font-size="14.00" fill="#000000">clinical_measure_file</text>
</g>
<!-- clinical_measure_file&#45;&gt;sample -->
<g id="edge14" class="edge">
<title>clinical_measure_file&#45;&gt;sample</title>
<path fill="none" stroke="#000000" d="M466.9162,-357.8696C506.0174,-354.6723 551.5411,-351.0455 592.7947,-348 811.8002,-331.8322 866.3734,-323.8925 1085.7947,-315 1226.8042,-309.2853 2216.4172,-319.1419 2355.7947,-297 2360.8074,-296.2037 2365.9859,-295.0703 2371.0905,-293.7548"/>
<polygon fill="#000000" stroke="#000000" points="2372.0716,-297.1148 2380.7529,-291.0414 2370.179,-290.3755 2372.0716,-297.1148"/>
<text text-anchor="middle" x="1171.7947" y="-318.8" font-family="Times,serif" font-size="14.00" fill="#000000">of_clinical_measure_file</text>
</g>
<!-- clinical_measure_file&#45;&gt;study -->
<g id="edge13" class="edge">
<title>clinical_measure_file&#45;&gt;study</title>
<path fill="none" stroke="#000000" d="M363.7125,-348.0128C352.721,-312.0413 333.6105,-229.9002 366.7947,-174 367.2479,-173.2366 543.1375,-77.5908 618.8216,-36.459"/>
<polygon fill="#000000" stroke="#000000" points="620.846,-39.3424 627.9612,-31.4923 617.5035,-33.1919 620.846,-39.3424"/>
<text text-anchor="middle" x="452.7947" y="-188.3" font-family="Times,serif" font-size="14.00" fill="#000000">of_clinical_measure_file</text>
</g>
<!-- clinical_measure_file&#45;&gt;participant -->
<g id="edge15" class="edge">
<title>clinical_measure_file&#45;&gt;participant</title>
<path fill="none" stroke="#000000" d="M381.5002,-348.0293C398.3204,-323.8442 431.7519,-281.4958 471.7947,-261 552.8079,-219.5337 1174.4836,-199.5128 1389.1635,-193.7844"/>
<polygon fill="#000000" stroke="#000000" points="1389.4754,-197.2775 1399.3794,-193.5144 1389.2904,-190.2799 1389.4754,-197.2775"/>
<text text-anchor="middle" x="557.7947" y="-275.3" font-family="Times,serif" font-size="14.00" fill="#000000">of_clinical_measure_file</text>
</g>
<!-- publication -->
<g id="node9" class="node">
<title>publication</title>
<ellipse fill="none" stroke="#000000" cx="1120.7947" cy="-105" rx="63.0888" ry="18"/>
<text text-anchor="middle" x="1120.7947" y="-101.3" font-family="Times,serif" font-size="14.00" fill="#000000">publication</text>
</g>
<!-- publication&#45;&gt;study -->
<g id="edge17" class="edge">
<title>publication&#45;&gt;study</title>
<path fill="none" stroke="#000000" d="M1091.4744,-88.8908C1068.7789,-77.1987 1036.1918,-62.0708 1005.7947,-54 949.054,-38.9346 781.1294,-26.3469 699.0313,-20.8985"/>
<polygon fill="#000000" stroke="#000000" points="699.1916,-17.4016 688.9837,-20.239 698.733,-24.3866 699.1916,-17.4016"/>
<text text-anchor="middle" x="1099.7947" y="-57.8" font-family="Times,serif" font-size="14.00" fill="#000000">of_publication</text>
</g>
<!-- sequencing_file -->
<g id="node10" class="node">
<title>sequencing_file</title>
<ellipse fill="none" stroke="#000000" cx="2661.7947" cy="-366" rx="83.3857" ry="18"/>
<text text-anchor="middle" x="2661.7947" y="-362.3" font-family="Times,serif" font-size="14.00" fill="#000000">sequencing_file</text>
</g>
<!-- sequencing_file&#45;&gt;sample -->
<g id="edge34" class="edge">
<title>sequencing_file&#45;&gt;sample</title>
<path fill="none" stroke="#000000" d="M2651.3071,-348.065C2643.7296,-336.7571 2632.4471,-322.8544 2618.7947,-315 2593.6153,-300.514 2519.2018,-290.0237 2467.3293,-284.2242"/>
<polygon fill="#000000" stroke="#000000" points="2467.5973,-280.7327 2457.2766,-283.127 2466.8378,-287.6914 2467.5973,-280.7327"/>
<text text-anchor="middle" x="2703.2947" y="-318.8" font-family="Times,serif" font-size="14.00" fill="#000000">of_sequencing_file</text>
</g>
<!-- synonym -->
<g id="node11" class="node">
<title>synonym</title>
<ellipse fill="none" stroke="#000000" cx="653.7947" cy="-366" rx="51.9908" ry="18"/>
<text text-anchor="middle" x="653.7947" y="-362.3" font-family="Times,serif" font-size="14.00" fill="#000000">synonym</text>
</g>
<!-- synonym&#45;&gt;sample -->
<g id="edge29" class="edge">
<title>synonym&#45;&gt;sample</title>
<path fill="none" stroke="#000000" d="M704.8829,-362.2766C758.0511,-358.4579 843.7363,-352.462 917.7947,-348 1070.6156,-338.7926 1108.9325,-338.4952 1261.7947,-330 1375.149,-323.7004 1403.3567,-319.5517 1516.7947,-315 1703.1321,-307.5232 2171.7246,-326.9291 2355.7947,-297 2360.8045,-296.1854 2365.9811,-295.0407 2371.0847,-293.7188"/>
<polygon fill="#000000" stroke="#000000" points="2372.0689,-297.0778 2380.746,-290.9985 2370.1717,-290.3398 2372.0689,-297.0778"/>
<text text-anchor="middle" x="1559.2947" y="-318.8" font-family="Times,serif" font-size="14.00" fill="#000000">of_synonym</text>
</g>
<!-- synonym&#45;&gt;study -->
<g id="edge28" class="edge">
<title>synonym&#45;&gt;study</title>
<path fill="none" stroke="#000000" d="M635.6876,-348.9842C609.0262,-322.4115 560.7479,-268.0567 545.7947,-210 528.5116,-142.8974 589.581,-74.3884 626.5457,-40.2291"/>
<polygon fill="#000000" stroke="#000000" points="628.9518,-42.7722 634.0308,-33.4741 624.262,-37.5755 628.9518,-42.7722"/>
<text text-anchor="middle" x="588.2947" y="-188.3" font-family="Times,serif" font-size="14.00" fill="#000000">of_synonym</text>
</g>
<!-- synonym&#45;&gt;participant -->
<g id="edge30" class="edge">
<title>synonym&#45;&gt;participant</title>
<path fill="none" stroke="#000000" d="M649.4302,-347.8766C645.0188,-324.6888 641.5371,-284.6978 662.7947,-261 710.8081,-207.4751 1201.5932,-195.4035 1389.3145,-192.7374"/>
<polygon fill="#000000" stroke="#000000" points="1389.4126,-196.2365 1399.3636,-192.5996 1389.3165,-189.2371 1389.4126,-196.2365"/>
<text text-anchor="middle" x="705.2947" y="-275.3" font-family="Times,serif" font-size="14.00" fill="#000000">of_synonym</text>
</g>
<!-- laboratory_test -->
<g id="node12" class="node">
<title>laboratory_test</title>
<ellipse fill="none" stroke="#000000" cx="3055.7947" cy="-366" rx="81.7856" ry="18"/>
<text text-anchor="middle" x="3055.7947" y="-362.3" font-family="Times,serif" font-size="14.00" fill="#000000">laboratory_test</text>
</g>
<!-- laboratory_test&#45;&gt;sample -->
<g id="edge6" class="edge">
<title>laboratory_test&#45;&gt;sample</title>
<path fill="none" stroke="#000000" d="M3008.5397,-351.2047C2990.8196,-345.21 2970.6572,-337.8492 2952.7947,-330 2939.8698,-324.3205 2938.3584,-318.916 2924.7947,-315 2840.3826,-290.629 2581.8766,-282.4327 2468.292,-279.9611"/>
<polygon fill="#000000" stroke="#000000" points="2468.1592,-276.4576 2458.0877,-279.746 2468.0116,-283.4561 2468.1592,-276.4576"/>
<text text-anchor="middle" x="3018.2947" y="-318.8" font-family="Times,serif" font-size="14.00" fill="#000000">of_laboratory_test</text>
</g>
<!-- laboratory_test&#45;&gt;participant -->
<g id="edge5" class="edge">
<title>laboratory_test&#45;&gt;participant</title>
<path fill="none" stroke="#000000" d="M3075.6438,-348.3715C3084.9413,-338.004 3092.2946,-325.0089 3083.7947,-315 3045.1653,-269.5125 2613.1864,-233.8287 2553.7947,-228 2355.1716,-208.507 1745.2556,-196.7361 1534.4042,-193.1631"/>
<polygon fill="#000000" stroke="#000000" points="1534.4269,-189.6631 1524.3694,-192.9941 1534.309,-196.6621 1534.4269,-189.6631"/>
<text text-anchor="middle" x="3109.2947" y="-275.3" font-family="Times,serif" font-size="14.00" fill="#000000">of_laboratory_test</text>
</g>
<!-- cell_line&#45;&gt;sample -->
<g id="edge39" class="edge">
<title>cell_line&#45;&gt;sample</title>
<path fill="none" stroke="#000000" d="M2432.3008,-202.319C2445.2688,-207.7452 2458.2177,-215.8879 2465.7947,-228 2473.2764,-239.9598 2464.3616,-251.1812 2451.9204,-260.0365"/>
<polygon fill="#000000" stroke="#000000" points="2449.9148,-257.1645 2443.3724,-265.498 2453.6837,-263.0633 2449.9148,-257.1645"/>
<text text-anchor="middle" x="2509.2947" y="-231.8" font-family="Times,serif" font-size="14.00" fill="#000000">of_cell_line</text>
</g>
<!-- cell_line&#45;&gt;study -->
<g id="edge40" class="edge">
<title>cell_line&#45;&gt;study</title>
<path fill="none" stroke="#000000" d="M2342.3805,-190.9638C2096.1366,-185.7729 1011.9868,-162.5851 977.7947,-156 936.3689,-148.0217 921.7573,-149.3291 888.7947,-123 860.1881,-100.1503 874.2254,-74.3572 843.7947,-54 820.5563,-38.4543 747.3707,-27.9499 698.6384,-22.4741"/>
<polygon fill="#000000" stroke="#000000" points="698.9582,-18.9883 688.6374,-21.382 698.1983,-25.9469 698.9582,-18.9883"/>
<text text-anchor="middle" x="929.2947" y="-101.3" font-family="Times,serif" font-size="14.00" fill="#000000">of_cell_line</text>
</g>
<!-- generic_file -->
<g id="node14" class="node">
<title>generic_file</title>
<ellipse fill="none" stroke="#000000" cx="992.7947" cy="-366" rx="65.7887" ry="18"/>
<text text-anchor="middle" x="992.7947" y="-362.3" font-family="Times,serif" font-size="14.00" fill="#000000">generic_file</text>
</g>
<!-- generic_file&#45;&gt;sample -->
<g id="edge36" class="edge">
<title>generic_file&#45;&gt;sample</title>
<path fill="none" stroke="#000000" d="M1057.2232,-362.2535C1168.9146,-355.7502 1405.7287,-341.9251 1605.7947,-330 1716.0227,-323.4298 1743.4989,-320.3122 1853.7947,-315 1965.2927,-309.6299 2245.7461,-315.7072 2355.7947,-297 2360.6085,-296.1817 2365.5787,-295.0704 2370.4914,-293.7988"/>
<polygon fill="#000000" stroke="#000000" points="2371.7458,-297.0819 2380.4256,-291.0063 2369.8515,-290.3431 2371.7458,-297.0819"/>
<text text-anchor="middle" x="1906.7947" y="-318.8" font-family="Times,serif" font-size="14.00" fill="#000000">of_generic_file</text>
</g>
<!-- generic_file&#45;&gt;study -->
<g id="edge38" class="edge">
<title>generic_file&#45;&gt;study</title>
<path fill="none" stroke="#000000" d="M928.1113,-362.7227C837.2877,-356.6134 679.0835,-339.9487 643.7947,-297 628.1664,-277.9794 643.0163,-113.3913 649.8084,-46.2934"/>
<polygon fill="#000000" stroke="#000000" points="653.3218,-46.3408 650.8611,-36.0357 646.3584,-45.6261 653.3218,-46.3408"/>
<text text-anchor="middle" x="692.7947" y="-188.3" font-family="Times,serif" font-size="14.00" fill="#000000">of_generic_file</text>
</g>
<!-- generic_file&#45;&gt;participant -->
<g id="edge37" class="edge">
<title>generic_file&#45;&gt;participant</title>
<path fill="none" stroke="#000000" d="M988.2748,-347.7341C983.6952,-324.3922 980.0321,-284.2349 1001.7947,-261 1028.038,-232.9813 1269.0939,-208.5168 1391.3616,-197.7854"/>
<polygon fill="#000000" stroke="#000000" points="1391.7255,-201.267 1401.3843,-196.9131 1391.1185,-194.2934 1391.7255,-201.267"/>
<text text-anchor="middle" x="1054.7947" y="-275.3" font-family="Times,serif" font-size="14.00" fill="#000000">of_generic_file</text>
</g>
<!-- genetic_analysis -->
<g id="node15" class="node">
<title>genetic_analysis</title>
<ellipse fill="none" stroke="#000000" cx="1899.7947" cy="-366" rx="87.9851" ry="18"/>
<text text-anchor="middle" x="1899.7947" y="-362.3" font-family="Times,serif" font-size="14.00" fill="#000000">genetic_analysis</text>
</g>
<!-- genetic_analysis&#45;&gt;sample -->
<g id="edge21" class="edge">
<title>genetic_analysis&#45;&gt;sample</title>
<path fill="none" stroke="#000000" d="M1926.4199,-348.668C1946.102,-336.8477 1974.0222,-322.0971 2000.7947,-315 2153.5007,-274.5191 2200.2489,-324.6287 2355.7947,-297 2360.6023,-296.1461 2365.5686,-295.012 2370.4789,-293.7271"/>
<polygon fill="#000000" stroke="#000000" points="2371.7398,-297.0079 2380.4104,-290.9193 2369.8354,-290.2719 2371.7398,-297.0079"/>
<text text-anchor="middle" x="2070.7947" y="-318.8" font-family="Times,serif" font-size="14.00" fill="#000000">of_genetic_analysis</text>
</g>
<!-- genetic_analysis&#45;&gt;participant -->
<g id="edge22" class="edge">
<title>genetic_analysis&#45;&gt;participant</title>
<path fill="none" stroke="#000000" d="M1905.9288,-347.93C1914.8218,-317.9634 1926.8624,-258.291 1893.7947,-228 1867.9371,-204.3137 1650.7593,-196.0351 1534.5391,-193.284"/>
<polygon fill="#000000" stroke="#000000" points="1534.3775,-189.7795 1524.3001,-193.0498 1534.2174,-196.7777 1534.3775,-189.7795"/>
<text text-anchor="middle" x="1985.7947" y="-275.3" font-family="Times,serif" font-size="14.00" fill="#000000">of_genetic_analysis</text>
</g>
<!-- diagnosis -->
<g id="node16" class="node">
<title>diagnosis</title>
<ellipse fill="none" stroke="#000000" cx="2059.7947" cy="-366" rx="54.6905" ry="18"/>
<text text-anchor="middle" x="2059.7947" y="-362.3" font-family="Times,serif" font-size="14.00" fill="#000000">diagnosis</text>
</g>
<!-- diagnosis&#45;&gt;sample -->
<g id="edge27" class="edge">
<title>diagnosis&#45;&gt;sample</title>
<path fill="none" stroke="#000000" d="M2096.1009,-352.4677C2111.4504,-346.2783 2129.3202,-338.4442 2144.7947,-330 2155.1829,-324.3313 2155.6645,-319.0211 2166.7947,-315 2246.1545,-286.3291 2273.0622,-313.593 2355.7947,-297 2360.5208,-296.0521 2365.4087,-294.8687 2370.2499,-293.5641"/>
<polygon fill="#000000" stroke="#000000" points="2371.4067,-296.8736 2380.0546,-290.7528 2369.4772,-290.1447 2371.4067,-296.8736"/>
<text text-anchor="middle" x="2211.2947" y="-318.8" font-family="Times,serif" font-size="14.00" fill="#000000">of_diagnosis</text>
</g>
<!-- diagnosis&#45;&gt;participant -->
<g id="edge26" class="edge">
<title>diagnosis&#45;&gt;participant</title>
<path fill="none" stroke="#000000" d="M2018.5654,-354.1122C1993.784,-344.9737 1969.7211,-331.1933 1984.7947,-315 2022.8964,-274.0681 2197.693,-337.9319 2235.7947,-297 2246.6963,-285.2886 2245.2439,-273.9117 2235.7947,-261 2207.1558,-221.8666 2179.5005,-236.7041 2131.7947,-228 2019.0458,-207.4285 1683.7652,-197.2118 1534.6727,-193.5857"/>
<polygon fill="#000000" stroke="#000000" points="1534.3465,-190.0769 1524.2654,-193.3359 1534.1785,-197.0749 1534.3465,-190.0769"/>
<text text-anchor="middle" x="2288.2947" y="-275.3" font-family="Times,serif" font-size="14.00" fill="#000000">of_diagnosis</text>
</g>
<!-- pathology_file -->
<g id="node17" class="node">
<title>pathology_file</title>
<ellipse fill="none" stroke="#000000" cx="2838.7947" cy="-366" rx="76.0865" ry="18"/>
<text text-anchor="middle" x="2838.7947" y="-362.3" font-family="Times,serif" font-size="14.00" fill="#000000">pathology_file</text>
</g>
<!-- pathology_file&#45;&gt;sample -->
<g id="edge35" class="edge">
<title>pathology_file&#45;&gt;sample</title>
<path fill="none" stroke="#000000" d="M2821.8006,-348.191C2809.6122,-336.6305 2792.1587,-322.3877 2773.7947,-315 2719.6878,-293.2333 2554.6473,-284.1024 2468.0856,-280.729"/>
<polygon fill="#000000" stroke="#000000" points="2468.056,-277.2255 2457.931,-280.3457 2467.7919,-284.2205 2468.056,-277.2255"/>
<text text-anchor="middle" x="2859.7947" y="-318.8" font-family="Times,serif" font-size="14.00" fill="#000000">of_pathology_file</text>
</g>
<!-- pdx&#45;&gt;sample -->
<g id="edge4" class="edge">
<title>pdx&#45;&gt;sample</title>
<path fill="none" stroke="#000000" d="M2887.8595,-198.9882C2915.7744,-207.672 2953.7873,-223.7237 2935.7947,-243 2920.0093,-259.9115 2598.742,-272.7061 2468.2142,-277.2257"/>
<polygon fill="#000000" stroke="#000000" points="2467.9133,-273.7338 2458.0392,-277.5746 2468.1533,-280.7297 2467.9133,-273.7338"/>
<text text-anchor="middle" x="2963.7947" y="-231.8" font-family="Times,serif" font-size="14.00" fill="#000000">of_pdx</text>
</g>
<!-- pdx&#45;&gt;study -->
<g id="edge3" class="edge">
<title>pdx&#45;&gt;study</title>
<path fill="none" stroke="#000000" d="M2833.823,-190.696C2767.2798,-187.6118 2594.3063,-179.6999 2449.7947,-174 2288.8202,-167.6508 1146.0288,-192.715 1000.7947,-123 981.7595,-113.8628 987.4148,-98.6343 969.7947,-87 925.5777,-57.8041 775.1225,-34.2522 698.476,-23.8189"/>
<polygon fill="#000000" stroke="#000000" points="698.5464,-20.297 688.1694,-22.4345 697.6145,-27.2347 698.5464,-20.297"/>
<text text-anchor="middle" x="1024.7947" y="-101.3" font-family="Times,serif" font-size="14.00" fill="#000000">of_pdx</text>
</g>
<!-- consent_group -->
<g id="node25" class="node">
<title>consent_group</title>
<ellipse fill="none" stroke="#000000" cx="759.7947" cy="-105" rx="79.0865" ry="18"/>
<text text-anchor="middle" x="759.7947" y="-101.3" font-family="Times,serif" font-size="14.00" fill="#000000">consent_group</text>
</g>
<!-- participant&#45;&gt;consent_group -->
<g id="edge18" class="edge">
<title>participant&#45;&gt;consent_group</title>
<path fill="none" stroke="#000000" d="M1399.3154,-191.1039C1231.4196,-188.3918 781.6485,-179.0032 759.7947,-156 754.1346,-150.0422 752.5786,-141.7009 752.8949,-133.4874"/>
<polygon fill="#000000" stroke="#000000" points="756.3959,-133.6905 754.1287,-123.3411 749.4471,-132.8454 756.3959,-133.6905"/>
<text text-anchor="middle" x="810.2947" y="-144.8" font-family="Times,serif" font-size="14.00" fill="#000000">of_participant</text>
</g>
<!-- survival -->
<g id="node20" class="node">
<title>survival</title>
<ellipse fill="none" stroke="#000000" cx="1650.7947" cy="-279" rx="48.1917" ry="18"/>
<text text-anchor="middle" x="1650.7947" y="-275.3" font-family="Times,serif" font-size="14.00" fill="#000000">survival</text>
</g>
<!-- survival&#45;&gt;participant -->
<g id="edge23" class="edge">
<title>survival&#45;&gt;participant</title>
<path fill="none" stroke="#000000" d="M1647.3691,-260.8815C1644.3371,-249.7931 1638.7773,-236.2043 1628.7947,-228 1613.5654,-215.4836 1569.1247,-206.2591 1529.915,-200.2826"/>
<polygon fill="#000000" stroke="#000000" points="1530.2204,-196.7899 1519.8171,-198.7956 1529.2005,-203.7152 1530.2204,-196.7899"/>
<text text-anchor="middle" x="1680.2947" y="-231.8" font-family="Times,serif" font-size="14.00" fill="#000000">of_survival</text>
</g>
<!-- cytogenomic_file -->
<g id="node21" class="node">
<title>cytogenomic_file</title>
<ellipse fill="none" stroke="#000000" cx="2221.7947" cy="-366" rx="89.8845" ry="18"/>
<text text-anchor="middle" x="2221.7947" y="-362.3" font-family="Times,serif" font-size="14.00" fill="#000000">cytogenomic_file</text>
</g>
<!-- cytogenomic_file&#45;&gt;sample -->
<g id="edge25" class="edge">
<title>cytogenomic_file&#45;&gt;sample</title>
<path fill="none" stroke="#000000" d="M2238.2244,-347.9359C2249.2449,-336.8691 2264.6535,-323.2841 2280.7947,-315 2311.2925,-299.3477 2322.7406,-306.0851 2355.7947,-297 2360.1439,-295.8046 2364.6593,-294.506 2369.1638,-293.1722"/>
<polygon fill="#000000" stroke="#000000" points="2370.3767,-296.4621 2378.9389,-290.2221 2368.3542,-289.7607 2370.3767,-296.4621"/>
<text text-anchor="middle" x="2352.2947" y="-318.8" font-family="Times,serif" font-size="14.00" fill="#000000">of_cytogenomic_file</text>
</g>
<!-- medical_history -->
<g id="node22" class="node">
<title>medical_history</title>
<ellipse fill="none" stroke="#000000" cx="1801.7947" cy="-279" rx="85.2851" ry="18"/>
<text text-anchor="middle" x="1801.7947" y="-275.3" font-family="Times,serif" font-size="14.00" fill="#000000">medical_history</text>
</g>
<!-- medical_history&#45;&gt;participant -->
<g id="edge8" class="edge">
<title>medical_history&#45;&gt;participant</title>
<path fill="none" stroke="#000000" d="M1780.6857,-261.4664C1765.7402,-250.0288 1744.7082,-235.8197 1723.7947,-228 1689.7086,-215.255 1597.3773,-204.4903 1532.0033,-198.1404"/>
<polygon fill="#000000" stroke="#000000" points="1532.0437,-194.6283 1521.7557,-197.1595 1531.3766,-201.5965 1532.0437,-194.6283"/>
<text text-anchor="middle" x="1821.7947" y="-231.8" font-family="Times,serif" font-size="14.00" fill="#000000">of_medical_history</text>
</g>
<!-- treatment -->
<g id="node23" class="node">
<title>treatment</title>
<ellipse fill="none" stroke="#000000" cx="1174.7947" cy="-279" rx="57.6901" ry="18"/>
<text text-anchor="middle" x="1174.7947" y="-275.3" font-family="Times,serif" font-size="14.00" fill="#000000">treatment</text>
</g>
<!-- treatment&#45;&gt;participant -->
<g id="edge33" class="edge">
<title>treatment&#45;&gt;participant</title>
<path fill="none" stroke="#000000" d="M1195.0553,-261.9129C1209.6401,-250.5242 1230.2834,-236.1927 1250.7947,-228 1295.2694,-210.2357 1348.4386,-201.2336 1390.2773,-196.6737"/>
<polygon fill="#000000" stroke="#000000" points="1390.7948,-200.139 1400.3841,-195.634 1390.0784,-193.1758 1390.7948,-200.139"/>
<text text-anchor="middle" x="1297.7947" y="-231.8" font-family="Times,serif" font-size="14.00" fill="#000000">of_treatment</text>
</g>
<!-- methylation_array_file -->
<g id="node24" class="node">
<title>methylation_array_file</title>
<ellipse fill="none" stroke="#000000" cx="2444.7947" cy="-366" rx="115.8798" ry="18"/>
<text text-anchor="middle" x="2444.7947" y="-362.3" font-family="Times,serif" font-size="14.00" fill="#000000">methylation_array_file</text>
</g>
<!-- methylation_array_file&#45;&gt;sample -->
<g id="edge20" class="edge">
<title>methylation_array_file&#45;&gt;sample</title>
<path fill="none" stroke="#000000" d="M2438.3715,-347.9735C2434.1318,-336.0751 2428.4932,-320.2508 2423.6864,-306.7606"/>
<polygon fill="#000000" stroke="#000000" points="2426.8632,-305.2484 2420.2097,-297.0034 2420.2693,-307.598 2426.8632,-305.2484"/>
<text text-anchor="middle" x="2523.2947" y="-318.8" font-family="Times,serif" font-size="14.00" fill="#000000">of_methylation_array_file</text>
</g>
<!-- consent_group&#45;&gt;study -->
<g id="edge1" class="edge">
<title>consent_group&#45;&gt;study</title>
<path fill="none" stroke="#000000" d="M738.3988,-87.6033C721.5807,-73.9288 698.0459,-54.793 679.9085,-40.0458"/>
<polygon fill="#000000" stroke="#000000" points="681.9654,-37.2073 671.9985,-33.6143 677.5494,-42.6386 681.9654,-37.2073"/>
<text text-anchor="middle" x="776.2947" y="-57.8" font-family="Times,serif" font-size="14.00" fill="#000000">of_consent_group</text>
</g>
<!-- exposure -->
<g id="node26" class="node">
<title>exposure</title>
<ellipse fill="none" stroke="#000000" cx="1303.7947" cy="-279" rx="53.0913" ry="18"/>
<text text-anchor="middle" x="1303.7947" y="-275.3" font-family="Times,serif" font-size="14.00" fill="#000000">exposure</text>
</g>
<!-- exposure&#45;&gt;participant -->
<g id="edge16" class="edge">
<title>exposure&#45;&gt;participant</title>
<path fill="none" stroke="#000000" d="M1322.6907,-262.0479C1335.3618,-251.2917 1352.7857,-237.636 1369.7947,-228 1382.4036,-220.8568 1396.7111,-214.5073 1410.2225,-209.2056"/>
<polygon fill="#000000" stroke="#000000" points="1411.7799,-212.358 1419.8845,-205.534 1409.2933,-205.8146 1411.7799,-212.358"/>
<text text-anchor="middle" x="1413.2947" y="-231.8" font-family="Times,serif" font-size="14.00" fill="#000000">of_exposure</text>
</g>
<!-- study_personnel -->
<g id="node27" class="node">
<title>study_personnel</title>
<ellipse fill="none" stroke="#000000" cx="1288.7947" cy="-105" rx="87.1846" ry="18"/>
<text text-anchor="middle" x="1288.7947" y="-101.3" font-family="Times,serif" font-size="14.00" fill="#000000">study_personnel</text>
</g>
<!-- study_personnel&#45;&gt;study -->
<g id="edge7" class="edge">
<title>study_personnel&#45;&gt;study</title>
<path fill="none" stroke="#000000" d="M1253.8335,-88.4543C1227.2891,-76.6983 1189.5504,-61.6856 1154.7947,-54 1068.8227,-34.9889 807.086,-23.5991 699.6137,-19.6134"/>
<polygon fill="#000000" stroke="#000000" points="699.524,-16.1079 689.4027,-19.2399 699.268,-23.1032 699.524,-16.1079"/>
<text text-anchor="middle" x="1274.2947" y="-57.8" font-family="Times,serif" font-size="14.00" fill="#000000">of_study_personnel</text>
</g>
<!-- radiology_file -->
<g id="node28" class="node">
<title>radiology_file</title>
<ellipse fill="none" stroke="#000000" cx="2153.7947" cy="-279" rx="73.387" ry="18"/>
<text text-anchor="middle" x="2153.7947" y="-275.3" font-family="Times,serif" font-size="14.00" fill="#000000">radiology_file</text>
</g>
<!-- radiology_file&#45;&gt;participant -->
<g id="edge19" class="edge">
<title>radiology_file&#45;&gt;participant</title>
<path fill="none" stroke="#000000" d="M2105.5238,-265.3802C2061.8257,-253.5972 1995.5032,-237.0675 1936.7947,-228 1795.1887,-206.1289 1627.6909,-197.3726 1534.2068,-193.997"/>
<polygon fill="#000000" stroke="#000000" points="1534.1272,-190.4921 1524.0107,-193.6396 1533.8819,-197.4878 1534.1272,-190.4921"/>
<text text-anchor="middle" x="2068.7947" y="-231.8" font-family="Times,serif" font-size="14.00" fill="#000000">of_radiology_file</text>
</g>
</g>
</svg>
