<svg width="3762pt" height="392pt"
 viewBox="0.00 0.00 3762.09 392.00" xmlns="http://www.w3.org/2000/svg" xmlns:xlink="http://www.w3.org/1999/xlink">
<g id="graph0" class="graph" transform="scale(1 1) rotate(0) translate(4 388)">
<title>Perl</title>
<polygon fill="#ffffff" stroke="transparent" points="-4,4 -4,-388 3758.0923,-388 3758.0923,4 -4,4"/>
<!-- diagnosis -->
<g id="node1" class="node">
<title>diagnosis</title>
<ellipse fill="none" stroke="#000000" cx="1409.0923" cy="-366" rx="54.6905" ry="18"/>
<text text-anchor="middle" x="1409.0923" y="-362.3" font-family="Times,serif" font-size="14.00" fill="#000000">diagnosis</text>
</g>
<!-- sample -->
<g id="node4" class="node">
<title>sample</title>
<ellipse fill="none" stroke="#000000" cx="771.0923" cy="-279" rx="44.393" ry="18"/>
<text text-anchor="middle" x="771.0923" y="-275.3" font-family="Times,serif" font-size="14.00" fill="#000000">sample</text>
</g>
<!-- diagnosis&#45;&gt;sample -->
<g id="edge18" class="edge">
<title>diagnosis&#45;&gt;sample</title>
<path fill="none" stroke="#000000" d="M1356.237,-361.265C1318.1405,-356.5514 1266.0816,-347.3974 1223.0923,-330 1211.7795,-325.4218 1211.7026,-318.76 1200.0923,-315 1121.566,-289.5693 910.3773,-311.3467 829.0923,-297 824.2838,-296.1513 819.3169,-295.0206 814.4062,-293.7376"/>
<polygon fill="#000000" stroke="#000000" points="815.0492,-290.2824 804.4743,-290.9321 813.1462,-297.0188 815.0492,-290.2824"/>
<text text-anchor="middle" x="1267.5923" y="-318.8" font-family="Times,serif" font-size="14.00" fill="#000000">of_diagnosis</text>
</g>
<!-- participant -->
<g id="node9" class="node">
<title>participant</title>
<ellipse fill="none" stroke="#000000" cx="1931.0923" cy="-192" rx="62.2891" ry="18"/>
<text text-anchor="middle" x="1931.0923" y="-188.3" font-family="Times,serif" font-size="14.00" fill="#000000">participant</text>
</g>
<!-- diagnosis&#45;&gt;participant -->
<g id="edge17" class="edge">
<title>diagnosis&#45;&gt;participant</title>
<path fill="none" stroke="#000000" d="M1457.3253,-357.458C1474.9725,-352.1705 1493.8401,-343.6598 1507.0923,-330 1529.601,-306.7988 1506.0495,-282.6075 1530.0923,-261 1577.4598,-218.4302 1757.0294,-201.5973 1859.0763,-195.3647"/>
<polygon fill="#000000" stroke="#000000" points="1859.5316,-198.844 1869.3074,-194.7595 1859.1181,-191.8562 1859.5316,-198.844"/>
<text text-anchor="middle" x="1574.5923" y="-275.3" font-family="Times,serif" font-size="14.00" fill="#000000">of_diagnosis</text>
</g>
<!-- study_personnel -->
<g id="node2" class="node">
<title>study_personnel</title>
<ellipse fill="none" stroke="#000000" cx="87.0923" cy="-105" rx="87.1846" ry="18"/>
<text text-anchor="middle" x="87.0923" y="-101.3" font-family="Times,serif" font-size="14.00" fill="#000000">study_personnel</text>
</g>
<!-- study -->
<g id="node25" class="node">
<title>study</title>
<ellipse fill="none" stroke="#000000" cx="784.0923" cy="-18" rx="36.2938" ry="18"/>
<text text-anchor="middle" x="784.0923" y="-14.3" font-family="Times,serif" font-size="14.00" fill="#000000">study</text>
</g>
<!-- study_personnel&#45;&gt;study -->
<g id="edge2" class="edge">
<title>study_personnel&#45;&gt;study</title>
<path fill="none" stroke="#000000" d="M81.8449,-86.6055C79.9483,-75.6943 79.96,-62.3974 88.0923,-54 110.6717,-30.6845 584.4836,-21.1612 737.143,-18.6907"/>
<polygon fill="#000000" stroke="#000000" points="737.6258,-22.1836 747.5688,-18.5249 737.5144,-15.1844 737.6258,-22.1836"/>
<text text-anchor="middle" x="157.5923" y="-57.8" font-family="Times,serif" font-size="14.00" fill="#000000">of_study_personnel</text>
</g>
<!-- pdx -->
<g id="node3" class="node">
<title>pdx</title>
<ellipse fill="none" stroke="#000000" cx="720.0923" cy="-192" rx="27.8951" ry="18"/>
<text text-anchor="middle" x="720.0923" y="-188.3" font-family="Times,serif" font-size="14.00" fill="#000000">pdx</text>
</g>
<!-- pdx&#45;&gt;sample -->
<g id="edge4" class="edge">
<title>pdx&#45;&gt;sample</title>
<path fill="none" stroke="#000000" d="M700.9371,-205.3514C688.6703,-215.5989 676.5252,-230.1264 685.0923,-243 693.3253,-255.3716 706.7146,-263.4998 720.5027,-268.8369"/>
<polygon fill="#000000" stroke="#000000" points="719.459,-272.1789 730.0535,-272.1038 721.7245,-265.5557 719.459,-272.1789"/>
<text text-anchor="middle" x="709.0923" y="-231.8" font-family="Times,serif" font-size="14.00" fill="#000000">of_pdx</text>
</g>
<!-- pdx&#45;&gt;study -->
<g id="edge3" class="edge">
<title>pdx&#45;&gt;study</title>
<path fill="none" stroke="#000000" d="M718.5379,-173.814C717.3896,-152.2825 717.6452,-115.7233 729.0923,-87 735.8381,-70.0733 748.1887,-53.9801 759.4796,-41.6"/>
<polygon fill="#000000" stroke="#000000" points="762.3234,-43.6885 766.6767,-34.0293 757.25,-38.8655 762.3234,-43.6885"/>
<text text-anchor="middle" x="753.0923" y="-101.3" font-family="Times,serif" font-size="14.00" fill="#000000">of_pdx</text>
</g>
<!-- sample&#45;&gt;pdx -->
<g id="edge28" class="edge">
<title>sample&#45;&gt;pdx</title>
<path fill="none" stroke="#000000" d="M760.7717,-261.3943C753.4178,-248.8494 743.4158,-231.7873 735.17,-217.7209"/>
<polygon fill="#000000" stroke="#000000" points="738.1271,-215.8444 730.0504,-208.9875 732.0882,-219.3845 738.1271,-215.8444"/>
<text text-anchor="middle" x="784.5923" y="-231.8" font-family="Times,serif" font-size="14.00" fill="#000000">of_sample</text>
</g>
<!-- sample&#45;&gt;participant -->
<g id="edge26" class="edge">
<title>sample&#45;&gt;participant</title>
<path fill="none" stroke="#000000" d="M805.5048,-267.6944C849.4221,-253.3502 921.2695,-230.1967 934.0923,-228 1024.2162,-212.5608 1644.0282,-198.0975 1858.3595,-193.5051"/>
<polygon fill="#000000" stroke="#000000" points="1858.6366,-197.0001 1868.5596,-193.2875 1858.4872,-190.0017 1858.6366,-197.0001"/>
<text text-anchor="middle" x="970.5923" y="-231.8" font-family="Times,serif" font-size="14.00" fill="#000000">of_sample</text>
</g>
<!-- cell_line -->
<g id="node29" class="node">
<title>cell_line</title>
<ellipse fill="none" stroke="#000000" cx="484.0923" cy="-192" rx="49.2915" ry="18"/>
<text text-anchor="middle" x="484.0923" y="-188.3" font-family="Times,serif" font-size="14.00" fill="#000000">cell_line</text>
</g>
<!-- sample&#45;&gt;cell_line -->
<g id="edge27" class="edge">
<title>sample&#45;&gt;cell_line</title>
<path fill="none" stroke="#000000" d="M729.9495,-272.2709C696.0169,-266.2009 646.8467,-256.2016 605.0923,-243 589.5671,-238.0914 553.6915,-222.7806 525.0114,-210.2051"/>
<polygon fill="#000000" stroke="#000000" points="526.1635,-206.8883 515.6007,-206.0643 523.3442,-213.2954 526.1635,-206.8883"/>
<text text-anchor="middle" x="641.5923" y="-231.8" font-family="Times,serif" font-size="14.00" fill="#000000">of_sample</text>
</g>
<!-- survival -->
<g id="node5" class="node">
<title>survival</title>
<ellipse fill="none" stroke="#000000" cx="3161.0923" cy="-279" rx="48.1917" ry="18"/>
<text text-anchor="middle" x="3161.0923" y="-275.3" font-family="Times,serif" font-size="14.00" fill="#000000">survival</text>
</g>
<!-- survival&#45;&gt;participant -->
<g id="edge1" class="edge">
<title>survival&#45;&gt;participant</title>
<path fill="none" stroke="#000000" d="M3128.7815,-265.6281C3097.3117,-253.3144 3047.8134,-235.8102 3003.0923,-228 2905.4214,-210.9426 2228.3058,-197.3502 2003.4725,-193.2633"/>
<polygon fill="#000000" stroke="#000000" points="2003.4918,-189.7632 1993.4301,-193.0816 2003.3652,-196.762 2003.4918,-189.7632"/>
<text text-anchor="middle" x="3099.5923" y="-231.8" font-family="Times,serif" font-size="14.00" fill="#000000">of_survival</text>
</g>
<!-- methylation_array_file -->
<g id="node6" class="node">
<title>methylation_array_file</title>
<ellipse fill="none" stroke="#000000" cx="1109.0923" cy="-366" rx="115.8798" ry="18"/>
<text text-anchor="middle" x="1109.0923" y="-362.3" font-family="Times,serif" font-size="14.00" fill="#000000">methylation_array_file</text>
</g>
<!-- methylation_array_file&#45;&gt;sample -->
<g id="edge33" class="edge">
<title>methylation_array_file&#45;&gt;sample</title>
<path fill="none" stroke="#000000" d="M1062.107,-349.3564C1047.4645,-343.7087 1031.4084,-337.0342 1017.0923,-330 1005.4626,-324.2858 1004.3708,-319.14 992.0923,-315 923.0276,-291.7133 900.4442,-311.8692 829.0923,-297 824.3734,-296.0166 819.4902,-294.8104 814.6518,-293.4923"/>
<polygon fill="#000000" stroke="#000000" points="815.4286,-290.0737 804.8503,-290.6651 813.4886,-296.7995 815.4286,-290.0737"/>
<text text-anchor="middle" x="1108.5923" y="-318.8" font-family="Times,serif" font-size="14.00" fill="#000000">of_methylation_array_file</text>
</g>
<!-- cytogenomic_file -->
<g id="node7" class="node">
<title>cytogenomic_file</title>
<ellipse fill="none" stroke="#000000" cx="531.0923" cy="-366" rx="89.8845" ry="18"/>
<text text-anchor="middle" x="531.0923" y="-362.3" font-family="Times,serif" font-size="14.00" fill="#000000">cytogenomic_file</text>
</g>
<!-- cytogenomic_file&#45;&gt;sample -->
<g id="edge40" class="edge">
<title>cytogenomic_file&#45;&gt;sample</title>
<path fill="none" stroke="#000000" d="M538.2814,-347.8535C543.6898,-336.6071 552.2174,-322.8539 564.0923,-315 588.622,-298.7762 664.3778,-288.7075 717.0945,-283.4768"/>
<polygon fill="#000000" stroke="#000000" points="717.6896,-286.9358 727.3087,-282.4947 717.0196,-279.9679 717.6896,-286.9358"/>
<text text-anchor="middle" x="635.5923" y="-318.8" font-family="Times,serif" font-size="14.00" fill="#000000">of_cytogenomic_file</text>
</g>
<!-- publication -->
<g id="node8" class="node">
<title>publication</title>
<ellipse fill="none" stroke="#000000" cx="332.0923" cy="-105" rx="63.0888" ry="18"/>
<text text-anchor="middle" x="332.0923" y="-101.3" font-family="Times,serif" font-size="14.00" fill="#000000">publication</text>
</g>
<!-- publication&#45;&gt;study -->
<g id="edge44" class="edge">
<title>publication&#45;&gt;study</title>
<path fill="none" stroke="#000000" d="M322.626,-86.8083C318.4378,-75.9735 316.0599,-62.6856 324.0923,-54 338.0029,-38.9581 623.5376,-24.9634 737.6096,-19.9511"/>
<polygon fill="#000000" stroke="#000000" points="737.9401,-23.4401 747.7783,-19.5082 737.6354,-16.4467 737.9401,-23.4401"/>
<text text-anchor="middle" x="375.0923" y="-57.8" font-family="Times,serif" font-size="14.00" fill="#000000">of_publication</text>
</g>
<!-- consent_group -->
<g id="node26" class="node">
<title>consent_group</title>
<ellipse fill="none" stroke="#000000" cx="1041.0923" cy="-105" rx="79.0865" ry="18"/>
<text text-anchor="middle" x="1041.0923" y="-101.3" font-family="Times,serif" font-size="14.00" fill="#000000">consent_group</text>
</g>
<!-- participant&#45;&gt;consent_group -->
<g id="edge8" class="edge">
<title>participant&#45;&gt;consent_group</title>
<path fill="none" stroke="#000000" d="M1869.438,-189.137C1734.6085,-182.342 1403.634,-162.7515 1129.0923,-123 1122.3523,-122.0241 1115.351,-120.8573 1108.3735,-119.5932"/>
<polygon fill="#000000" stroke="#000000" points="1108.6755,-116.0888 1098.2012,-117.6824 1107.3831,-122.9685 1108.6755,-116.0888"/>
<text text-anchor="middle" x="1442.5923" y="-144.8" font-family="Times,serif" font-size="14.00" fill="#000000">of_participant</text>
</g>
<!-- treatment_other -->
<g id="node10" class="node">
<title>treatment_other</title>
<ellipse fill="none" stroke="#000000" cx="3314.0923" cy="-279" rx="87.1846" ry="18"/>
<text text-anchor="middle" x="3314.0923" y="-275.3" font-family="Times,serif" font-size="14.00" fill="#000000">treatment_other</text>
</g>
<!-- treatment_other&#45;&gt;participant -->
<g id="edge34" class="edge">
<title>treatment_other&#45;&gt;participant</title>
<path fill="none" stroke="#000000" d="M3272.2903,-263.1996C3238.1003,-251.0929 3188.2054,-235.2697 3143.0923,-228 3031.1095,-209.9547 2248.6029,-196.7772 2003.9904,-193.0617"/>
<polygon fill="#000000" stroke="#000000" points="2003.8381,-189.5591 1993.7863,-192.9075 2003.7323,-196.5583 2003.8381,-189.5591"/>
<text text-anchor="middle" x="3274.5923" y="-231.8" font-family="Times,serif" font-size="14.00" fill="#000000">of_treatment_other</text>
</g>
<!-- synonym -->
<g id="node11" class="node">
<title>synonym</title>
<ellipse fill="none" stroke="#000000" cx="371.0923" cy="-366" rx="51.9908" ry="18"/>
<text text-anchor="middle" x="371.0923" y="-362.3" font-family="Times,serif" font-size="14.00" fill="#000000">synonym</text>
</g>
<!-- synonym&#45;&gt;sample -->
<g id="edge12" class="edge">
<title>synonym&#45;&gt;sample</title>
<path fill="none" stroke="#000000" d="M393.6658,-349.6132C410.9658,-337.9384 435.9014,-322.9576 460.0923,-315 466.1608,-313.0038 631.1347,-294.5141 718.2797,-284.8399"/>
<polygon fill="#000000" stroke="#000000" points="718.6971,-288.3152 728.2502,-283.7339 717.9253,-281.3579 718.6971,-288.3152"/>
<text text-anchor="middle" x="502.5923" y="-318.8" font-family="Times,serif" font-size="14.00" fill="#000000">of_synonym</text>
</g>
<!-- synonym&#45;&gt;participant -->
<g id="edge11" class="edge">
<title>synonym&#45;&gt;participant</title>
<path fill="none" stroke="#000000" d="M384.7849,-348.458C394.3749,-337.316 408.1145,-323.4506 423.0923,-315 507.0242,-267.6445 538.1542,-277.5494 633.0923,-261 717.5266,-246.2816 740.6998,-257.9562 825.0923,-243 850.8862,-238.4288 856.1744,-231.8062 882.0923,-228 1070.915,-200.2701 1653.027,-193.8171 1858.4221,-192.3874"/>
<polygon fill="#000000" stroke="#000000" points="1858.5226,-195.8869 1868.4986,-192.3192 1858.4751,-188.887 1858.5226,-195.8869"/>
<text text-anchor="middle" x="675.5923" y="-275.3" font-family="Times,serif" font-size="14.00" fill="#000000">of_synonym</text>
</g>
<!-- synonym&#45;&gt;study -->
<g id="edge13" class="edge">
<title>synonym&#45;&gt;study</title>
<path fill="none" stroke="#000000" d="M327.4425,-356.0496C289.6761,-344.5518 241.0923,-321.5011 241.0923,-279 241.0923,-279 241.0923,-279 241.0923,-105 241.0923,-85.626 285.6002,-63.3988 315.0923,-54 392.8551,-29.2178 635.1097,-21.1881 737.577,-18.8587"/>
<polygon fill="#000000" stroke="#000000" points="737.7064,-22.3568 747.6272,-18.6384 737.5529,-15.3584 737.7064,-22.3568"/>
<text text-anchor="middle" x="283.5923" y="-188.3" font-family="Times,serif" font-size="14.00" fill="#000000">of_synonym</text>
</g>
<!-- family_relationship -->
<g id="node12" class="node">
<title>family_relationship</title>
<ellipse fill="none" stroke="#000000" cx="3519.0923" cy="-279" rx="100.1823" ry="18"/>
<text text-anchor="middle" x="3519.0923" y="-275.3" font-family="Times,serif" font-size="14.00" fill="#000000">family_relationship</text>
</g>
<!-- family_relationship&#45;&gt;participant -->
<g id="edge36" class="edge">
<title>family_relationship&#45;&gt;participant</title>
<path fill="none" stroke="#000000" d="M3475.8994,-262.6517C3441.7613,-250.5829 3392.609,-235.0756 3348.0923,-228 3215.1449,-206.8691 2274.253,-195.5603 2003.6957,-192.7206"/>
<polygon fill="#000000" stroke="#000000" points="2003.6304,-189.2198 1993.5944,-192.6153 2003.5574,-196.2195 2003.6304,-189.2198"/>
<text text-anchor="middle" x="3489.5923" y="-231.8" font-family="Times,serif" font-size="14.00" fill="#000000">of_family_relationship</text>
</g>
<!-- treatment_radiation -->
<g id="node13" class="node">
<title>treatment_radiation</title>
<ellipse fill="none" stroke="#000000" cx="976.0923" cy="-279" rx="104.7816" ry="18"/>
<text text-anchor="middle" x="976.0923" y="-275.3" font-family="Times,serif" font-size="14.00" fill="#000000">treatment_radiation</text>
</g>
<!-- treatment_radiation&#45;&gt;participant -->
<g id="edge41" class="edge">
<title>treatment_radiation&#45;&gt;participant</title>
<path fill="none" stroke="#000000" d="M990.8317,-261.1147C1001.7005,-249.36 1017.5905,-234.9191 1035.0923,-228 1073.1107,-212.97 1652.1123,-198.3648 1858.6126,-193.6087"/>
<polygon fill="#000000" stroke="#000000" points="1858.831,-197.1047 1868.7481,-193.3763 1858.6704,-190.1066 1858.831,-197.1047"/>
<text text-anchor="middle" x="1118.0923" y="-231.8" font-family="Times,serif" font-size="14.00" fill="#000000">of_treatment_radiation</text>
</g>
<!-- pathology_file -->
<g id="node14" class="node">
<title>pathology_file</title>
<ellipse fill="none" stroke="#000000" cx="715.0923" cy="-366" rx="76.0865" ry="18"/>
<text text-anchor="middle" x="715.0923" y="-362.3" font-family="Times,serif" font-size="14.00" fill="#000000">pathology_file</text>
</g>
<!-- pathology_file&#45;&gt;sample -->
<g id="edge15" class="edge">
<title>pathology_file&#45;&gt;sample</title>
<path fill="none" stroke="#000000" d="M711.476,-347.9387C710.3539,-337.6683 710.6039,-324.9183 716.0923,-315 719.8151,-308.2724 725.3879,-302.5924 731.5792,-297.8746"/>
<polygon fill="#000000" stroke="#000000" points="733.936,-300.5081 740.2894,-292.0296 730.0354,-294.6955 733.936,-300.5081"/>
<text text-anchor="middle" x="777.0923" y="-318.8" font-family="Times,serif" font-size="14.00" fill="#000000">of_pathology_file</text>
</g>
<!-- medical_history -->
<g id="node15" class="node">
<title>medical_history</title>
<ellipse fill="none" stroke="#000000" cx="1184.0923" cy="-279" rx="85.2851" ry="18"/>
<text text-anchor="middle" x="1184.0923" y="-275.3" font-family="Times,serif" font-size="14.00" fill="#000000">medical_history</text>
</g>
<!-- medical_history&#45;&gt;participant -->
<g id="edge14" class="edge">
<title>medical_history&#45;&gt;participant</title>
<path fill="none" stroke="#000000" d="M1192.6353,-261.0476C1199.2103,-249.4231 1209.4798,-235.1627 1223.0923,-228 1250.8577,-213.3902 1683.697,-199.2113 1858.601,-194.0484"/>
<polygon fill="#000000" stroke="#000000" points="1858.8482,-197.5428 1868.7411,-193.7507 1858.6427,-190.5458 1858.8482,-197.5428"/>
<text text-anchor="middle" x="1291.0923" y="-231.8" font-family="Times,serif" font-size="14.00" fill="#000000">of_medical_history</text>
</g>
<!-- treatment_surgery -->
<g id="node16" class="node">
<title>treatment_surgery</title>
<ellipse fill="none" stroke="#000000" cx="1386.0923" cy="-279" rx="98.5829" ry="18"/>
<text text-anchor="middle" x="1386.0923" y="-275.3" font-family="Times,serif" font-size="14.00" fill="#000000">treatment_surgery</text>
</g>
<!-- treatment_surgery&#45;&gt;participant -->
<g id="edge10" class="edge">
<title>treatment_surgery&#45;&gt;participant</title>
<path fill="none" stroke="#000000" d="M1371.5455,-261.0573C1364.6632,-250.3161 1359.6126,-237.0392 1368.0923,-228 1384.6157,-210.3863 1709.9703,-198.5418 1858.3935,-194.0339"/>
<polygon fill="#000000" stroke="#000000" points="1858.8773,-197.5211 1868.7676,-193.7221 1858.6669,-190.5242 1858.8773,-197.5211"/>
<text text-anchor="middle" x="1446.5923" y="-231.8" font-family="Times,serif" font-size="14.00" fill="#000000">of_treatment_surgery</text>
</g>
<!-- laboratory_test -->
<g id="node17" class="node">
<title>laboratory_test</title>
<ellipse fill="none" stroke="#000000" cx="2749.0923" cy="-366" rx="81.7856" ry="18"/>
<text text-anchor="middle" x="2749.0923" y="-362.3" font-family="Times,serif" font-size="14.00" fill="#000000">laboratory_test</text>
</g>
<!-- laboratory_test&#45;&gt;sample -->
<g id="edge6" class="edge">
<title>laboratory_test&#45;&gt;sample</title>
<path fill="none" stroke="#000000" d="M2670.8129,-360.5086C2515.4026,-349.8336 2156.8617,-326.3383 1855.0923,-315 1634.545,-306.7134 1081.54,-320.505 862.0923,-297 848.1834,-295.5102 833.2369,-292.9592 819.5582,-290.2386"/>
<polygon fill="#000000" stroke="#000000" points="819.8842,-286.7323 809.3833,-288.1399 818.47,-293.5879 819.8842,-286.7323"/>
<text text-anchor="middle" x="2239.5923" y="-318.8" font-family="Times,serif" font-size="14.00" fill="#000000">of_laboratory_test</text>
</g>
<!-- laboratory_test&#45;&gt;participant -->
<g id="edge5" class="edge">
<title>laboratory_test&#45;&gt;participant</title>
<path fill="none" stroke="#000000" d="M2767.4621,-348.1321C2787.6664,-326.2655 2814.8171,-288.7328 2795.0923,-261 2769.186,-224.5762 2743.9803,-236.4658 2700.0923,-228 2568.0951,-202.5384 2168.7072,-194.863 2003.661,-192.743"/>
<polygon fill="#000000" stroke="#000000" points="2003.6501,-189.2427 1993.607,-192.617 2003.5623,-196.2421 2003.6501,-189.2427"/>
<text text-anchor="middle" x="2866.5923" y="-275.3" font-family="Times,serif" font-size="14.00" fill="#000000">of_laboratory_test</text>
</g>
<!-- study_funding -->
<g id="node18" class="node">
<title>study_funding</title>
<ellipse fill="none" stroke="#000000" cx="607.0923" cy="-105" rx="77.1866" ry="18"/>
<text text-anchor="middle" x="607.0923" y="-101.3" font-family="Times,serif" font-size="14.00" fill="#000000">study_funding</text>
</g>
<!-- study_funding&#45;&gt;study -->
<g id="edge22" class="edge">
<title>study_funding&#45;&gt;study</title>
<path fill="none" stroke="#000000" d="M595.7542,-86.7183C590.7659,-76.1193 587.5536,-63.1101 595.0923,-54 612.7863,-32.6176 687.1497,-23.8257 737.1539,-20.2886"/>
<polygon fill="#000000" stroke="#000000" points="737.6775,-23.7617 747.4254,-19.6109 737.2167,-16.7769 737.6775,-23.7617"/>
<text text-anchor="middle" x="657.0923" y="-57.8" font-family="Times,serif" font-size="14.00" fill="#000000">of_study_funding</text>
</g>
<!-- clinical_measure_file -->
<g id="node19" class="node">
<title>clinical_measure_file</title>
<ellipse fill="none" stroke="#000000" cx="1709.0923" cy="-366" rx="108.5808" ry="18"/>
<text text-anchor="middle" x="1709.0923" y="-362.3" font-family="Times,serif" font-size="14.00" fill="#000000">clinical_measure_file</text>
</g>
<!-- clinical_measure_file&#45;&gt;sample -->
<g id="edge25" class="edge">
<title>clinical_measure_file&#45;&gt;sample</title>
<path fill="none" stroke="#000000" d="M1611.41,-358.1226C1525.2816,-350.7733 1406.4803,-339.5404 1360.0923,-330 1338.1997,-325.4975 1334.1206,-318.7828 1312.0923,-315 1100.3757,-278.6427 1040.8445,-333.1493 829.0923,-297 824.2791,-296.1783 819.3092,-295.0648 814.3968,-293.792"/>
<polygon fill="#000000" stroke="#000000" points="815.037,-290.3363 804.4628,-290.9981 813.1417,-297.0749 815.037,-290.3363"/>
<text text-anchor="middle" x="1446.0923" y="-318.8" font-family="Times,serif" font-size="14.00" fill="#000000">of_clinical_measure_file</text>
</g>
<!-- clinical_measure_file&#45;&gt;participant -->
<g id="edge24" class="edge">
<title>clinical_measure_file&#45;&gt;participant</title>
<path fill="none" stroke="#000000" d="M1728.7426,-348.0245C1743.7569,-334.2063 1764.8965,-314.5706 1783.0923,-297 1799.3694,-281.282 1801.3392,-275.0296 1819.0923,-261 1842.0853,-242.8294 1870.1681,-225.5385 1892.4611,-212.8107"/>
<polygon fill="#000000" stroke="#000000" points="1894.3241,-215.7784 1901.3173,-207.8194 1890.8872,-209.6802 1894.3241,-215.7784"/>
<text text-anchor="middle" x="1905.0923" y="-275.3" font-family="Times,serif" font-size="14.00" fill="#000000">of_clinical_measure_file</text>
</g>
<!-- clinical_measure_file&#45;&gt;study -->
<g id="edge23" class="edge">
<title>clinical_measure_file&#45;&gt;study</title>
<path fill="none" stroke="#000000" d="M1709.239,-347.9488C1708.2755,-336.5919 1704.9398,-322.6782 1695.0923,-315 1658.5885,-286.5376 894.4678,-330.0826 862.0923,-297 784.5038,-217.7169 986.6757,-141.9674 919.0923,-54 908.0967,-39.688 864.268,-29.8505 829.4927,-24.1216"/>
<polygon fill="#000000" stroke="#000000" points="829.9227,-20.6462 819.4994,-22.5447 828.8317,-27.5606 829.9227,-20.6462"/>
<text text-anchor="middle" x="976.0923" y="-188.3" font-family="Times,serif" font-size="14.00" fill="#000000">of_clinical_measure_file</text>
</g>
<!-- study_arm -->
<g id="node20" class="node">
<title>study_arm</title>
<ellipse fill="none" stroke="#000000" cx="846.0923" cy="-105" rx="59.5901" ry="18"/>
<text text-anchor="middle" x="846.0923" y="-101.3" font-family="Times,serif" font-size="14.00" fill="#000000">study_arm</text>
</g>
<!-- study_arm&#45;&gt;study -->
<g id="edge35" class="edge">
<title>study_arm&#45;&gt;study</title>
<path fill="none" stroke="#000000" d="M833.5456,-87.3943C824.5205,-74.73 812.2145,-57.4619 802.1363,-43.3198"/>
<polygon fill="#000000" stroke="#000000" points="804.8521,-41.0999 796.1983,-34.9875 799.1516,-45.1624 804.8521,-41.0999"/>
<text text-anchor="middle" x="866.5923" y="-57.8" font-family="Times,serif" font-size="14.00" fill="#000000">of_study_arm</text>
</g>
<!-- radiology_file -->
<g id="node21" class="node">
<title>radiology_file</title>
<ellipse fill="none" stroke="#000000" cx="1701.0923" cy="-279" rx="73.387" ry="18"/>
<text text-anchor="middle" x="1701.0923" y="-275.3" font-family="Times,serif" font-size="14.00" fill="#000000">radiology_file</text>
</g>
<!-- radiology_file&#45;&gt;participant -->
<g id="edge19" class="edge">
<title>radiology_file&#45;&gt;participant</title>
<path fill="none" stroke="#000000" d="M1690.3565,-261.07C1685.4558,-250.3337 1682.2874,-237.0574 1690.0923,-228 1701.2067,-215.102 1793.6468,-204.1895 1860.7338,-197.8659"/>
<polygon fill="#000000" stroke="#000000" points="1861.2162,-201.3363 1870.8507,-196.9287 1860.5704,-194.3662 1861.2162,-201.3363"/>
<text text-anchor="middle" x="1749.0923" y="-231.8" font-family="Times,serif" font-size="14.00" fill="#000000">of_radiology_file</text>
</g>
<!-- generic_file -->
<g id="node22" class="node">
<title>generic_file</title>
<ellipse fill="none" stroke="#000000" cx="2989.0923" cy="-366" rx="65.7887" ry="18"/>
<text text-anchor="middle" x="2989.0923" y="-362.3" font-family="Times,serif" font-size="14.00" fill="#000000">generic_file</text>
</g>
<!-- generic_file&#45;&gt;sample -->
<g id="edge31" class="edge">
<title>generic_file&#45;&gt;sample</title>
<path fill="none" stroke="#000000" d="M2930.0808,-358.0703C2902.7432,-354.6027 2869.8027,-350.7155 2840.0923,-348 2604.6185,-326.4781 2545.3835,-323.8066 2309.0923,-315 1987.735,-303.0229 1181.9398,-330.3394 862.0923,-297 848.1792,-295.5498 833.2314,-293.0115 819.5527,-290.2904"/>
<polygon fill="#000000" stroke="#000000" points="819.8793,-286.7841 809.3781,-288.189 818.4634,-293.6394 819.8793,-286.7841"/>
<text text-anchor="middle" x="2672.0923" y="-318.8" font-family="Times,serif" font-size="14.00" fill="#000000">of_generic_file</text>
</g>
<!-- generic_file&#45;&gt;participant -->
<g id="edge30" class="edge">
<title>generic_file&#45;&gt;participant</title>
<path fill="none" stroke="#000000" d="M2985.2425,-347.9382C2979.1541,-324.0503 2964.91,-282.4742 2936.0923,-261 2869.4721,-211.3566 2834.6669,-237.1736 2752.0923,-228 2608.1095,-212.0043 2175.9147,-198.7322 2003.3807,-193.9285"/>
<polygon fill="#000000" stroke="#000000" points="2003.4764,-190.4299 1993.3833,-193.6516 2003.2825,-197.4272 2003.4764,-190.4299"/>
<text text-anchor="middle" x="3018.0923" y="-275.3" font-family="Times,serif" font-size="14.00" fill="#000000">of_generic_file</text>
</g>
<!-- generic_file&#45;&gt;study -->
<g id="edge29" class="edge">
<title>generic_file&#45;&gt;study</title>
<path fill="none" stroke="#000000" d="M3054.689,-364.1415C3221.3753,-358.5501 3648.0923,-338.4323 3648.0923,-279 3648.0923,-279 3648.0923,-279 3648.0923,-105 3648.0923,-31.4199 1200.4281,-19.531 830.6484,-18.1547"/>
<polygon fill="#000000" stroke="#000000" points="830.5771,-14.6545 820.5644,-18.1179 830.5515,-21.6545 830.5771,-14.6545"/>
<text text-anchor="middle" x="3701.0923" y="-188.3" font-family="Times,serif" font-size="14.00" fill="#000000">of_generic_file</text>
</g>
<!-- exposure -->
<g id="node23" class="node">
<title>exposure</title>
<ellipse fill="none" stroke="#000000" cx="2053.0923" cy="-279" rx="53.0913" ry="18"/>
<text text-anchor="middle" x="2053.0923" y="-275.3" font-family="Times,serif" font-size="14.00" fill="#000000">exposure</text>
</g>
<!-- exposure&#45;&gt;participant -->
<g id="edge43" class="edge">
<title>exposure&#45;&gt;participant</title>
<path fill="none" stroke="#000000" d="M2030.145,-262.636C2011.2173,-249.1383 1984.151,-229.837 1963.0934,-214.8205"/>
<polygon fill="#000000" stroke="#000000" points="1964.9428,-211.8405 1954.7688,-208.8841 1960.8785,-217.5398 1964.9428,-211.8405"/>
<text text-anchor="middle" x="2042.5923" y="-231.8" font-family="Times,serif" font-size="14.00" fill="#000000">of_exposure</text>
</g>
<!-- genetic_analysis -->
<g id="node24" class="node">
<title>genetic_analysis</title>
<ellipse fill="none" stroke="#000000" cx="2033.0923" cy="-366" rx="87.9851" ry="18"/>
<text text-anchor="middle" x="2033.0923" y="-362.3" font-family="Times,serif" font-size="14.00" fill="#000000">genetic_analysis</text>
</g>
<!-- genetic_analysis&#45;&gt;sample -->
<g id="edge37" class="edge">
<title>genetic_analysis&#45;&gt;sample</title>
<path fill="none" stroke="#000000" d="M1958.1204,-356.6051C1860.2887,-344.7509 1683.6871,-324.7386 1532.0923,-315 1234.8198,-295.9029 1158.1419,-330.0182 862.0923,-297 848.19,-295.4495 833.2457,-292.879 819.5669,-290.1591"/>
<polygon fill="#000000" stroke="#000000" points="819.8918,-286.6527 809.3915,-288.0645 818.4804,-293.5089 819.8918,-286.6527"/>
<text text-anchor="middle" x="1781.0923" y="-318.8" font-family="Times,serif" font-size="14.00" fill="#000000">of_genetic_analysis</text>
</g>
<!-- genetic_analysis&#45;&gt;participant -->
<g id="edge38" class="edge">
<title>genetic_analysis&#45;&gt;participant</title>
<path fill="none" stroke="#000000" d="M2064.4593,-349.0573C2082.925,-337.1818 2104.6499,-319.4342 2115.0923,-297 2121.8441,-282.4944 2120.1886,-276.1667 2115.0923,-261 2109.2315,-243.5581 2105.5579,-237.969 2090.0923,-228 2074.4905,-217.9433 2033.1347,-208.7411 1996.5122,-202.1581"/>
<polygon fill="#000000" stroke="#000000" points="1996.788,-198.6531 1986.3336,-200.3722 1995.5783,-205.5478 1996.788,-198.6531"/>
<text text-anchor="middle" x="2189.0923" y="-275.3" font-family="Times,serif" font-size="14.00" fill="#000000">of_genetic_analysis</text>
</g>
<!-- consent_group&#45;&gt;study -->
<g id="edge42" class="edge">
<title>consent_group&#45;&gt;study</title>
<path fill="none" stroke="#000000" d="M1014.8003,-87.9282C996.6865,-76.8428 971.7129,-62.8597 948.0923,-54 909.2589,-39.4342 862.9324,-29.939 829.4374,-24.3774"/>
<polygon fill="#000000" stroke="#000000" points="829.9055,-20.9078 819.4768,-22.7765 828.7946,-27.8191 829.9055,-20.9078"/>
<text text-anchor="middle" x="1042.5923" y="-57.8" font-family="Times,serif" font-size="14.00" fill="#000000">of_consent_group</text>
</g>
<!-- study_status -->
<g id="node27" class="node">
<title>study_status</title>
<ellipse fill="none" stroke="#000000" cx="1208.0923" cy="-105" rx="70.3881" ry="18"/>
<text text-anchor="middle" x="1208.0923" y="-101.3" font-family="Times,serif" font-size="14.00" fill="#000000">study_status</text>
</g>
<!-- study_status&#45;&gt;study -->
<g id="edge7" class="edge">
<title>study_status&#45;&gt;study</title>
<path fill="none" stroke="#000000" d="M1182.1967,-88.13C1163.0696,-76.5334 1135.9684,-61.8604 1110.0923,-54 1059.0324,-38.4895 907.9839,-26.3932 830.7344,-21.0261"/>
<polygon fill="#000000" stroke="#000000" points="830.558,-17.5059 820.342,-20.3138 830.0792,-24.4895 830.558,-17.5059"/>
<text text-anchor="middle" x="1202.5923" y="-57.8" font-family="Times,serif" font-size="14.00" fill="#000000">of_study_status</text>
</g>
<!-- study_admin -->
<g id="node28" class="node">
<title>study_admin</title>
<ellipse fill="none" stroke="#000000" cx="1366.0923" cy="-105" rx="70.3881" ry="18"/>
<text text-anchor="middle" x="1366.0923" y="-101.3" font-family="Times,serif" font-size="14.00" fill="#000000">study_admin</text>
</g>
<!-- study_admin&#45;&gt;study -->
<g id="edge32" class="edge">
<title>study_admin&#45;&gt;study</title>
<path fill="none" stroke="#000000" d="M1339.2653,-88.1206C1319.1219,-76.3591 1290.42,-61.4863 1263.0923,-54 1182.5132,-31.9257 934.6338,-22.3523 830.7057,-19.234"/>
<polygon fill="#000000" stroke="#000000" points="830.6183,-15.73 820.52,-18.9353 830.4131,-22.727 830.6183,-15.73"/>
<text text-anchor="middle" x="1357.5923" y="-57.8" font-family="Times,serif" font-size="14.00" fill="#000000">of_study_admin</text>
</g>
<!-- cell_line&#45;&gt;sample -->
<g id="edge21" class="edge">
<title>cell_line&#45;&gt;sample</title>
<path fill="none" stroke="#000000" d="M479.066,-210.1881C477.2526,-221.0216 477.2742,-234.3093 485.0923,-243 488.964,-247.3038 636.7313,-264.2019 718.302,-273.2337"/>
<polygon fill="#000000" stroke="#000000" points="718.0647,-276.7287 728.3885,-274.3478 718.8333,-269.771 718.0647,-276.7287"/>
<text text-anchor="middle" x="525.5923" y="-231.8" font-family="Times,serif" font-size="14.00" fill="#000000">of_cell_line</text>
</g>
<!-- cell_line&#45;&gt;study -->
<g id="edge20" class="edge">
<title>cell_line&#45;&gt;study</title>
<path fill="none" stroke="#000000" d="M466.8324,-174.8516C446.6644,-152.7181 418.6215,-113.8654 440.0923,-87 476.6433,-41.2654 652.2698,-25.3092 737.4965,-20.1978"/>
<polygon fill="#000000" stroke="#000000" points="737.8894,-23.6811 747.6723,-19.6134 737.488,-16.6926 737.8894,-23.6811"/>
<text text-anchor="middle" x="480.5923" y="-101.3" font-family="Times,serif" font-size="14.00" fill="#000000">of_cell_line</text>
</g>
<!-- sequencing_file -->
<g id="node30" class="node">
<title>sequencing_file</title>
<ellipse fill="none" stroke="#000000" cx="892.0923" cy="-366" rx="83.3857" ry="18"/>
<text text-anchor="middle" x="892.0923" y="-362.3" font-family="Times,serif" font-size="14.00" fill="#000000">sequencing_file</text>
</g>
<!-- sequencing_file&#45;&gt;sample -->
<g id="edge39" class="edge">
<title>sequencing_file&#45;&gt;sample</title>
<path fill="none" stroke="#000000" d="M875.6054,-348.2253C865.4004,-337.806 851.6877,-324.8077 838.0923,-315 829.2465,-308.6187 819.1337,-302.6074 809.4924,-297.3917"/>
<polygon fill="#000000" stroke="#000000" points="810.9315,-294.1943 800.45,-292.6488 807.6799,-300.3933 810.9315,-294.1943"/>
<text text-anchor="middle" x="921.5923" y="-318.8" font-family="Times,serif" font-size="14.00" fill="#000000">of_sequencing_file</text>
</g>
<!-- treatment_chemotherapy -->
<g id="node31" class="node">
<title>treatment_chemotherapy</title>
<ellipse fill="none" stroke="#000000" cx="2429.0923" cy="-279" rx="129.1772" ry="18"/>
<text text-anchor="middle" x="2429.0923" y="-275.3" font-family="Times,serif" font-size="14.00" fill="#000000">treatment_chemotherapy</text>
</g>
<!-- treatment_chemotherapy&#45;&gt;participant -->
<g id="edge16" class="edge">
<title>treatment_chemotherapy&#45;&gt;participant</title>
<path fill="none" stroke="#000000" d="M2353.5763,-264.3463C2298.8218,-253.8548 2222.9584,-239.593 2156.0923,-228 2102.4612,-218.7016 2041.4829,-208.9989 1996.5482,-202.0125"/>
<polygon fill="#000000" stroke="#000000" points="1997.0567,-198.5496 1986.6384,-200.4754 1995.9837,-205.4669 1997.0567,-198.5496"/>
<text text-anchor="middle" x="2340.0923" y="-231.8" font-family="Times,serif" font-size="14.00" fill="#000000">of_treatment_chemotherapy</text>
</g>
<!-- treatment_response -->
<g id="node32" class="node">
<title>treatment_response</title>
<ellipse fill="none" stroke="#000000" cx="2681.0923" cy="-279" rx="104.7816" ry="18"/>
<text text-anchor="middle" x="2681.0923" y="-275.3" font-family="Times,serif" font-size="14.00" fill="#000000">treatment_response</text>
</g>
<!-- treatment_response&#45;&gt;participant -->
<g id="edge9" class="edge">
<title>treatment_response&#45;&gt;participant</title>
<path fill="none" stroke="#000000" d="M2623.0866,-263.9701C2575.7803,-252.3049 2507.0535,-236.6995 2446.0923,-228 2289.324,-205.6283 2103.6391,-196.9891 2003.625,-193.7833"/>
<polygon fill="#000000" stroke="#000000" points="2003.7324,-190.2851 1993.6283,-193.4719 2003.5144,-197.2817 2003.7324,-190.2851"/>
<text text-anchor="middle" x="2613.0923" y="-231.8" font-family="Times,serif" font-size="14.00" fill="#000000">of_treatment_response</text>
</g>
</g>
</svg>
