<svg width="2977pt" height="392pt"
 viewBox="0.00 0.00 2976.84 392.00" xmlns="http://www.w3.org/2000/svg" xmlns:xlink="http://www.w3.org/1999/xlink">
<g id="graph0" class="graph" transform="scale(1 1) rotate(0) translate(4 388)">
<title>Perl</title>
<polygon fill="#ffffff" stroke="transparent" points="-4,4 -4,-388 2972.8379,-388 2972.8379,4 -4,4"/>
<!-- diagnosis -->
<g id="node1" class="node">
<title>diagnosis</title>
<ellipse fill="none" stroke="#000000" cx="1019.6442" cy="-366" rx="54.6905" ry="18"/>
<text text-anchor="middle" x="1019.6442" y="-362.3" font-family="Times,serif" font-size="14.00" fill="#000000">diagnosis</text>
</g>
<!-- participant -->
<g id="node5" class="node">
<title>participant</title>
<ellipse fill="none" stroke="#000000" cx="1413.6442" cy="-192" rx="62.2891" ry="18"/>
<text text-anchor="middle" x="1413.6442" y="-188.3" font-family="Times,serif" font-size="14.00" fill="#000000">participant</text>
</g>
<!-- diagnosis&#45;&gt;participant -->
<g id="edge25" class="edge">
<title>diagnosis&#45;&gt;participant</title>
<path fill="none" stroke="#000000" d="M1025.3537,-347.6172C1027.5025,-336.7104 1027.756,-323.414 1019.6442,-315 981.6768,-275.6182 565.6115,-336.3818 527.6442,-297 516.5392,-285.4813 517.1062,-273.0395 527.6442,-261 554.3596,-230.4779 1135.221,-203.534 1341.6457,-194.8909"/>
<polygon fill="#000000" stroke="#000000" points="1341.93,-198.3822 1351.7756,-194.4689 1341.6385,-191.3882 1341.93,-198.3822"/>
<text text-anchor="middle" x="572.1442" y="-275.3" font-family="Times,serif" font-size="14.00" fill="#000000">of_diagnosis</text>
</g>
<!-- sample -->
<g id="node14" class="node">
<title>sample</title>
<ellipse fill="none" stroke="#000000" cx="438.6442" cy="-279" rx="44.393" ry="18"/>
<text text-anchor="middle" x="438.6442" y="-275.3" font-family="Times,serif" font-size="14.00" fill="#000000">sample</text>
</g>
<!-- diagnosis&#45;&gt;sample -->
<g id="edge24" class="edge">
<title>diagnosis&#45;&gt;sample</title>
<path fill="none" stroke="#000000" d="M982.1158,-352.6757C965.9552,-346.4673 947.0447,-338.5621 930.6442,-330 919.8257,-324.3521 919.2634,-318.7326 907.6442,-315 820.6043,-287.0386 586.7107,-312.678 496.6442,-297 491.8337,-296.1626 486.8655,-295.0391 481.9541,-293.7605"/>
<polygon fill="#000000" stroke="#000000" points="482.5959,-290.305 472.0213,-290.9597 480.6962,-297.0423 482.5959,-290.305"/>
<text text-anchor="middle" x="975.1442" y="-318.8" font-family="Times,serif" font-size="14.00" fill="#000000">of_diagnosis</text>
</g>
<!-- methylation_array_file -->
<g id="node2" class="node">
<title>methylation_array_file</title>
<ellipse fill="none" stroke="#000000" cx="632.6442" cy="-366" rx="115.8798" ry="18"/>
<text text-anchor="middle" x="632.6442" y="-362.3" font-family="Times,serif" font-size="14.00" fill="#000000">methylation_array_file</text>
</g>
<!-- methylation_array_file&#45;&gt;sample -->
<g id="edge6" class="edge">
<title>methylation_array_file&#45;&gt;sample</title>
<path fill="none" stroke="#000000" d="M600.8308,-348.645C590.4829,-342.8567 578.9996,-336.28 568.6442,-330 558.2091,-323.6717 556.6267,-320.3218 545.6442,-315 534.3664,-309.5351 507.6557,-300.5468 483.7448,-292.9189"/>
<polygon fill="#000000" stroke="#000000" points="484.6588,-289.5371 474.0687,-289.8562 482.5464,-296.2108 484.6588,-289.5371"/>
<text text-anchor="middle" x="660.1442" y="-318.8" font-family="Times,serif" font-size="14.00" fill="#000000">of_methylation_array_file</text>
</g>
<!-- sequencing_file -->
<g id="node3" class="node">
<title>sequencing_file</title>
<ellipse fill="none" stroke="#000000" cx="849.6442" cy="-366" rx="83.3857" ry="18"/>
<text text-anchor="middle" x="849.6442" y="-362.3" font-family="Times,serif" font-size="14.00" fill="#000000">sequencing_file</text>
</g>
<!-- sequencing_file&#45;&gt;sample -->
<g id="edge17" class="edge">
<title>sequencing_file&#45;&gt;sample</title>
<path fill="none" stroke="#000000" d="M813.2971,-349.7222C800.8602,-343.8462 786.9785,-336.9433 774.6442,-330 764.0094,-324.0134 763.2125,-318.8874 751.6442,-315 643.947,-278.8092 608.3062,-317.9768 496.6442,-297 491.8453,-296.0985 486.8845,-294.934 481.9775,-293.6313"/>
<polygon fill="#000000" stroke="#000000" points="482.626,-290.1769 472.0497,-290.803 480.708,-296.909 482.626,-290.1769"/>
<text text-anchor="middle" x="841.1442" y="-318.8" font-family="Times,serif" font-size="14.00" fill="#000000">of_sequencing_file</text>
</g>
<!-- treatment_response -->
<g id="node4" class="node">
<title>treatment_response</title>
<ellipse fill="none" stroke="#000000" cx="730.6442" cy="-279" rx="104.7816" ry="18"/>
<text text-anchor="middle" x="730.6442" y="-275.3" font-family="Times,serif" font-size="14.00" fill="#000000">treatment_response</text>
</g>
<!-- treatment_response&#45;&gt;participant -->
<g id="edge4" class="edge">
<title>treatment_response&#45;&gt;participant</title>
<path fill="none" stroke="#000000" d="M751.2487,-261.2021C766.1306,-249.4875 787.2912,-235.0585 808.6442,-228 858.0234,-211.6771 1191.9771,-199.0946 1341.5033,-194.2107"/>
<polygon fill="#000000" stroke="#000000" points="1341.6312,-197.7085 1351.5125,-193.8863 1341.4043,-190.7122 1341.6312,-197.7085"/>
<text text-anchor="middle" x="891.6442" y="-231.8" font-family="Times,serif" font-size="14.00" fill="#000000">of_treatment_response</text>
</g>
<!-- consent_group -->
<g id="node6" class="node">
<title>consent_group</title>
<ellipse fill="none" stroke="#000000" cx="2166.6442" cy="-105" rx="79.0865" ry="18"/>
<text text-anchor="middle" x="2166.6442" y="-101.3" font-family="Times,serif" font-size="14.00" fill="#000000">consent_group</text>
</g>
<!-- participant&#45;&gt;consent_group -->
<g id="edge32" class="edge">
<title>participant&#45;&gt;consent_group</title>
<path fill="none" stroke="#000000" d="M1474.4153,-187.7063C1591.6974,-178.9755 1857.2292,-157.0472 2078.6442,-123 2085.3753,-121.9649 2092.3708,-120.7592 2099.3447,-119.4711"/>
<polygon fill="#000000" stroke="#000000" points="2100.3443,-122.8438 2109.5133,-117.5353 2099.0352,-115.9673 2100.3443,-122.8438"/>
<text text-anchor="middle" x="1983.1442" y="-144.8" font-family="Times,serif" font-size="14.00" fill="#000000">of_participant</text>
</g>
<!-- study -->
<g id="node28" class="node">
<title>study</title>
<ellipse fill="none" stroke="#000000" cx="2308.6442" cy="-18" rx="36.2938" ry="18"/>
<text text-anchor="middle" x="2308.6442" y="-14.3" font-family="Times,serif" font-size="14.00" fill="#000000">study</text>
</g>
<!-- consent_group&#45;&gt;study -->
<g id="edge26" class="edge">
<title>consent_group&#45;&gt;study</title>
<path fill="none" stroke="#000000" d="M2161.9354,-86.6546C2160.3469,-76.0329 2160.4931,-63.0223 2167.6442,-54 2179.5142,-39.0239 2226.5921,-29.1764 2263.1223,-23.6257"/>
<polygon fill="#000000" stroke="#000000" points="2263.7158,-27.0763 2273.1079,-22.1734 2262.7083,-20.1492 2263.7158,-27.0763"/>
<text text-anchor="middle" x="2231.1442" y="-57.8" font-family="Times,serif" font-size="14.00" fill="#000000">of_consent_group</text>
</g>
<!-- radiology_file -->
<g id="node7" class="node">
<title>radiology_file</title>
<ellipse fill="none" stroke="#000000" cx="926.6442" cy="-279" rx="73.387" ry="18"/>
<text text-anchor="middle" x="926.6442" y="-275.3" font-family="Times,serif" font-size="14.00" fill="#000000">radiology_file</text>
</g>
<!-- radiology_file&#45;&gt;participant -->
<g id="edge34" class="edge">
<title>radiology_file&#45;&gt;participant</title>
<path fill="none" stroke="#000000" d="M949.0741,-261.6714C965.462,-250.0146 988.7355,-235.4614 1011.6442,-228 1071.006,-208.6657 1242.5021,-198.805 1341.2644,-194.597"/>
<polygon fill="#000000" stroke="#000000" points="1341.6229,-198.0852 1351.4683,-194.1713 1341.3311,-191.0913 1341.6229,-198.0852"/>
<text text-anchor="middle" x="1070.6442" y="-231.8" font-family="Times,serif" font-size="14.00" fill="#000000">of_radiology_file</text>
</g>
<!-- study_personnel -->
<g id="node8" class="node">
<title>study_personnel</title>
<ellipse fill="none" stroke="#000000" cx="1982.6442" cy="-105" rx="87.1846" ry="18"/>
<text text-anchor="middle" x="1982.6442" y="-101.3" font-family="Times,serif" font-size="14.00" fill="#000000">study_personnel</text>
</g>
<!-- study_personnel&#45;&gt;study -->
<g id="edge12" class="edge">
<title>study_personnel&#45;&gt;study</title>
<path fill="none" stroke="#000000" d="M1990.2794,-86.8883C1996.0666,-75.5058 2005.1646,-61.5864 2017.6442,-54 2057.6531,-29.6783 2190.4183,-21.7219 2261.9785,-19.17"/>
<polygon fill="#000000" stroke="#000000" points="2262.1971,-22.6647 2272.0741,-18.8314 2261.9624,-15.6686 2262.1971,-22.6647"/>
<text text-anchor="middle" x="2087.1442" y="-57.8" font-family="Times,serif" font-size="14.00" fill="#000000">of_study_personnel</text>
</g>
<!-- pdx -->
<g id="node9" class="node">
<title>pdx</title>
<ellipse fill="none" stroke="#000000" cx="438.6442" cy="-192" rx="27.8951" ry="18"/>
<text text-anchor="middle" x="438.6442" y="-188.3" font-family="Times,serif" font-size="14.00" fill="#000000">pdx</text>
</g>
<!-- pdx&#45;&gt;sample -->
<g id="edge21" class="edge">
<title>pdx&#45;&gt;sample</title>
<path fill="none" stroke="#000000" d="M438.6442,-210.0034C438.6442,-221.7801 438.6442,-237.4102 438.6442,-250.8156"/>
<polygon fill="#000000" stroke="#000000" points="435.1443,-250.9735 438.6442,-260.9735 442.1443,-250.9736 435.1443,-250.9735"/>
<text text-anchor="middle" x="462.6442" y="-231.8" font-family="Times,serif" font-size="14.00" fill="#000000">of_pdx</text>
</g>
<!-- pdx&#45;&gt;study -->
<g id="edge20" class="edge">
<title>pdx&#45;&gt;study</title>
<path fill="none" stroke="#000000" d="M466.5299,-189.4053C675.6852,-169.9438 1997.9275,-46.9116 2262.5725,-22.2869"/>
<polygon fill="#000000" stroke="#000000" points="2262.9751,-25.7646 2272.6078,-21.3531 2262.3265,-18.7947 2262.9751,-25.7646"/>
<text text-anchor="middle" x="1582.6442" y="-101.3" font-family="Times,serif" font-size="14.00" fill="#000000">of_pdx</text>
</g>
<!-- survival -->
<g id="node10" class="node">
<title>survival</title>
<ellipse fill="none" stroke="#000000" cx="1066.6442" cy="-279" rx="48.1917" ry="18"/>
<text text-anchor="middle" x="1066.6442" y="-275.3" font-family="Times,serif" font-size="14.00" fill="#000000">survival</text>
</g>
<!-- survival&#45;&gt;participant -->
<g id="edge30" class="edge">
<title>survival&#45;&gt;participant</title>
<path fill="none" stroke="#000000" d="M1091.9517,-263.6602C1112.2482,-252.0613 1141.8396,-236.6961 1169.6442,-228 1226.207,-210.3095 1292.9296,-201.2249 1342.2931,-196.6115"/>
<polygon fill="#000000" stroke="#000000" points="1342.905,-200.0709 1352.5533,-195.6935 1342.2811,-193.0987 1342.905,-200.0709"/>
<text text-anchor="middle" x="1209.1442" y="-231.8" font-family="Times,serif" font-size="14.00" fill="#000000">of_survival</text>
</g>
<!-- generic_file -->
<g id="node11" class="node">
<title>generic_file</title>
<ellipse fill="none" stroke="#000000" cx="65.6442" cy="-366" rx="65.7887" ry="18"/>
<text text-anchor="middle" x="65.6442" y="-362.3" font-family="Times,serif" font-size="14.00" fill="#000000">generic_file</text>
</g>
<!-- generic_file&#45;&gt;participant -->
<g id="edge29" class="edge">
<title>generic_file&#45;&gt;participant</title>
<path fill="none" stroke="#000000" d="M79.5133,-348.0366C88.5649,-337.2877 101.1715,-324.0099 114.6442,-315 120.1498,-311.3181 330.1575,-229.3383 336.6442,-228 434.2007,-207.8731 1114.8529,-196.3185 1340.8781,-193.0032"/>
<polygon fill="#000000" stroke="#000000" points="1341.0258,-196.5015 1350.9737,-192.8562 1340.9238,-189.5023 1341.0258,-196.5015"/>
<text text-anchor="middle" x="300.6442" y="-275.3" font-family="Times,serif" font-size="14.00" fill="#000000">of_generic_file</text>
</g>
<!-- generic_file&#45;&gt;sample -->
<g id="edge27" class="edge">
<title>generic_file&#45;&gt;sample</title>
<path fill="none" stroke="#000000" d="M88.1568,-348.9179C104.5837,-337.3773 127.8697,-322.8616 150.6442,-315 152.0284,-314.5222 303.4221,-295.7361 386.1209,-285.497"/>
<polygon fill="#000000" stroke="#000000" points="386.6002,-288.9645 396.0944,-284.2624 385.7402,-282.0175 386.6002,-288.9645"/>
<text text-anchor="middle" x="203.6442" y="-318.8" font-family="Times,serif" font-size="14.00" fill="#000000">of_generic_file</text>
</g>
<!-- generic_file&#45;&gt;study -->
<g id="edge28" class="edge">
<title>generic_file&#45;&gt;study</title>
<path fill="none" stroke="#000000" d="M65.6442,-347.6694C65.6442,-330.0629 65.6442,-302.7135 65.6442,-279 65.6442,-279 65.6442,-279 65.6442,-105 65.6442,-48.0139 1939.1746,-22.5218 2261.662,-18.556"/>
<polygon fill="#000000" stroke="#000000" points="2262.0887,-22.0512 2272.0452,-18.4292 2262.0031,-15.0517 2262.0887,-22.0512"/>
<text text-anchor="middle" x="118.6442" y="-188.3" font-family="Times,serif" font-size="14.00" fill="#000000">of_generic_file</text>
</g>
<!-- study_funding -->
<g id="node12" class="node">
<title>study_funding</title>
<ellipse fill="none" stroke="#000000" cx="2451.6442" cy="-105" rx="77.1866" ry="18"/>
<text text-anchor="middle" x="2451.6442" y="-101.3" font-family="Times,serif" font-size="14.00" fill="#000000">study_funding</text>
</g>
<!-- study_funding&#45;&gt;study -->
<g id="edge33" class="edge">
<title>study_funding&#45;&gt;study</title>
<path fill="none" stroke="#000000" d="M2423.7329,-88.019C2399.844,-73.4852 2365.4576,-52.5648 2340.4974,-37.3792"/>
<polygon fill="#000000" stroke="#000000" points="2342.1272,-34.2739 2331.7649,-32.0664 2338.4888,-40.2542 2342.1272,-34.2739"/>
<text text-anchor="middle" x="2450.6442" y="-57.8" font-family="Times,serif" font-size="14.00" fill="#000000">of_study_funding</text>
</g>
<!-- publication -->
<g id="node13" class="node">
<title>publication</title>
<ellipse fill="none" stroke="#000000" cx="2609.6442" cy="-105" rx="63.0888" ry="18"/>
<text text-anchor="middle" x="2609.6442" y="-101.3" font-family="Times,serif" font-size="14.00" fill="#000000">publication</text>
</g>
<!-- publication&#45;&gt;study -->
<g id="edge22" class="edge">
<title>publication&#45;&gt;study</title>
<path fill="none" stroke="#000000" d="M2584.6531,-88.3185C2566.5107,-76.9666 2540.9783,-62.512 2516.6442,-54 2462.9552,-35.2199 2397.9142,-25.9792 2355.0194,-21.6138"/>
<polygon fill="#000000" stroke="#000000" points="2355.1706,-18.1122 2344.8795,-20.6308 2354.4951,-25.0795 2355.1706,-18.1122"/>
<text text-anchor="middle" x="2599.6442" y="-57.8" font-family="Times,serif" font-size="14.00" fill="#000000">of_publication</text>
</g>
<!-- sample&#45;&gt;participant -->
<g id="edge3" class="edge">
<title>sample&#45;&gt;participant</title>
<path fill="none" stroke="#000000" d="M460.2019,-263.2797C480.344,-248.6622 507.7439,-228.9872 510.6442,-228 588.2009,-201.6019 1140.3109,-194.3153 1340.9776,-192.5271"/>
<polygon fill="#000000" stroke="#000000" points="1341.1524,-196.0258 1351.1215,-192.4387 1341.0913,-189.026 1341.1524,-196.0258"/>
<text text-anchor="middle" x="547.1442" y="-231.8" font-family="Times,serif" font-size="14.00" fill="#000000">of_sample</text>
</g>
<!-- sample&#45;&gt;pdx -->
<g id="edge1" class="edge">
<title>sample&#45;&gt;pdx</title>
<path fill="none" stroke="#000000" d="M397.2989,-272.3914C364.726,-265.2712 327.3181,-251.6457 343.6442,-228 350.7029,-217.7766 378.761,-207.9034 402.5693,-201.0907"/>
<polygon fill="#000000" stroke="#000000" points="403.7309,-204.4011 412.4391,-198.3663 401.8683,-197.6534 403.7309,-204.4011"/>
<text text-anchor="middle" x="380.1442" y="-231.8" font-family="Times,serif" font-size="14.00" fill="#000000">of_sample</text>
</g>
<!-- cell_line -->
<g id="node24" class="node">
<title>cell_line</title>
<ellipse fill="none" stroke="#000000" cx="238.6442" cy="-192" rx="49.2915" ry="18"/>
<text text-anchor="middle" x="238.6442" y="-188.3" font-family="Times,serif" font-size="14.00" fill="#000000">cell_line</text>
</g>
<!-- sample&#45;&gt;cell_line -->
<g id="edge2" class="edge">
<title>sample&#45;&gt;cell_line</title>
<path fill="none" stroke="#000000" d="M395.6965,-274.5268C350.7267,-269.0944 283.8765,-258.6685 263.6442,-243 256.0538,-237.1218 250.6209,-228.3383 246.8024,-219.7094"/>
<polygon fill="#000000" stroke="#000000" points="250.0011,-218.276 243.148,-210.1961 243.4667,-220.7861 250.0011,-218.276"/>
<text text-anchor="middle" x="300.1442" y="-231.8" font-family="Times,serif" font-size="14.00" fill="#000000">of_sample</text>
</g>
<!-- medical_history -->
<g id="node15" class="node">
<title>medical_history</title>
<ellipse fill="none" stroke="#000000" cx="1217.6442" cy="-279" rx="85.2851" ry="18"/>
<text text-anchor="middle" x="1217.6442" y="-275.3" font-family="Times,serif" font-size="14.00" fill="#000000">medical_history</text>
</g>
<!-- medical_history&#45;&gt;participant -->
<g id="edge5" class="edge">
<title>medical_history&#45;&gt;participant</title>
<path fill="none" stroke="#000000" d="M1233.1134,-260.9968C1243.5236,-249.9543 1258.1401,-236.3735 1273.6442,-228 1296.3511,-215.7364 1323.4053,-207.5164 1347.6504,-202.0702"/>
<polygon fill="#000000" stroke="#000000" points="1348.4416,-205.4802 1357.493,-199.9737 1346.9832,-198.6338 1348.4416,-205.4802"/>
<text text-anchor="middle" x="1341.6442" y="-231.8" font-family="Times,serif" font-size="14.00" fill="#000000">of_medical_history</text>
</g>
<!-- genetic_analysis -->
<g id="node16" class="node">
<title>genetic_analysis</title>
<ellipse fill="none" stroke="#000000" cx="1656.6442" cy="-366" rx="87.9851" ry="18"/>
<text text-anchor="middle" x="1656.6442" y="-362.3" font-family="Times,serif" font-size="14.00" fill="#000000">genetic_analysis</text>
</g>
<!-- genetic_analysis&#45;&gt;participant -->
<g id="edge39" class="edge">
<title>genetic_analysis&#45;&gt;participant</title>
<path fill="none" stroke="#000000" d="M1709.9484,-351.6505C1737.8835,-341.2306 1769.8954,-324.0921 1787.6442,-297 1804.4777,-271.3049 1812.3099,-250.7274 1791.6442,-228 1771.5255,-205.8742 1590.0117,-197.0275 1486.0105,-193.7515"/>
<polygon fill="#000000" stroke="#000000" points="1485.9898,-190.2493 1475.8876,-193.4425 1485.7761,-197.2461 1485.9898,-190.2493"/>
<text text-anchor="middle" x="1873.6442" y="-275.3" font-family="Times,serif" font-size="14.00" fill="#000000">of_genetic_analysis</text>
</g>
<!-- genetic_analysis&#45;&gt;sample -->
<g id="edge40" class="edge">
<title>genetic_analysis&#45;&gt;sample</title>
<path fill="none" stroke="#000000" d="M1576.786,-358.3739C1456.8122,-347.1872 1222.873,-326.4221 1023.6442,-315 906.6569,-308.293 612.183,-316.5395 496.6442,-297 491.8297,-296.1858 486.859,-295.0771 481.9461,-293.8071"/>
<polygon fill="#000000" stroke="#000000" points="482.5855,-290.3513 472.0116,-291.0163 480.6924,-297.0904 482.5855,-290.3513"/>
<text text-anchor="middle" x="1302.6442" y="-318.8" font-family="Times,serif" font-size="14.00" fill="#000000">of_genetic_analysis</text>
</g>
<!-- clinical_measure_file -->
<g id="node17" class="node">
<title>clinical_measure_file</title>
<ellipse fill="none" stroke="#000000" cx="2210.6442" cy="-366" rx="108.5808" ry="18"/>
<text text-anchor="middle" x="2210.6442" y="-362.3" font-family="Times,serif" font-size="14.00" fill="#000000">clinical_measure_file</text>
</g>
<!-- clinical_measure_file&#45;&gt;participant -->
<g id="edge37" class="edge">
<title>clinical_measure_file&#45;&gt;participant</title>
<path fill="none" stroke="#000000" d="M2196.084,-348.1264C2175.3801,-324.054 2134.9918,-281.8357 2090.6442,-261 1984.8747,-211.3068 1638.2886,-197.2114 1486.2412,-193.3715"/>
<polygon fill="#000000" stroke="#000000" points="1486.1565,-189.8685 1476.0738,-193.1228 1485.9852,-196.8664 1486.1565,-189.8685"/>
<text text-anchor="middle" x="2230.6442" y="-275.3" font-family="Times,serif" font-size="14.00" fill="#000000">of_clinical_measure_file</text>
</g>
<!-- clinical_measure_file&#45;&gt;sample -->
<g id="edge36" class="edge">
<title>clinical_measure_file&#45;&gt;sample</title>
<path fill="none" stroke="#000000" d="M2124.9056,-354.9219C2025.8175,-342.6535 1857.754,-323.4881 1712.6442,-315 1577.7488,-307.1094 630.0899,-318.2426 496.6442,-297 491.6317,-296.2021 486.4534,-295.0677 481.3489,-293.7517"/>
<polygon fill="#000000" stroke="#000000" points="482.2605,-290.3724 471.6866,-291.0377 480.3675,-297.1116 482.2605,-290.3724"/>
<text text-anchor="middle" x="1976.6442" y="-318.8" font-family="Times,serif" font-size="14.00" fill="#000000">of_clinical_measure_file</text>
</g>
<!-- clinical_measure_file&#45;&gt;study -->
<g id="edge38" class="edge">
<title>clinical_measure_file&#45;&gt;study</title>
<path fill="none" stroke="#000000" d="M2274.963,-351.479C2287.3209,-346.3256 2299.3033,-339.3715 2308.6442,-330 2319.6614,-318.9467 2317.9364,-312.3696 2320.6442,-297 2323.4202,-281.2427 2322.4888,-276.8933 2320.6442,-261 2317.9596,-237.8696 2311.3287,-233.1304 2308.6442,-210 2301.9286,-152.1384 2304.3814,-83.8059 2306.6148,-46.2593"/>
<polygon fill="#000000" stroke="#000000" points="2310.1203,-46.2816 2307.2607,-36.08 2303.1344,-45.8383 2310.1203,-46.2816"/>
<text text-anchor="middle" x="2394.6442" y="-188.3" font-family="Times,serif" font-size="14.00" fill="#000000">of_clinical_measure_file</text>
</g>
<!-- study_arm -->
<g id="node18" class="node">
<title>study_arm</title>
<ellipse fill="none" stroke="#000000" cx="2750.6442" cy="-105" rx="59.5901" ry="18"/>
<text text-anchor="middle" x="2750.6442" y="-101.3" font-family="Times,serif" font-size="14.00" fill="#000000">study_arm</text>
</g>
<!-- study_arm&#45;&gt;study -->
<g id="edge8" class="edge">
<title>study_arm&#45;&gt;study</title>
<path fill="none" stroke="#000000" d="M2726.1319,-88.5634C2707.3878,-76.8632 2680.4583,-61.8723 2654.6442,-54 2599.912,-37.3087 2436.6318,-25.6029 2355.4867,-20.6472"/>
<polygon fill="#000000" stroke="#000000" points="2355.2631,-17.1275 2345.0709,-20.0207 2354.8427,-24.1149 2355.2631,-17.1275"/>
<text text-anchor="middle" x="2738.1442" y="-57.8" font-family="Times,serif" font-size="14.00" fill="#000000">of_study_arm</text>
</g>
<!-- cytogenomic_file -->
<g id="node19" class="node">
<title>cytogenomic_file</title>
<ellipse fill="none" stroke="#000000" cx="238.6442" cy="-366" rx="89.8845" ry="18"/>
<text text-anchor="middle" x="238.6442" y="-362.3" font-family="Times,serif" font-size="14.00" fill="#000000">cytogenomic_file</text>
</g>
<!-- cytogenomic_file&#45;&gt;sample -->
<g id="edge7" class="edge">
<title>cytogenomic_file&#45;&gt;sample</title>
<path fill="none" stroke="#000000" d="M247.3508,-348.0159C253.6799,-336.8361 263.2939,-323.0962 275.6442,-315 293.7423,-303.1357 346.1975,-292.8624 386.7645,-286.3614"/>
<polygon fill="#000000" stroke="#000000" points="387.4556,-289.796 396.7938,-284.7913 386.3728,-282.8802 387.4556,-289.796"/>
<text text-anchor="middle" x="347.1442" y="-318.8" font-family="Times,serif" font-size="14.00" fill="#000000">of_cytogenomic_file</text>
</g>
<!-- pathology_file -->
<g id="node20" class="node">
<title>pathology_file</title>
<ellipse fill="none" stroke="#000000" cx="422.6442" cy="-366" rx="76.0865" ry="18"/>
<text text-anchor="middle" x="422.6442" y="-362.3" font-family="Times,serif" font-size="14.00" fill="#000000">pathology_file</text>
</g>
<!-- pathology_file&#45;&gt;sample -->
<g id="edge9" class="edge">
<title>pathology_file&#45;&gt;sample</title>
<path fill="none" stroke="#000000" d="M421.3658,-347.8765C421.0799,-338.0478 421.3851,-325.7464 423.6442,-315 424.2449,-312.1425 425.0688,-309.2262 426.0238,-306.3519"/>
<polygon fill="#000000" stroke="#000000" points="429.34,-307.4788 429.6413,-296.8882 422.8014,-304.9794 429.34,-307.4788"/>
<text text-anchor="middle" x="484.6442" y="-318.8" font-family="Times,serif" font-size="14.00" fill="#000000">of_pathology_file</text>
</g>
<!-- study_admin -->
<g id="node21" class="node">
<title>study_admin</title>
<ellipse fill="none" stroke="#000000" cx="2898.6442" cy="-105" rx="70.3881" ry="18"/>
<text text-anchor="middle" x="2898.6442" y="-101.3" font-family="Times,serif" font-size="14.00" fill="#000000">study_admin</text>
</g>
<!-- study_admin&#45;&gt;study -->
<g id="edge35" class="edge">
<title>study_admin&#45;&gt;study</title>
<path fill="none" stroke="#000000" d="M2870.8518,-88.3818C2849.6545,-76.5889 2819.3155,-61.5617 2790.6442,-54 2709.3554,-32.5612 2460.0395,-22.6285 2355.5206,-19.324"/>
<polygon fill="#000000" stroke="#000000" points="2355.3805,-15.8181 2345.277,-19.0068 2355.1638,-22.8147 2355.3805,-15.8181"/>
<text text-anchor="middle" x="2887.1442" y="-57.8" font-family="Times,serif" font-size="14.00" fill="#000000">of_study_admin</text>
</g>
<!-- synonym -->
<g id="node22" class="node">
<title>synonym</title>
<ellipse fill="none" stroke="#000000" cx="2403.6442" cy="-366" rx="51.9908" ry="18"/>
<text text-anchor="middle" x="2403.6442" y="-362.3" font-family="Times,serif" font-size="14.00" fill="#000000">synonym</text>
</g>
<!-- synonym&#45;&gt;participant -->
<g id="edge16" class="edge">
<title>synonym&#45;&gt;participant</title>
<path fill="none" stroke="#000000" d="M2395.0975,-347.8516C2382.5458,-323.4603 2356.6528,-280.8737 2320.6442,-261 2248.3213,-221.0839 1688.3173,-200.323 1486.141,-194.0702"/>
<polygon fill="#000000" stroke="#000000" points="1486.0268,-190.5652 1475.9242,-193.7572 1485.8123,-197.5619 1486.0268,-190.5652"/>
<text text-anchor="middle" x="2403.1442" y="-275.3" font-family="Times,serif" font-size="14.00" fill="#000000">of_synonym</text>
</g>
<!-- synonym&#45;&gt;sample -->
<g id="edge14" class="edge">
<title>synonym&#45;&gt;sample</title>
<path fill="none" stroke="#000000" d="M2361.7704,-355.088C2351.0232,-352.5252 2339.4462,-349.9703 2328.6442,-348 2213.1847,-326.9398 2183.7344,-323.0191 2066.6442,-315 1892.596,-303.0801 668.9764,-324.138 496.6442,-297 491.6304,-296.2105 486.4513,-295.0813 481.3463,-293.7683"/>
<polygon fill="#000000" stroke="#000000" points="482.2572,-290.3887 471.6834,-291.0574 480.3663,-297.1285 482.2572,-290.3887"/>
<text text-anchor="middle" x="2262.1442" y="-318.8" font-family="Times,serif" font-size="14.00" fill="#000000">of_synonym</text>
</g>
<!-- synonym&#45;&gt;study -->
<g id="edge15" class="edge">
<title>synonym&#45;&gt;study</title>
<path fill="none" stroke="#000000" d="M2421.3396,-349.0588C2455.4611,-314.296 2523.6791,-233.198 2484.6442,-174 2452.9682,-125.9621 2408.1688,-161.7643 2365.6442,-123 2353.1523,-111.6128 2333.4626,-72.1651 2320.8035,-45.0024"/>
<polygon fill="#000000" stroke="#000000" points="2323.847,-43.2439 2316.484,-35.6257 2317.4891,-46.1727 2323.847,-43.2439"/>
<text text-anchor="middle" x="2538.1442" y="-188.3" font-family="Times,serif" font-size="14.00" fill="#000000">of_synonym</text>
</g>
<!-- family_relationship -->
<g id="node23" class="node">
<title>family_relationship</title>
<ellipse fill="none" stroke="#000000" cx="1420.6442" cy="-279" rx="100.1823" ry="18"/>
<text text-anchor="middle" x="1420.6442" y="-275.3" font-family="Times,serif" font-size="14.00" fill="#000000">family_relationship</text>
</g>
<!-- family_relationship&#45;&gt;participant -->
<g id="edge23" class="edge">
<title>family_relationship&#45;&gt;participant</title>
<path fill="none" stroke="#000000" d="M1417.074,-260.7529C1416.108,-255.0864 1415.1819,-248.8045 1414.6442,-243 1413.9746,-235.7719 1413.6312,-227.9439 1413.4739,-220.6413"/>
<polygon fill="#000000" stroke="#000000" points="1416.9716,-220.4092 1413.3601,-210.4489 1409.9721,-220.4874 1416.9716,-220.4092"/>
<text text-anchor="middle" x="1494.1442" y="-231.8" font-family="Times,serif" font-size="14.00" fill="#000000">of_family_relationship</text>
</g>
<!-- cell_line&#45;&gt;sample -->
<g id="edge10" class="edge">
<title>cell_line&#45;&gt;sample</title>
<path fill="none" stroke="#000000" d="M200.4974,-203.6888C176.8423,-212.8702 153.444,-226.7887 167.6442,-243 169.4376,-245.0474 307.9153,-262.6584 386.1946,-272.4677"/>
<polygon fill="#000000" stroke="#000000" points="385.9991,-275.9705 396.3564,-273.7397 386.8686,-269.0247 385.9991,-275.9705"/>
<text text-anchor="middle" x="208.1442" y="-231.8" font-family="Times,serif" font-size="14.00" fill="#000000">of_cell_line</text>
</g>
<!-- cell_line&#45;&gt;study -->
<g id="edge11" class="edge">
<title>cell_line&#45;&gt;study</title>
<path fill="none" stroke="#000000" d="M284.8956,-185.3242C413.9744,-166.9219 789.2175,-114.9825 1102.6442,-87 1553.3435,-46.7619 2101.0062,-25.3368 2262.0318,-19.5958"/>
<polygon fill="#000000" stroke="#000000" points="2262.2041,-23.092 2272.0739,-19.2403 2261.9564,-16.0964 2262.2041,-23.092"/>
<text text-anchor="middle" x="1143.1442" y="-101.3" font-family="Times,serif" font-size="14.00" fill="#000000">of_cell_line</text>
</g>
<!-- treatment -->
<g id="node25" class="node">
<title>treatment</title>
<ellipse fill="none" stroke="#000000" cx="1596.6442" cy="-279" rx="57.6901" ry="18"/>
<text text-anchor="middle" x="1596.6442" y="-275.3" font-family="Times,serif" font-size="14.00" fill="#000000">treatment</text>
</g>
<!-- treatment&#45;&gt;participant -->
<g id="edge13" class="edge">
<title>treatment&#45;&gt;participant</title>
<path fill="none" stroke="#000000" d="M1592.8239,-260.8967C1589.5588,-249.8143 1583.7299,-236.2266 1573.6442,-228 1559.2749,-216.2795 1518.1068,-207.1661 1481.1306,-201.0411"/>
<polygon fill="#000000" stroke="#000000" points="1481.2659,-197.5182 1470.8383,-199.3931 1480.1591,-204.4302 1481.2659,-197.5182"/>
<text text-anchor="middle" x="1631.6442" y="-231.8" font-family="Times,serif" font-size="14.00" fill="#000000">of_treatment</text>
</g>
<!-- exposure -->
<g id="node26" class="node">
<title>exposure</title>
<ellipse fill="none" stroke="#000000" cx="1725.6442" cy="-279" rx="53.0913" ry="18"/>
<text text-anchor="middle" x="1725.6442" y="-275.3" font-family="Times,serif" font-size="14.00" fill="#000000">exposure</text>
</g>
<!-- exposure&#45;&gt;participant -->
<g id="edge31" class="edge">
<title>exposure&#45;&gt;participant</title>
<path fill="none" stroke="#000000" d="M1715.2603,-260.8803C1707.7266,-249.4945 1696.454,-235.5743 1682.6442,-228 1649.6857,-209.9232 1553.312,-200.395 1485.3772,-195.7815"/>
<polygon fill="#000000" stroke="#000000" points="1485.3603,-192.273 1475.1522,-195.1094 1484.9011,-199.2579 1485.3603,-192.273"/>
<text text-anchor="middle" x="1744.1442" y="-231.8" font-family="Times,serif" font-size="14.00" fill="#000000">of_exposure</text>
</g>
<!-- laboratory_test -->
<g id="node27" class="node">
<title>laboratory_test</title>
<ellipse fill="none" stroke="#000000" cx="1917.6442" cy="-366" rx="81.7856" ry="18"/>
<text text-anchor="middle" x="1917.6442" y="-362.3" font-family="Times,serif" font-size="14.00" fill="#000000">laboratory_test</text>
</g>
<!-- laboratory_test&#45;&gt;participant -->
<g id="edge19" class="edge">
<title>laboratory_test&#45;&gt;participant</title>
<path fill="none" stroke="#000000" d="M1931.4669,-348.1647C1947.118,-325.6474 1967.961,-286.748 1947.6442,-261 1919.4161,-225.2258 1624.3707,-203.9171 1485.3552,-195.7929"/>
<polygon fill="#000000" stroke="#000000" points="1485.4035,-192.29 1475.2184,-195.2077 1485,-199.2783 1485.4035,-192.29"/>
<text text-anchor="middle" x="2021.1442" y="-275.3" font-family="Times,serif" font-size="14.00" fill="#000000">of_laboratory_test</text>
</g>
<!-- laboratory_test&#45;&gt;sample -->
<g id="edge18" class="edge">
<title>laboratory_test&#45;&gt;sample</title>
<path fill="none" stroke="#000000" d="M1845.02,-357.6816C1816.5418,-354.5106 1783.5743,-350.9521 1753.6442,-348 1586.2602,-331.4905 1544.5963,-324.0582 1376.6442,-315 1181.3316,-304.4661 689.7209,-328.2945 496.6442,-297 491.634,-296.1879 486.4571,-295.0448 481.3534,-293.7237"/>
<polygon fill="#000000" stroke="#000000" points="482.2662,-290.3447 471.6919,-291.0044 480.3696,-297.0829 482.2662,-290.3447"/>
<text text-anchor="middle" x="1643.1442" y="-318.8" font-family="Times,serif" font-size="14.00" fill="#000000">of_laboratory_test</text>
</g>
</g>
</svg>
