<svg width="3126pt" height="392pt"
 viewBox="0.00 0.00 3126.00 392.00" xmlns="http://www.w3.org/2000/svg" xmlns:xlink="http://www.w3.org/1999/xlink">
<g id="graph0" class="graph" transform="scale(1 1) rotate(0) translate(4 388)">
<title>Perl</title>
<polygon fill="#ffffff" stroke="transparent" points="-4,4 -4,-388 3121.9954,-388 3121.9954,4 -4,4"/>
<!-- participant -->
<g id="node1" class="node">
<title>participant</title>
<ellipse fill="none" stroke="#000000" cx="1685.9954" cy="-192" rx="62.2891" ry="18"/>
<text text-anchor="middle" x="1685.9954" y="-188.3" font-family="Times,serif" font-size="14.00" fill="#000000">participant</text>
</g>
<!-- consent_group -->
<g id="node5" class="node">
<title>consent_group</title>
<ellipse fill="none" stroke="#000000" cx="2051.9954" cy="-105" rx="79.0865" ry="18"/>
<text text-anchor="middle" x="2051.9954" y="-101.3" font-family="Times,serif" font-size="14.00" fill="#000000">consent_group</text>
</g>
<!-- participant&#45;&gt;consent_group -->
<g id="edge2" class="edge">
<title>participant&#45;&gt;consent_group</title>
<path fill="none" stroke="#000000" d="M1734.2199,-180.5368C1799.1068,-165.1129 1914.721,-137.6308 1987.1657,-120.4103"/>
<polygon fill="#000000" stroke="#000000" points="1988.1722,-123.7687 1997.0917,-118.0509 1986.5533,-116.9584 1988.1722,-123.7687"/>
<text text-anchor="middle" x="1940.4954" y="-144.8" font-family="Times,serif" font-size="14.00" fill="#000000">of_participant</text>
</g>
<!-- methylation_array_file -->
<g id="node2" class="node">
<title>methylation_array_file</title>
<ellipse fill="none" stroke="#000000" cx="407.9954" cy="-366" rx="115.8798" ry="18"/>
<text text-anchor="middle" x="407.9954" y="-362.3" font-family="Times,serif" font-size="14.00" fill="#000000">methylation_array_file</text>
</g>
<!-- sample -->
<g id="node12" class="node">
<title>sample</title>
<ellipse fill="none" stroke="#000000" cx="791.9954" cy="-279" rx="44.393" ry="18"/>
<text text-anchor="middle" x="791.9954" y="-275.3" font-family="Times,serif" font-size="14.00" fill="#000000">sample</text>
</g>
<!-- methylation_array_file&#45;&gt;sample -->
<g id="edge5" class="edge">
<title>methylation_array_file&#45;&gt;sample</title>
<path fill="none" stroke="#000000" d="M414.1895,-347.8463C419.0753,-336.446 427.0796,-322.5227 438.9954,-315 463.6916,-299.4088 645.5116,-287.1616 738.1133,-281.8599"/>
<polygon fill="#000000" stroke="#000000" points="738.3519,-285.3521 748.1383,-281.2931 737.9567,-278.3633 738.3519,-285.3521"/>
<text text-anchor="middle" x="530.4954" y="-318.8" font-family="Times,serif" font-size="14.00" fill="#000000">of_methylation_array_file</text>
</g>
<!-- treatment -->
<g id="node3" class="node">
<title>treatment</title>
<ellipse fill="none" stroke="#000000" cx="2637.9954" cy="-279" rx="57.6901" ry="18"/>
<text text-anchor="middle" x="2637.9954" y="-275.3" font-family="Times,serif" font-size="14.00" fill="#000000">treatment</text>
</g>
<!-- treatment&#45;&gt;participant -->
<g id="edge1" class="edge">
<title>treatment&#45;&gt;participant</title>
<path fill="none" stroke="#000000" d="M2609.1672,-263.1285C2585.6665,-251.0673 2551.211,-235.3408 2518.9954,-228 2446.0215,-211.3717 1947.2701,-198.1144 1758.3327,-193.6343"/>
<polygon fill="#000000" stroke="#000000" points="1758.303,-190.1328 1748.2232,-193.396 1758.1379,-197.1308 1758.303,-190.1328"/>
<text text-anchor="middle" x="2608.9954" y="-231.8" font-family="Times,serif" font-size="14.00" fill="#000000">of_treatment</text>
</g>
<!-- family_relationship -->
<g id="node4" class="node">
<title>family_relationship</title>
<ellipse fill="none" stroke="#000000" cx="1092.9954" cy="-279" rx="100.1823" ry="18"/>
<text text-anchor="middle" x="1092.9954" y="-275.3" font-family="Times,serif" font-size="14.00" fill="#000000">family_relationship</text>
</g>
<!-- family_relationship&#45;&gt;participant -->
<g id="edge23" class="edge">
<title>family_relationship&#45;&gt;participant</title>
<path fill="none" stroke="#000000" d="M1084.9461,-260.7128C1081.5257,-249.8419 1079.9448,-236.5498 1087.9954,-228 1105.7468,-209.1478 1457.8564,-197.839 1613.303,-193.7473"/>
<polygon fill="#000000" stroke="#000000" points="1613.7946,-197.2358 1623.7001,-193.4767 1613.6124,-190.2382 1613.7946,-197.2358"/>
<text text-anchor="middle" x="1167.4954" y="-231.8" font-family="Times,serif" font-size="14.00" fill="#000000">of_family_relationship</text>
</g>
<!-- study -->
<g id="node20" class="node">
<title>study</title>
<ellipse fill="none" stroke="#000000" cx="2051.9954" cy="-18" rx="36.2938" ry="18"/>
<text text-anchor="middle" x="2051.9954" y="-14.3" font-family="Times,serif" font-size="14.00" fill="#000000">study</text>
</g>
<!-- consent_group&#45;&gt;study -->
<g id="edge7" class="edge">
<title>consent_group&#45;&gt;study</title>
<path fill="none" stroke="#000000" d="M2051.9954,-86.9735C2051.9954,-75.1918 2051.9954,-59.5607 2051.9954,-46.1581"/>
<polygon fill="#000000" stroke="#000000" points="2055.4955,-46.0033 2051.9954,-36.0034 2048.4955,-46.0034 2055.4955,-46.0033"/>
<text text-anchor="middle" x="2115.4954" y="-57.8" font-family="Times,serif" font-size="14.00" fill="#000000">of_consent_group</text>
</g>
<!-- cytogenomic_file -->
<g id="node6" class="node">
<title>cytogenomic_file</title>
<ellipse fill="none" stroke="#000000" cx="630.9954" cy="-366" rx="89.8845" ry="18"/>
<text text-anchor="middle" x="630.9954" y="-362.3" font-family="Times,serif" font-size="14.00" fill="#000000">cytogenomic_file</text>
</g>
<!-- cytogenomic_file&#45;&gt;sample -->
<g id="edge4" class="edge">
<title>cytogenomic_file&#45;&gt;sample</title>
<path fill="none" stroke="#000000" d="M626.1932,-347.5794C624.5716,-336.9311 624.7157,-323.9189 631.9954,-315 645.3975,-298.58 697.3274,-289.0827 738.4387,-284.0096"/>
<polygon fill="#000000" stroke="#000000" points="739.1038,-287.4557 748.6276,-282.8137 738.2877,-280.5034 739.1038,-287.4557"/>
<text text-anchor="middle" x="703.4954" y="-318.8" font-family="Times,serif" font-size="14.00" fill="#000000">of_cytogenomic_file</text>
</g>
<!-- synonym -->
<g id="node7" class="node">
<title>synonym</title>
<ellipse fill="none" stroke="#000000" cx="51.9954" cy="-366" rx="51.9908" ry="18"/>
<text text-anchor="middle" x="51.9954" y="-362.3" font-family="Times,serif" font-size="14.00" fill="#000000">synonym</text>
</g>
<!-- synonym&#45;&gt;participant -->
<g id="edge29" class="edge">
<title>synonym&#45;&gt;participant</title>
<path fill="none" stroke="#000000" d="M71.0905,-349.2496C85.0855,-337.8652 105.0476,-323.4 124.9954,-315 316.3532,-234.4191 377.6179,-250.7911 583.9954,-228 685.5345,-216.7866 1383.9863,-199.2423 1613.26,-193.7223"/>
<polygon fill="#000000" stroke="#000000" points="1613.5821,-197.2156 1623.4951,-193.4763 1613.4138,-190.2177 1613.5821,-197.2156"/>
<text text-anchor="middle" x="326.4954" y="-275.3" font-family="Times,serif" font-size="14.00" fill="#000000">of_synonym</text>
</g>
<!-- synonym&#45;&gt;sample -->
<g id="edge31" class="edge">
<title>synonym&#45;&gt;sample</title>
<path fill="none" stroke="#000000" d="M80.4011,-350.7514C104.3491,-338.7084 139.9112,-322.6938 172.9954,-315 279.546,-290.2213 607.0796,-282.096 737.5451,-279.7995"/>
<polygon fill="#000000" stroke="#000000" points="737.7642,-283.2963 747.7027,-279.6255 737.6442,-276.2974 737.7642,-283.2963"/>
<text text-anchor="middle" x="215.4954" y="-318.8" font-family="Times,serif" font-size="14.00" fill="#000000">of_synonym</text>
</g>
<!-- synonym&#45;&gt;study -->
<g id="edge30" class="edge">
<title>synonym&#45;&gt;study</title>
<path fill="none" stroke="#000000" d="M51.9954,-347.6694C51.9954,-330.0629 51.9954,-302.7135 51.9954,-279 51.9954,-279 51.9954,-279 51.9954,-105 51.9954,-54.4444 1705.0721,-23.9044 2005.4641,-18.7721"/>
<polygon fill="#000000" stroke="#000000" points="2005.6353,-22.2698 2015.5744,-18.6002 2005.5163,-15.2708 2005.6353,-22.2698"/>
<text text-anchor="middle" x="94.4954" y="-188.3" font-family="Times,serif" font-size="14.00" fill="#000000">of_synonym</text>
</g>
<!-- laboratory_test -->
<g id="node8" class="node">
<title>laboratory_test</title>
<ellipse fill="none" stroke="#000000" cx="1190.9954" cy="-366" rx="81.7856" ry="18"/>
<text text-anchor="middle" x="1190.9954" y="-362.3" font-family="Times,serif" font-size="14.00" fill="#000000">laboratory_test</text>
</g>
<!-- laboratory_test&#45;&gt;participant -->
<g id="edge24" class="edge">
<title>laboratory_test&#45;&gt;participant</title>
<path fill="none" stroke="#000000" d="M1198.173,-347.9103C1208.6513,-323.9907 1230.4949,-282.3789 1262.9954,-261 1319.5468,-223.8003 1509.3752,-204.6245 1614.4739,-196.643"/>
<polygon fill="#000000" stroke="#000000" points="1614.9709,-200.1158 1624.6832,-195.8826 1614.4509,-193.1351 1614.9709,-200.1158"/>
<text text-anchor="middle" x="1328.4954" y="-275.3" font-family="Times,serif" font-size="14.00" fill="#000000">of_laboratory_test</text>
</g>
<!-- laboratory_test&#45;&gt;sample -->
<g id="edge25" class="edge">
<title>laboratory_test&#45;&gt;sample</title>
<path fill="none" stroke="#000000" d="M1142.507,-351.4375C1121.4122,-345.0099 1096.4355,-337.2755 1073.9954,-330 1054.3419,-323.6279 1050.1658,-319.4741 1029.9954,-315 957.5461,-298.9295 937.0528,-310.0299 863.9954,-297 855.6989,-295.5203 846.9419,-293.6217 838.5012,-291.6149"/>
<polygon fill="#000000" stroke="#000000" points="839.3308,-288.2147 828.7845,-289.228 837.6608,-295.0126 839.3308,-288.2147"/>
<text text-anchor="middle" x="1139.4954" y="-318.8" font-family="Times,serif" font-size="14.00" fill="#000000">of_laboratory_test</text>
</g>
<!-- pdx -->
<g id="node9" class="node">
<title>pdx</title>
<ellipse fill="none" stroke="#000000" cx="887.9954" cy="-192" rx="27.8951" ry="18"/>
<text text-anchor="middle" x="887.9954" y="-188.3" font-family="Times,serif" font-size="14.00" fill="#000000">pdx</text>
</g>
<!-- pdx&#45;&gt;sample -->
<g id="edge32" class="edge">
<title>pdx&#45;&gt;sample</title>
<path fill="none" stroke="#000000" d="M883.7001,-209.8275C880.363,-220.5253 874.7887,-233.797 865.9954,-243 857.8274,-251.5486 847.207,-258.3323 836.5733,-263.5988"/>
<polygon fill="#000000" stroke="#000000" points="834.9271,-260.5029 827.2866,-267.8427 837.8366,-266.8696 834.9271,-260.5029"/>
<text text-anchor="middle" x="900.9954" y="-231.8" font-family="Times,serif" font-size="14.00" fill="#000000">of_pdx</text>
</g>
<!-- pdx&#45;&gt;study -->
<g id="edge33" class="edge">
<title>pdx&#45;&gt;study</title>
<path fill="none" stroke="#000000" d="M915.2725,-187.2787C1022.2121,-168.8494 1423.3034,-100.4838 1754.9954,-54 1843.794,-41.5556 1947.8911,-29.524 2006.2719,-23.0075"/>
<polygon fill="#000000" stroke="#000000" points="2006.7282,-26.4784 2016.2801,-21.8945 2005.9545,-19.5213 2006.7282,-26.4784"/>
<text text-anchor="middle" x="1552.9954" y="-101.3" font-family="Times,serif" font-size="14.00" fill="#000000">of_pdx</text>
</g>
<!-- diagnosis -->
<g id="node10" class="node">
<title>diagnosis</title>
<ellipse fill="none" stroke="#000000" cx="1008.9954" cy="-366" rx="54.6905" ry="18"/>
<text text-anchor="middle" x="1008.9954" y="-362.3" font-family="Times,serif" font-size="14.00" fill="#000000">diagnosis</text>
</g>
<!-- diagnosis&#45;&gt;participant -->
<g id="edge18" class="edge">
<title>diagnosis&#45;&gt;participant</title>
<path fill="none" stroke="#000000" d="M1022.796,-348.2305C1029.3193,-337.5545 1034.0921,-324.2854 1025.9954,-315 987.3711,-270.7056 933.6197,-341.2944 894.9954,-297 884.4799,-284.9408 884.4387,-273.0231 894.9954,-261 915.4005,-237.7605 1002.831,-249.8232 1032.9954,-243 1053.9694,-238.2556 1057.8672,-232.0026 1078.9954,-228 1179.4897,-208.9618 1475.6308,-198.1187 1613.6558,-193.9724"/>
<polygon fill="#000000" stroke="#000000" points="1613.8237,-197.469 1623.7154,-193.6736 1613.6159,-190.4721 1613.8237,-197.469"/>
<text text-anchor="middle" x="939.4954" y="-275.3" font-family="Times,serif" font-size="14.00" fill="#000000">of_diagnosis</text>
</g>
<!-- diagnosis&#45;&gt;sample -->
<g id="edge19" class="edge">
<title>diagnosis&#45;&gt;sample</title>
<path fill="none" stroke="#000000" d="M977.398,-351.1714C964.6731,-344.95 949.9667,-337.4403 936.9954,-330 926.4092,-323.9279 925.0761,-320.1143 913.9954,-315 900.4985,-308.7705 867.4574,-299.137 839.1608,-291.4025"/>
<polygon fill="#000000" stroke="#000000" points="839.9569,-287.9921 829.3896,-288.7546 838.126,-294.7484 839.9569,-287.9921"/>
<text text-anchor="middle" x="981.4954" y="-318.8" font-family="Times,serif" font-size="14.00" fill="#000000">of_diagnosis</text>
</g>
<!-- study_personnel -->
<g id="node11" class="node">
<title>study_personnel</title>
<ellipse fill="none" stroke="#000000" cx="1723.9954" cy="-105" rx="87.1846" ry="18"/>
<text text-anchor="middle" x="1723.9954" y="-101.3" font-family="Times,serif" font-size="14.00" fill="#000000">study_personnel</text>
</g>
<!-- study_personnel&#45;&gt;study -->
<g id="edge9" class="edge">
<title>study_personnel&#45;&gt;study</title>
<path fill="none" stroke="#000000" d="M1739.6649,-86.8692C1750.6022,-75.4786 1766.2041,-61.5574 1782.9954,-54 1821.7407,-36.5616 1939.4035,-25.8264 2005.5593,-21.0046"/>
<polygon fill="#000000" stroke="#000000" points="2005.9886,-24.483 2015.7147,-20.2814 2005.4913,-17.5007 2005.9886,-24.483"/>
<text text-anchor="middle" x="1852.4954" y="-57.8" font-family="Times,serif" font-size="14.00" fill="#000000">of_study_personnel</text>
</g>
<!-- sample&#45;&gt;participant -->
<g id="edge38" class="edge">
<title>sample&#45;&gt;participant</title>
<path fill="none" stroke="#000000" d="M829.7212,-269.4864C866.9486,-260.0339 919.6236,-246.4615 928.9954,-243 943.3532,-237.6968 945.1657,-231.7883 959.9954,-228 1022.0409,-212.1503 1442.108,-198.8026 1613.4513,-193.9535"/>
<polygon fill="#000000" stroke="#000000" points="1613.7379,-197.4469 1623.6355,-193.667 1613.541,-190.4496 1613.7379,-197.4469"/>
<text text-anchor="middle" x="996.4954" y="-231.8" font-family="Times,serif" font-size="14.00" fill="#000000">of_sample</text>
</g>
<!-- sample&#45;&gt;pdx -->
<g id="edge37" class="edge">
<title>sample&#45;&gt;pdx</title>
<path fill="none" stroke="#000000" d="M785.7232,-260.9611C783.2575,-250.4481 782.3805,-237.4441 788.9954,-228 796.4649,-217.3358 826.2502,-207.3979 851.2173,-200.6772"/>
<polygon fill="#000000" stroke="#000000" points="852.3913,-203.9886 861.1917,-198.0891 850.6332,-197.2129 852.3913,-203.9886"/>
<text text-anchor="middle" x="825.4954" y="-231.8" font-family="Times,serif" font-size="14.00" fill="#000000">of_sample</text>
</g>
<!-- cell_line -->
<g id="node15" class="node">
<title>cell_line</title>
<ellipse fill="none" stroke="#000000" cx="695.9954" cy="-192" rx="49.2915" ry="18"/>
<text text-anchor="middle" x="695.9954" y="-188.3" font-family="Times,serif" font-size="14.00" fill="#000000">cell_line</text>
</g>
<!-- sample&#45;&gt;cell_line -->
<g id="edge36" class="edge">
<title>sample&#45;&gt;cell_line</title>
<path fill="none" stroke="#000000" d="M754.5201,-269.4449C731.0659,-262.6306 704.0078,-252.9465 696.9954,-243 692.3829,-236.4576 690.9029,-228.1771 690.9185,-220.2015"/>
<polygon fill="#000000" stroke="#000000" points="694.421,-220.2937 691.6626,-210.0642 687.4398,-219.7811 694.421,-220.2937"/>
<text text-anchor="middle" x="733.4954" y="-231.8" font-family="Times,serif" font-size="14.00" fill="#000000">of_sample</text>
</g>
<!-- survival -->
<g id="node13" class="node">
<title>survival</title>
<ellipse fill="none" stroke="#000000" cx="1601.9954" cy="-279" rx="48.1917" ry="18"/>
<text text-anchor="middle" x="1601.9954" y="-275.3" font-family="Times,serif" font-size="14.00" fill="#000000">survival</text>
</g>
<!-- survival&#45;&gt;participant -->
<g id="edge35" class="edge">
<title>survival&#45;&gt;participant</title>
<path fill="none" stroke="#000000" d="M1592.7994,-261.1048C1588.8127,-250.6428 1586.3886,-237.6419 1592.9954,-228 1597.9703,-220.7395 1613.6628,-213.5678 1630.7749,-207.5595"/>
<polygon fill="#000000" stroke="#000000" points="1631.9969,-210.8414 1640.3687,-204.348 1629.7749,-204.2034 1631.9969,-210.8414"/>
<text text-anchor="middle" x="1632.4954" y="-231.8" font-family="Times,serif" font-size="14.00" fill="#000000">of_survival</text>
</g>
<!-- publication -->
<g id="node14" class="node">
<title>publication</title>
<ellipse fill="none" stroke="#000000" cx="1891.9954" cy="-105" rx="63.0888" ry="18"/>
<text text-anchor="middle" x="1891.9954" y="-101.3" font-family="Times,serif" font-size="14.00" fill="#000000">publication</text>
</g>
<!-- publication&#45;&gt;study -->
<g id="edge6" class="edge">
<title>publication&#45;&gt;study</title>
<path fill="none" stroke="#000000" d="M1907.0132,-87.3661C1917.0919,-76.4708 1931.1934,-62.9154 1945.9954,-54 1965.2224,-42.4193 1988.6744,-33.9608 2008.6264,-28.1643"/>
<polygon fill="#000000" stroke="#000000" points="2009.7018,-31.4982 2018.402,-25.4521 2007.8303,-24.753 2009.7018,-31.4982"/>
<text text-anchor="middle" x="1996.9954" y="-57.8" font-family="Times,serif" font-size="14.00" fill="#000000">of_publication</text>
</g>
<!-- cell_line&#45;&gt;sample -->
<g id="edge20" class="edge">
<title>cell_line&#45;&gt;sample</title>
<path fill="none" stroke="#000000" d="M649.8864,-198.7455C614.0368,-205.929 573.4233,-219.5695 592.9954,-243 611.0898,-264.6615 684.9511,-273.3141 737.393,-276.7539"/>
<polygon fill="#000000" stroke="#000000" points="737.3784,-280.2595 747.5729,-277.3747 737.8045,-273.2724 737.3784,-280.2595"/>
<text text-anchor="middle" x="633.4954" y="-231.8" font-family="Times,serif" font-size="14.00" fill="#000000">of_cell_line</text>
</g>
<!-- cell_line&#45;&gt;study -->
<g id="edge21" class="edge">
<title>cell_line&#45;&gt;study</title>
<path fill="none" stroke="#000000" d="M737.3944,-182.0804C825.9452,-161.2332 1040.5439,-112.6842 1222.9954,-87 1519.28,-45.2913 1878.9509,-25.9002 2005.3664,-20.0207"/>
<polygon fill="#000000" stroke="#000000" points="2005.6395,-23.512 2015.4683,-19.5567 2005.3182,-16.5194 2005.6395,-23.512"/>
<text text-anchor="middle" x="1263.4954" y="-101.3" font-family="Times,serif" font-size="14.00" fill="#000000">of_cell_line</text>
</g>
<!-- genetic_analysis -->
<g id="node16" class="node">
<title>genetic_analysis</title>
<ellipse fill="none" stroke="#000000" cx="1392.9954" cy="-366" rx="87.9851" ry="18"/>
<text text-anchor="middle" x="1392.9954" y="-362.3" font-family="Times,serif" font-size="14.00" fill="#000000">genetic_analysis</text>
</g>
<!-- genetic_analysis&#45;&gt;participant -->
<g id="edge12" class="edge">
<title>genetic_analysis&#45;&gt;participant</title>
<path fill="none" stroke="#000000" d="M1393.9585,-347.72C1395.6182,-319.3672 1399.3878,-267.3691 1404.9954,-261 1432.6571,-229.5817 1543.3976,-209.8272 1617.3212,-199.8657"/>
<polygon fill="#000000" stroke="#000000" points="1618.0383,-203.3016 1627.4953,-198.5249 1617.1237,-196.3616 1618.0383,-203.3016"/>
<text text-anchor="middle" x="1474.9954" y="-275.3" font-family="Times,serif" font-size="14.00" fill="#000000">of_genetic_analysis</text>
</g>
<!-- genetic_analysis&#45;&gt;sample -->
<g id="edge11" class="edge">
<title>genetic_analysis&#45;&gt;sample</title>
<path fill="none" stroke="#000000" d="M1335.5042,-352.275C1310.0921,-345.9365 1279.9286,-338.0408 1252.9954,-330 1233.1981,-324.0896 1229.2829,-318.9089 1208.9954,-315 1058.2265,-285.951 1015.8462,-319.7253 863.9954,-297 855.5692,-295.739 846.6922,-293.9285 838.1595,-291.9364"/>
<polygon fill="#000000" stroke="#000000" points="838.8939,-288.513 828.3486,-289.5367 837.2306,-295.3125 838.8939,-288.513"/>
<text text-anchor="middle" x="1322.9954" y="-318.8" font-family="Times,serif" font-size="14.00" fill="#000000">of_genetic_analysis</text>
</g>
<!-- study_admin -->
<g id="node17" class="node">
<title>study_admin</title>
<ellipse fill="none" stroke="#000000" cx="2218.9954" cy="-105" rx="70.3881" ry="18"/>
<text text-anchor="middle" x="2218.9954" y="-101.3" font-family="Times,serif" font-size="14.00" fill="#000000">study_admin</text>
</g>
<!-- study_admin&#45;&gt;study -->
<g id="edge39" class="edge">
<title>study_admin&#45;&gt;study</title>
<path fill="none" stroke="#000000" d="M2210.3581,-86.9776C2204.1873,-75.9274 2194.8809,-62.3453 2182.9954,-54 2157.9198,-36.3934 2124.5611,-27.3856 2097.7825,-22.7834"/>
<polygon fill="#000000" stroke="#000000" points="2098.2946,-19.321 2087.8725,-21.2265 2097.2081,-26.2362 2098.2946,-19.321"/>
<text text-anchor="middle" x="2253.4954" y="-57.8" font-family="Times,serif" font-size="14.00" fill="#000000">of_study_admin</text>
</g>
<!-- clinical_measure_file -->
<g id="node18" class="node">
<title>clinical_measure_file</title>
<ellipse fill="none" stroke="#000000" cx="1685.9954" cy="-366" rx="108.5808" ry="18"/>
<text text-anchor="middle" x="1685.9954" y="-362.3" font-family="Times,serif" font-size="14.00" fill="#000000">clinical_measure_file</text>
</g>
<!-- clinical_measure_file&#45;&gt;participant -->
<g id="edge16" class="edge">
<title>clinical_measure_file&#45;&gt;participant</title>
<path fill="none" stroke="#000000" d="M1685.9954,-347.7078C1685.9954,-317.3436 1685.9954,-256.3226 1685.9954,-220.3464"/>
<polygon fill="#000000" stroke="#000000" points="1689.4955,-220.0471 1685.9954,-210.0471 1682.4955,-220.0471 1689.4955,-220.0471"/>
<text text-anchor="middle" x="1771.9954" y="-275.3" font-family="Times,serif" font-size="14.00" fill="#000000">of_clinical_measure_file</text>
</g>
<!-- clinical_measure_file&#45;&gt;sample -->
<g id="edge17" class="edge">
<title>clinical_measure_file&#45;&gt;sample</title>
<path fill="none" stroke="#000000" d="M1614.9779,-352.2832C1543.5158,-338.6949 1438.1668,-319.3063 1396.9954,-315 1161.2574,-290.3432 1098.7211,-329.9268 863.9954,-297 855.4663,-295.8036 846.4824,-294.0047 837.8628,-291.9996"/>
<polygon fill="#000000" stroke="#000000" points="838.506,-288.5538 827.9605,-289.5748 836.841,-295.3529 838.506,-288.5538"/>
<text text-anchor="middle" x="1573.9954" y="-318.8" font-family="Times,serif" font-size="14.00" fill="#000000">of_clinical_measure_file</text>
</g>
<!-- clinical_measure_file&#45;&gt;study -->
<g id="edge15" class="edge">
<title>clinical_measure_file&#45;&gt;study</title>
<path fill="none" stroke="#000000" d="M1793.1003,-362.6422C2048.4567,-354.1172 2674.1979,-329.9534 2704.9954,-297 2890.1798,-98.852 2274.8641,-35.2247 2098.1078,-21.2459"/>
<polygon fill="#000000" stroke="#000000" points="2098.317,-17.7517 2088.0766,-20.4689 2097.7764,-24.7308 2098.317,-17.7517"/>
<text text-anchor="middle" x="2821.9954" y="-188.3" font-family="Times,serif" font-size="14.00" fill="#000000">of_clinical_measure_file</text>
</g>
<!-- exposure -->
<g id="node19" class="node">
<title>exposure</title>
<ellipse fill="none" stroke="#000000" cx="1928.9954" cy="-279" rx="53.0913" ry="18"/>
<text text-anchor="middle" x="1928.9954" y="-275.3" font-family="Times,serif" font-size="14.00" fill="#000000">exposure</text>
</g>
<!-- exposure&#45;&gt;participant -->
<g id="edge10" class="edge">
<title>exposure&#45;&gt;participant</title>
<path fill="none" stroke="#000000" d="M1892.3527,-265.881C1850.3907,-250.8576 1781.4567,-226.1775 1734.9294,-209.5196"/>
<polygon fill="#000000" stroke="#000000" points="1735.9534,-206.1687 1725.3589,-206.0931 1733.5939,-212.7591 1735.9534,-206.1687"/>
<text text-anchor="middle" x="1865.4954" y="-231.8" font-family="Times,serif" font-size="14.00" fill="#000000">of_exposure</text>
</g>
<!-- medical_history -->
<g id="node21" class="node">
<title>medical_history</title>
<ellipse fill="none" stroke="#000000" cx="2084.9954" cy="-279" rx="85.2851" ry="18"/>
<text text-anchor="middle" x="2084.9954" y="-275.3" font-family="Times,serif" font-size="14.00" fill="#000000">medical_history</text>
</g>
<!-- medical_history&#45;&gt;participant -->
<g id="edge34" class="edge">
<title>medical_history&#45;&gt;participant</title>
<path fill="none" stroke="#000000" d="M2039.4339,-263.7135C2005.012,-252.6002 1956.4338,-237.84 1912.9954,-228 1859.9918,-215.9933 1799.1337,-206.5724 1753.7817,-200.3845"/>
<polygon fill="#000000" stroke="#000000" points="1754.1456,-196.902 1743.7679,-199.0363 1753.2115,-203.8394 1754.1456,-196.902"/>
<text text-anchor="middle" x="2037.9954" y="-231.8" font-family="Times,serif" font-size="14.00" fill="#000000">of_medical_history</text>
</g>
<!-- study_arm -->
<g id="node22" class="node">
<title>study_arm</title>
<ellipse fill="none" stroke="#000000" cx="2734.9954" cy="-105" rx="59.5901" ry="18"/>
<text text-anchor="middle" x="2734.9954" y="-101.3" font-family="Times,serif" font-size="14.00" fill="#000000">study_arm</text>
</g>
<!-- study_arm&#45;&gt;study -->
<g id="edge8" class="edge">
<title>study_arm&#45;&gt;study</title>
<path fill="none" stroke="#000000" d="M2716.2073,-87.7028C2702.1351,-75.8994 2681.7994,-61.1547 2660.9954,-54 2608.398,-35.9112 2232.0754,-23.269 2098.7084,-19.3143"/>
<polygon fill="#000000" stroke="#000000" points="2098.5174,-15.8072 2088.4189,-19.0121 2098.3119,-22.8042 2098.5174,-15.8072"/>
<text text-anchor="middle" x="2737.4954" y="-57.8" font-family="Times,serif" font-size="14.00" fill="#000000">of_study_arm</text>
</g>
<!-- radiology_file -->
<g id="node23" class="node">
<title>radiology_file</title>
<ellipse fill="none" stroke="#000000" cx="2261.9954" cy="-279" rx="73.387" ry="18"/>
<text text-anchor="middle" x="2261.9954" y="-275.3" font-family="Times,serif" font-size="14.00" fill="#000000">radiology_file</text>
</g>
<!-- radiology_file&#45;&gt;participant -->
<g id="edge3" class="edge">
<title>radiology_file&#45;&gt;participant</title>
<path fill="none" stroke="#000000" d="M2224.2739,-263.5288C2193.9328,-251.7763 2149.9259,-236.2696 2109.9954,-228 2044.6239,-214.4616 1860.228,-202.0961 1757.4481,-195.9951"/>
<polygon fill="#000000" stroke="#000000" points="1757.6479,-192.5009 1747.4593,-195.4067 1757.2362,-199.4888 1757.6479,-192.5009"/>
<text text-anchor="middle" x="2223.9954" y="-231.8" font-family="Times,serif" font-size="14.00" fill="#000000">of_radiology_file</text>
</g>
<!-- sequencing_file -->
<g id="node24" class="node">
<title>sequencing_file</title>
<ellipse fill="none" stroke="#000000" cx="821.9954" cy="-366" rx="83.3857" ry="18"/>
<text text-anchor="middle" x="821.9954" y="-362.3" font-family="Times,serif" font-size="14.00" fill="#000000">sequencing_file</text>
</g>
<!-- sequencing_file&#45;&gt;sample -->
<g id="edge22" class="edge">
<title>sequencing_file&#45;&gt;sample</title>
<path fill="none" stroke="#000000" d="M795.7856,-348.9008C789.8195,-343.6164 784.2771,-337.2487 780.9954,-330 777.7226,-322.7709 777.9781,-314.5167 779.7303,-306.7858"/>
<polygon fill="#000000" stroke="#000000" points="783.1289,-307.6415 782.7251,-297.0543 776.4386,-305.5825 783.1289,-307.6415"/>
<text text-anchor="middle" x="847.4954" y="-318.8" font-family="Times,serif" font-size="14.00" fill="#000000">of_sequencing_file</text>
</g>
<!-- pathology_file -->
<g id="node25" class="node">
<title>pathology_file</title>
<ellipse fill="none" stroke="#000000" cx="197.9954" cy="-366" rx="76.0865" ry="18"/>
<text text-anchor="middle" x="197.9954" y="-362.3" font-family="Times,serif" font-size="14.00" fill="#000000">pathology_file</text>
</g>
<!-- pathology_file&#45;&gt;sample -->
<g id="edge40" class="edge">
<title>pathology_file&#45;&gt;sample</title>
<path fill="none" stroke="#000000" d="M224.2514,-349.097C243.9788,-337.3238 272.1142,-322.4467 298.9954,-315 380.2159,-292.5 627.0146,-283.3341 737.5029,-280.2862"/>
<polygon fill="#000000" stroke="#000000" points="737.8575,-283.778 747.7597,-280.0101 737.6691,-276.7806 737.8575,-283.778"/>
<text text-anchor="middle" x="359.9954" y="-318.8" font-family="Times,serif" font-size="14.00" fill="#000000">of_pathology_file</text>
</g>
<!-- study_funding -->
<g id="node26" class="node">
<title>study_funding</title>
<ellipse fill="none" stroke="#000000" cx="2889.9954" cy="-105" rx="77.1866" ry="18"/>
<text text-anchor="middle" x="2889.9954" y="-101.3" font-family="Times,serif" font-size="14.00" fill="#000000">study_funding</text>
</g>
<!-- study_funding&#45;&gt;study -->
<g id="edge14" class="edge">
<title>study_funding&#45;&gt;study</title>
<path fill="none" stroke="#000000" d="M2864.0751,-87.9022C2844.5806,-76.0321 2816.7378,-61.1192 2789.9954,-54 2723.5666,-36.3158 2250.9601,-23.0063 2098.9565,-19.1441"/>
<polygon fill="#000000" stroke="#000000" points="2098.6613,-15.6357 2088.5763,-18.8824 2098.4848,-22.6334 2098.6613,-15.6357"/>
<text text-anchor="middle" x="2888.9954" y="-57.8" font-family="Times,serif" font-size="14.00" fill="#000000">of_study_funding</text>
</g>
<!-- treatment_response -->
<g id="node27" class="node">
<title>treatment_response</title>
<ellipse fill="none" stroke="#000000" cx="2457.9954" cy="-279" rx="104.7816" ry="18"/>
<text text-anchor="middle" x="2457.9954" y="-275.3" font-family="Times,serif" font-size="14.00" fill="#000000">treatment_response</text>
</g>
<!-- treatment_response&#45;&gt;participant -->
<g id="edge13" class="edge">
<title>treatment_response&#45;&gt;participant</title>
<path fill="none" stroke="#000000" d="M2413.313,-262.5894C2379.2027,-250.8215 2330.7736,-235.733 2286.9954,-228 2187.553,-210.4344 1895.8598,-198.8767 1758.7662,-194.2642"/>
<polygon fill="#000000" stroke="#000000" points="1758.4835,-190.753 1748.3724,-193.9179 1758.2503,-197.7491 1758.4835,-190.753"/>
<text text-anchor="middle" x="2431.9954" y="-231.8" font-family="Times,serif" font-size="14.00" fill="#000000">of_treatment_response</text>
</g>
<!-- study_status -->
<g id="node28" class="node">
<title>study_status</title>
<ellipse fill="none" stroke="#000000" cx="3031.9954" cy="-366" rx="70.3881" ry="18"/>
<text text-anchor="middle" x="3031.9954" y="-362.3" font-family="Times,serif" font-size="14.00" fill="#000000">study_status</text>
</g>
<!-- generic_file -->
<g id="node29" class="node">
<title>generic_file</title>
<ellipse fill="none" stroke="#000000" cx="2877.9954" cy="-366" rx="65.7887" ry="18"/>
<text text-anchor="middle" x="2877.9954" y="-362.3" font-family="Times,serif" font-size="14.00" fill="#000000">generic_file</text>
</g>
<!-- generic_file&#45;&gt;participant -->
<g id="edge28" class="edge">
<title>generic_file&#45;&gt;participant</title>
<path fill="none" stroke="#000000" d="M2858.7744,-348.728C2822.8433,-317.6845 2741.7125,-253.3361 2659.9954,-228 2574.8709,-201.6075 1970.2171,-194.2735 1758.7754,-192.5039"/>
<polygon fill="#000000" stroke="#000000" points="1758.7358,-189.0036 1748.7074,-192.4214 1758.6783,-196.0033 1758.7358,-189.0036"/>
<text text-anchor="middle" x="2842.9954" y="-275.3" font-family="Times,serif" font-size="14.00" fill="#000000">of_generic_file</text>
</g>
<!-- generic_file&#45;&gt;sample -->
<g id="edge26" class="edge">
<title>generic_file&#45;&gt;sample</title>
<path fill="none" stroke="#000000" d="M2813.1971,-362.8327C2631.7821,-354.0615 2103.3336,-329.1695 1663.9954,-315 1486.265,-309.2679 1040.2303,-320.7107 863.9954,-297 855.4597,-295.8516 846.4727,-294.0757 837.852,-292.0783"/>
<polygon fill="#000000" stroke="#000000" points="838.4946,-288.6324 827.9493,-289.6561 836.8313,-295.4319 838.4946,-288.6324"/>
<text text-anchor="middle" x="2116.9954" y="-318.8" font-family="Times,serif" font-size="14.00" fill="#000000">of_generic_file</text>
</g>
<!-- generic_file&#45;&gt;study -->
<g id="edge27" class="edge">
<title>generic_file&#45;&gt;study</title>
<path fill="none" stroke="#000000" d="M2929.0373,-354.6502C2966.9056,-342.8675 3011.9954,-320.1895 3011.9954,-279 3011.9954,-279 3011.9954,-279 3011.9954,-105 3011.9954,-71.0065 2986.5021,-66.7625 2954.9954,-54 2915.0514,-37.8197 2278.3235,-22.8914 2098.7891,-18.9879"/>
<polygon fill="#000000" stroke="#000000" points="2098.6859,-15.485 2088.6125,-18.7678 2098.5345,-22.4833 2098.6859,-15.485"/>
<text text-anchor="middle" x="3064.9954" y="-188.3" font-family="Times,serif" font-size="14.00" fill="#000000">of_generic_file</text>
</g>
</g>
</svg>
