<svg width="3256pt" height="392pt"
 viewBox="0.00 0.00 3255.64 392.00" xmlns="http://www.w3.org/2000/svg" xmlns:xlink="http://www.w3.org/1999/xlink">
<g id="graph0" class="graph" transform="scale(1 1) rotate(0) translate(4 388)">
<title>Perl</title>
<polygon fill="#ffffff" stroke="transparent" points="-4,4 -4,-388 3251.6442,-388 3251.6442,4 -4,4"/>
<!-- generic_file -->
<g id="node1" class="node">
<title>generic_file</title>
<ellipse fill="none" stroke="#000000" cx="65.6442" cy="-366" rx="65.7887" ry="18"/>
<text text-anchor="middle" x="65.6442" y="-362.3" font-family="Times,serif" font-size="14.00" fill="#000000">generic_file</text>
</g>
<!-- sample -->
<g id="node14" class="node">
<title>sample</title>
<ellipse fill="none" stroke="#000000" cx="2931.6442" cy="-279" rx="44.393" ry="18"/>
<text text-anchor="middle" x="2931.6442" y="-275.3" font-family="Times,serif" font-size="14.00" fill="#000000">sample</text>
</g>
<!-- generic_file&#45;&gt;sample -->
<g id="edge24" class="edge">
<title>generic_file&#45;&gt;sample</title>
<path fill="none" stroke="#000000" d="M128.719,-360.5269C258.9913,-349.4981 567.2978,-324.8195 826.6442,-315 940.5669,-310.6866 2766.2465,-316.0724 2878.6442,-297 2882.3597,-296.3695 2886.1657,-295.517 2889.9497,-294.5242"/>
<polygon fill="#000000" stroke="#000000" points="2891.226,-297.7973 2899.8369,-291.6245 2889.256,-291.0802 2891.226,-297.7973"/>
<text text-anchor="middle" x="879.6442" y="-318.8" font-family="Times,serif" font-size="14.00" fill="#000000">of_generic_file</text>
</g>
<!-- participant -->
<g id="node16" class="node">
<title>participant</title>
<ellipse fill="none" stroke="#000000" cx="1643.6442" cy="-192" rx="62.2891" ry="18"/>
<text text-anchor="middle" x="1643.6442" y="-188.3" font-family="Times,serif" font-size="14.00" fill="#000000">participant</text>
</g>
<!-- generic_file&#45;&gt;participant -->
<g id="edge23" class="edge">
<title>generic_file&#45;&gt;participant</title>
<path fill="none" stroke="#000000" d="M74.658,-348.0984C87.8152,-323.9934 114.6821,-281.7375 150.6442,-261 232.49,-213.8038 266.5647,-236.676 360.6442,-228 598.1406,-206.098 1335.5635,-195.6526 1570.7687,-192.8183"/>
<polygon fill="#000000" stroke="#000000" points="1570.9648,-196.3163 1580.9223,-192.697 1570.8811,-189.3168 1570.9648,-196.3163"/>
<text text-anchor="middle" x="203.6442" y="-275.3" font-family="Times,serif" font-size="14.00" fill="#000000">of_generic_file</text>
</g>
<!-- study -->
<g id="node21" class="node">
<title>study</title>
<ellipse fill="none" stroke="#000000" cx="1472.6442" cy="-18" rx="36.2938" ry="18"/>
<text text-anchor="middle" x="1472.6442" y="-14.3" font-family="Times,serif" font-size="14.00" fill="#000000">study</text>
</g>
<!-- generic_file&#45;&gt;study -->
<g id="edge25" class="edge">
<title>generic_file&#45;&gt;study</title>
<path fill="none" stroke="#000000" d="M49.8136,-348.4259C36.5074,-331.7899 19.6442,-305.4825 19.6442,-279 19.6442,-279 19.6442,-279 19.6442,-105 19.6442,-32.8301 1176.9227,-20.1836 1425.8426,-18.2981"/>
<polygon fill="#000000" stroke="#000000" points="1426.0265,-21.797 1436.0004,-18.2234 1425.9749,-14.7972 1426.0265,-21.797"/>
<text text-anchor="middle" x="72.6442" y="-188.3" font-family="Times,serif" font-size="14.00" fill="#000000">of_generic_file</text>
</g>
<!-- pdx -->
<g id="node2" class="node">
<title>pdx</title>
<ellipse fill="none" stroke="#000000" cx="3160.6442" cy="-192" rx="27.8951" ry="18"/>
<text text-anchor="middle" x="3160.6442" y="-188.3" font-family="Times,serif" font-size="14.00" fill="#000000">pdx</text>
</g>
<!-- pdx&#45;&gt;sample -->
<g id="edge19" class="edge">
<title>pdx&#45;&gt;sample</title>
<path fill="none" stroke="#000000" d="M3180.0933,-205.1214C3193.5144,-215.7608 3207.1952,-230.9187 3196.6442,-243 3189.7347,-250.9115 3060.1419,-265.6301 2984.789,-273.5764"/>
<polygon fill="#000000" stroke="#000000" points="2984.1153,-270.1278 2974.5347,-274.6513 2984.8451,-277.0896 2984.1153,-270.1278"/>
<text text-anchor="middle" x="3223.6442" y="-231.8" font-family="Times,serif" font-size="14.00" fill="#000000">of_pdx</text>
</g>
<!-- pdx&#45;&gt;study -->
<g id="edge20" class="edge">
<title>pdx&#45;&gt;study</title>
<path fill="none" stroke="#000000" d="M3133.2165,-188.4264C3100.1731,-184.2642 3042.9471,-177.5117 2993.6442,-174 2912.5225,-168.2219 1599.9569,-165.5424 1530.6442,-123 1516.0374,-114.0348 1496.2374,-73.1932 1483.9602,-45.1707"/>
<polygon fill="#000000" stroke="#000000" points="1487.1231,-43.6661 1479.9522,-35.8667 1480.6942,-46.4355 1487.1231,-43.6661"/>
<text text-anchor="middle" x="1554.6442" y="-101.3" font-family="Times,serif" font-size="14.00" fill="#000000">of_pdx</text>
</g>
<!-- study_status -->
<g id="node3" class="node">
<title>study_status</title>
<ellipse fill="none" stroke="#000000" cx="1296.6442" cy="-105" rx="70.3881" ry="18"/>
<text text-anchor="middle" x="1296.6442" y="-101.3" font-family="Times,serif" font-size="14.00" fill="#000000">study_status</text>
</g>
<!-- study_status&#45;&gt;study -->
<g id="edge6" class="edge">
<title>study_status&#45;&gt;study</title>
<path fill="none" stroke="#000000" d="M1289.5065,-87.0762C1286.5074,-76.3422 1285.2117,-63.0662 1292.6442,-54 1309.2087,-33.7945 1378.3979,-24.7036 1426.0038,-20.7786"/>
<polygon fill="#000000" stroke="#000000" points="1426.4055,-24.258 1436.1051,-19.9957 1425.8645,-17.279 1426.4055,-24.258"/>
<text text-anchor="middle" x="1349.1442" y="-57.8" font-family="Times,serif" font-size="14.00" fill="#000000">of_study_status</text>
</g>
<!-- treatment_radiation -->
<g id="node4" class="node">
<title>treatment_radiation</title>
<ellipse fill="none" stroke="#000000" cx="2764.6442" cy="-279" rx="104.7816" ry="18"/>
<text text-anchor="middle" x="2764.6442" y="-275.3" font-family="Times,serif" font-size="14.00" fill="#000000">treatment_radiation</text>
</g>
<!-- treatment_radiation&#45;&gt;participant -->
<g id="edge33" class="edge">
<title>treatment_radiation&#45;&gt;participant</title>
<path fill="none" stroke="#000000" d="M2708.2177,-263.84C2689.8378,-258.1629 2669.5627,-251.0971 2651.6442,-243 2639.8361,-237.6641 2639.0663,-231.6868 2626.6442,-228 2540.3166,-202.3785 1928.9551,-194.5388 1716.3215,-192.5723"/>
<polygon fill="#000000" stroke="#000000" points="1716.2308,-189.0714 1706.1994,-192.4804 1716.1671,-196.0712 1716.2308,-189.0714"/>
<text text-anchor="middle" x="2734.6442" y="-231.8" font-family="Times,serif" font-size="14.00" fill="#000000">of_treatment_radiation</text>
</g>
<!-- treatment_chemotherapy -->
<g id="node5" class="node">
<title>treatment_chemotherapy</title>
<ellipse fill="none" stroke="#000000" cx="394.6442" cy="-279" rx="129.1772" ry="18"/>
<text text-anchor="middle" x="394.6442" y="-275.3" font-family="Times,serif" font-size="14.00" fill="#000000">treatment_chemotherapy</text>
</g>
<!-- treatment_chemotherapy&#45;&gt;participant -->
<g id="edge43" class="edge">
<title>treatment_chemotherapy&#45;&gt;participant</title>
<path fill="none" stroke="#000000" d="M375.4038,-260.83C366.4837,-250.2706 359.6383,-237.2638 368.6442,-228 389.7195,-206.3212 1303.2792,-195.4263 1570.7809,-192.6969"/>
<polygon fill="#000000" stroke="#000000" points="1571.1886,-196.1931 1581.1526,-192.5919 1571.1176,-189.1934 1571.1886,-196.1931"/>
<text text-anchor="middle" x="470.6442" y="-231.8" font-family="Times,serif" font-size="14.00" fill="#000000">of_treatment_chemotherapy</text>
</g>
<!-- cytogenomic_file -->
<g id="node6" class="node">
<title>cytogenomic_file</title>
<ellipse fill="none" stroke="#000000" cx="2874.6442" cy="-366" rx="89.8845" ry="18"/>
<text text-anchor="middle" x="2874.6442" y="-362.3" font-family="Times,serif" font-size="14.00" fill="#000000">cytogenomic_file</text>
</g>
<!-- cytogenomic_file&#45;&gt;sample -->
<g id="edge40" class="edge">
<title>cytogenomic_file&#45;&gt;sample</title>
<path fill="none" stroke="#000000" d="M2861.9399,-348.0651C2856.3718,-337.8368 2852.3718,-325.0868 2858.6442,-315 2862.5618,-308.7 2875.5464,-301.5117 2889.5011,-295.2237"/>
<polygon fill="#000000" stroke="#000000" points="2890.9331,-298.4178 2898.726,-291.24 2888.1578,-291.9915 2890.9331,-298.4178"/>
<text text-anchor="middle" x="2930.1442" y="-318.8" font-family="Times,serif" font-size="14.00" fill="#000000">of_cytogenomic_file</text>
</g>
<!-- clinical_measure_file -->
<g id="node7" class="node">
<title>clinical_measure_file</title>
<ellipse fill="none" stroke="#000000" cx="559.6442" cy="-366" rx="108.5808" ry="18"/>
<text text-anchor="middle" x="559.6442" y="-362.3" font-family="Times,serif" font-size="14.00" fill="#000000">clinical_measure_file</text>
</g>
<!-- clinical_measure_file&#45;&gt;sample -->
<g id="edge16" class="edge">
<title>clinical_measure_file&#45;&gt;sample</title>
<path fill="none" stroke="#000000" d="M645.0691,-354.8062C665.2392,-352.3667 686.6831,-349.9384 706.6442,-348 808.4286,-338.1156 1063.4674,-319.2059 1165.6442,-315 1260.7356,-311.0858 2784.8274,-313.0033 2878.6442,-297 2882.3591,-296.3663 2886.1648,-295.5115 2889.9485,-294.5172"/>
<polygon fill="#000000" stroke="#000000" points="2891.2259,-297.79 2899.8353,-291.6152 2889.2543,-291.0733 2891.2259,-297.79"/>
<text text-anchor="middle" x="1251.6442" y="-318.8" font-family="Times,serif" font-size="14.00" fill="#000000">of_clinical_measure_file</text>
</g>
<!-- clinical_measure_file&#45;&gt;participant -->
<g id="edge15" class="edge">
<title>clinical_measure_file&#45;&gt;participant</title>
<path fill="none" stroke="#000000" d="M558.5348,-347.7917C558.1743,-324.1312 561.4347,-283.2256 585.6442,-261 654.5946,-197.6997 700.5096,-237.3291 793.6442,-228 943.5038,-212.9888 1394.0255,-199.048 1571.0718,-193.9986"/>
<polygon fill="#000000" stroke="#000000" points="1571.4256,-197.4901 1581.3222,-193.7075 1571.2268,-190.4929 1571.4256,-197.4901"/>
<text text-anchor="middle" x="671.6442" y="-275.3" font-family="Times,serif" font-size="14.00" fill="#000000">of_clinical_measure_file</text>
</g>
<!-- clinical_measure_file&#45;&gt;study -->
<g id="edge17" class="edge">
<title>clinical_measure_file&#45;&gt;study</title>
<path fill="none" stroke="#000000" d="M455.0337,-360.9078C348.7427,-352.7914 199.6442,-331.9665 199.6442,-279 199.6442,-279 199.6442,-279 199.6442,-105 199.6442,-42.2422 1197.4085,-22.416 1426.2577,-18.694"/>
<polygon fill="#000000" stroke="#000000" points="1426.3156,-22.1937 1436.2582,-18.5337 1426.2034,-15.1946 1426.3156,-22.1937"/>
<text text-anchor="middle" x="285.6442" y="-188.3" font-family="Times,serif" font-size="14.00" fill="#000000">of_clinical_measure_file</text>
</g>
<!-- synonym -->
<g id="node8" class="node">
<title>synonym</title>
<ellipse fill="none" stroke="#000000" cx="767.6442" cy="-366" rx="51.9908" ry="18"/>
<text text-anchor="middle" x="767.6442" y="-362.3" font-family="Times,serif" font-size="14.00" fill="#000000">synonym</text>
</g>
<!-- synonym&#45;&gt;sample -->
<g id="edge30" class="edge">
<title>synonym&#45;&gt;sample</title>
<path fill="none" stroke="#000000" d="M818.9506,-362.3085C955.6682,-352.6367 1340.1826,-326.5137 1660.6442,-315 1795.905,-310.1403 2745.2721,-320.0437 2878.6442,-297 2882.3577,-296.3584 2886.1625,-295.4981 2889.9455,-294.5001"/>
<polygon fill="#000000" stroke="#000000" points="2891.2254,-297.7719 2899.8314,-291.5923 2889.2501,-291.0564 2891.2254,-297.7719"/>
<text text-anchor="middle" x="1703.1442" y="-318.8" font-family="Times,serif" font-size="14.00" fill="#000000">of_synonym</text>
</g>
<!-- synonym&#45;&gt;participant -->
<g id="edge32" class="edge">
<title>synonym&#45;&gt;participant</title>
<path fill="none" stroke="#000000" d="M763.2637,-347.8622C758.8349,-324.6588 755.3345,-284.6509 776.6442,-261 828.7478,-203.172 871.3714,-237.3688 948.6442,-228 1067.4322,-213.5977 1418.4645,-199.9308 1571.2416,-194.4833"/>
<polygon fill="#000000" stroke="#000000" points="1571.5839,-197.9734 1581.4534,-194.1209 1571.3356,-190.9778 1571.5839,-197.9734"/>
<text text-anchor="middle" x="819.1442" y="-275.3" font-family="Times,serif" font-size="14.00" fill="#000000">of_synonym</text>
</g>
<!-- synonym&#45;&gt;study -->
<g id="edge31" class="edge">
<title>synonym&#45;&gt;study</title>
<path fill="none" stroke="#000000" d="M723.3628,-356.4401C708.8384,-353.493 692.591,-350.3964 677.6442,-348 584.593,-333.0814 319.1463,-367.5306 256.6442,-297 246.0325,-285.0253 247.195,-273.9117 256.6442,-261 269.941,-242.8306 636.3956,-137.1375 1139.6442,-54 1241.2717,-37.211 1361.695,-26.4197 1426.2443,-21.3644"/>
<polygon fill="#000000" stroke="#000000" points="1426.7914,-24.8326 1436.4923,-20.5734 1426.2526,-17.8534 1426.7914,-24.8326"/>
<text text-anchor="middle" x="585.1442" y="-188.3" font-family="Times,serif" font-size="14.00" fill="#000000">of_synonym</text>
</g>
<!-- genetic_analysis -->
<g id="node9" class="node">
<title>genetic_analysis</title>
<ellipse fill="none" stroke="#000000" cx="1909.6442" cy="-366" rx="87.9851" ry="18"/>
<text text-anchor="middle" x="1909.6442" y="-362.3" font-family="Times,serif" font-size="14.00" fill="#000000">genetic_analysis</text>
</g>
<!-- genetic_analysis&#45;&gt;sample -->
<g id="edge28" class="edge">
<title>genetic_analysis&#45;&gt;sample</title>
<path fill="none" stroke="#000000" d="M1967.3962,-352.3474C2021.9914,-340.1056 2106.3783,-322.8942 2180.6442,-315 2334.9376,-298.5991 2725.8945,-324.2582 2878.6442,-297 2882.3542,-296.338 2886.1564,-295.4634 2889.9378,-294.4559"/>
<polygon fill="#000000" stroke="#000000" points="2891.224,-297.7255 2899.821,-291.5333 2889.239,-291.0128 2891.224,-297.7255"/>
<text text-anchor="middle" x="2250.6442" y="-318.8" font-family="Times,serif" font-size="14.00" fill="#000000">of_genetic_analysis</text>
</g>
<!-- genetic_analysis&#45;&gt;participant -->
<g id="edge29" class="edge">
<title>genetic_analysis&#45;&gt;participant</title>
<path fill="none" stroke="#000000" d="M1823.1757,-362.6055C1661.6912,-355.3728 1327.3821,-335.8393 1292.6442,-297 1281.9777,-285.0742 1282.48,-273.3568 1292.6442,-261 1327.2959,-218.8733 1479.6632,-202.0713 1571.8795,-195.6746"/>
<polygon fill="#000000" stroke="#000000" points="1572.2433,-199.1581 1581.9873,-194.9982 1571.7759,-192.1737 1572.2433,-199.1581"/>
<text text-anchor="middle" x="1362.6442" y="-275.3" font-family="Times,serif" font-size="14.00" fill="#000000">of_genetic_analysis</text>
</g>
<!-- laboratory_test -->
<g id="node10" class="node">
<title>laboratory_test</title>
<ellipse fill="none" stroke="#000000" cx="1390.6442" cy="-366" rx="81.7856" ry="18"/>
<text text-anchor="middle" x="1390.6442" y="-362.3" font-family="Times,serif" font-size="14.00" fill="#000000">laboratory_test</text>
</g>
<!-- laboratory_test&#45;&gt;sample -->
<g id="edge13" class="edge">
<title>laboratory_test&#45;&gt;sample</title>
<path fill="none" stroke="#000000" d="M1463.642,-357.6424C1570.1072,-345.8365 1774.2952,-324.6423 1948.6442,-315 2051.8392,-309.2928 2776.841,-314.8293 2878.6442,-297 2882.3563,-296.3499 2886.16,-295.4837 2889.9424,-294.4817"/>
<polygon fill="#000000" stroke="#000000" points="2891.2249,-297.7526 2899.8271,-291.5678 2889.2455,-291.0383 2891.2249,-297.7526"/>
<text text-anchor="middle" x="2014.1442" y="-318.8" font-family="Times,serif" font-size="14.00" fill="#000000">of_laboratory_test</text>
</g>
<!-- laboratory_test&#45;&gt;participant -->
<g id="edge14" class="edge">
<title>laboratory_test&#45;&gt;participant</title>
<path fill="none" stroke="#000000" d="M1341.945,-351.4208C1305.8396,-340.8027 1255.3469,-326.3529 1210.6442,-315 1175.3211,-306.0292 1153.4108,-325.4583 1130.6442,-297 1120.6491,-284.5061 1120.7228,-273.5526 1130.6442,-261 1157.6288,-226.8589 1437.4834,-204.8795 1572.088,-196.2041"/>
<polygon fill="#000000" stroke="#000000" points="1572.5482,-199.682 1582.3054,-195.5532 1572.1031,-192.6961 1572.5482,-199.682"/>
<text text-anchor="middle" x="1196.1442" y="-275.3" font-family="Times,serif" font-size="14.00" fill="#000000">of_laboratory_test</text>
</g>
<!-- treatment_response -->
<g id="node11" class="node">
<title>treatment_response</title>
<ellipse fill="none" stroke="#000000" cx="975.6442" cy="-279" rx="104.7816" ry="18"/>
<text text-anchor="middle" x="975.6442" y="-275.3" font-family="Times,serif" font-size="14.00" fill="#000000">treatment_response</text>
</g>
<!-- treatment_response&#45;&gt;participant -->
<g id="edge21" class="edge">
<title>treatment_response&#45;&gt;participant</title>
<path fill="none" stroke="#000000" d="M960.5465,-261.0627C953.3786,-250.3236 948.0588,-237.047 956.6442,-228 977.5414,-205.979 1398.6993,-196.2275 1571.0627,-193.1476"/>
<polygon fill="#000000" stroke="#000000" points="1571.3722,-196.6428 1581.309,-192.9672 1571.2489,-189.6439 1571.3722,-196.6428"/>
<text text-anchor="middle" x="1039.6442" y="-231.8" font-family="Times,serif" font-size="14.00" fill="#000000">of_treatment_response</text>
</g>
<!-- study_personnel -->
<g id="node12" class="node">
<title>study_personnel</title>
<ellipse fill="none" stroke="#000000" cx="1674.6442" cy="-105" rx="87.1846" ry="18"/>
<text text-anchor="middle" x="1674.6442" y="-101.3" font-family="Times,serif" font-size="14.00" fill="#000000">study_personnel</text>
</g>
<!-- study_personnel&#45;&gt;study -->
<g id="edge27" class="edge">
<title>study_personnel&#45;&gt;study</title>
<path fill="none" stroke="#000000" d="M1636.6495,-88.636C1600.1405,-72.9118 1545.3439,-49.3113 1509.2929,-33.7843"/>
<polygon fill="#000000" stroke="#000000" points="1510.6725,-30.5678 1500.1036,-29.8266 1507.9035,-36.9968 1510.6725,-30.5678"/>
<text text-anchor="middle" x="1656.1442" y="-57.8" font-family="Times,serif" font-size="14.00" fill="#000000">of_study_personnel</text>
</g>
<!-- cell_line -->
<g id="node13" class="node">
<title>cell_line</title>
<ellipse fill="none" stroke="#000000" cx="2935.6442" cy="-192" rx="49.2915" ry="18"/>
<text text-anchor="middle" x="2935.6442" y="-188.3" font-family="Times,serif" font-size="14.00" fill="#000000">cell_line</text>
</g>
<!-- cell_line&#45;&gt;sample -->
<g id="edge35" class="edge">
<title>cell_line&#45;&gt;sample</title>
<path fill="none" stroke="#000000" d="M2975.4624,-202.8652C2998.6759,-211.3628 3021.2909,-224.7972 3009.6442,-243 3002.7941,-253.706 2991.8613,-261.2735 2980.3229,-266.6057"/>
<polygon fill="#000000" stroke="#000000" points="2978.9343,-263.3921 2971.0059,-270.42 2981.5865,-269.8702 2978.9343,-263.3921"/>
<text text-anchor="middle" x="3053.1442" y="-231.8" font-family="Times,serif" font-size="14.00" fill="#000000">of_cell_line</text>
</g>
<!-- cell_line&#45;&gt;study -->
<g id="edge34" class="edge">
<title>cell_line&#45;&gt;study</title>
<path fill="none" stroke="#000000" d="M2885.9047,-191.7164C2649.4741,-190.2376 1645.0081,-182.4375 1507.6442,-156 1466.2173,-148.0269 1442.7378,-157.6302 1418.6442,-123 1400.1324,-96.3928 1425.0914,-62.5949 1446.8822,-40.6406"/>
<polygon fill="#000000" stroke="#000000" points="1449.3279,-43.1444 1454.0833,-33.6768 1444.4617,-38.1125 1449.3279,-43.1444"/>
<text text-anchor="middle" x="1459.1442" y="-101.3" font-family="Times,serif" font-size="14.00" fill="#000000">of_cell_line</text>
</g>
<!-- sample&#45;&gt;pdx -->
<g id="edge3" class="edge">
<title>sample&#45;&gt;pdx</title>
<path fill="none" stroke="#000000" d="M2975.0399,-275.1704C3009.6224,-270.8284 3058.5547,-261.7399 3097.6442,-243 3112.3479,-235.9509 3126.6481,-224.8343 3137.8977,-214.7766"/>
<polygon fill="#000000" stroke="#000000" points="3140.5608,-217.0802 3145.5121,-207.7135 3135.8003,-211.9481 3140.5608,-217.0802"/>
<text text-anchor="middle" x="3156.1442" y="-231.8" font-family="Times,serif" font-size="14.00" fill="#000000">of_sample</text>
</g>
<!-- sample&#45;&gt;cell_line -->
<g id="edge2" class="edge">
<title>sample&#45;&gt;cell_line</title>
<path fill="none" stroke="#000000" d="M2932.473,-260.9735C2933.0147,-249.1918 2933.7333,-233.5607 2934.3496,-220.1581"/>
<polygon fill="#000000" stroke="#000000" points="2937.8534,-220.1536 2934.8164,-210.0034 2930.8607,-219.832 2937.8534,-220.1536"/>
<text text-anchor="middle" x="2970.1442" y="-231.8" font-family="Times,serif" font-size="14.00" fill="#000000">of_sample</text>
</g>
<!-- sample&#45;&gt;participant -->
<g id="edge1" class="edge">
<title>sample&#45;&gt;participant</title>
<path fill="none" stroke="#000000" d="M2902.5331,-265.2684C2871.7442,-250.8596 2826.4141,-230.0133 2817.6442,-228 2710.8534,-203.4841 1955.8535,-194.7582 1716.3522,-192.5894"/>
<polygon fill="#000000" stroke="#000000" points="1716.0473,-189.0867 1706.0164,-192.497 1715.9846,-196.0864 1716.0473,-189.0867"/>
<text text-anchor="middle" x="2887.1442" y="-231.8" font-family="Times,serif" font-size="14.00" fill="#000000">of_sample</text>
</g>
<!-- study_arm -->
<g id="node15" class="node">
<title>study_arm</title>
<ellipse fill="none" stroke="#000000" cx="1839.6442" cy="-105" rx="59.5901" ry="18"/>
<text text-anchor="middle" x="1839.6442" y="-101.3" font-family="Times,serif" font-size="14.00" fill="#000000">study_arm</text>
</g>
<!-- study_arm&#45;&gt;study -->
<g id="edge9" class="edge">
<title>study_arm&#45;&gt;study</title>
<path fill="none" stroke="#000000" d="M1811.1448,-88.9367C1789.4567,-77.427 1758.5173,-62.511 1729.6442,-54 1658.0832,-32.9058 1571.5694,-24.0383 1519.3885,-20.4059"/>
<polygon fill="#000000" stroke="#000000" points="1519.3175,-16.8936 1509.1087,-19.7274 1518.8565,-23.8785 1519.3175,-16.8936"/>
<text text-anchor="middle" x="1816.1442" y="-57.8" font-family="Times,serif" font-size="14.00" fill="#000000">of_study_arm</text>
</g>
<!-- consent_group -->
<g id="node31" class="node">
<title>consent_group</title>
<ellipse fill="none" stroke="#000000" cx="1129.6442" cy="-105" rx="79.0865" ry="18"/>
<text text-anchor="middle" x="1129.6442" y="-101.3" font-family="Times,serif" font-size="14.00" fill="#000000">consent_group</text>
</g>
<!-- participant&#45;&gt;consent_group -->
<g id="edge37" class="edge">
<title>participant&#45;&gt;consent_group</title>
<path fill="none" stroke="#000000" d="M1581.6595,-189.5853C1510.5201,-185.9191 1390.6497,-176.9967 1289.6442,-156 1252.2965,-148.2363 1211.3305,-135.0865 1180.2006,-124.0842"/>
<polygon fill="#000000" stroke="#000000" points="1181.0508,-120.6712 1170.4562,-120.5971 1178.6922,-127.2619 1181.0508,-120.6712"/>
<text text-anchor="middle" x="1340.1442" y="-144.8" font-family="Times,serif" font-size="14.00" fill="#000000">of_participant</text>
</g>
<!-- sequencing_file -->
<g id="node17" class="node">
<title>sequencing_file</title>
<ellipse fill="none" stroke="#000000" cx="2264.6442" cy="-366" rx="83.3857" ry="18"/>
<text text-anchor="middle" x="2264.6442" y="-362.3" font-family="Times,serif" font-size="14.00" fill="#000000">sequencing_file</text>
</g>
<!-- sequencing_file&#45;&gt;sample -->
<g id="edge18" class="edge">
<title>sequencing_file&#45;&gt;sample</title>
<path fill="none" stroke="#000000" d="M2289.3997,-348.7892C2308.0508,-336.863 2334.7564,-321.9292 2360.6442,-315 2471.908,-285.2185 2765.3466,-317.7417 2878.6442,-297 2882.3004,-296.3306 2886.0472,-295.4595 2889.776,-294.4617"/>
<polygon fill="#000000" stroke="#000000" points="2890.9328,-297.7695 2899.5293,-291.5767 2888.9472,-291.057 2890.9328,-297.7695"/>
<text text-anchor="middle" x="2427.1442" y="-318.8" font-family="Times,serif" font-size="14.00" fill="#000000">of_sequencing_file</text>
</g>
<!-- radiology_file -->
<g id="node18" class="node">
<title>radiology_file</title>
<ellipse fill="none" stroke="#000000" cx="1921.6442" cy="-279" rx="73.387" ry="18"/>
<text text-anchor="middle" x="1921.6442" y="-275.3" font-family="Times,serif" font-size="14.00" fill="#000000">radiology_file</text>
</g>
<!-- radiology_file&#45;&gt;participant -->
<g id="edge44" class="edge">
<title>radiology_file&#45;&gt;participant</title>
<path fill="none" stroke="#000000" d="M1904.8557,-261.3176C1893.0289,-249.9669 1876.2221,-235.9176 1858.6442,-228 1833.0342,-216.4645 1764.8417,-206.2031 1712.0568,-199.6165"/>
<polygon fill="#000000" stroke="#000000" points="1712.4104,-196.1337 1702.0585,-198.3895 1711.5576,-203.0816 1712.4104,-196.1337"/>
<text text-anchor="middle" x="1942.6442" y="-231.8" font-family="Times,serif" font-size="14.00" fill="#000000">of_radiology_file</text>
</g>
<!-- pathology_file -->
<g id="node19" class="node">
<title>pathology_file</title>
<ellipse fill="none" stroke="#000000" cx="2441.6442" cy="-366" rx="76.0865" ry="18"/>
<text text-anchor="middle" x="2441.6442" y="-362.3" font-family="Times,serif" font-size="14.00" fill="#000000">pathology_file</text>
</g>
<!-- pathology_file&#45;&gt;sample -->
<g id="edge5" class="edge">
<title>pathology_file&#45;&gt;sample</title>
<path fill="none" stroke="#000000" d="M2464.8044,-348.6602C2482.0019,-336.8362 2506.5543,-322.0843 2530.6442,-315 2679.2259,-271.3051 2726.5444,-326.1791 2878.6442,-297 2882.2946,-296.2997 2886.0373,-295.4068 2889.7634,-294.3946"/>
<polygon fill="#000000" stroke="#000000" points="2890.9301,-297.699 2899.5124,-291.4864 2888.9291,-290.9911 2890.9301,-297.699"/>
<text text-anchor="middle" x="2591.6442" y="-318.8" font-family="Times,serif" font-size="14.00" fill="#000000">of_pathology_file</text>
</g>
<!-- publication -->
<g id="node20" class="node">
<title>publication</title>
<ellipse fill="none" stroke="#000000" cx="1980.6442" cy="-105" rx="63.0888" ry="18"/>
<text text-anchor="middle" x="1980.6442" y="-101.3" font-family="Times,serif" font-size="14.00" fill="#000000">publication</text>
</g>
<!-- publication&#45;&gt;study -->
<g id="edge38" class="edge">
<title>publication&#45;&gt;study</title>
<path fill="none" stroke="#000000" d="M1952.1669,-88.7807C1930.1044,-77.0309 1898.3844,-61.8791 1868.6442,-54 1803.8124,-36.8242 1609.2623,-24.9821 1519.2584,-20.272"/>
<polygon fill="#000000" stroke="#000000" points="1519.241,-16.7665 1509.0738,-19.7462 1518.88,-23.7572 1519.241,-16.7665"/>
<text text-anchor="middle" x="1961.6442" y="-57.8" font-family="Times,serif" font-size="14.00" fill="#000000">of_publication</text>
</g>
<!-- treatment_other -->
<g id="node22" class="node">
<title>treatment_other</title>
<ellipse fill="none" stroke="#000000" cx="2100.6442" cy="-279" rx="87.1846" ry="18"/>
<text text-anchor="middle" x="2100.6442" y="-275.3" font-family="Times,serif" font-size="14.00" fill="#000000">treatment_other</text>
</g>
<!-- treatment_other&#45;&gt;participant -->
<g id="edge12" class="edge">
<title>treatment_other&#45;&gt;participant</title>
<path fill="none" stroke="#000000" d="M2074.8485,-261.5336C2056.4019,-249.9711 2030.5333,-235.5875 2005.6442,-228 1953.1453,-211.9955 1805.0766,-201.1291 1715.4033,-195.801"/>
<polygon fill="#000000" stroke="#000000" points="1715.4919,-192.3003 1705.3044,-195.2097 1715.0827,-199.2883 1715.4919,-192.3003"/>
<text text-anchor="middle" x="2111.1442" y="-231.8" font-family="Times,serif" font-size="14.00" fill="#000000">of_treatment_other</text>
</g>
<!-- study_funding -->
<g id="node23" class="node">
<title>study_funding</title>
<ellipse fill="none" stroke="#000000" cx="2138.6442" cy="-105" rx="77.1866" ry="18"/>
<text text-anchor="middle" x="2138.6442" y="-101.3" font-family="Times,serif" font-size="14.00" fill="#000000">study_funding</text>
</g>
<!-- study_funding&#45;&gt;study -->
<g id="edge26" class="edge">
<title>study_funding&#45;&gt;study</title>
<path fill="none" stroke="#000000" d="M2107.2488,-88.4792C2083.1627,-76.6543 2048.7119,-61.5429 2016.6442,-54 1922.7179,-31.907 1633.3463,-22.1703 1519.4216,-19.1216"/>
<polygon fill="#000000" stroke="#000000" points="1519.3646,-15.619 1509.2762,-18.8554 1519.1809,-22.6166 1519.3646,-15.619"/>
<text text-anchor="middle" x="2123.6442" y="-57.8" font-family="Times,serif" font-size="14.00" fill="#000000">of_study_funding</text>
</g>
<!-- exposure -->
<g id="node24" class="node">
<title>exposure</title>
<ellipse fill="none" stroke="#000000" cx="2258.6442" cy="-279" rx="53.0913" ry="18"/>
<text text-anchor="middle" x="2258.6442" y="-275.3" font-family="Times,serif" font-size="14.00" fill="#000000">exposure</text>
</g>
<!-- exposure&#45;&gt;participant -->
<g id="edge39" class="edge">
<title>exposure&#45;&gt;participant</title>
<path fill="none" stroke="#000000" d="M2240.1386,-261.9996C2226.0485,-250.178 2205.5689,-235.2829 2184.6442,-228 2141.496,-212.9821 1852.6529,-200.0381 1715.5834,-194.6595"/>
<polygon fill="#000000" stroke="#000000" points="1715.713,-191.1619 1705.5843,-194.27 1715.4404,-198.1566 1715.713,-191.1619"/>
<text text-anchor="middle" x="2257.1442" y="-231.8" font-family="Times,serif" font-size="14.00" fill="#000000">of_exposure</text>
</g>
<!-- study_admin -->
<g id="node25" class="node">
<title>study_admin</title>
<ellipse fill="none" stroke="#000000" cx="2304.6442" cy="-105" rx="70.3881" ry="18"/>
<text text-anchor="middle" x="2304.6442" y="-101.3" font-family="Times,serif" font-size="14.00" fill="#000000">study_admin</text>
</g>
<!-- study_admin&#45;&gt;study -->
<g id="edge22" class="edge">
<title>study_admin&#45;&gt;study</title>
<path fill="none" stroke="#000000" d="M2275.4374,-88.4401C2252.8013,-76.512 2220.2389,-61.286 2189.6442,-54 2124.8182,-38.5619 1667.8941,-23.7931 1519.2477,-19.3499"/>
<polygon fill="#000000" stroke="#000000" points="1519.1871,-15.8467 1509.0876,-19.048 1518.9791,-22.8436 1519.1871,-15.8467"/>
<text text-anchor="middle" x="2289.1442" y="-57.8" font-family="Times,serif" font-size="14.00" fill="#000000">of_study_admin</text>
</g>
<!-- family_relationship -->
<g id="node26" class="node">
<title>family_relationship</title>
<ellipse fill="none" stroke="#000000" cx="1541.6442" cy="-279" rx="100.1823" ry="18"/>
<text text-anchor="middle" x="1541.6442" y="-275.3" font-family="Times,serif" font-size="14.00" fill="#000000">family_relationship</text>
</g>
<!-- family_relationship&#45;&gt;participant -->
<g id="edge41" class="edge">
<title>family_relationship&#45;&gt;participant</title>
<path fill="none" stroke="#000000" d="M1536.8127,-260.9264C1535.1,-250.4011 1534.9961,-237.3964 1541.6442,-228 1547.3766,-219.8979 1565.765,-212.3489 1585.3807,-206.2777"/>
<polygon fill="#000000" stroke="#000000" points="1586.4592,-209.6087 1595.0587,-203.42 1584.4769,-202.8952 1586.4592,-209.6087"/>
<text text-anchor="middle" x="1621.1442" y="-231.8" font-family="Times,serif" font-size="14.00" fill="#000000">of_family_relationship</text>
</g>
<!-- medical_history -->
<g id="node27" class="node">
<title>medical_history</title>
<ellipse fill="none" stroke="#000000" cx="1744.6442" cy="-279" rx="85.2851" ry="18"/>
<text text-anchor="middle" x="1744.6442" y="-275.3" font-family="Times,serif" font-size="14.00" fill="#000000">medical_history</text>
</g>
<!-- medical_history&#45;&gt;participant -->
<g id="edge36" class="edge">
<title>medical_history&#45;&gt;participant</title>
<path fill="none" stroke="#000000" d="M1733.1095,-261.103C1725.7905,-250.6404 1715.6474,-237.6394 1704.6442,-228 1698.4657,-222.5874 1691.3585,-217.5484 1684.2278,-213.0565"/>
<polygon fill="#000000" stroke="#000000" points="1685.6273,-209.8146 1675.2512,-207.6725 1682.0267,-215.8177 1685.6273,-209.8146"/>
<text text-anchor="middle" x="1786.6442" y="-231.8" font-family="Times,serif" font-size="14.00" fill="#000000">of_medical_history</text>
</g>
<!-- treatment_surgery -->
<g id="node28" class="node">
<title>treatment_surgery</title>
<ellipse fill="none" stroke="#000000" cx="2428.6442" cy="-279" rx="98.5829" ry="18"/>
<text text-anchor="middle" x="2428.6442" y="-275.3" font-family="Times,serif" font-size="14.00" fill="#000000">treatment_surgery</text>
</g>
<!-- treatment_surgery&#45;&gt;participant -->
<g id="edge7" class="edge">
<title>treatment_surgery&#45;&gt;participant</title>
<path fill="none" stroke="#000000" d="M2395.9558,-262.0024C2371.5106,-250.1822 2336.8848,-235.2877 2304.6442,-228 2194.5568,-203.1157 1864.3011,-195.2243 1716.5191,-192.8988"/>
<polygon fill="#000000" stroke="#000000" points="1716.2521,-189.3943 1706.1997,-192.7408 1716.1449,-196.3935 1716.2521,-189.3943"/>
<text text-anchor="middle" x="2429.1442" y="-231.8" font-family="Times,serif" font-size="14.00" fill="#000000">of_treatment_surgery</text>
</g>
<!-- survival -->
<g id="node29" class="node">
<title>survival</title>
<ellipse fill="none" stroke="#000000" cx="2593.6442" cy="-279" rx="48.1917" ry="18"/>
<text text-anchor="middle" x="2593.6442" y="-275.3" font-family="Times,serif" font-size="14.00" fill="#000000">survival</text>
</g>
<!-- survival&#45;&gt;participant -->
<g id="edge42" class="edge">
<title>survival&#45;&gt;participant</title>
<path fill="none" stroke="#000000" d="M2573.8667,-262.5879C2558.0968,-250.5698 2534.8753,-235.1589 2511.6442,-228 2436.7722,-204.9274 1911.6234,-195.5926 1716.4553,-192.8947"/>
<polygon fill="#000000" stroke="#000000" points="1716.3473,-189.393 1706.3005,-192.7563 1716.2518,-196.3924 1716.3473,-189.393"/>
<text text-anchor="middle" x="2583.1442" y="-231.8" font-family="Times,serif" font-size="14.00" fill="#000000">of_survival</text>
</g>
<!-- diagnosis -->
<g id="node30" class="node">
<title>diagnosis</title>
<ellipse fill="none" stroke="#000000" cx="3081.6442" cy="-366" rx="54.6905" ry="18"/>
<text text-anchor="middle" x="3081.6442" y="-362.3" font-family="Times,serif" font-size="14.00" fill="#000000">diagnosis</text>
</g>
<!-- diagnosis&#45;&gt;sample -->
<g id="edge10" class="edge">
<title>diagnosis&#45;&gt;sample</title>
<path fill="none" stroke="#000000" d="M3056.0567,-349.9505C3046.2161,-343.7491 3034.8882,-336.5749 3024.6442,-330 3014.3736,-323.4081 3012.1957,-321.1322 3001.6442,-315 2991.3178,-308.9986 2979.8835,-302.8991 2969.3013,-297.4678"/>
<polygon fill="#000000" stroke="#000000" points="2970.772,-294.2893 2960.2705,-292.8862 2967.6049,-300.5319 2970.772,-294.2893"/>
<text text-anchor="middle" x="3069.1442" y="-318.8" font-family="Times,serif" font-size="14.00" fill="#000000">of_diagnosis</text>
</g>
<!-- diagnosis&#45;&gt;participant -->
<g id="edge11" class="edge">
<title>diagnosis&#45;&gt;participant</title>
<path fill="none" stroke="#000000" d="M3101.1861,-349.0935C3106.2205,-343.5726 3110.9696,-337.0347 3113.6442,-330 3125.6403,-298.4479 3145.8492,-269.1692 3097.6442,-228 3071.122,-205.3489 2006.7498,-194.9769 1716.2427,-192.5644"/>
<polygon fill="#000000" stroke="#000000" points="1716.2664,-189.0646 1706.2379,-192.482 1716.2086,-196.0644 1716.2664,-189.0646"/>
<text text-anchor="middle" x="3172.1442" y="-275.3" font-family="Times,serif" font-size="14.00" fill="#000000">of_diagnosis</text>
</g>
<!-- consent_group&#45;&gt;study -->
<g id="edge4" class="edge">
<title>consent_group&#45;&gt;study</title>
<path fill="none" stroke="#000000" d="M1134.4608,-86.9489C1138.472,-75.5919 1145.3887,-61.6783 1156.6442,-54 1178.4334,-39.1358 1343.7421,-26.4049 1426.1863,-20.9037"/>
<polygon fill="#000000" stroke="#000000" points="1426.5439,-24.3878 1436.2922,-20.2379 1426.0837,-17.4029 1426.5439,-24.3878"/>
<text text-anchor="middle" x="1220.1442" y="-57.8" font-family="Times,serif" font-size="14.00" fill="#000000">of_consent_group</text>
</g>
<!-- methylation_array_file -->
<g id="node32" class="node">
<title>methylation_array_file</title>
<ellipse fill="none" stroke="#000000" cx="2651.6442" cy="-366" rx="115.8798" ry="18"/>
<text text-anchor="middle" x="2651.6442" y="-362.3" font-family="Times,serif" font-size="14.00" fill="#000000">methylation_array_file</text>
</g>
<!-- methylation_array_file&#45;&gt;sample -->
<g id="edge8" class="edge">
<title>methylation_array_file&#45;&gt;sample</title>
<path fill="none" stroke="#000000" d="M2652.4387,-347.8426C2653.9562,-336.5918 2657.8713,-322.8377 2667.6442,-315 2704.3557,-285.558 2832.5824,-306.6373 2878.6442,-297 2882.2318,-296.2494 2885.9129,-295.3292 2889.5818,-294.3057"/>
<polygon fill="#000000" stroke="#000000" points="2890.6336,-297.6442 2899.1934,-291.4007 2888.6084,-290.9436 2890.6336,-297.6442"/>
<text text-anchor="middle" x="2759.1442" y="-318.8" font-family="Times,serif" font-size="14.00" fill="#000000">of_methylation_array_file</text>
</g>
</g>
</svg>
