<svg width="3796pt" height="392pt"
 viewBox="0.00 0.00 3796.24 392.00" xmlns="http://www.w3.org/2000/svg" xmlns:xlink="http://www.w3.org/1999/xlink">
<g id="graph0" class="graph" transform="scale(1 1) rotate(0) translate(4 388)">
<title>Perl</title>
<polygon fill="#ffffff" stroke="transparent" points="-4,4 -4,-388 3792.2382,-388 3792.2382,4 -4,4"/>
<!-- participant -->
<g id="node1" class="node">
<title>participant</title>
<ellipse fill="none" stroke="#000000" cx="1650.0444" cy="-192" rx="62.2891" ry="18"/>
<text text-anchor="middle" x="1650.0444" y="-188.3" font-family="Times,serif" font-size="14.00" fill="#000000">participant</text>
</g>
<!-- consent_group -->
<g id="node8" class="node">
<title>consent_group</title>
<ellipse fill="none" stroke="#000000" cx="1524.0444" cy="-105" rx="79.0865" ry="18"/>
<text text-anchor="middle" x="1524.0444" y="-101.3" font-family="Times,serif" font-size="14.00" fill="#000000">consent_group</text>
</g>
<!-- participant&#45;&gt;consent_group -->
<g id="edge19" class="edge">
<title>participant&#45;&gt;consent_group</title>
<path fill="none" stroke="#000000" d="M1625.7503,-175.2255C1606.3918,-161.8589 1579.0726,-142.9957 1557.6221,-128.1846"/>
<polygon fill="#000000" stroke="#000000" points="1559.344,-125.1203 1549.1263,-122.3185 1555.3666,-130.8806 1559.344,-125.1203"/>
<text text-anchor="middle" x="1644.5444" y="-144.8" font-family="Times,serif" font-size="14.00" fill="#000000">of_participant</text>
</g>
<!-- treatment_response -->
<g id="node2" class="node">
<title>treatment_response</title>
<ellipse fill="none" stroke="#000000" cx="777.0444" cy="-279" rx="104.7816" ry="18"/>
<text text-anchor="middle" x="777.0444" y="-275.3" font-family="Times,serif" font-size="14.00" fill="#000000">treatment_response</text>
</g>
<!-- treatment_response&#45;&gt;participant -->
<g id="edge36" class="edge">
<title>treatment_response&#45;&gt;participant</title>
<path fill="none" stroke="#000000" d="M804.9566,-261.3886C825.2285,-249.5984 853.7755,-235.0022 881.0444,-228 947.2767,-210.9926 1399.0635,-198.1707 1577.6355,-193.7113"/>
<polygon fill="#000000" stroke="#000000" points="1577.8113,-197.2081 1587.7214,-193.4611 1577.6376,-190.2103 1577.8113,-197.2081"/>
<text text-anchor="middle" x="964.0444" y="-231.8" font-family="Times,serif" font-size="14.00" fill="#000000">of_treatment_response</text>
</g>
<!-- publication -->
<g id="node3" class="node">
<title>publication</title>
<ellipse fill="none" stroke="#000000" cx="63.0444" cy="-105" rx="63.0888" ry="18"/>
<text text-anchor="middle" x="63.0444" y="-101.3" font-family="Times,serif" font-size="14.00" fill="#000000">publication</text>
</g>
<!-- study -->
<g id="node9" class="node">
<title>study</title>
<ellipse fill="none" stroke="#000000" cx="1335.0444" cy="-18" rx="36.2938" ry="18"/>
<text text-anchor="middle" x="1335.0444" y="-14.3" font-family="Times,serif" font-size="14.00" fill="#000000">study</text>
</g>
<!-- publication&#45;&gt;study -->
<g id="edge7" class="edge">
<title>publication&#45;&gt;study</title>
<path fill="none" stroke="#000000" d="M79.3972,-87.5386C91.7525,-75.6557 109.822,-60.8834 129.0444,-54 184.494,-34.144 1073.6177,-21.3874 1288.5453,-18.5843"/>
<polygon fill="#000000" stroke="#000000" points="1288.6022,-22.084 1298.5559,-18.4546 1288.5114,-15.0846 1288.6022,-22.084"/>
<text text-anchor="middle" x="180.0444" y="-57.8" font-family="Times,serif" font-size="14.00" fill="#000000">of_publication</text>
</g>
<!-- family_relationship -->
<g id="node4" class="node">
<title>family_relationship</title>
<ellipse fill="none" stroke="#000000" cx="1000.0444" cy="-279" rx="100.1823" ry="18"/>
<text text-anchor="middle" x="1000.0444" y="-275.3" font-family="Times,serif" font-size="14.00" fill="#000000">family_relationship</text>
</g>
<!-- family_relationship&#45;&gt;participant -->
<g id="edge42" class="edge">
<title>family_relationship&#45;&gt;participant</title>
<path fill="none" stroke="#000000" d="M1022.1664,-261.2335C1038.0925,-249.5333 1060.6364,-235.1086 1083.0444,-228 1128.9918,-213.4238 1435.3818,-200.1172 1577.672,-194.6405"/>
<polygon fill="#000000" stroke="#000000" points="1578.1805,-198.1237 1588.0395,-194.2441 1577.913,-191.1288 1578.1805,-198.1237"/>
<text text-anchor="middle" x="1162.5444" y="-231.8" font-family="Times,serif" font-size="14.00" fill="#000000">of_family_relationship</text>
</g>
<!-- sequencing_file -->
<g id="node5" class="node">
<title>sequencing_file</title>
<ellipse fill="none" stroke="#000000" cx="755.0444" cy="-366" rx="83.3857" ry="18"/>
<text text-anchor="middle" x="755.0444" y="-362.3" font-family="Times,serif" font-size="14.00" fill="#000000">sequencing_file</text>
</g>
<!-- sample -->
<g id="node22" class="node">
<title>sample</title>
<ellipse fill="none" stroke="#000000" cx="485.0444" cy="-279" rx="44.393" ry="18"/>
<text text-anchor="middle" x="485.0444" y="-275.3" font-family="Times,serif" font-size="14.00" fill="#000000">sample</text>
</g>
<!-- sequencing_file&#45;&gt;sample -->
<g id="edge27" class="edge">
<title>sequencing_file&#45;&gt;sample</title>
<path fill="none" stroke="#000000" d="M738.9429,-348.3002C727.3655,-336.7884 710.7307,-322.559 693.0444,-315 631.3021,-288.6119 608.7118,-311.0085 543.0444,-297 538.3915,-296.0074 533.5768,-294.8055 528.8019,-293.4988"/>
<polygon fill="#000000" stroke="#000000" points="529.6998,-290.1152 519.1213,-290.7032 527.7577,-296.8404 529.6998,-290.1152"/>
<text text-anchor="middle" x="784.5444" y="-318.8" font-family="Times,serif" font-size="14.00" fill="#000000">of_sequencing_file</text>
</g>
<!-- study_status -->
<g id="node6" class="node">
<title>study_status</title>
<ellipse fill="none" stroke="#000000" cx="214.0444" cy="-105" rx="70.3881" ry="18"/>
<text text-anchor="middle" x="214.0444" y="-101.3" font-family="Times,serif" font-size="14.00" fill="#000000">study_status</text>
</g>
<!-- study_status&#45;&gt;study -->
<g id="edge28" class="edge">
<title>study_status&#45;&gt;study</title>
<path fill="none" stroke="#000000" d="M222.2159,-86.9829C228.5542,-75.3295 238.5417,-61.0612 252.0444,-54 298.5413,-29.6847 1086.7462,-20.4069 1288.3725,-18.4254"/>
<polygon fill="#000000" stroke="#000000" points="1288.6588,-21.9229 1298.6244,-18.326 1288.5909,-14.9233 1288.6588,-21.9229"/>
<text text-anchor="middle" x="308.5444" y="-57.8" font-family="Times,serif" font-size="14.00" fill="#000000">of_study_status</text>
</g>
<!-- study_personnel -->
<g id="node7" class="node">
<title>study_personnel</title>
<ellipse fill="none" stroke="#000000" cx="389.0444" cy="-105" rx="87.1846" ry="18"/>
<text text-anchor="middle" x="389.0444" y="-101.3" font-family="Times,serif" font-size="14.00" fill="#000000">study_personnel</text>
</g>
<!-- study_personnel&#45;&gt;study -->
<g id="edge5" class="edge">
<title>study_personnel&#45;&gt;study</title>
<path fill="none" stroke="#000000" d="M375.4379,-86.9043C369.0659,-76.1056 364.5464,-62.8219 373.0444,-54 389.1005,-37.3318 1097.9454,-22.5498 1288.3714,-18.8743"/>
<polygon fill="#000000" stroke="#000000" points="1288.6766,-22.3692 1298.6076,-18.6778 1288.5422,-15.3704 1288.6766,-22.3692"/>
<text text-anchor="middle" x="442.5444" y="-57.8" font-family="Times,serif" font-size="14.00" fill="#000000">of_study_personnel</text>
</g>
<!-- consent_group&#45;&gt;study -->
<g id="edge20" class="edge">
<title>consent_group&#45;&gt;study</title>
<path fill="none" stroke="#000000" d="M1488.9379,-88.8399C1455.2733,-73.3434 1404.6973,-50.0624 1370.8131,-34.4649"/>
<polygon fill="#000000" stroke="#000000" points="1372.2739,-31.2844 1361.7265,-30.2822 1369.3468,-37.6431 1372.2739,-31.2844"/>
<text text-anchor="middle" x="1503.5444" y="-57.8" font-family="Times,serif" font-size="14.00" fill="#000000">of_consent_group</text>
</g>
<!-- synonym -->
<g id="node10" class="node">
<title>synonym</title>
<ellipse fill="none" stroke="#000000" cx="182.0444" cy="-366" rx="51.9908" ry="18"/>
<text text-anchor="middle" x="182.0444" y="-362.3" font-family="Times,serif" font-size="14.00" fill="#000000">synonym</text>
</g>
<!-- synonym&#45;&gt;participant -->
<g id="edge31" class="edge">
<title>synonym&#45;&gt;participant</title>
<path fill="none" stroke="#000000" d="M200.5587,-349.0723C229.3398,-324.0351 287.7003,-278.2364 347.0444,-261 445.0845,-232.5245 476.7973,-266.9318 576.0444,-243 592.8948,-238.9368 595.1091,-231.6934 612.0444,-228 705.4759,-207.6233 1356.8078,-196.2972 1577.2839,-193.014"/>
<polygon fill="#000000" stroke="#000000" points="1577.506,-196.5112 1587.4531,-192.8637 1577.4025,-189.5119 1577.506,-196.5112"/>
<text text-anchor="middle" x="389.5444" y="-275.3" font-family="Times,serif" font-size="14.00" fill="#000000">of_synonym</text>
</g>
<!-- synonym&#45;&gt;study -->
<g id="edge30" class="edge">
<title>synonym&#45;&gt;study</title>
<path fill="none" stroke="#000000" d="M179.0882,-347.9642C173.9945,-310.0406 168.2014,-221.6213 215.0444,-174 300.6833,-86.9382 366.6075,-152.7736 485.0444,-123 536.5741,-110.0461 547.1335,-98.3298 599.0444,-87 715.0022,-61.6917 745.9509,-65.8593 864.0444,-54 1019.3371,-38.405 1204.0386,-26.1013 1288.6002,-20.814"/>
<polygon fill="#000000" stroke="#000000" points="1288.8856,-24.3031 1298.6492,-20.1893 1288.4512,-17.3166 1288.8856,-24.3031"/>
<text text-anchor="middle" x="257.5444" y="-188.3" font-family="Times,serif" font-size="14.00" fill="#000000">of_synonym</text>
</g>
<!-- synonym&#45;&gt;sample -->
<g id="edge29" class="edge">
<title>synonym&#45;&gt;sample</title>
<path fill="none" stroke="#000000" d="M208.1954,-350.3872C230.7216,-337.1778 261.6569,-319.6709 275.0444,-315 282.5142,-312.3938 373.8085,-297.1898 433.5396,-287.392"/>
<polygon fill="#000000" stroke="#000000" points="434.2643,-290.82 443.5669,-285.7493 433.1326,-283.9121 434.2643,-290.82"/>
<text text-anchor="middle" x="317.5444" y="-318.8" font-family="Times,serif" font-size="14.00" fill="#000000">of_synonym</text>
</g>
<!-- radiology_file -->
<g id="node11" class="node">
<title>radiology_file</title>
<ellipse fill="none" stroke="#000000" cx="1192.0444" cy="-279" rx="73.387" ry="18"/>
<text text-anchor="middle" x="1192.0444" y="-275.3" font-family="Times,serif" font-size="14.00" fill="#000000">radiology_file</text>
</g>
<!-- radiology_file&#45;&gt;participant -->
<g id="edge33" class="edge">
<title>radiology_file&#45;&gt;participant</title>
<path fill="none" stroke="#000000" d="M1215.0828,-261.7312C1231.8943,-250.1025 1255.7276,-235.5584 1279.0444,-228 1332.8904,-210.5452 1486.3966,-200.1348 1578.2085,-195.2922"/>
<polygon fill="#000000" stroke="#000000" points="1578.4599,-198.784 1588.2653,-194.771 1578.0975,-191.7934 1578.4599,-198.784"/>
<text text-anchor="middle" x="1338.0444" y="-231.8" font-family="Times,serif" font-size="14.00" fill="#000000">of_radiology_file</text>
</g>
<!-- cell_line -->
<g id="node12" class="node">
<title>cell_line</title>
<ellipse fill="none" stroke="#000000" cx="358.0444" cy="-192" rx="49.2915" ry="18"/>
<text text-anchor="middle" x="358.0444" y="-188.3" font-family="Times,serif" font-size="14.00" fill="#000000">cell_line</text>
</g>
<!-- cell_line&#45;&gt;study -->
<g id="edge43" class="edge">
<title>cell_line&#45;&gt;study</title>
<path fill="none" stroke="#000000" d="M395.6846,-180.1495C465.7214,-158.5257 621.1104,-112.548 755.0444,-87 951.5825,-49.5103 1189.7065,-28.8213 1288.5594,-21.3056"/>
<polygon fill="#000000" stroke="#000000" points="1289.0919,-24.7755 1298.8017,-20.5363 1288.5676,-17.7952 1289.0919,-24.7755"/>
<text text-anchor="middle" x="795.5444" y="-101.3" font-family="Times,serif" font-size="14.00" fill="#000000">of_cell_line</text>
</g>
<!-- cell_line&#45;&gt;sample -->
<g id="edge44" class="edge">
<title>cell_line&#45;&gt;sample</title>
<path fill="none" stroke="#000000" d="M318.9416,-203.2626C298.2776,-210.0883 275.9789,-219.1604 270.0444,-228 266.3285,-233.535 265.7372,-237.9116 270.0444,-243 271.3744,-244.5712 370.2891,-260.6484 433.4736,-270.7794"/>
<polygon fill="#000000" stroke="#000000" points="433.2431,-274.287 443.6708,-272.4125 434.3502,-267.3751 433.2431,-274.287"/>
<text text-anchor="middle" x="310.5444" y="-231.8" font-family="Times,serif" font-size="14.00" fill="#000000">of_cell_line</text>
</g>
<!-- methylation_array_file -->
<g id="node13" class="node">
<title>methylation_array_file</title>
<ellipse fill="none" stroke="#000000" cx="368.0444" cy="-366" rx="115.8798" ry="18"/>
<text text-anchor="middle" x="368.0444" y="-362.3" font-family="Times,serif" font-size="14.00" fill="#000000">methylation_array_file</text>
</g>
<!-- methylation_array_file&#45;&gt;sample -->
<g id="edge11" class="edge">
<title>methylation_array_file&#45;&gt;sample</title>
<path fill="none" stroke="#000000" d="M363.5043,-347.7848C361.9757,-337.2093 362.1254,-324.2015 369.0444,-315 377.3119,-304.0051 407.285,-294.8662 434.6905,-288.5475"/>
<polygon fill="#000000" stroke="#000000" points="435.6185,-291.9269 444.6261,-286.3489 434.1061,-285.0922 435.6185,-291.9269"/>
<text text-anchor="middle" x="460.5444" y="-318.8" font-family="Times,serif" font-size="14.00" fill="#000000">of_methylation_array_file</text>
</g>
<!-- laboratory_test -->
<g id="node14" class="node">
<title>laboratory_test</title>
<ellipse fill="none" stroke="#000000" cx="1872.0444" cy="-366" rx="81.7856" ry="18"/>
<text text-anchor="middle" x="1872.0444" y="-362.3" font-family="Times,serif" font-size="14.00" fill="#000000">laboratory_test</text>
</g>
<!-- laboratory_test&#45;&gt;participant -->
<g id="edge38" class="edge">
<title>laboratory_test&#45;&gt;participant</title>
<path fill="none" stroke="#000000" d="M1953.7914,-364.4506C2137.0933,-360.1305 2568.3776,-344.9279 2612.0444,-297 2622.8201,-285.1728 2617.2844,-276.1176 2612.0444,-261 2605.9294,-243.3578 2602.6836,-236.4724 2586.0444,-228 2547.7927,-208.5229 1935.7823,-196.6832 1722.5926,-193.1336"/>
<polygon fill="#000000" stroke="#000000" points="1722.4999,-189.6317 1712.4434,-192.9658 1722.3842,-196.6307 1722.4999,-189.6317"/>
<text text-anchor="middle" x="2683.5444" y="-275.3" font-family="Times,serif" font-size="14.00" fill="#000000">of_laboratory_test</text>
</g>
<!-- laboratory_test&#45;&gt;sample -->
<g id="edge39" class="edge">
<title>laboratory_test&#45;&gt;sample</title>
<path fill="none" stroke="#000000" d="M1795.1789,-359.6972C1661.209,-348.9321 1376.1903,-327.0051 1135.0444,-315 1003.5909,-308.4557 672.8589,-318.7037 543.0444,-297 538.2284,-296.1948 533.2567,-295.0919 528.3433,-293.8252"/>
<polygon fill="#000000" stroke="#000000" points="528.9818,-290.3693 518.4081,-291.0384 527.0912,-297.1092 528.9818,-290.3693"/>
<text text-anchor="middle" x="1443.5444" y="-318.8" font-family="Times,serif" font-size="14.00" fill="#000000">of_laboratory_test</text>
</g>
<!-- treatment_radiation -->
<g id="node15" class="node">
<title>treatment_radiation</title>
<ellipse fill="none" stroke="#000000" cx="1388.0444" cy="-279" rx="104.7816" ry="18"/>
<text text-anchor="middle" x="1388.0444" y="-275.3" font-family="Times,serif" font-size="14.00" fill="#000000">treatment_radiation</text>
</g>
<!-- treatment_radiation&#45;&gt;participant -->
<g id="edge37" class="edge">
<title>treatment_radiation&#45;&gt;participant</title>
<path fill="none" stroke="#000000" d="M1393.0499,-260.8414C1397.1151,-249.59 1404.0207,-235.8359 1415.0444,-228 1440.6845,-209.7744 1519.1084,-200.4896 1578.3668,-195.96"/>
<polygon fill="#000000" stroke="#000000" points="1578.7278,-199.443 1588.445,-195.2208 1578.2157,-192.4617 1578.7278,-199.443"/>
<text text-anchor="middle" x="1498.0444" y="-231.8" font-family="Times,serif" font-size="14.00" fill="#000000">of_treatment_radiation</text>
</g>
<!-- genetic_analysis -->
<g id="node16" class="node">
<title>genetic_analysis</title>
<ellipse fill="none" stroke="#000000" cx="2574.0444" cy="-366" rx="87.9851" ry="18"/>
<text text-anchor="middle" x="2574.0444" y="-362.3" font-family="Times,serif" font-size="14.00" fill="#000000">genetic_analysis</text>
</g>
<!-- genetic_analysis&#45;&gt;participant -->
<g id="edge41" class="edge">
<title>genetic_analysis&#45;&gt;participant</title>
<path fill="none" stroke="#000000" d="M2604.2145,-348.997C2624.5702,-338.0826 2652.3136,-324.2683 2678.0444,-315 2710.2958,-303.3829 2731.8209,-323.9198 2753.0444,-297 2762.9504,-284.4353 2763.0148,-273.5137 2753.0444,-261 2712.1292,-209.6477 2674.1374,-236.6027 2609.0444,-228 2437.9503,-205.3881 1915.7358,-195.7977 1722.7371,-192.9617"/>
<polygon fill="#000000" stroke="#000000" points="1722.7472,-189.4616 1712.6974,-192.8159 1722.6455,-196.4608 1722.7472,-189.4616"/>
<text text-anchor="middle" x="2830.0444" y="-275.3" font-family="Times,serif" font-size="14.00" fill="#000000">of_genetic_analysis</text>
</g>
<!-- genetic_analysis&#45;&gt;sample -->
<g id="edge40" class="edge">
<title>genetic_analysis&#45;&gt;sample</title>
<path fill="none" stroke="#000000" d="M2489.4959,-361.0879C2309.8075,-350.8353 1876.5996,-327.1082 1513.0444,-315 1405.3078,-311.4118 649.4684,-314.146 543.0444,-297 538.0335,-296.1927 532.8561,-295.0525 527.7521,-293.7331"/>
<polygon fill="#000000" stroke="#000000" points="528.6645,-290.354 518.0903,-291.0156 526.7691,-297.0925 528.6645,-290.354"/>
<text text-anchor="middle" x="1933.0444" y="-318.8" font-family="Times,serif" font-size="14.00" fill="#000000">of_genetic_analysis</text>
</g>
<!-- survival -->
<g id="node17" class="node">
<title>survival</title>
<ellipse fill="none" stroke="#000000" cx="1559.0444" cy="-279" rx="48.1917" ry="18"/>
<text text-anchor="middle" x="1559.0444" y="-275.3" font-family="Times,serif" font-size="14.00" fill="#000000">survival</text>
</g>
<!-- survival&#45;&gt;participant -->
<g id="edge32" class="edge">
<title>survival&#45;&gt;participant</title>
<path fill="none" stroke="#000000" d="M1570.8712,-261.423C1578.2937,-251.0738 1588.443,-238.0797 1599.0444,-228 1604.0577,-223.2334 1609.7414,-218.6058 1615.4497,-214.3442"/>
<polygon fill="#000000" stroke="#000000" points="1617.6681,-217.0603 1623.7553,-208.3887 1613.589,-211.3716 1617.6681,-217.0603"/>
<text text-anchor="middle" x="1638.5444" y="-231.8" font-family="Times,serif" font-size="14.00" fill="#000000">of_survival</text>
</g>
<!-- cytogenomic_file -->
<g id="node18" class="node">
<title>cytogenomic_file</title>
<ellipse fill="none" stroke="#000000" cx="946.0444" cy="-366" rx="89.8845" ry="18"/>
<text text-anchor="middle" x="946.0444" y="-362.3" font-family="Times,serif" font-size="14.00" fill="#000000">cytogenomic_file</text>
</g>
<!-- cytogenomic_file&#45;&gt;sample -->
<g id="edge12" class="edge">
<title>cytogenomic_file&#45;&gt;sample</title>
<path fill="none" stroke="#000000" d="M914.3411,-349.0492C903.4192,-343.1192 891.1454,-336.3543 880.0444,-330 868.7987,-323.5629 867.4271,-318.8172 855.0444,-315 722.3108,-274.0826 679.7156,-321.7675 543.0444,-297 538.2398,-296.1293 533.2754,-294.9846 528.3663,-293.6934"/>
<polygon fill="#000000" stroke="#000000" points="529.0115,-290.2384 518.436,-290.8784 527.1023,-296.9731 529.0115,-290.2384"/>
<text text-anchor="middle" x="951.5444" y="-318.8" font-family="Times,serif" font-size="14.00" fill="#000000">of_cytogenomic_file</text>
</g>
<!-- study_funding -->
<g id="node19" class="node">
<title>study_funding</title>
<ellipse fill="none" stroke="#000000" cx="3415.0444" cy="-105" rx="77.1866" ry="18"/>
<text text-anchor="middle" x="3415.0444" y="-101.3" font-family="Times,serif" font-size="14.00" fill="#000000">study_funding</text>
</g>
<!-- study_funding&#45;&gt;study -->
<g id="edge3" class="edge">
<title>study_funding&#45;&gt;study</title>
<path fill="none" stroke="#000000" d="M3391.7469,-87.666C3374.151,-75.6785 3348.8673,-60.7221 3324.0444,-54 3227.3662,-27.8192 1672.2684,-19.5243 1381.6323,-18.1995"/>
<polygon fill="#000000" stroke="#000000" points="1381.4576,-14.6987 1371.4418,-18.1535 1381.4259,-21.6987 1381.4576,-14.6987"/>
<text text-anchor="middle" x="3420.0444" y="-57.8" font-family="Times,serif" font-size="14.00" fill="#000000">of_study_funding</text>
</g>
<!-- study_arm -->
<g id="node20" class="node">
<title>study_arm</title>
<ellipse fill="none" stroke="#000000" cx="3570.0444" cy="-105" rx="59.5901" ry="18"/>
<text text-anchor="middle" x="3570.0444" y="-101.3" font-family="Times,serif" font-size="14.00" fill="#000000">study_arm</text>
</g>
<!-- study_arm&#45;&gt;study -->
<g id="edge13" class="edge">
<title>study_arm&#45;&gt;study</title>
<path fill="none" stroke="#000000" d="M3549.0938,-87.9192C3532.9467,-75.8902 3509.4831,-60.7702 3486.0444,-54 3381.5989,-23.8311 1687.3939,-18.7599 1382.0164,-18.0897"/>
<polygon fill="#000000" stroke="#000000" points="1381.7514,-14.5893 1371.7439,-18.0677 1381.7364,-21.5892 1381.7514,-14.5893"/>
<text text-anchor="middle" x="3566.5444" y="-57.8" font-family="Times,serif" font-size="14.00" fill="#000000">of_study_arm</text>
</g>
<!-- treatment_surgery -->
<g id="node21" class="node">
<title>treatment_surgery</title>
<ellipse fill="none" stroke="#000000" cx="1724.0444" cy="-279" rx="98.5829" ry="18"/>
<text text-anchor="middle" x="1724.0444" y="-275.3" font-family="Times,serif" font-size="14.00" fill="#000000">treatment_surgery</text>
</g>
<!-- treatment_surgery&#45;&gt;participant -->
<g id="edge18" class="edge">
<title>treatment_surgery&#45;&gt;participant</title>
<path fill="none" stroke="#000000" d="M1708.7116,-260.9735C1698.0242,-248.4087 1683.6129,-231.4657 1671.7484,-217.5168"/>
<polygon fill="#000000" stroke="#000000" points="1674.2495,-215.0553 1665.1044,-209.7057 1668.9174,-219.5906 1674.2495,-215.0553"/>
<text text-anchor="middle" x="1769.5444" y="-231.8" font-family="Times,serif" font-size="14.00" fill="#000000">of_treatment_surgery</text>
</g>
<!-- sample&#45;&gt;participant -->
<g id="edge24" class="edge">
<title>sample&#45;&gt;participant</title>
<path fill="none" stroke="#000000" d="M519.9496,-267.9526C527.5477,-265.608 535.5541,-263.183 543.0444,-261 572.2347,-252.4928 581.308,-255.4555 609.0444,-243 620.1774,-238.0005 620.4096,-231.6837 632.0444,-228 721.3018,-199.7402 1359.471,-193.6 1577.3548,-192.3219"/>
<polygon fill="#000000" stroke="#000000" points="1577.4288,-195.8216 1587.4087,-192.2646 1577.3889,-188.8217 1577.4288,-195.8216"/>
<text text-anchor="middle" x="668.5444" y="-231.8" font-family="Times,serif" font-size="14.00" fill="#000000">of_sample</text>
</g>
<!-- sample&#45;&gt;cell_line -->
<g id="edge26" class="edge">
<title>sample&#45;&gt;cell_line</title>
<path fill="none" stroke="#000000" d="M443.945,-272.2929C412.029,-266.175 371.4958,-256.0976 361.0444,-243 356.0439,-236.7334 354.2006,-228.5339 353.9084,-220.5477"/>
<polygon fill="#000000" stroke="#000000" points="357.4134,-220.4742 354.2827,-210.3525 350.4181,-220.2174 357.4134,-220.4742"/>
<text text-anchor="middle" x="397.5444" y="-231.8" font-family="Times,serif" font-size="14.00" fill="#000000">of_sample</text>
</g>
<!-- pdx -->
<g id="node29" class="node">
<title>pdx</title>
<ellipse fill="none" stroke="#000000" cx="510.0444" cy="-192" rx="27.8951" ry="18"/>
<text text-anchor="middle" x="510.0444" y="-188.3" font-family="Times,serif" font-size="14.00" fill="#000000">pdx</text>
</g>
<!-- sample&#45;&gt;pdx -->
<g id="edge25" class="edge">
<title>sample&#45;&gt;pdx</title>
<path fill="none" stroke="#000000" d="M490.2244,-260.9735C493.6663,-248.9958 498.2514,-233.0396 502.1447,-219.4912"/>
<polygon fill="#000000" stroke="#000000" points="505.5586,-220.2834 504.9566,-209.7057 498.8308,-218.3501 505.5586,-220.2834"/>
<text text-anchor="middle" x="535.5444" y="-231.8" font-family="Times,serif" font-size="14.00" fill="#000000">of_sample</text>
</g>
<!-- diagnosis -->
<g id="node23" class="node">
<title>diagnosis</title>
<ellipse fill="none" stroke="#000000" cx="1205.0444" cy="-366" rx="54.6905" ry="18"/>
<text text-anchor="middle" x="1205.0444" y="-362.3" font-family="Times,serif" font-size="14.00" fill="#000000">diagnosis</text>
</g>
<!-- diagnosis&#45;&gt;participant -->
<g id="edge35" class="edge">
<title>diagnosis&#45;&gt;participant</title>
<path fill="none" stroke="#000000" d="M1249.3553,-355.2642C1277.6731,-346.4303 1306.1367,-332.528 1289.0444,-315 1261.3035,-286.5519 601.7854,-325.4481 574.0444,-297 562.874,-285.5448 563.4556,-272.9949 574.0444,-261 576.4899,-258.2298 834.3623,-228.3112 838.0444,-228 1110.1681,-204.9971 1434.9169,-196.1994 1577.2016,-193.2756"/>
<polygon fill="#000000" stroke="#000000" points="1577.6098,-196.7681 1587.5371,-193.067 1577.4685,-189.7696 1577.6098,-196.7681"/>
<text text-anchor="middle" x="618.5444" y="-275.3" font-family="Times,serif" font-size="14.00" fill="#000000">of_diagnosis</text>
</g>
<!-- diagnosis&#45;&gt;sample -->
<g id="edge34" class="edge">
<title>diagnosis&#45;&gt;sample</title>
<path fill="none" stroke="#000000" d="M1154.209,-359.2129C1122.2735,-353.8124 1080.7116,-344.6686 1046.0444,-330 1034.8051,-325.2444 1034.6753,-318.6961 1023.0444,-315 921.3159,-282.6722 648.2617,-314.9748 543.0444,-297 538.2313,-296.1778 533.2615,-295.0639 528.3491,-293.7909"/>
<polygon fill="#000000" stroke="#000000" points="528.9893,-290.3352 518.4152,-290.9967 527.0939,-297.0737 528.9893,-290.3352"/>
<text text-anchor="middle" x="1090.5444" y="-318.8" font-family="Times,serif" font-size="14.00" fill="#000000">of_diagnosis</text>
</g>
<!-- treatment_chemotherapy -->
<g id="node24" class="node">
<title>treatment_chemotherapy</title>
<ellipse fill="none" stroke="#000000" cx="1970.0444" cy="-279" rx="129.1772" ry="18"/>
<text text-anchor="middle" x="1970.0444" y="-275.3" font-family="Times,serif" font-size="14.00" fill="#000000">treatment_chemotherapy</text>
</g>
<!-- treatment_chemotherapy&#45;&gt;participant -->
<g id="edge8" class="edge">
<title>treatment_chemotherapy&#45;&gt;participant</title>
<path fill="none" stroke="#000000" d="M1935.4726,-261.528C1912.3648,-250.4875 1881.0033,-236.7099 1852.0444,-228 1808.4251,-214.8807 1757.9837,-205.8857 1718.4179,-200.168"/>
<polygon fill="#000000" stroke="#000000" points="1718.7348,-196.6782 1708.3443,-198.7488 1717.7582,-203.6097 1718.7348,-196.6782"/>
<text text-anchor="middle" x="1993.0444" y="-231.8" font-family="Times,serif" font-size="14.00" fill="#000000">of_treatment_chemotherapy</text>
</g>
<!-- pathology_file -->
<g id="node25" class="node">
<title>pathology_file</title>
<ellipse fill="none" stroke="#000000" cx="578.0444" cy="-366" rx="76.0865" ry="18"/>
<text text-anchor="middle" x="578.0444" y="-362.3" font-family="Times,serif" font-size="14.00" fill="#000000">pathology_file</text>
</g>
<!-- pathology_file&#45;&gt;sample -->
<g id="edge10" class="edge">
<title>pathology_file&#45;&gt;sample</title>
<path fill="none" stroke="#000000" d="M573.5413,-347.7361C570.1685,-337.1434 564.6294,-324.1346 556.0444,-315 548.3631,-306.827 538.4165,-300.2179 528.4129,-295.0027"/>
<polygon fill="#000000" stroke="#000000" points="529.8014,-291.7866 519.2732,-290.6001 526.7636,-298.0931 529.8014,-291.7866"/>
<text text-anchor="middle" x="628.0444" y="-318.8" font-family="Times,serif" font-size="14.00" fill="#000000">of_pathology_file</text>
</g>
<!-- generic_file -->
<g id="node26" class="node">
<title>generic_file</title>
<ellipse fill="none" stroke="#000000" cx="2992.0444" cy="-366" rx="65.7887" ry="18"/>
<text text-anchor="middle" x="2992.0444" y="-362.3" font-family="Times,serif" font-size="14.00" fill="#000000">generic_file</text>
</g>
<!-- generic_file&#45;&gt;participant -->
<g id="edge21" class="edge">
<title>generic_file&#45;&gt;participant</title>
<path fill="none" stroke="#000000" d="M2999.8592,-347.9158C3003.0475,-337.6377 3004.7975,-324.8877 2999.0444,-315 2974.6199,-273.0219 2949.9396,-276.8854 2904.0444,-261 2811.0265,-228.8043 2783.0588,-237.0591 2685.0444,-228 2497.8527,-210.6986 1925.8759,-197.6417 1722.6421,-193.4393"/>
<polygon fill="#000000" stroke="#000000" points="1722.4496,-189.9347 1712.3797,-193.2282 1722.3055,-196.9332 1722.4496,-189.9347"/>
<text text-anchor="middle" x="3038.0444" y="-275.3" font-family="Times,serif" font-size="14.00" fill="#000000">of_generic_file</text>
</g>
<!-- generic_file&#45;&gt;study -->
<g id="edge22" class="edge">
<title>generic_file&#45;&gt;study</title>
<path fill="none" stroke="#000000" d="M3040.9517,-353.8657C3049.3122,-351.8596 3057.9197,-349.8367 3066.0444,-348 3178.3423,-322.6132 3386.3222,-347.2381 3310.0444,-261 3177.5006,-111.1488 1667.8367,-33.5285 1381.6992,-20.112"/>
<polygon fill="#000000" stroke="#000000" points="1381.8086,-16.6134 1371.6565,-19.644 1381.4827,-23.6058 1381.8086,-16.6134"/>
<text text-anchor="middle" x="3255.0444" y="-188.3" font-family="Times,serif" font-size="14.00" fill="#000000">of_generic_file</text>
</g>
<!-- generic_file&#45;&gt;sample -->
<g id="edge23" class="edge">
<title>generic_file&#45;&gt;sample</title>
<path fill="none" stroke="#000000" d="M2927.7978,-362.277C2862.9995,-358.5503 2760.0872,-352.7091 2671.0444,-348 2375.9814,-332.3952 2302.378,-324.1512 2007.0444,-315 1844.4435,-309.9616 703.7325,-322.3727 543.0444,-297 538.031,-296.2084 532.852,-295.078 527.7471,-293.7641"/>
<polygon fill="#000000" stroke="#000000" points="528.6582,-290.3847 518.0844,-291.0525 526.7668,-297.1243 528.6582,-290.3847"/>
<text text-anchor="middle" x="2403.0444" y="-318.8" font-family="Times,serif" font-size="14.00" fill="#000000">of_generic_file</text>
</g>
<!-- study_admin -->
<g id="node27" class="node">
<title>study_admin</title>
<ellipse fill="none" stroke="#000000" cx="3718.0444" cy="-105" rx="70.3881" ry="18"/>
<text text-anchor="middle" x="3718.0444" y="-101.3" font-family="Times,serif" font-size="14.00" fill="#000000">study_admin</text>
</g>
<!-- study_admin&#45;&gt;study -->
<g id="edge9" class="edge">
<title>study_admin&#45;&gt;study</title>
<path fill="none" stroke="#000000" d="M3693.2839,-88.1454C3673.9978,-76.0628 3646.0491,-60.7727 3619.0444,-54 3506.724,-25.8305 1697.6507,-19.0948 1381.8779,-18.1317"/>
<polygon fill="#000000" stroke="#000000" points="1381.7114,-14.6312 1371.7008,-18.101 1381.6902,-21.6312 1381.7114,-14.6312"/>
<text text-anchor="middle" x="3714.5444" y="-57.8" font-family="Times,serif" font-size="14.00" fill="#000000">of_study_admin</text>
</g>
<!-- treatment_other -->
<g id="node28" class="node">
<title>treatment_other</title>
<ellipse fill="none" stroke="#000000" cx="2204.0444" cy="-279" rx="87.1846" ry="18"/>
<text text-anchor="middle" x="2204.0444" y="-275.3" font-family="Times,serif" font-size="14.00" fill="#000000">treatment_other</text>
</g>
<!-- treatment_other&#45;&gt;participant -->
<g id="edge6" class="edge">
<title>treatment_other&#45;&gt;participant</title>
<path fill="none" stroke="#000000" d="M2176.2051,-261.9202C2155.6663,-250.222 2126.6135,-235.5138 2099.0444,-228 2030.1554,-209.2248 1831.0847,-198.9174 1722.6064,-194.5505"/>
<polygon fill="#000000" stroke="#000000" points="1722.5294,-191.0448 1712.3987,-194.1464 1722.2524,-198.0393 1722.5294,-191.0448"/>
<text text-anchor="middle" x="2206.5444" y="-231.8" font-family="Times,serif" font-size="14.00" fill="#000000">of_treatment_other</text>
</g>
<!-- pdx&#45;&gt;study -->
<g id="edge2" class="edge">
<title>pdx&#45;&gt;study</title>
<path fill="none" stroke="#000000" d="M537.0246,-186.3096C656.892,-161.0285 1141.8281,-58.7511 1291.0986,-27.2686"/>
<polygon fill="#000000" stroke="#000000" points="1292.1939,-30.6146 1301.2564,-25.1262 1290.7493,-23.7653 1292.1939,-30.6146"/>
<text text-anchor="middle" x="1028.0444" y="-101.3" font-family="Times,serif" font-size="14.00" fill="#000000">of_pdx</text>
</g>
<!-- pdx&#45;&gt;sample -->
<g id="edge1" class="edge">
<title>pdx&#45;&gt;sample</title>
<path fill="none" stroke="#000000" d="M483.6508,-198.2009C468.0359,-203.3742 449.5118,-212.485 440.0444,-228 433.4766,-238.7632 440.2171,-249.4206 450.3065,-258.1879"/>
<polygon fill="#000000" stroke="#000000" points="448.4485,-261.1743 458.5097,-264.4943 452.7149,-255.6246 448.4485,-261.1743"/>
<text text-anchor="middle" x="464.0444" y="-231.8" font-family="Times,serif" font-size="14.00" fill="#000000">of_pdx</text>
</g>
<!-- medical_history -->
<g id="node30" class="node">
<title>medical_history</title>
<ellipse fill="none" stroke="#000000" cx="2394.0444" cy="-279" rx="85.2851" ry="18"/>
<text text-anchor="middle" x="2394.0444" y="-275.3" font-family="Times,serif" font-size="14.00" fill="#000000">medical_history</text>
</g>
<!-- medical_history&#45;&gt;participant -->
<g id="edge17" class="edge">
<title>medical_history&#45;&gt;participant</title>
<path fill="none" stroke="#000000" d="M2364.1549,-262.0007C2341.762,-250.1796 2309.9585,-235.2847 2280.0444,-228 2176.3302,-202.7434 1865.4546,-195.078 1722.9084,-192.8574"/>
<polygon fill="#000000" stroke="#000000" points="1722.5805,-189.3521 1712.5288,-192.7007 1722.4748,-196.3513 1722.5805,-189.3521"/>
<text text-anchor="middle" x="2390.0444" y="-231.8" font-family="Times,serif" font-size="14.00" fill="#000000">of_medical_history</text>
</g>
<!-- clinical_measure_file -->
<g id="node31" class="node">
<title>clinical_measure_file</title>
<ellipse fill="none" stroke="#000000" cx="3184.0444" cy="-366" rx="108.5808" ry="18"/>
<text text-anchor="middle" x="3184.0444" y="-362.3" font-family="Times,serif" font-size="14.00" fill="#000000">clinical_measure_file</text>
</g>
<!-- clinical_measure_file&#45;&gt;participant -->
<g id="edge14" class="edge">
<title>clinical_measure_file&#45;&gt;participant</title>
<path fill="none" stroke="#000000" d="M3174.537,-347.8116C3160.6801,-323.3738 3132.4559,-280.7336 3095.0444,-261 2968.9733,-194.5009 2918.254,-237.6168 2776.0444,-228 2379.0783,-201.1556 1901.994,-194.2422 1722.7813,-192.5348"/>
<polygon fill="#000000" stroke="#000000" points="1722.7159,-189.0341 1712.6838,-192.4411 1722.6509,-196.0338 1722.7159,-189.0341"/>
<text text-anchor="middle" x="3224.0444" y="-275.3" font-family="Times,serif" font-size="14.00" fill="#000000">of_clinical_measure_file</text>
</g>
<!-- clinical_measure_file&#45;&gt;study -->
<g id="edge15" class="edge">
<title>clinical_measure_file&#45;&gt;study</title>
<path fill="none" stroke="#000000" d="M3251.7967,-351.8051C3281.7761,-341.7905 3314.2216,-324.9739 3332.0444,-297 3350.516,-268.0077 3327.5972,-187.923 3312.0444,-174 3106.2722,10.2086 2350.7572,-70.0465 2075.0444,-54 1812.9784,-38.7478 1498.4416,-24.9339 1381.6582,-19.9589"/>
<polygon fill="#000000" stroke="#000000" points="1381.7711,-16.4607 1371.6315,-19.5329 1381.4739,-23.4544 1381.7711,-16.4607"/>
<text text-anchor="middle" x="3415.0444" y="-188.3" font-family="Times,serif" font-size="14.00" fill="#000000">of_clinical_measure_file</text>
</g>
<!-- clinical_measure_file&#45;&gt;sample -->
<g id="edge16" class="edge">
<title>clinical_measure_file&#45;&gt;sample</title>
<path fill="none" stroke="#000000" d="M3107.717,-353.1508C3094.1973,-351.1912 3080.2292,-349.3693 3067.0444,-348 2798.3135,-320.0918 2730.0835,-323.6039 2460.0444,-315 2353.5937,-311.6083 648.2697,-313.4585 543.0444,-297 538.0298,-296.2157 532.8502,-295.0898 527.7449,-293.7786"/>
<polygon fill="#000000" stroke="#000000" points="528.6553,-290.3989 518.0817,-291.0696 526.7658,-297.1391 528.6553,-290.3989"/>
<text text-anchor="middle" x="2943.0444" y="-318.8" font-family="Times,serif" font-size="14.00" fill="#000000">of_clinical_measure_file</text>
</g>
<!-- exposure -->
<g id="node32" class="node">
<title>exposure</title>
<ellipse fill="none" stroke="#000000" cx="2550.0444" cy="-279" rx="53.0913" ry="18"/>
<text text-anchor="middle" x="2550.0444" y="-275.3" font-family="Times,serif" font-size="14.00" fill="#000000">exposure</text>
</g>
<!-- exposure&#45;&gt;participant -->
<g id="edge4" class="edge">
<title>exposure&#45;&gt;participant</title>
<path fill="none" stroke="#000000" d="M2528.2644,-262.3584C2511.2412,-250.3874 2486.4479,-235.1437 2462.0444,-228 2392.2642,-207.5732 1908.5266,-196.7031 1722.6086,-193.2417"/>
<polygon fill="#000000" stroke="#000000" points="1722.451,-189.7383 1712.3882,-193.0533 1722.3219,-196.7371 1722.451,-189.7383"/>
<text text-anchor="middle" x="2538.5444" y="-231.8" font-family="Times,serif" font-size="14.00" fill="#000000">of_exposure</text>
</g>
</g>
</svg>
