<svg width="3024pt" height="479pt"
 viewBox="0.00 0.00 3024.00 479.00" xmlns="http://www.w3.org/2000/svg" xmlns:xlink="http://www.w3.org/1999/xlink">
<g id="graph0" class="graph" transform="scale(1 1) rotate(0) translate(4 475)">
<title>Perl</title>
<polygon fill="#ffffff" stroke="transparent" points="-4,4 -4,-475 3020,-475 3020,4 -4,4"/>
<!-- treatment_surgery -->
<g id="node1" class="node">
<title>treatment_surgery</title>
<ellipse fill="none" stroke="#000000" cx="954" cy="-279" rx="98.5829" ry="18"/>
<text text-anchor="middle" x="954" y="-275.3" font-family="Times,serif" font-size="14.00" fill="#000000">treatment_surgery</text>
</g>
<!-- participant -->
<g id="node7" class="node">
<title>participant</title>
<ellipse fill="none" stroke="#000000" cx="1579" cy="-192" rx="62.2891" ry="18"/>
<text text-anchor="middle" x="1579" y="-188.3" font-family="Times,serif" font-size="14.00" fill="#000000">participant</text>
</g>
<!-- treatment_surgery&#45;&gt;participant -->
<g id="edge26" class="edge">
<title>treatment_surgery&#45;&gt;participant</title>
<path fill="none" stroke="#000000" d="M939.9409,-260.9958C933.3203,-250.2315 928.536,-236.9519 937,-228 956.2895,-207.5985 1341.8479,-197.028 1506.0095,-193.4378"/>
<polygon fill="#000000" stroke="#000000" points="1506.574,-196.9265 1516.4961,-193.2113 1506.4228,-189.9281 1506.574,-196.9265"/>
<text text-anchor="middle" x="1015.5" y="-231.8" font-family="Times,serif" font-size="14.00" fill="#000000">of_treatment_surgery</text>
</g>
<!-- sample -->
<g id="node2" class="node">
<title>sample</title>
<ellipse fill="none" stroke="#000000" cx="1089" cy="-366" rx="44.393" ry="18"/>
<text text-anchor="middle" x="1089" y="-362.3" font-family="Times,serif" font-size="14.00" fill="#000000">sample</text>
</g>
<!-- sample&#45;&gt;participant -->
<g id="edge5" class="edge">
<title>sample&#45;&gt;participant</title>
<path fill="none" stroke="#000000" d="M1084.4705,-347.7251C1079.8805,-324.3734 1076.2061,-284.2055 1098,-261 1125.6583,-231.5502 1381.2539,-207.5387 1508.1735,-197.3167"/>
<polygon fill="#000000" stroke="#000000" points="1508.5049,-200.8014 1518.1947,-196.5167 1507.9479,-193.8236 1508.5049,-200.8014"/>
<text text-anchor="middle" x="1134.5" y="-275.3" font-family="Times,serif" font-size="14.00" fill="#000000">of_sample</text>
</g>
<!-- pdx -->
<g id="node11" class="node">
<title>pdx</title>
<ellipse fill="none" stroke="#000000" cx="2231" cy="-279" rx="27.8951" ry="18"/>
<text text-anchor="middle" x="2231" y="-275.3" font-family="Times,serif" font-size="14.00" fill="#000000">pdx</text>
</g>
<!-- sample&#45;&gt;pdx -->
<g id="edge4" class="edge">
<title>sample&#45;&gt;pdx</title>
<path fill="none" stroke="#000000" d="M1133.1903,-364.1525C1308.285,-356.6757 1953.6429,-327.5959 2156,-297 2168.9298,-295.045 2182.9089,-291.9623 2195.2552,-288.8966"/>
<polygon fill="#000000" stroke="#000000" points="2196.366,-292.225 2205.1831,-286.3506 2194.6271,-285.4445 2196.366,-292.225"/>
<text text-anchor="middle" x="2015.5" y="-318.8" font-family="Times,serif" font-size="14.00" fill="#000000">of_sample</text>
</g>
<!-- cell_line -->
<g id="node21" class="node">
<title>cell_line</title>
<ellipse fill="none" stroke="#000000" cx="509" cy="-279" rx="49.2915" ry="18"/>
<text text-anchor="middle" x="509" y="-275.3" font-family="Times,serif" font-size="14.00" fill="#000000">cell_line</text>
</g>
<!-- sample&#45;&gt;cell_line -->
<g id="edge6" class="edge">
<title>sample&#45;&gt;cell_line</title>
<path fill="none" stroke="#000000" d="M1046.7648,-360.6156C926.6832,-345.2806 590.4375,-302.1469 567,-297 563.1142,-296.1467 559.1137,-295.1538 555.1169,-294.0811"/>
<polygon fill="#000000" stroke="#000000" points="555.8322,-290.646 545.2566,-291.2842 553.9219,-297.3803 555.8322,-290.646"/>
<text text-anchor="middle" x="844.5" y="-318.8" font-family="Times,serif" font-size="14.00" fill="#000000">of_sample</text>
</g>
<!-- treatment_radiation -->
<g id="node3" class="node">
<title>treatment_radiation</title>
<ellipse fill="none" stroke="#000000" cx="1918" cy="-279" rx="104.7816" ry="18"/>
<text text-anchor="middle" x="1918" y="-275.3" font-family="Times,serif" font-size="14.00" fill="#000000">treatment_radiation</text>
</g>
<!-- treatment_radiation&#45;&gt;participant -->
<g id="edge31" class="edge">
<title>treatment_radiation&#45;&gt;participant</title>
<path fill="none" stroke="#000000" d="M1899.3957,-261.1476C1886.3484,-249.7232 1867.9175,-235.6554 1849,-228 1813.9232,-213.8053 1717.1874,-203.2892 1649.5909,-197.3997"/>
<polygon fill="#000000" stroke="#000000" points="1649.6855,-193.8951 1639.4235,-196.5294 1649.0885,-200.8696 1649.6855,-193.8951"/>
<text text-anchor="middle" x="1958" y="-231.8" font-family="Times,serif" font-size="14.00" fill="#000000">of_treatment_radiation</text>
</g>
<!-- treatment_other -->
<g id="node4" class="node">
<title>treatment_other</title>
<ellipse fill="none" stroke="#000000" cx="2402" cy="-279" rx="87.1846" ry="18"/>
<text text-anchor="middle" x="2402" y="-275.3" font-family="Times,serif" font-size="14.00" fill="#000000">treatment_other</text>
</g>
<!-- treatment_other&#45;&gt;participant -->
<g id="edge9" class="edge">
<title>treatment_other&#45;&gt;participant</title>
<path fill="none" stroke="#000000" d="M2375.3766,-261.6611C2355.6954,-249.8376 2327.7754,-235.0859 2301,-228 2239.4706,-211.7168 1822.1046,-198.6347 1651.4709,-193.905"/>
<polygon fill="#000000" stroke="#000000" points="1651.4202,-190.4023 1641.3276,-193.6256 1651.2274,-197.3997 1651.4202,-190.4023"/>
<text text-anchor="middle" x="2407.5" y="-231.8" font-family="Times,serif" font-size="14.00" fill="#000000">of_treatment_other</text>
</g>
<!-- consent_group -->
<g id="node5" class="node">
<title>consent_group</title>
<ellipse fill="none" stroke="#000000" cx="2225" cy="-105" rx="79.0865" ry="18"/>
<text text-anchor="middle" x="2225" y="-101.3" font-family="Times,serif" font-size="14.00" fill="#000000">consent_group</text>
</g>
<!-- study -->
<g id="node32" class="node">
<title>study</title>
<ellipse fill="none" stroke="#000000" cx="2305" cy="-18" rx="36.2938" ry="18"/>
<text text-anchor="middle" x="2305" y="-14.3" font-family="Times,serif" font-size="14.00" fill="#000000">study</text>
</g>
<!-- consent_group&#45;&gt;study -->
<g id="edge1" class="edge">
<title>consent_group&#45;&gt;study</title>
<path fill="none" stroke="#000000" d="M2220.8309,-86.6047C2219.5245,-76.223 2219.7745,-63.473 2226,-54 2234.1264,-41.6346 2247.6378,-33.4589 2261.2091,-28.078"/>
<polygon fill="#000000" stroke="#000000" points="2262.7482,-31.2472 2271.0255,-24.6339 2260.4307,-24.642 2262.7482,-31.2472"/>
<text text-anchor="middle" x="2289.5" y="-57.8" font-family="Times,serif" font-size="14.00" fill="#000000">of_consent_group</text>
</g>
<!-- methylation_array_file -->
<g id="node6" class="node">
<title>methylation_array_file</title>
<ellipse fill="none" stroke="#000000" cx="1501" cy="-453" rx="115.8798" ry="18"/>
<text text-anchor="middle" x="1501" y="-449.3" font-family="Times,serif" font-size="14.00" fill="#000000">methylation_array_file</text>
</g>
<!-- methylation_array_file&#45;&gt;sample -->
<g id="edge23" class="edge">
<title>methylation_array_file&#45;&gt;sample</title>
<path fill="none" stroke="#000000" d="M1470.245,-435.5348C1448.7278,-424.1277 1418.9464,-409.927 1391,-402 1345.6377,-389.133 1216.5798,-376.6974 1142.6863,-370.354"/>
<polygon fill="#000000" stroke="#000000" points="1142.9008,-366.8597 1132.6402,-369.4999 1142.3078,-373.8345 1142.9008,-366.8597"/>
<text text-anchor="middle" x="1522.5" y="-405.8" font-family="Times,serif" font-size="14.00" fill="#000000">of_methylation_array_file</text>
</g>
<!-- participant&#45;&gt;consent_group -->
<g id="edge40" class="edge">
<title>participant&#45;&gt;consent_group</title>
<path fill="none" stroke="#000000" d="M1638.2708,-186.2205C1740.4333,-175.9129 1956.1432,-152.6315 2137,-123 2143.6172,-121.9158 2150.4943,-120.688 2157.3572,-119.3954"/>
<polygon fill="#000000" stroke="#000000" points="2158.2137,-122.7948 2167.37,-117.4645 2156.8882,-115.9215 2158.2137,-122.7948"/>
<text text-anchor="middle" x="2065.5" y="-144.8" font-family="Times,serif" font-size="14.00" fill="#000000">of_participant</text>
</g>
<!-- cytogenomic_file -->
<g id="node8" class="node">
<title>cytogenomic_file</title>
<ellipse fill="none" stroke="#000000" cx="1278" cy="-453" rx="89.8845" ry="18"/>
<text text-anchor="middle" x="1278" y="-449.3" font-family="Times,serif" font-size="14.00" fill="#000000">cytogenomic_file</text>
</g>
<!-- cytogenomic_file&#45;&gt;sample -->
<g id="edge12" class="edge">
<title>cytogenomic_file&#45;&gt;sample</title>
<path fill="none" stroke="#000000" d="M1263.5227,-435.0082C1253.7353,-423.9702 1239.913,-410.3902 1225,-402 1199.3487,-387.5684 1167.7122,-378.7465 1141.4089,-373.4509"/>
<polygon fill="#000000" stroke="#000000" points="1141.7194,-369.9475 1131.2425,-371.5235 1140.4155,-376.825 1141.7194,-369.9475"/>
<text text-anchor="middle" x="1315.5" y="-405.8" font-family="Times,serif" font-size="14.00" fill="#000000">of_cytogenomic_file</text>
</g>
<!-- treatment_chemotherapy -->
<g id="node9" class="node">
<title>treatment_chemotherapy</title>
<ellipse fill="none" stroke="#000000" cx="2636" cy="-279" rx="129.1772" ry="18"/>
<text text-anchor="middle" x="2636" y="-275.3" font-family="Times,serif" font-size="14.00" fill="#000000">treatment_chemotherapy</text>
</g>
<!-- treatment_chemotherapy&#45;&gt;participant -->
<g id="edge27" class="edge">
<title>treatment_chemotherapy&#45;&gt;participant</title>
<path fill="none" stroke="#000000" d="M2594.7138,-261.925C2563.9457,-250.0663 2520.5852,-235.1576 2481,-228 2322.4508,-199.3319 1836.7159,-193.4916 1651.6485,-192.3031"/>
<polygon fill="#000000" stroke="#000000" points="1651.5002,-188.8022 1641.4788,-192.2406 1651.4571,-195.8021 1651.5002,-188.8022"/>
<text text-anchor="middle" x="2639" y="-231.8" font-family="Times,serif" font-size="14.00" fill="#000000">of_treatment_chemotherapy</text>
</g>
<!-- study_personnel -->
<g id="node10" class="node">
<title>study_personnel</title>
<ellipse fill="none" stroke="#000000" cx="286" cy="-105" rx="87.1846" ry="18"/>
<text text-anchor="middle" x="286" y="-101.3" font-family="Times,serif" font-size="14.00" fill="#000000">study_personnel</text>
</g>
<!-- study_personnel&#45;&gt;study -->
<g id="edge41" class="edge">
<title>study_personnel&#45;&gt;study</title>
<path fill="none" stroke="#000000" d="M280.7426,-87.0038C278.7211,-75.9641 278.6014,-62.3837 287,-54 305.0367,-35.9951 1958.232,-20.9728 2258.4966,-18.3917"/>
<polygon fill="#000000" stroke="#000000" points="2258.6327,-21.8907 2268.6023,-18.3051 2258.5726,-14.891 2258.6327,-21.8907"/>
<text text-anchor="middle" x="356.5" y="-57.8" font-family="Times,serif" font-size="14.00" fill="#000000">of_study_personnel</text>
</g>
<!-- pdx&#45;&gt;participant -->
<g id="edge42" class="edge">
<title>pdx&#45;&gt;participant</title>
<path fill="none" stroke="#000000" d="M2221.9157,-261.8092C2214.6932,-250.0573 2203.4163,-235.3304 2189,-228 2142.2022,-204.2042 1803.0498,-195.6836 1651.6495,-193.043"/>
<polygon fill="#000000" stroke="#000000" points="1651.5748,-189.5414 1641.5165,-192.8702 1651.4553,-196.5403 1651.5748,-189.5414"/>
<text text-anchor="middle" x="2231" y="-231.8" font-family="Times,serif" font-size="14.00" fill="#000000">of_pdx</text>
</g>
<!-- pdx&#45;&gt;study -->
<g id="edge43" class="edge">
<title>pdx&#45;&gt;study</title>
<path fill="none" stroke="#000000" d="M2256.8591,-271.911C2271.2356,-268.1933 2289.5037,-263.8353 2306,-261 2343.6578,-254.5276 2451.4348,-271.3975 2477,-243 2485.5617,-233.4898 2563.0508,-166.9383 2467,-54 2452.2136,-36.6138 2393.679,-26.959 2351.2107,-22.1251"/>
<polygon fill="#000000" stroke="#000000" points="2351.3859,-18.6237 2341.0671,-21.0262 2350.6319,-25.583 2351.3859,-18.6237"/>
<text text-anchor="middle" x="2538" y="-144.8" font-family="Times,serif" font-size="14.00" fill="#000000">of_pdx</text>
</g>
<!-- study_funding -->
<g id="node12" class="node">
<title>study_funding</title>
<ellipse fill="none" stroke="#000000" cx="1892" cy="-105" rx="77.1866" ry="18"/>
<text text-anchor="middle" x="1892" y="-101.3" font-family="Times,serif" font-size="14.00" fill="#000000">study_funding</text>
</g>
<!-- study_funding&#45;&gt;study -->
<g id="edge33" class="edge">
<title>study_funding&#45;&gt;study</title>
<path fill="none" stroke="#000000" d="M1908.6888,-87.2081C1920.67,-75.6551 1937.8496,-61.4144 1956,-54 2009.67,-32.0759 2176.4932,-22.8516 2258.5157,-19.5626"/>
<polygon fill="#000000" stroke="#000000" points="2258.7025,-23.058 2268.5591,-19.1726 2258.4308,-16.0633 2258.7025,-23.058"/>
<text text-anchor="middle" x="2018" y="-57.8" font-family="Times,serif" font-size="14.00" fill="#000000">of_study_funding</text>
</g>
<!-- study_admin -->
<g id="node13" class="node">
<title>study_admin</title>
<ellipse fill="none" stroke="#000000" cx="2058" cy="-105" rx="70.3881" ry="18"/>
<text text-anchor="middle" x="2058" y="-101.3" font-family="Times,serif" font-size="14.00" fill="#000000">study_admin</text>
</g>
<!-- study_admin&#45;&gt;study -->
<g id="edge7" class="edge">
<title>study_admin&#45;&gt;study</title>
<path fill="none" stroke="#000000" d="M2069.1655,-87.0746C2077.1757,-75.7707 2089.001,-61.8689 2103,-54 2129.0733,-39.344 2207.8619,-28.4249 2258.9859,-22.6467"/>
<polygon fill="#000000" stroke="#000000" points="2259.5767,-26.1028 2269.1321,-21.5261 2258.8082,-19.1451 2259.5767,-26.1028"/>
<text text-anchor="middle" x="2159.5" y="-57.8" font-family="Times,serif" font-size="14.00" fill="#000000">of_study_admin</text>
</g>
<!-- clinical_measure_file -->
<g id="node14" class="node">
<title>clinical_measure_file</title>
<ellipse fill="none" stroke="#000000" cx="187" cy="-453" rx="108.5808" ry="18"/>
<text text-anchor="middle" x="187" y="-449.3" font-family="Times,serif" font-size="14.00" fill="#000000">clinical_measure_file</text>
</g>
<!-- clinical_measure_file&#45;&gt;sample -->
<g id="edge15" class="edge">
<title>clinical_measure_file&#45;&gt;sample</title>
<path fill="none" stroke="#000000" d="M237.6962,-436.9341C277.3556,-425.1021 334.1196,-409.7728 385,-402 509.9588,-382.9106 891.673,-371.1874 1034.3927,-367.3726"/>
<polygon fill="#000000" stroke="#000000" points="1034.7467,-370.8646 1044.6506,-367.1011 1034.5614,-363.867 1034.7467,-370.8646"/>
<text text-anchor="middle" x="471" y="-405.8" font-family="Times,serif" font-size="14.00" fill="#000000">of_clinical_measure_file</text>
</g>
<!-- clinical_measure_file&#45;&gt;participant -->
<g id="edge14" class="edge">
<title>clinical_measure_file&#45;&gt;participant</title>
<path fill="none" stroke="#000000" d="M185.0548,-434.5932C183.0483,-405.7304 183.4903,-349.5589 212,-315 279.9642,-232.615 331.3488,-249.3199 436,-228 540.2316,-206.7656 1271.0094,-195.8542 1506.2396,-192.8637"/>
<polygon fill="#000000" stroke="#000000" points="1506.4433,-196.3615 1516.3983,-192.7356 1506.3549,-189.362 1506.4433,-196.3615"/>
<text text-anchor="middle" x="298" y="-318.8" font-family="Times,serif" font-size="14.00" fill="#000000">of_clinical_measure_file</text>
</g>
<!-- clinical_measure_file&#45;&gt;study -->
<g id="edge16" class="edge">
<title>clinical_measure_file&#45;&gt;study</title>
<path fill="none" stroke="#000000" d="M128.6012,-437.783C73.7333,-421.7199 0,-394.7798 0,-366 0,-366 0,-366 0,-105 0,20.1804 152.4439,-66.4863 277,-54 479.6959,-33.6804 1972.92,-20.6812 2258.0327,-18.3705"/>
<polygon fill="#000000" stroke="#000000" points="2258.4551,-21.8673 2268.4265,-18.2867 2258.3986,-14.8675 2258.4551,-21.8673"/>
<text text-anchor="middle" x="86" y="-231.8" font-family="Times,serif" font-size="14.00" fill="#000000">of_clinical_measure_file</text>
</g>
<!-- study_arm -->
<g id="node15" class="node">
<title>study_arm</title>
<ellipse fill="none" stroke="#000000" cx="2382" cy="-105" rx="59.5901" ry="18"/>
<text text-anchor="middle" x="2382" y="-101.3" font-family="Times,serif" font-size="14.00" fill="#000000">study_arm</text>
</g>
<!-- study_arm&#45;&gt;study -->
<g id="edge32" class="edge">
<title>study_arm&#45;&gt;study</title>
<path fill="none" stroke="#000000" d="M2375.6741,-86.6757C2371.4822,-76.3176 2365.2322,-63.5676 2357,-54 2351.6121,-47.7381 2344.8999,-42.0474 2338.1071,-37.1332"/>
<polygon fill="#000000" stroke="#000000" points="2339.7957,-34.0496 2329.5535,-31.3391 2335.8699,-39.8452 2339.7957,-34.0496"/>
<text text-anchor="middle" x="2414.5" y="-57.8" font-family="Times,serif" font-size="14.00" fill="#000000">of_study_arm</text>
</g>
<!-- laboratory_test -->
<g id="node16" class="node">
<title>laboratory_test</title>
<ellipse fill="none" stroke="#000000" cx="448" cy="-453" rx="81.7856" ry="18"/>
<text text-anchor="middle" x="448" y="-449.3" font-family="Times,serif" font-size="14.00" fill="#000000">laboratory_test</text>
</g>
<!-- laboratory_test&#45;&gt;sample -->
<g id="edge37" class="edge">
<title>laboratory_test&#45;&gt;sample</title>
<path fill="none" stroke="#000000" d="M491.781,-437.6877C527.2462,-425.9429 578.7414,-410.3691 625,-402 702.3294,-388.0096 930.0438,-374.4949 1034.9538,-368.8107"/>
<polygon fill="#000000" stroke="#000000" points="1035.2182,-372.3017 1045.0157,-368.2692 1034.842,-365.3118 1035.2182,-372.3017"/>
<text text-anchor="middle" x="690.5" y="-405.8" font-family="Times,serif" font-size="14.00" fill="#000000">of_laboratory_test</text>
</g>
<!-- laboratory_test&#45;&gt;participant -->
<g id="edge38" class="edge">
<title>laboratory_test&#45;&gt;participant</title>
<path fill="none" stroke="#000000" d="M431.6152,-435.2982C409.5314,-409.1943 374.7499,-358.7377 391,-315 408.7798,-267.145 419.939,-250.0139 466,-228 512.8902,-205.5898 1266.4277,-195.4263 1506.2837,-192.7484"/>
<polygon fill="#000000" stroke="#000000" points="1506.6757,-196.2444 1516.6363,-192.6339 1506.5982,-189.2448 1506.6757,-196.2444"/>
<text text-anchor="middle" x="456.5" y="-318.8" font-family="Times,serif" font-size="14.00" fill="#000000">of_laboratory_test</text>
</g>
<!-- survival -->
<g id="node17" class="node">
<title>survival</title>
<ellipse fill="none" stroke="#000000" cx="624" cy="-279" rx="48.1917" ry="18"/>
<text text-anchor="middle" x="624" y="-275.3" font-family="Times,serif" font-size="14.00" fill="#000000">survival</text>
</g>
<!-- survival&#45;&gt;participant -->
<g id="edge28" class="edge">
<title>survival&#45;&gt;participant</title>
<path fill="none" stroke="#000000" d="M644.0516,-262.5864C660.0316,-250.5674 683.5441,-235.1562 707,-228 782.3256,-205.0188 1310.4337,-195.6211 1506.2074,-192.9011"/>
<polygon fill="#000000" stroke="#000000" points="1506.4414,-196.3983 1516.3924,-192.7615 1506.3454,-189.399 1506.4414,-196.3983"/>
<text text-anchor="middle" x="746.5" y="-231.8" font-family="Times,serif" font-size="14.00" fill="#000000">of_survival</text>
</g>
<!-- genetic_analysis -->
<g id="node18" class="node">
<title>genetic_analysis</title>
<ellipse fill="none" stroke="#000000" cx="697" cy="-453" rx="87.9851" ry="18"/>
<text text-anchor="middle" x="697" y="-449.3" font-family="Times,serif" font-size="14.00" fill="#000000">genetic_analysis</text>
</g>
<!-- genetic_analysis&#45;&gt;sample -->
<g id="edge2" class="edge">
<title>genetic_analysis&#45;&gt;sample</title>
<path fill="none" stroke="#000000" d="M724.6373,-435.7591C744.3464,-424.3 771.8779,-409.9474 798,-402 841.1116,-388.8837 963.7714,-376.6913 1035.3333,-370.4181"/>
<polygon fill="#000000" stroke="#000000" points="1035.845,-373.8869 1045.5053,-369.5361 1035.2403,-366.9131 1035.845,-373.8869"/>
<text text-anchor="middle" x="868" y="-405.8" font-family="Times,serif" font-size="14.00" fill="#000000">of_genetic_analysis</text>
</g>
<!-- genetic_analysis&#45;&gt;participant -->
<g id="edge3" class="edge">
<title>genetic_analysis&#45;&gt;participant</title>
<path fill="none" stroke="#000000" d="M630.0369,-441.2039C601.5148,-434.9787 572.4208,-426.6314 562,-417 526.6957,-384.37 561.7103,-347.1852 526,-315 500.5362,-292.0499 472.2235,-323.9198 451,-297 441.094,-284.4353 441.5331,-273.8988 451,-261 479.9434,-221.5644 507.7867,-236.2684 556,-228 648.7836,-212.088 1288.7911,-197.8541 1506.6051,-193.421"/>
<polygon fill="#000000" stroke="#000000" points="1506.7272,-196.9194 1516.6542,-193.2174 1506.5853,-189.9208 1506.7272,-196.9194"/>
<text text-anchor="middle" x="608" y="-318.8" font-family="Times,serif" font-size="14.00" fill="#000000">of_genetic_analysis</text>
</g>
<!-- radiology_file -->
<g id="node19" class="node">
<title>radiology_file</title>
<ellipse fill="none" stroke="#000000" cx="764" cy="-279" rx="73.387" ry="18"/>
<text text-anchor="middle" x="764" y="-275.3" font-family="Times,serif" font-size="14.00" fill="#000000">radiology_file</text>
</g>
<!-- radiology_file&#45;&gt;participant -->
<g id="edge8" class="edge">
<title>radiology_file&#45;&gt;participant</title>
<path fill="none" stroke="#000000" d="M774.8293,-260.9669C782.9205,-249.3064 795.1255,-235.0361 810,-228 841.1448,-213.2676 1321.1494,-198.9092 1506.6256,-193.8827"/>
<polygon fill="#000000" stroke="#000000" points="1506.9224,-197.3761 1516.8243,-193.6077 1506.7336,-190.3786 1506.9224,-197.3761"/>
<text text-anchor="middle" x="869" y="-231.8" font-family="Times,serif" font-size="14.00" fill="#000000">of_radiology_file</text>
</g>
<!-- generic_file -->
<g id="node20" class="node">
<title>generic_file</title>
<ellipse fill="none" stroke="#000000" cx="2287" cy="-453" rx="65.7887" ry="18"/>
<text text-anchor="middle" x="2287" y="-449.3" font-family="Times,serif" font-size="14.00" fill="#000000">generic_file</text>
</g>
<!-- generic_file&#45;&gt;sample -->
<g id="edge36" class="edge">
<title>generic_file&#45;&gt;sample</title>
<path fill="none" stroke="#000000" d="M2227.6958,-445.221C2140.3409,-434.033 1971.8625,-413.4853 1828,-402 1572.3228,-381.5879 1265.894,-371.1162 1143.4404,-367.4967"/>
<polygon fill="#000000" stroke="#000000" points="1143.3061,-363.9914 1133.2081,-367.1976 1143.1015,-370.9884 1143.3061,-363.9914"/>
<text text-anchor="middle" x="2032" y="-405.8" font-family="Times,serif" font-size="14.00" fill="#000000">of_generic_file</text>
</g>
<!-- generic_file&#45;&gt;participant -->
<g id="edge34" class="edge">
<title>generic_file&#45;&gt;participant</title>
<path fill="none" stroke="#000000" d="M2291.8173,-434.8379C2302.2674,-390.8043 2321.3523,-278.2898 2259,-228 2235.6523,-209.169 1821.8358,-197.5677 1651.4218,-193.5698"/>
<polygon fill="#000000" stroke="#000000" points="1651.3667,-190.0677 1641.288,-193.3343 1651.204,-197.0658 1651.3667,-190.0677"/>
<text text-anchor="middle" x="2355" y="-318.8" font-family="Times,serif" font-size="14.00" fill="#000000">of_generic_file</text>
</g>
<!-- generic_file&#45;&gt;study -->
<g id="edge35" class="edge">
<title>generic_file&#45;&gt;study</title>
<path fill="none" stroke="#000000" d="M2343.1305,-443.4591C2459.8614,-422.3539 2722.2557,-367.9095 2774,-297 2793.6087,-270.1287 2769.9937,-249.9518 2745,-228 2738.4879,-222.2804 2494.0034,-57.3268 2486,-54 2442.3263,-35.846 2388.835,-26.6581 2351.3711,-22.1324"/>
<polygon fill="#000000" stroke="#000000" points="2351.5835,-18.634 2341.2508,-20.9759 2350.7887,-25.5887 2351.5835,-18.634"/>
<text text-anchor="middle" x="2814" y="-231.8" font-family="Times,serif" font-size="14.00" fill="#000000">of_generic_file</text>
</g>
<!-- cell_line&#45;&gt;participant -->
<g id="edge25" class="edge">
<title>cell_line&#45;&gt;participant</title>
<path fill="none" stroke="#000000" d="M528.8153,-262.3059C544.3627,-250.3075 567.1332,-235.0523 590,-228 676.6251,-201.2841 1292.5667,-194.1506 1506.227,-192.469"/>
<polygon fill="#000000" stroke="#000000" points="1506.4239,-195.9677 1516.3967,-192.3907 1506.37,-188.9679 1506.4239,-195.9677"/>
<text text-anchor="middle" x="630.5" y="-231.8" font-family="Times,serif" font-size="14.00" fill="#000000">of_cell_line</text>
</g>
<!-- cell_line&#45;&gt;study -->
<g id="edge24" class="edge">
<title>cell_line&#45;&gt;study</title>
<path fill="none" stroke="#000000" d="M520.3394,-261.3377C528.729,-249.8427 541.233,-235.6178 556,-228 1101.4757,53.3936 1315.9643,-121.695 1926,-54 2045.9025,-40.6945 2187.4905,-28.0618 2258.8896,-21.9063"/>
<polygon fill="#000000" stroke="#000000" points="2259.2401,-25.3892 2268.9037,-21.0458 2258.6407,-18.4149 2259.2401,-25.3892"/>
<text text-anchor="middle" x="783.5" y="-144.8" font-family="Times,serif" font-size="14.00" fill="#000000">of_cell_line</text>
</g>
<!-- diagnosis -->
<g id="node22" class="node">
<title>diagnosis</title>
<ellipse fill="none" stroke="#000000" cx="1973" cy="-453" rx="54.6905" ry="18"/>
<text text-anchor="middle" x="1973" y="-449.3" font-family="Times,serif" font-size="14.00" fill="#000000">diagnosis</text>
</g>
<!-- diagnosis&#45;&gt;sample -->
<g id="edge17" class="edge">
<title>diagnosis&#45;&gt;sample</title>
<path fill="none" stroke="#000000" d="M1924.3344,-444.8319C1856.0695,-433.6433 1727.9075,-413.6181 1618,-402 1444.8842,-383.7003 1238.8625,-372.792 1143.0182,-368.3409"/>
<polygon fill="#000000" stroke="#000000" points="1143.1372,-364.8428 1132.9871,-367.8801 1142.8159,-371.8354 1143.1372,-364.8428"/>
<text text-anchor="middle" x="1779.5" y="-405.8" font-family="Times,serif" font-size="14.00" fill="#000000">of_diagnosis</text>
</g>
<!-- diagnosis&#45;&gt;participant -->
<g id="edge18" class="edge">
<title>diagnosis&#45;&gt;participant</title>
<path fill="none" stroke="#000000" d="M1994.5319,-436.3205C2041.0117,-400.0842 2147.2739,-315.9051 2156,-297 2168.852,-269.1563 2176.9986,-250.3496 2156,-228 2138.9735,-209.8781 1802.4625,-198.2382 1651.3644,-193.9056"/>
<polygon fill="#000000" stroke="#000000" points="1651.3441,-190.4037 1641.2488,-193.6186 1651.1455,-197.4009 1651.3441,-190.4037"/>
<text text-anchor="middle" x="2183.5" y="-318.8" font-family="Times,serif" font-size="14.00" fill="#000000">of_diagnosis</text>
</g>
<!-- medical_history -->
<g id="node23" class="node">
<title>medical_history</title>
<ellipse fill="none" stroke="#000000" cx="1265" cy="-279" rx="85.2851" ry="18"/>
<text text-anchor="middle" x="1265" y="-275.3" font-family="Times,serif" font-size="14.00" fill="#000000">medical_history</text>
</g>
<!-- medical_history&#45;&gt;participant -->
<g id="edge44" class="edge">
<title>medical_history&#45;&gt;participant</title>
<path fill="none" stroke="#000000" d="M1289.8312,-261.7123C1307.288,-250.3844 1331.6139,-236.2055 1355,-228 1404.3073,-210.6995 1462.6671,-201.662 1507.455,-196.9696"/>
<polygon fill="#000000" stroke="#000000" points="1508.0607,-200.4266 1517.6634,-195.9503 1507.3651,-193.4612 1508.0607,-200.4266"/>
<text text-anchor="middle" x="1423" y="-231.8" font-family="Times,serif" font-size="14.00" fill="#000000">of_medical_history</text>
</g>
<!-- pathology_file -->
<g id="node24" class="node">
<title>pathology_file</title>
<ellipse fill="none" stroke="#000000" cx="910" cy="-453" rx="76.0865" ry="18"/>
<text text-anchor="middle" x="910" y="-449.3" font-family="Times,serif" font-size="14.00" fill="#000000">pathology_file</text>
</g>
<!-- pathology_file&#45;&gt;sample -->
<g id="edge29" class="edge">
<title>pathology_file&#45;&gt;sample</title>
<path fill="none" stroke="#000000" d="M923.8433,-435.0689C933.2264,-424.0551 946.5211,-410.4792 961,-402 984.3728,-388.3123 1013.2096,-379.6091 1037.5918,-374.1967"/>
<polygon fill="#000000" stroke="#000000" points="1038.321,-377.62 1047.3901,-372.1426 1036.8847,-370.7689 1038.321,-377.62"/>
<text text-anchor="middle" x="1022" y="-405.8" font-family="Times,serif" font-size="14.00" fill="#000000">of_pathology_file</text>
</g>
<!-- family_relationship -->
<g id="node25" class="node">
<title>family_relationship</title>
<ellipse fill="none" stroke="#000000" cx="1468" cy="-279" rx="100.1823" ry="18"/>
<text text-anchor="middle" x="1468" y="-275.3" font-family="Times,serif" font-size="14.00" fill="#000000">family_relationship</text>
</g>
<!-- family_relationship&#45;&gt;participant -->
<g id="edge13" class="edge">
<title>family_relationship&#45;&gt;participant</title>
<path fill="none" stroke="#000000" d="M1480.091,-260.9232C1487.7687,-250.3969 1498.4184,-237.3921 1510,-228 1517.4773,-221.9363 1526.1374,-216.4592 1534.7426,-211.712"/>
<polygon fill="#000000" stroke="#000000" points="1536.4158,-214.7866 1543.6384,-207.0351 1533.1583,-208.5907 1536.4158,-214.7866"/>
<text text-anchor="middle" x="1589.5" y="-231.8" font-family="Times,serif" font-size="14.00" fill="#000000">of_family_relationship</text>
</g>
<!-- study_status -->
<g id="node26" class="node">
<title>study_status</title>
<ellipse fill="none" stroke="#000000" cx="2671" cy="-105" rx="70.3881" ry="18"/>
<text text-anchor="middle" x="2671" y="-101.3" font-family="Times,serif" font-size="14.00" fill="#000000">study_status</text>
</g>
<!-- study_status&#45;&gt;study -->
<g id="edge10" class="edge">
<title>study_status&#45;&gt;study</title>
<path fill="none" stroke="#000000" d="M2648.4285,-87.683C2632.2266,-76.189 2609.3859,-61.826 2587,-54 2544.5677,-39.1659 2419.7524,-27.2159 2351.2704,-21.5558"/>
<polygon fill="#000000" stroke="#000000" points="2351.4393,-18.058 2341.1881,-20.7343 2350.8708,-25.0349 2351.4393,-18.058"/>
<text text-anchor="middle" x="2674.5" y="-57.8" font-family="Times,serif" font-size="14.00" fill="#000000">of_study_status</text>
</g>
<!-- publication -->
<g id="node27" class="node">
<title>publication</title>
<ellipse fill="none" stroke="#000000" cx="2822" cy="-105" rx="63.0888" ry="18"/>
<text text-anchor="middle" x="2822" y="-101.3" font-family="Times,serif" font-size="14.00" fill="#000000">publication</text>
</g>
<!-- publication&#45;&gt;study -->
<g id="edge39" class="edge">
<title>publication&#45;&gt;study</title>
<path fill="none" stroke="#000000" d="M2799.7076,-88.1347C2782.8758,-76.3803 2758.7,-61.5101 2735,-54 2664.6322,-31.7018 2447.787,-22.4006 2351.6812,-19.2999"/>
<polygon fill="#000000" stroke="#000000" points="2351.7746,-15.8012 2341.6696,-18.9854 2351.5547,-22.7978 2351.7746,-15.8012"/>
<text text-anchor="middle" x="2818" y="-57.8" font-family="Times,serif" font-size="14.00" fill="#000000">of_publication</text>
</g>
<!-- sequencing_file -->
<g id="node28" class="node">
<title>sequencing_file</title>
<ellipse fill="none" stroke="#000000" cx="1087" cy="-453" rx="83.3857" ry="18"/>
<text text-anchor="middle" x="1087" y="-449.3" font-family="Times,serif" font-size="14.00" fill="#000000">sequencing_file</text>
</g>
<!-- sequencing_file&#45;&gt;sample -->
<g id="edge30" class="edge">
<title>sequencing_file&#45;&gt;sample</title>
<path fill="none" stroke="#000000" d="M1087.4144,-434.9735C1087.6852,-423.1918 1088.0446,-407.5607 1088.3527,-394.1581"/>
<polygon fill="#000000" stroke="#000000" points="1091.8553,-394.0812 1088.5861,-384.0034 1084.8571,-393.9202 1091.8553,-394.0812"/>
<text text-anchor="middle" x="1154.5" y="-405.8" font-family="Times,serif" font-size="14.00" fill="#000000">of_sequencing_file</text>
</g>
<!-- treatment_response -->
<g id="node29" class="node">
<title>treatment_response</title>
<ellipse fill="none" stroke="#000000" cx="1691" cy="-279" rx="104.7816" ry="18"/>
<text text-anchor="middle" x="1691" y="-275.3" font-family="Times,serif" font-size="14.00" fill="#000000">treatment_response</text>
</g>
<!-- treatment_response&#45;&gt;participant -->
<g id="edge19" class="edge">
<title>treatment_response&#45;&gt;participant</title>
<path fill="none" stroke="#000000" d="M1686.9346,-260.9447C1683.6841,-250.1611 1678.12,-236.8793 1669,-228 1659.9614,-219.2 1648.4994,-212.4669 1636.8082,-207.3447"/>
<polygon fill="#000000" stroke="#000000" points="1638.0087,-204.0552 1627.4248,-203.5735 1635.3983,-210.5503 1638.0087,-204.0552"/>
<text text-anchor="middle" x="1762" y="-231.8" font-family="Times,serif" font-size="14.00" fill="#000000">of_treatment_response</text>
</g>
<!-- synonym -->
<g id="node30" class="node">
<title>synonym</title>
<ellipse fill="none" stroke="#000000" cx="2831" cy="-453" rx="51.9908" ry="18"/>
<text text-anchor="middle" x="2831" y="-449.3" font-family="Times,serif" font-size="14.00" fill="#000000">synonym</text>
</g>
<!-- synonym&#45;&gt;sample -->
<g id="edge20" class="edge">
<title>synonym&#45;&gt;sample</title>
<path fill="none" stroke="#000000" d="M2780.2064,-448.9347C2660.0999,-439.4474 2349.1501,-415.6195 2089,-402 1728.5591,-383.13 1294.5122,-371.1773 1143.7401,-367.3429"/>
<polygon fill="#000000" stroke="#000000" points="1143.4642,-363.8349 1133.3789,-367.0808 1143.2872,-370.8326 1143.4642,-363.8349"/>
<text text-anchor="middle" x="2375.5" y="-405.8" font-family="Times,serif" font-size="14.00" fill="#000000">of_synonym</text>
</g>
<!-- synonym&#45;&gt;participant -->
<g id="edge22" class="edge">
<title>synonym&#45;&gt;participant</title>
<path fill="none" stroke="#000000" d="M2831.3578,-434.8058C2831.1277,-388.0362 2822.9285,-264.7201 2745,-228 2695.5291,-204.6892 1899.2868,-195.0852 1651.8054,-192.6542"/>
<polygon fill="#000000" stroke="#000000" points="1651.5183,-189.1513 1641.4847,-192.5538 1651.4502,-196.151 1651.5183,-189.1513"/>
<text text-anchor="middle" x="2859.5" y="-318.8" font-family="Times,serif" font-size="14.00" fill="#000000">of_synonym</text>
</g>
<!-- synonym&#45;&gt;study -->
<g id="edge21" class="edge">
<title>synonym&#45;&gt;study</title>
<path fill="none" stroke="#000000" d="M2865.6945,-439.5827C2894.5769,-425.8807 2931,-401.5533 2931,-366 2931,-366 2931,-366 2931,-105 2931,-70.674 2904.7185,-67.1227 2873,-54 2825.4328,-34.3203 2478.9259,-22.8251 2351.6909,-19.2302"/>
<polygon fill="#000000" stroke="#000000" points="2351.5854,-15.726 2341.4917,-18.9458 2351.3902,-22.7233 2351.5854,-15.726"/>
<text text-anchor="middle" x="2973.5" y="-231.8" font-family="Times,serif" font-size="14.00" fill="#000000">of_synonym</text>
</g>
<!-- exposure -->
<g id="node31" class="node">
<title>exposure</title>
<ellipse fill="none" stroke="#000000" cx="2094" cy="-279" rx="53.0913" ry="18"/>
<text text-anchor="middle" x="2094" y="-275.3" font-family="Times,serif" font-size="14.00" fill="#000000">exposure</text>
</g>
<!-- exposure&#45;&gt;participant -->
<g id="edge11" class="edge">
<title>exposure&#45;&gt;participant</title>
<path fill="none" stroke="#000000" d="M2082.321,-261.3465C2073.5523,-249.6981 2060.4326,-235.2889 2045,-228 2010.3431,-211.6313 1773.0104,-199.8148 1651.0457,-194.7472"/>
<polygon fill="#000000" stroke="#000000" points="1651.1755,-191.2496 1641.0401,-194.3358 1650.8879,-198.2437 1651.1755,-191.2496"/>
<text text-anchor="middle" x="2108.5" y="-231.8" font-family="Times,serif" font-size="14.00" fill="#000000">of_exposure</text>
</g>
</g>
</svg>
