<svg width="3247pt" height="392pt"
 viewBox="0.00 0.00 3247.19 392.00" xmlns="http://www.w3.org/2000/svg" xmlns:xlink="http://www.w3.org/1999/xlink">
<g id="graph0" class="graph" transform="scale(1 1) rotate(0) translate(4 388)">
<title>Perl</title>
<polygon fill="#ffffff" stroke="transparent" points="-4,4 -4,-388 3243.1938,-388 3243.1938,4 -4,4"/>
<!-- exposure -->
<g id="node1" class="node">
<title>exposure</title>
<ellipse fill="none" stroke="#000000" cx="1094" cy="-279" rx="53.0913" ry="18"/>
<text text-anchor="middle" x="1094" y="-275.3" font-family="Times,serif" font-size="14.00" fill="#000000">exposure</text>
</g>
<!-- participant -->
<g id="node24" class="node">
<title>participant</title>
<ellipse fill="none" stroke="#000000" cx="1829" cy="-192" rx="62.2891" ry="18"/>
<text text-anchor="middle" x="1829" y="-188.3" font-family="Times,serif" font-size="14.00" fill="#000000">participant</text>
</g>
<!-- exposure&#45;&gt;participant -->
<g id="edge5" class="edge">
<title>exposure&#45;&gt;participant</title>
<path fill="none" stroke="#000000" d="M1105.3051,-261.2327C1113.8327,-249.5321 1126.6661,-235.1073 1142,-228 1196.595,-202.6953 1590.9862,-194.9215 1756.345,-192.759"/>
<polygon fill="#000000" stroke="#000000" points="1756.4705,-196.2578 1766.425,-192.6305 1756.3811,-189.2584 1756.4705,-196.2578"/>
<text text-anchor="middle" x="1185.5" y="-231.8" font-family="Times,serif" font-size="14.00" fill="#000000">of_exposure</text>
</g>
<!-- pdx -->
<g id="node2" class="node">
<title>pdx</title>
<ellipse fill="none" stroke="#000000" cx="44" cy="-366" rx="27.8951" ry="18"/>
<text text-anchor="middle" x="44" y="-362.3" font-family="Times,serif" font-size="14.00" fill="#000000">pdx</text>
</g>
<!-- study -->
<g id="node3" class="node">
<title>study</title>
<ellipse fill="none" stroke="#000000" cx="1977" cy="-18" rx="36.2938" ry="18"/>
<text text-anchor="middle" x="1977" y="-14.3" font-family="Times,serif" font-size="14.00" fill="#000000">study</text>
</g>
<!-- pdx&#45;&gt;study -->
<g id="edge15" class="edge">
<title>pdx&#45;&gt;study</title>
<path fill="none" stroke="#000000" d="M30.3193,-350.2077C17.403,-333.6357 0,-306.2508 0,-279 0,-279 0,-279 0,-105 0,-55.0512 1632.3321,-24.0427 1930.5298,-18.7948"/>
<polygon fill="#000000" stroke="#000000" points="1930.6328,-22.2936 1940.57,-18.619 1930.5102,-15.2947 1930.6328,-22.2936"/>
<text text-anchor="middle" x="24" y="-188.3" font-family="Times,serif" font-size="14.00" fill="#000000">of_pdx</text>
</g>
<!-- sample -->
<g id="node4" class="node">
<title>sample</title>
<ellipse fill="none" stroke="#000000" cx="688" cy="-279" rx="44.393" ry="18"/>
<text text-anchor="middle" x="688" y="-275.3" font-family="Times,serif" font-size="14.00" fill="#000000">sample</text>
</g>
<!-- pdx&#45;&gt;sample -->
<g id="edge14" class="edge">
<title>pdx&#45;&gt;sample</title>
<path fill="none" stroke="#000000" d="M44.3399,-347.7749C45.5964,-336.4962 49.2337,-322.7366 59,-315 87.4361,-292.4736 348.782,-299.0757 385,-297 472.1579,-292.005 573.4009,-285.9368 633.9991,-282.2762"/>
<polygon fill="#000000" stroke="#000000" points="634.3269,-285.7629 644.0975,-281.6657 633.9045,-278.7756 634.3269,-285.7629"/>
<text text-anchor="middle" x="83" y="-318.8" font-family="Times,serif" font-size="14.00" fill="#000000">of_pdx</text>
</g>
<!-- sample&#45;&gt;pdx -->
<g id="edge29" class="edge">
<title>sample&#45;&gt;pdx</title>
<path fill="none" stroke="#000000" d="M644.1955,-281.6244C516.2128,-289.324 151.109,-311.53 139,-315 132.0684,-316.9863 99.0673,-335.0561 73.8885,-349.1296"/>
<polygon fill="#000000" stroke="#000000" points="72.04,-346.1534 65.0288,-354.0966 75.4631,-352.2593 72.04,-346.1534"/>
<text text-anchor="middle" x="175.5" y="-318.8" font-family="Times,serif" font-size="14.00" fill="#000000">of_sample</text>
</g>
<!-- sample&#45;&gt;participant -->
<g id="edge30" class="edge">
<title>sample&#45;&gt;participant</title>
<path fill="none" stroke="#000000" d="M728.6917,-271.865C794.662,-260.5925 929.1584,-238.8339 1044,-228 1305.5394,-203.3271 1617.7579,-195.4032 1756.447,-192.9911"/>
<polygon fill="#000000" stroke="#000000" points="1756.5904,-196.4893 1766.5296,-192.8202 1756.4717,-189.4903 1756.5904,-196.4893"/>
<text text-anchor="middle" x="1080.5" y="-231.8" font-family="Times,serif" font-size="14.00" fill="#000000">of_sample</text>
</g>
<!-- cell_line -->
<g id="node28" class="node">
<title>cell_line</title>
<ellipse fill="none" stroke="#000000" cx="446" cy="-192" rx="49.2915" ry="18"/>
<text text-anchor="middle" x="446" y="-188.3" font-family="Times,serif" font-size="14.00" fill="#000000">cell_line</text>
</g>
<!-- sample&#45;&gt;cell_line -->
<g id="edge31" class="edge">
<title>sample&#45;&gt;cell_line</title>
<path fill="none" stroke="#000000" d="M654.8584,-267.0854C612.3504,-251.8037 538.4557,-225.2382 490.9201,-208.149"/>
<polygon fill="#000000" stroke="#000000" points="492.0841,-204.8482 481.4896,-204.7587 489.7159,-211.4354 492.0841,-204.8482"/>
<text text-anchor="middle" x="618.5" y="-231.8" font-family="Times,serif" font-size="14.00" fill="#000000">of_sample</text>
</g>
<!-- pathology_file -->
<g id="node5" class="node">
<title>pathology_file</title>
<ellipse fill="none" stroke="#000000" cx="543" cy="-366" rx="76.0865" ry="18"/>
<text text-anchor="middle" x="543" y="-362.3" font-family="Times,serif" font-size="14.00" fill="#000000">pathology_file</text>
</g>
<!-- pathology_file&#45;&gt;sample -->
<g id="edge13" class="edge">
<title>pathology_file&#45;&gt;sample</title>
<path fill="none" stroke="#000000" d="M544.826,-347.6789C546.8427,-336.7953 551.0839,-323.5016 560,-315 571.2951,-304.23 606.3675,-294.7939 636.9486,-288.2872"/>
<polygon fill="#000000" stroke="#000000" points="638.0182,-291.6404 647.1066,-286.1951 636.6061,-284.7843 638.0182,-291.6404"/>
<text text-anchor="middle" x="621" y="-318.8" font-family="Times,serif" font-size="14.00" fill="#000000">of_pathology_file</text>
</g>
<!-- genetic_analysis -->
<g id="node6" class="node">
<title>genetic_analysis</title>
<ellipse fill="none" stroke="#000000" cx="1477" cy="-366" rx="87.9851" ry="18"/>
<text text-anchor="middle" x="1477" y="-362.3" font-family="Times,serif" font-size="14.00" fill="#000000">genetic_analysis</text>
</g>
<!-- genetic_analysis&#45;&gt;sample -->
<g id="edge10" class="edge">
<title>genetic_analysis&#45;&gt;sample</title>
<path fill="none" stroke="#000000" d="M1393.0213,-360.6688C1315.2143,-354.9424 1205.5812,-344.6475 1165,-330 1153.5208,-325.8567 1153.5514,-318.9375 1142,-315 1104.9878,-302.3838 854.0747,-287.7688 741.9465,-281.7778"/>
<polygon fill="#000000" stroke="#000000" points="742.0332,-278.2776 731.8616,-281.2422 741.6619,-285.2677 742.0332,-278.2776"/>
<text text-anchor="middle" x="1235" y="-318.8" font-family="Times,serif" font-size="14.00" fill="#000000">of_genetic_analysis</text>
</g>
<!-- genetic_analysis&#45;&gt;participant -->
<g id="edge11" class="edge">
<title>genetic_analysis&#45;&gt;participant</title>
<path fill="none" stroke="#000000" d="M1505.9589,-348.6973C1512.9571,-343.4144 1519.8838,-337.0984 1525,-330 1543.9011,-303.7762 1524.2361,-282.9138 1548,-261 1578.8615,-232.5412 1689.2038,-211.8312 1762.0882,-200.8826"/>
<polygon fill="#000000" stroke="#000000" points="1762.7303,-204.3259 1772.1118,-199.4027 1761.7078,-197.4009 1762.7303,-204.3259"/>
<text text-anchor="middle" x="1618" y="-275.3" font-family="Times,serif" font-size="14.00" fill="#000000">of_genetic_analysis</text>
</g>
<!-- study_personnel -->
<g id="node7" class="node">
<title>study_personnel</title>
<ellipse fill="none" stroke="#000000" cx="1414" cy="-105" rx="87.1846" ry="18"/>
<text text-anchor="middle" x="1414" y="-101.3" font-family="Times,serif" font-size="14.00" fill="#000000">study_personnel</text>
</g>
<!-- study_personnel&#45;&gt;study -->
<g id="edge16" class="edge">
<title>study_personnel&#45;&gt;study</title>
<path fill="none" stroke="#000000" d="M1426.1748,-87.0554C1435.1498,-75.4343 1448.4655,-61.1749 1464,-54 1505.7,-34.7401 1811.8566,-23.1818 1930.3494,-19.3887"/>
<polygon fill="#000000" stroke="#000000" points="1930.6684,-22.8805 1940.5529,-19.0665 1930.4473,-15.8839 1930.6684,-22.8805"/>
<text text-anchor="middle" x="1533.5" y="-57.8" font-family="Times,serif" font-size="14.00" fill="#000000">of_study_personnel</text>
</g>
<!-- methylation_array_file -->
<g id="node8" class="node">
<title>methylation_array_file</title>
<ellipse fill="none" stroke="#000000" cx="333" cy="-366" rx="115.8798" ry="18"/>
<text text-anchor="middle" x="333" y="-362.3" font-family="Times,serif" font-size="14.00" fill="#000000">methylation_array_file</text>
</g>
<!-- methylation_array_file&#45;&gt;sample -->
<g id="edge37" class="edge">
<title>methylation_array_file&#45;&gt;sample</title>
<path fill="none" stroke="#000000" d="M339.2166,-347.8817C344.1119,-336.4964 352.1183,-322.5764 364,-315 386.2402,-300.8185 547.9034,-288.2008 634.1373,-282.3896"/>
<polygon fill="#000000" stroke="#000000" points="634.52,-285.872 644.2653,-281.7151 634.0547,-278.8875 634.52,-285.872"/>
<text text-anchor="middle" x="455.5" y="-318.8" font-family="Times,serif" font-size="14.00" fill="#000000">of_methylation_array_file</text>
</g>
<!-- laboratory_test -->
<g id="node9" class="node">
<title>laboratory_test</title>
<ellipse fill="none" stroke="#000000" cx="1164" cy="-366" rx="81.7856" ry="18"/>
<text text-anchor="middle" x="1164" y="-362.3" font-family="Times,serif" font-size="14.00" fill="#000000">laboratory_test</text>
</g>
<!-- laboratory_test&#45;&gt;sample -->
<g id="edge36" class="edge">
<title>laboratory_test&#45;&gt;sample</title>
<path fill="none" stroke="#000000" d="M1097.2609,-355.5232C1069.848,-349.894 1038.2181,-341.6521 1011,-330 999.7808,-325.197 999.4697,-319.1694 988,-315 944.0335,-299.0174 815.7054,-287.8305 741.9111,-282.515"/>
<polygon fill="#000000" stroke="#000000" points="742.0972,-279.0195 731.8748,-281.8041 741.6025,-286.002 742.0972,-279.0195"/>
<text text-anchor="middle" x="1076.5" y="-318.8" font-family="Times,serif" font-size="14.00" fill="#000000">of_laboratory_test</text>
</g>
<!-- laboratory_test&#45;&gt;participant -->
<g id="edge35" class="edge">
<title>laboratory_test&#45;&gt;participant</title>
<path fill="none" stroke="#000000" d="M1239.8337,-359.1336C1337.5973,-350.1023 1495.6744,-334.8138 1500,-330 1504.4559,-325.0412 1504.2806,-320.1109 1500,-315 1470.7234,-280.0444 1428.2766,-331.9556 1399,-297 1388.7266,-284.7339 1388.7631,-273.2966 1399,-261 1421.7448,-233.6788 1643.1538,-209.26 1759.0486,-198.2251"/>
<polygon fill="#000000" stroke="#000000" points="1759.6184,-201.6869 1769.2453,-197.2628 1758.9607,-194.7179 1759.6184,-201.6869"/>
<text text-anchor="middle" x="1464.5" y="-275.3" font-family="Times,serif" font-size="14.00" fill="#000000">of_laboratory_test</text>
</g>
<!-- diagnosis -->
<g id="node10" class="node">
<title>diagnosis</title>
<ellipse fill="none" stroke="#000000" cx="145" cy="-366" rx="54.6905" ry="18"/>
<text text-anchor="middle" x="145" y="-362.3" font-family="Times,serif" font-size="14.00" fill="#000000">diagnosis</text>
</g>
<!-- diagnosis&#45;&gt;sample -->
<g id="edge9" class="edge">
<title>diagnosis&#45;&gt;sample</title>
<path fill="none" stroke="#000000" d="M172.5475,-350.207C194.6333,-338.3582 226.8176,-322.878 257,-315 326.7311,-296.7993 534.2175,-285.6526 633.6666,-281.2146"/>
<polygon fill="#000000" stroke="#000000" points="633.9716,-284.7047 643.8081,-280.7686 633.664,-277.7114 633.9716,-284.7047"/>
<text text-anchor="middle" x="301.5" y="-318.8" font-family="Times,serif" font-size="14.00" fill="#000000">of_diagnosis</text>
</g>
<!-- diagnosis&#45;&gt;participant -->
<g id="edge8" class="edge">
<title>diagnosis&#45;&gt;participant</title>
<path fill="none" stroke="#000000" d="M104.5768,-353.8664C78.4841,-345.6284 48.7268,-335.3026 45,-330 41.1666,-324.5457 40.5457,-319.9602 45,-315 109.7618,-242.8828 816.2737,-234.2455 913,-228 1226.6102,-207.7506 1601.4081,-197.3208 1756.4137,-193.6098"/>
<polygon fill="#000000" stroke="#000000" points="1756.8328,-197.1009 1766.7469,-193.3646 1756.6667,-190.1029 1756.8328,-197.1009"/>
<text text-anchor="middle" x="322.5" y="-275.3" font-family="Times,serif" font-size="14.00" fill="#000000">of_diagnosis</text>
</g>
<!-- study_status -->
<g id="node11" class="node">
<title>study_status</title>
<ellipse fill="none" stroke="#000000" cx="3169" cy="-366" rx="70.3881" ry="18"/>
<text text-anchor="middle" x="3169" y="-362.3" font-family="Times,serif" font-size="14.00" fill="#000000">study_status</text>
</g>
<!-- study_arm -->
<g id="node12" class="node">
<title>study_arm</title>
<ellipse fill="none" stroke="#000000" cx="1579" cy="-105" rx="59.5901" ry="18"/>
<text text-anchor="middle" x="1579" y="-101.3" font-family="Times,serif" font-size="14.00" fill="#000000">study_arm</text>
</g>
<!-- study_arm&#45;&gt;study -->
<g id="edge20" class="edge">
<title>study_arm&#45;&gt;study</title>
<path fill="none" stroke="#000000" d="M1590.929,-87.2197C1599.7235,-75.672 1612.7727,-61.4326 1628,-54 1680.1657,-28.5373 1848.1105,-21.0344 1930.5174,-18.8627"/>
<polygon fill="#000000" stroke="#000000" points="1930.6958,-22.3594 1940.6058,-18.6123 1930.522,-15.3616 1930.6958,-22.3594"/>
<text text-anchor="middle" x="1676.5" y="-57.8" font-family="Times,serif" font-size="14.00" fill="#000000">of_study_arm</text>
</g>
<!-- publication -->
<g id="node13" class="node">
<title>publication</title>
<ellipse fill="none" stroke="#000000" cx="1720" cy="-105" rx="63.0888" ry="18"/>
<text text-anchor="middle" x="1720" y="-101.3" font-family="Times,serif" font-size="14.00" fill="#000000">publication</text>
</g>
<!-- publication&#45;&gt;study -->
<g id="edge21" class="edge">
<title>publication&#45;&gt;study</title>
<path fill="none" stroke="#000000" d="M1722.4566,-86.9597C1724.9543,-75.7568 1729.9674,-62.0123 1740,-54 1768.5894,-31.1675 1869.7076,-22.7166 1930.2383,-19.6628"/>
<polygon fill="#000000" stroke="#000000" points="1930.4912,-23.1548 1940.3143,-19.1853 1930.1597,-16.1627 1930.4912,-23.1548"/>
<text text-anchor="middle" x="1791" y="-57.8" font-family="Times,serif" font-size="14.00" fill="#000000">of_publication</text>
</g>
<!-- survival -->
<g id="node14" class="node">
<title>survival</title>
<ellipse fill="none" stroke="#000000" cx="1745" cy="-279" rx="48.1917" ry="18"/>
<text text-anchor="middle" x="1745" y="-275.3" font-family="Times,serif" font-size="14.00" fill="#000000">survival</text>
</g>
<!-- survival&#45;&gt;participant -->
<g id="edge7" class="edge">
<title>survival&#45;&gt;participant</title>
<path fill="none" stroke="#000000" d="M1735.804,-261.1048C1731.8173,-250.6428 1729.3933,-237.6419 1736,-228 1740.9749,-220.7395 1756.6674,-213.5678 1773.7796,-207.5595"/>
<polygon fill="#000000" stroke="#000000" points="1775.0015,-210.8414 1783.3733,-204.348 1772.7795,-204.2034 1775.0015,-210.8414"/>
<text text-anchor="middle" x="1775.5" y="-231.8" font-family="Times,serif" font-size="14.00" fill="#000000">of_survival</text>
</g>
<!-- treatment_response -->
<g id="node15" class="node">
<title>treatment_response</title>
<ellipse fill="none" stroke="#000000" cx="2124" cy="-279" rx="104.7816" ry="18"/>
<text text-anchor="middle" x="2124" y="-275.3" font-family="Times,serif" font-size="14.00" fill="#000000">treatment_response</text>
</g>
<!-- treatment_response&#45;&gt;participant -->
<g id="edge32" class="edge">
<title>treatment_response&#45;&gt;participant</title>
<path fill="none" stroke="#000000" d="M2071.2599,-263.4461C2017.9021,-247.7101 1935.8542,-223.5129 1882.2976,-207.7183"/>
<polygon fill="#000000" stroke="#000000" points="1883.224,-204.3425 1872.6423,-204.8708 1881.2438,-211.0566 1883.224,-204.3425"/>
<text text-anchor="middle" x="2077" y="-231.8" font-family="Times,serif" font-size="14.00" fill="#000000">of_treatment_response</text>
</g>
<!-- study_admin -->
<g id="node16" class="node">
<title>study_admin</title>
<ellipse fill="none" stroke="#000000" cx="1871" cy="-105" rx="70.3881" ry="18"/>
<text text-anchor="middle" x="1871" y="-101.3" font-family="Times,serif" font-size="14.00" fill="#000000">study_admin</text>
</g>
<!-- study_admin&#45;&gt;study -->
<g id="edge4" class="edge">
<title>study_admin&#45;&gt;study</title>
<path fill="none" stroke="#000000" d="M1855.2908,-87.3142C1848.0262,-76.9265 1842.4935,-63.9301 1850,-54 1860.0073,-40.7617 1899.3378,-30.9802 1931.6108,-24.9812"/>
<polygon fill="#000000" stroke="#000000" points="1932.5639,-28.3666 1941.795,-23.1668 1931.3361,-21.4751 1932.5639,-28.3666"/>
<text text-anchor="middle" x="1906.5" y="-57.8" font-family="Times,serif" font-size="14.00" fill="#000000">of_study_admin</text>
</g>
<!-- medical_history -->
<g id="node17" class="node">
<title>medical_history</title>
<ellipse fill="none" stroke="#000000" cx="2332" cy="-279" rx="85.2851" ry="18"/>
<text text-anchor="middle" x="2332" y="-275.3" font-family="Times,serif" font-size="14.00" fill="#000000">medical_history</text>
</g>
<!-- medical_history&#45;&gt;participant -->
<g id="edge28" class="edge">
<title>medical_history&#45;&gt;participant</title>
<path fill="none" stroke="#000000" d="M2288.7143,-263.4051C2255.1218,-251.9049 2207.1592,-236.7889 2164,-228 2074.3155,-209.7368 1969.1164,-200.3502 1900.8711,-195.8119"/>
<polygon fill="#000000" stroke="#000000" points="1900.8655,-192.3043 1890.6603,-195.1508 1900.4132,-199.2897 1900.8655,-192.3043"/>
<text text-anchor="middle" x="2288" y="-231.8" font-family="Times,serif" font-size="14.00" fill="#000000">of_medical_history</text>
</g>
<!-- consent_group -->
<g id="node18" class="node">
<title>consent_group</title>
<ellipse fill="none" stroke="#000000" cx="2328" cy="-105" rx="79.0865" ry="18"/>
<text text-anchor="middle" x="2328" y="-101.3" font-family="Times,serif" font-size="14.00" fill="#000000">consent_group</text>
</g>
<!-- consent_group&#45;&gt;study -->
<g id="edge22" class="edge">
<title>consent_group&#45;&gt;study</title>
<path fill="none" stroke="#000000" d="M2293.9929,-88.6392C2269.2684,-77.3642 2234.7139,-62.8685 2203,-54 2141.9931,-36.9401 2069.3127,-27.1661 2023.1644,-22.2201"/>
<polygon fill="#000000" stroke="#000000" points="2023.4742,-18.7335 2013.1656,-21.1796 2022.7496,-25.6959 2023.4742,-18.7335"/>
<text text-anchor="middle" x="2308.5" y="-57.8" font-family="Times,serif" font-size="14.00" fill="#000000">of_consent_group</text>
</g>
<!-- sequencing_file -->
<g id="node19" class="node">
<title>sequencing_file</title>
<ellipse fill="none" stroke="#000000" cx="720" cy="-366" rx="83.3857" ry="18"/>
<text text-anchor="middle" x="720" y="-362.3" font-family="Times,serif" font-size="14.00" fill="#000000">sequencing_file</text>
</g>
<!-- sequencing_file&#45;&gt;sample -->
<g id="edge17" class="edge">
<title>sequencing_file&#45;&gt;sample</title>
<path fill="none" stroke="#000000" d="M700.4967,-348.2234C695.8634,-342.8619 691.5336,-336.6253 689,-330 686.291,-322.9161 685.2826,-314.8642 685.1401,-307.2849"/>
<polygon fill="#000000" stroke="#000000" points="688.6458,-307.1292 685.4283,-297.0347 681.6486,-306.9324 688.6458,-307.1292"/>
<text text-anchor="middle" x="755.5" y="-318.8" font-family="Times,serif" font-size="14.00" fill="#000000">of_sequencing_file</text>
</g>
<!-- study_funding -->
<g id="node20" class="node">
<title>study_funding</title>
<ellipse fill="none" stroke="#000000" cx="2153" cy="-105" rx="77.1866" ry="18"/>
<text text-anchor="middle" x="2153" y="-101.3" font-family="Times,serif" font-size="14.00" fill="#000000">study_funding</text>
</g>
<!-- study_funding&#45;&gt;study -->
<g id="edge12" class="edge">
<title>study_funding&#45;&gt;study</title>
<path fill="none" stroke="#000000" d="M2119.8957,-88.636C2089.1237,-73.4248 2043.4406,-50.8428 2012.0568,-35.3292"/>
<polygon fill="#000000" stroke="#000000" points="2013.324,-32.0514 2002.8084,-30.7576 2010.222,-38.3266 2013.324,-32.0514"/>
<text text-anchor="middle" x="2137" y="-57.8" font-family="Times,serif" font-size="14.00" fill="#000000">of_study_funding</text>
</g>
<!-- family_relationship -->
<g id="node21" class="node">
<title>family_relationship</title>
<ellipse fill="none" stroke="#000000" cx="2535" cy="-279" rx="100.1823" ry="18"/>
<text text-anchor="middle" x="2535" y="-275.3" font-family="Times,serif" font-size="14.00" fill="#000000">family_relationship</text>
</g>
<!-- family_relationship&#45;&gt;participant -->
<g id="edge33" class="edge">
<title>family_relationship&#45;&gt;participant</title>
<path fill="none" stroke="#000000" d="M2489.5854,-262.8286C2454.6314,-251.1039 2404.869,-235.9625 2360,-228 2273.9435,-212.7282 2025.0939,-200.368 1901.0525,-194.9561"/>
<polygon fill="#000000" stroke="#000000" points="1901.0355,-191.4522 1890.8935,-194.5163 1900.7327,-198.4456 1901.0355,-191.4522"/>
<text text-anchor="middle" x="2502.5" y="-231.8" font-family="Times,serif" font-size="14.00" fill="#000000">of_family_relationship</text>
</g>
<!-- treatment -->
<g id="node22" class="node">
<title>treatment</title>
<ellipse fill="none" stroke="#000000" cx="2711" cy="-279" rx="57.6901" ry="18"/>
<text text-anchor="middle" x="2711" y="-275.3" font-family="Times,serif" font-size="14.00" fill="#000000">treatment</text>
</g>
<!-- treatment&#45;&gt;participant -->
<g id="edge27" class="edge">
<title>treatment&#45;&gt;participant</title>
<path fill="none" stroke="#000000" d="M2681.1145,-263.4238C2656.3577,-251.3601 2619.8715,-235.4838 2586,-228 2520.4198,-213.5103 2077.8882,-199.2329 1901.4279,-194.0468"/>
<polygon fill="#000000" stroke="#000000" points="1901.3024,-190.5417 1891.2043,-193.7477 1901.0977,-197.5387 1901.3024,-190.5417"/>
<text text-anchor="middle" x="2678" y="-231.8" font-family="Times,serif" font-size="14.00" fill="#000000">of_treatment</text>
</g>
<!-- clinical_measure_file -->
<g id="node23" class="node">
<title>clinical_measure_file</title>
<ellipse fill="none" stroke="#000000" cx="1829" cy="-366" rx="108.5808" ry="18"/>
<text text-anchor="middle" x="1829" y="-362.3" font-family="Times,serif" font-size="14.00" fill="#000000">clinical_measure_file</text>
</g>
<!-- clinical_measure_file&#45;&gt;study -->
<g id="edge24" class="edge">
<title>clinical_measure_file&#45;&gt;study</title>
<path fill="none" stroke="#000000" d="M1935.4169,-362.11C2177.2818,-352.7529 2749.6482,-327.4881 2778,-297 2838.3685,-232.0828 2693.4223,-143.2087 2376,-54 2310.8674,-35.6951 2114.2979,-24.4209 2023.678,-20.063"/>
<polygon fill="#000000" stroke="#000000" points="2023.5813,-16.5546 2013.427,-19.5779 2023.2504,-23.5468 2023.5813,-16.5546"/>
<text text-anchor="middle" x="2839" y="-188.3" font-family="Times,serif" font-size="14.00" fill="#000000">of_clinical_measure_file</text>
</g>
<!-- clinical_measure_file&#45;&gt;sample -->
<g id="edge25" class="edge">
<title>clinical_measure_file&#45;&gt;sample</title>
<path fill="none" stroke="#000000" d="M1733.3493,-357.3373C1655.852,-350.2396 1543.8527,-339.8034 1446,-330 1383.2936,-323.7178 1367.8078,-320.1702 1305,-315 1196.3259,-306.0542 871.3013,-288.6214 741.96,-281.8165"/>
<polygon fill="#000000" stroke="#000000" points="742.0604,-278.3171 731.8905,-281.2874 741.6931,-285.3074 742.0604,-278.3171"/>
<text text-anchor="middle" x="1532" y="-318.8" font-family="Times,serif" font-size="14.00" fill="#000000">of_clinical_measure_file</text>
</g>
<!-- clinical_measure_file&#45;&gt;participant -->
<g id="edge26" class="edge">
<title>clinical_measure_file&#45;&gt;participant</title>
<path fill="none" stroke="#000000" d="M1829,-347.7078C1829,-317.3436 1829,-256.3226 1829,-220.3464"/>
<polygon fill="#000000" stroke="#000000" points="1832.5001,-220.0471 1829,-210.0471 1825.5001,-220.0471 1832.5001,-220.0471"/>
<text text-anchor="middle" x="1915" y="-275.3" font-family="Times,serif" font-size="14.00" fill="#000000">of_clinical_measure_file</text>
</g>
<!-- participant&#45;&gt;consent_group -->
<g id="edge23" class="edge">
<title>participant&#45;&gt;consent_group</title>
<path fill="none" stroke="#000000" d="M1883.813,-183.362C1962.5417,-170.8218 2112.1333,-146.498 2239,-123 2245.5611,-121.7848 2252.3857,-120.4793 2259.2072,-119.1467"/>
<polygon fill="#000000" stroke="#000000" points="2260.0346,-122.551 2269.1684,-117.1821 2258.6801,-115.6833 2260.0346,-122.551"/>
<text text-anchor="middle" x="2187.5" y="-144.8" font-family="Times,serif" font-size="14.00" fill="#000000">of_participant</text>
</g>
<!-- cytogenomic_file -->
<g id="node25" class="node">
<title>cytogenomic_file</title>
<ellipse fill="none" stroke="#000000" cx="911" cy="-366" rx="89.8845" ry="18"/>
<text text-anchor="middle" x="911" y="-362.3" font-family="Times,serif" font-size="14.00" fill="#000000">cytogenomic_file</text>
</g>
<!-- cytogenomic_file&#45;&gt;sample -->
<g id="edge34" class="edge">
<title>cytogenomic_file&#45;&gt;sample</title>
<path fill="none" stroke="#000000" d="M878.8233,-349.1044C867.9757,-343.2356 855.868,-336.4943 845,-330 834.5239,-323.7399 833.1425,-319.9783 822,-315 795.3999,-303.1154 764.0248,-294.4251 738.3237,-288.5635"/>
<polygon fill="#000000" stroke="#000000" points="738.9323,-285.1137 728.4131,-286.378 737.4247,-291.9495 738.9323,-285.1137"/>
<text text-anchor="middle" x="916.5" y="-318.8" font-family="Times,serif" font-size="14.00" fill="#000000">of_cytogenomic_file</text>
</g>
<!-- generic_file -->
<g id="node26" class="node">
<title>generic_file</title>
<ellipse fill="none" stroke="#000000" cx="2849" cy="-366" rx="65.7887" ry="18"/>
<text text-anchor="middle" x="2849" y="-362.3" font-family="Times,serif" font-size="14.00" fill="#000000">generic_file</text>
</g>
<!-- generic_file&#45;&gt;study -->
<g id="edge3" class="edge">
<title>generic_file&#45;&gt;study</title>
<path fill="none" stroke="#000000" d="M2873.7533,-349.1394C2889.8297,-336.7274 2909.6531,-318.3443 2920,-297 2943.9099,-247.677 2963.0782,-216.9316 2929,-174 2782.8834,10.0774 2646.1825,-90.4124 2414,-54 2272.9303,-31.8765 2103.9713,-22.846 2023.7323,-19.5991"/>
<polygon fill="#000000" stroke="#000000" points="2023.6013,-16.0914 2013.4716,-19.1961 2023.3265,-23.086 2023.6013,-16.0914"/>
<text text-anchor="middle" x="2999" y="-188.3" font-family="Times,serif" font-size="14.00" fill="#000000">of_generic_file</text>
</g>
<!-- generic_file&#45;&gt;sample -->
<g id="edge2" class="edge">
<title>generic_file&#45;&gt;sample</title>
<path fill="none" stroke="#000000" d="M2783.9478,-363.0594C2600.5994,-354.8245 2063.9559,-331.0866 1618,-315 1357.6021,-305.6069 1292.343,-307.8085 1032,-297 929.4131,-292.741 809.7045,-286.0987 741.9803,-282.1854"/>
<polygon fill="#000000" stroke="#000000" points="742.1567,-278.6898 731.9708,-281.605 741.7514,-285.6781 742.1567,-278.6898"/>
<text text-anchor="middle" x="2043" y="-318.8" font-family="Times,serif" font-size="14.00" fill="#000000">of_generic_file</text>
</g>
<!-- generic_file&#45;&gt;participant -->
<g id="edge1" class="edge">
<title>generic_file&#45;&gt;participant</title>
<path fill="none" stroke="#000000" d="M2841.1127,-347.9932C2825.4671,-315.1068 2786.9343,-246.9636 2729,-228 2651.4428,-202.6132 2101.9603,-194.6915 1901.7475,-192.632"/>
<polygon fill="#000000" stroke="#000000" points="1901.6601,-189.1311 1891.6252,-192.5299 1901.5894,-196.1307 1901.6601,-189.1311"/>
<text text-anchor="middle" x="2863" y="-275.3" font-family="Times,serif" font-size="14.00" fill="#000000">of_generic_file</text>
</g>
<!-- synonym -->
<g id="node27" class="node">
<title>synonym</title>
<ellipse fill="none" stroke="#000000" cx="3029" cy="-366" rx="51.9908" ry="18"/>
<text text-anchor="middle" x="3029" y="-362.3" font-family="Times,serif" font-size="14.00" fill="#000000">synonym</text>
</g>
<!-- synonym&#45;&gt;study -->
<g id="edge38" class="edge">
<title>synonym&#45;&gt;study</title>
<path fill="none" stroke="#000000" d="M3067.8882,-353.9799C3100.5751,-341.1749 3142,-317.3763 3142,-279 3142,-279 3142,-279 3142,-105 3142,-47.9094 2240.5681,-23.9396 2023.5701,-18.9965"/>
<polygon fill="#000000" stroke="#000000" points="2023.5426,-15.4951 2013.4663,-18.7689 2023.3849,-22.4933 2023.5426,-15.4951"/>
<text text-anchor="middle" x="3184.5" y="-188.3" font-family="Times,serif" font-size="14.00" fill="#000000">of_synonym</text>
</g>
<!-- synonym&#45;&gt;sample -->
<g id="edge40" class="edge">
<title>synonym&#45;&gt;sample</title>
<path fill="none" stroke="#000000" d="M2983.9557,-356.958C2965.4548,-353.5893 2943.7729,-350.0819 2924,-348 2559.499,-309.622 2466.3676,-325.4222 2100,-315 1625.4579,-301.5005 1506.4505,-313.406 1032,-297 929.2439,-293.4468 809.3551,-286.5478 741.6904,-282.3995"/>
<polygon fill="#000000" stroke="#000000" points="741.8885,-278.9051 731.6921,-281.7832 741.4578,-285.8919 741.8885,-278.9051"/>
<text text-anchor="middle" x="2759.5" y="-318.8" font-family="Times,serif" font-size="14.00" fill="#000000">of_synonym</text>
</g>
<!-- synonym&#45;&gt;participant -->
<g id="edge39" class="edge">
<title>synonym&#45;&gt;participant</title>
<path fill="none" stroke="#000000" d="M3016.0317,-348.3475C2997.524,-324.5316 2961.1825,-282.6095 2920,-261 2854.5491,-226.6563 2830.3891,-236.7944 2757,-228 2591.8472,-208.2093 2090.0913,-196.9348 1901.5993,-193.3048"/>
<polygon fill="#000000" stroke="#000000" points="1901.5824,-189.8039 1891.5174,-193.1122 1901.4487,-196.8026 1901.5824,-189.8039"/>
<text text-anchor="middle" x="3010.5" y="-275.3" font-family="Times,serif" font-size="14.00" fill="#000000">of_synonym</text>
</g>
<!-- cell_line&#45;&gt;study -->
<g id="edge19" class="edge">
<title>cell_line&#45;&gt;study</title>
<path fill="none" stroke="#000000" d="M495.6263,-191.368C749.3912,-187.9305 1892.3177,-169.8821 1950,-123 1972.3933,-104.7996 1977.6485,-70.7401 1978.2615,-46.3445"/>
<polygon fill="#000000" stroke="#000000" points="1981.7615,-46.2345 1978.2692,-36.2318 1974.7615,-46.2291 1981.7615,-46.2345"/>
<text text-anchor="middle" x="2011.5" y="-101.3" font-family="Times,serif" font-size="14.00" fill="#000000">of_cell_line</text>
</g>
<!-- cell_line&#45;&gt;sample -->
<g id="edge18" class="edge">
<title>cell_line&#45;&gt;sample</title>
<path fill="none" stroke="#000000" d="M400.1788,-198.9651C363.8814,-206.3528 322.4297,-220.1715 343,-243 362.0637,-264.1564 541.3168,-273.7029 633.6224,-277.2458"/>
<polygon fill="#000000" stroke="#000000" points="633.5,-280.7436 643.6237,-277.6192 633.7613,-273.7485 633.5,-280.7436"/>
<text text-anchor="middle" x="383.5" y="-231.8" font-family="Times,serif" font-size="14.00" fill="#000000">of_cell_line</text>
</g>
<!-- radiology_file -->
<g id="node29" class="node">
<title>radiology_file</title>
<ellipse fill="none" stroke="#000000" cx="1239" cy="-279" rx="73.387" ry="18"/>
<text text-anchor="middle" x="1239" y="-275.3" font-family="Times,serif" font-size="14.00" fill="#000000">radiology_file</text>
</g>
<!-- radiology_file&#45;&gt;participant -->
<g id="edge6" class="edge">
<title>radiology_file&#45;&gt;participant</title>
<path fill="none" stroke="#000000" d="M1233.7803,-260.6322C1231.8942,-249.7311 1231.9071,-236.4354 1240,-228 1257.6147,-209.6398 1602.672,-198.0942 1756.297,-193.8446"/>
<polygon fill="#000000" stroke="#000000" points="1756.6766,-197.3356 1766.5771,-193.5632 1756.485,-190.3382 1756.6766,-197.3356"/>
<text text-anchor="middle" x="1299" y="-231.8" font-family="Times,serif" font-size="14.00" fill="#000000">of_radiology_file</text>
</g>
</g>
</svg>
