<svg width="3343pt" height="392pt"
 viewBox="0.00 0.00 3343.00 392.00" xmlns="http://www.w3.org/2000/svg" xmlns:xlink="http://www.w3.org/1999/xlink">
<g id="graph0" class="graph" transform="scale(1 1) rotate(0) translate(4 388)">
<title>Perl</title>
<polygon fill="#ffffff" stroke="transparent" points="-4,4 -4,-388 3338.9954,-388 3338.9954,4 -4,4"/>
<!-- laboratory_test -->
<g id="node1" class="node">
<title>laboratory_test</title>
<ellipse fill="none" stroke="#000000" cx="2207.9954" cy="-366" rx="81.7856" ry="18"/>
<text text-anchor="middle" x="2207.9954" y="-362.3" font-family="Times,serif" font-size="14.00" fill="#000000">laboratory_test</text>
</g>
<!-- sample -->
<g id="node9" class="node">
<title>sample</title>
<ellipse fill="none" stroke="#000000" cx="465.9954" cy="-279" rx="44.393" ry="18"/>
<text text-anchor="middle" x="465.9954" y="-275.3" font-family="Times,serif" font-size="14.00" fill="#000000">sample</text>
</g>
<!-- laboratory_test&#45;&gt;sample -->
<g id="edge12" class="edge">
<title>laboratory_test&#45;&gt;sample</title>
<path fill="none" stroke="#000000" d="M2131.2676,-359.581C1995.0329,-348.4585 1701.8974,-325.7639 1453.9954,-315 1350.1851,-310.4926 621.3467,-314.9198 518.9954,-297 515.2833,-296.3501 511.4795,-295.484 507.6971,-294.4821"/>
<polygon fill="#000000" stroke="#000000" points="508.394,-291.0387 497.8124,-291.5683 506.4147,-297.7531 508.394,-291.0387"/>
<text text-anchor="middle" x="1788.4954" y="-318.8" font-family="Times,serif" font-size="14.00" fill="#000000">of_laboratory_test</text>
</g>
<!-- participant -->
<g id="node15" class="node">
<title>participant</title>
<ellipse fill="none" stroke="#000000" cx="1498.9954" cy="-192" rx="62.2891" ry="18"/>
<text text-anchor="middle" x="1498.9954" y="-188.3" font-family="Times,serif" font-size="14.00" fill="#000000">participant</text>
</g>
<!-- laboratory_test&#45;&gt;participant -->
<g id="edge13" class="edge">
<title>laboratory_test&#45;&gt;participant</title>
<path fill="none" stroke="#000000" d="M2229.9949,-348.6311C2254.335,-327.2674 2287.5724,-290.2416 2266.9954,-261 2241.9964,-225.4745 2217.5795,-236.5791 2174.9954,-228 2061.3851,-205.1117 1721.621,-196.1233 1571.5809,-193.2022"/>
<polygon fill="#000000" stroke="#000000" points="1571.6091,-189.7022 1561.544,-193.0104 1571.4753,-196.701 1571.6091,-189.7022"/>
<text text-anchor="middle" x="2338.4954" y="-275.3" font-family="Times,serif" font-size="14.00" fill="#000000">of_laboratory_test</text>
</g>
<!-- pdx -->
<g id="node2" class="node">
<title>pdx</title>
<ellipse fill="none" stroke="#000000" cx="444.9954" cy="-192" rx="27.8951" ry="18"/>
<text text-anchor="middle" x="444.9954" y="-188.3" font-family="Times,serif" font-size="14.00" fill="#000000">pdx</text>
</g>
<!-- study -->
<g id="node3" class="node">
<title>study</title>
<ellipse fill="none" stroke="#000000" cx="872.9954" cy="-18" rx="36.2938" ry="18"/>
<text text-anchor="middle" x="872.9954" y="-14.3" font-family="Times,serif" font-size="14.00" fill="#000000">study</text>
</g>
<!-- pdx&#45;&gt;study -->
<g id="edge42" class="edge">
<title>pdx&#45;&gt;study</title>
<path fill="none" stroke="#000000" d="M440.6521,-173.8955C436.2635,-150.7282 432.8065,-110.7593 453.9954,-87 478.6639,-59.339 723.1191,-32.5585 826.8447,-22.3433"/>
<polygon fill="#000000" stroke="#000000" points="827.4064,-25.8052 837.019,-21.3501 826.7262,-18.8383 827.4064,-25.8052"/>
<text text-anchor="middle" x="477.9954" y="-101.3" font-family="Times,serif" font-size="14.00" fill="#000000">of_pdx</text>
</g>
<!-- pdx&#45;&gt;sample -->
<g id="edge43" class="edge">
<title>pdx&#45;&gt;sample</title>
<path fill="none" stroke="#000000" d="M470.8169,-199.4357C484.7574,-204.9143 500.7574,-213.9143 508.9954,-228 515.1313,-238.4915 509.0102,-248.9519 499.6503,-257.6435"/>
<polygon fill="#000000" stroke="#000000" points="497.1522,-255.1648 491.6217,-264.2016 501.5805,-260.586 497.1522,-255.1648"/>
<text text-anchor="middle" x="535.9954" y="-231.8" font-family="Times,serif" font-size="14.00" fill="#000000">of_pdx</text>
</g>
<!-- treatment_other -->
<g id="node4" class="node">
<title>treatment_other</title>
<ellipse fill="none" stroke="#000000" cx="2549.9954" cy="-279" rx="87.1846" ry="18"/>
<text text-anchor="middle" x="2549.9954" y="-275.3" font-family="Times,serif" font-size="14.00" fill="#000000">treatment_other</text>
</g>
<!-- treatment_other&#45;&gt;participant -->
<g id="edge25" class="edge">
<title>treatment_other&#45;&gt;participant</title>
<path fill="none" stroke="#000000" d="M2498.4554,-264.3434C2453.7736,-252.3173 2387.1691,-236.0135 2327.9954,-228 2182.8661,-208.346 1745.3273,-197.2026 1571.4133,-193.449"/>
<polygon fill="#000000" stroke="#000000" points="1571.4109,-189.9482 1561.3383,-193.2334 1571.2611,-196.9466 1571.4109,-189.9482"/>
<text text-anchor="middle" x="2477.4954" y="-231.8" font-family="Times,serif" font-size="14.00" fill="#000000">of_treatment_other</text>
</g>
<!-- survival -->
<g id="node5" class="node">
<title>survival</title>
<ellipse fill="none" stroke="#000000" cx="2702.9954" cy="-279" rx="48.1917" ry="18"/>
<text text-anchor="middle" x="2702.9954" y="-275.3" font-family="Times,serif" font-size="14.00" fill="#000000">survival</text>
</g>
<!-- survival&#45;&gt;participant -->
<g id="edge16" class="edge">
<title>survival&#45;&gt;participant</title>
<path fill="none" stroke="#000000" d="M2671.3853,-265.3901C2641.1224,-253.0877 2593.8609,-235.7544 2550.9954,-228 2455.5167,-210.7279 1794.4239,-197.337 1571.9024,-193.2751"/>
<polygon fill="#000000" stroke="#000000" points="1571.7036,-189.771 1561.6416,-193.0887 1571.5764,-196.7698 1571.7036,-189.771"/>
<text text-anchor="middle" x="2645.4954" y="-231.8" font-family="Times,serif" font-size="14.00" fill="#000000">of_survival</text>
</g>
<!-- synonym -->
<g id="node6" class="node">
<title>synonym</title>
<ellipse fill="none" stroke="#000000" cx="51.9954" cy="-366" rx="51.9908" ry="18"/>
<text text-anchor="middle" x="51.9954" y="-362.3" font-family="Times,serif" font-size="14.00" fill="#000000">synonym</text>
</g>
<!-- synonym&#45;&gt;study -->
<g id="edge7" class="edge">
<title>synonym&#45;&gt;study</title>
<path fill="none" stroke="#000000" d="M36.4219,-348.7467C23.0769,-332.1293 5.9954,-305.6534 5.9954,-279 5.9954,-279 5.9954,-279 5.9954,-105 5.9954,-63.4003 646.2543,-29.0503 826.3637,-20.2103"/>
<polygon fill="#000000" stroke="#000000" points="826.7531,-23.6956 836.5707,-19.7126 826.4121,-16.7039 826.7531,-23.6956"/>
<text text-anchor="middle" x="48.4954" y="-188.3" font-family="Times,serif" font-size="14.00" fill="#000000">of_synonym</text>
</g>
<!-- synonym&#45;&gt;sample -->
<g id="edge5" class="edge">
<title>synonym&#45;&gt;sample</title>
<path fill="none" stroke="#000000" d="M89.331,-353.4403C125.6171,-341.7216 182.4876,-324.6389 232.9954,-315 309.7975,-300.3431 331.3925,-312.6645 407.9954,-297 412.7179,-296.0343 417.6035,-294.8394 422.4433,-293.5281"/>
<polygon fill="#000000" stroke="#000000" points="423.6033,-296.8364 432.2464,-290.7087 421.6685,-290.1091 423.6033,-296.8364"/>
<text text-anchor="middle" x="275.4954" y="-318.8" font-family="Times,serif" font-size="14.00" fill="#000000">of_synonym</text>
</g>
<!-- synonym&#45;&gt;participant -->
<g id="edge6" class="edge">
<title>synonym&#45;&gt;participant</title>
<path fill="none" stroke="#000000" d="M72.0375,-349.2451C100.1498,-326.4707 153.6251,-285.7514 204.9954,-261 216.2994,-255.5535 300.6149,-230.0417 312.9954,-228 422.3245,-209.9698 1185.6509,-196.8173 1426.4199,-193.0797"/>
<polygon fill="#000000" stroke="#000000" points="1426.5232,-196.5786 1436.4679,-192.9245 1426.415,-189.5795 1426.5232,-196.5786"/>
<text text-anchor="middle" x="247.4954" y="-275.3" font-family="Times,serif" font-size="14.00" fill="#000000">of_synonym</text>
</g>
<!-- generic_file -->
<g id="node7" class="node">
<title>generic_file</title>
<ellipse fill="none" stroke="#000000" cx="274.9954" cy="-366" rx="65.7887" ry="18"/>
<text text-anchor="middle" x="274.9954" y="-362.3" font-family="Times,serif" font-size="14.00" fill="#000000">generic_file</text>
</g>
<!-- generic_file&#45;&gt;study -->
<g id="edge36" class="edge">
<title>generic_file&#45;&gt;study</title>
<path fill="none" stroke="#000000" d="M219.5204,-356.3457C204.2278,-351.029 189.0863,-342.7844 178.9954,-330 157.418,-302.6631 145.9329,-203.7764 163.9954,-174 207.4006,-102.4456 256.3407,-124.825 330.9954,-87 360.6054,-71.9976 365.9747,-62.7467 397.9954,-54 477.825,-32.194 723.1268,-22.4809 826.4004,-19.2798"/>
<polygon fill="#000000" stroke="#000000" points="826.6364,-22.7744 836.5257,-18.9728 826.4242,-15.7776 826.6364,-22.7744"/>
<text text-anchor="middle" x="216.9954" y="-188.3" font-family="Times,serif" font-size="14.00" fill="#000000">of_generic_file</text>
</g>
<!-- generic_file&#45;&gt;sample -->
<g id="edge38" class="edge">
<title>generic_file&#45;&gt;sample</title>
<path fill="none" stroke="#000000" d="M294.9365,-348.839C308.5563,-337.8579 327.4343,-324.0286 345.9954,-315 371.798,-302.4488 380.5145,-305.2527 407.9954,-297 412.2569,-295.7202 416.6897,-294.3732 421.1214,-293.0159"/>
<polygon fill="#000000" stroke="#000000" points="422.2271,-296.3377 430.7546,-290.0502 420.1674,-289.6476 422.2271,-296.3377"/>
<text text-anchor="middle" x="398.9954" y="-318.8" font-family="Times,serif" font-size="14.00" fill="#000000">of_generic_file</text>
</g>
<!-- generic_file&#45;&gt;participant -->
<g id="edge37" class="edge">
<title>generic_file&#45;&gt;participant</title>
<path fill="none" stroke="#000000" d="M279.6088,-347.7125C286.2954,-321.8487 298.7769,-276.054 306.9954,-261 316.2122,-244.1173 317.6676,-236.35 334.9954,-228 384.1771,-204.3001 1179.1941,-194.9637 1426.3,-192.6257"/>
<polygon fill="#000000" stroke="#000000" points="1426.6382,-196.1228 1436.6049,-192.5292 1426.5726,-189.1231 1426.6382,-196.1228"/>
<text text-anchor="middle" x="359.9954" y="-275.3" font-family="Times,serif" font-size="14.00" fill="#000000">of_generic_file</text>
</g>
<!-- consent_group -->
<g id="node8" class="node">
<title>consent_group</title>
<ellipse fill="none" stroke="#000000" cx="781.9954" cy="-105" rx="79.0865" ry="18"/>
<text text-anchor="middle" x="781.9954" y="-101.3" font-family="Times,serif" font-size="14.00" fill="#000000">consent_group</text>
</g>
<!-- consent_group&#45;&gt;study -->
<g id="edge22" class="edge">
<title>consent_group&#45;&gt;study</title>
<path fill="none" stroke="#000000" d="M780.7197,-86.7942C780.9134,-76.2221 782.865,-63.2145 789.9954,-54 799.773,-41.3645 814.8844,-33.0866 829.5473,-27.6982"/>
<polygon fill="#000000" stroke="#000000" points="830.6595,-31.0169 839.0577,-24.5577 828.4645,-24.3699 830.6595,-31.0169"/>
<text text-anchor="middle" x="853.4954" y="-57.8" font-family="Times,serif" font-size="14.00" fill="#000000">of_consent_group</text>
</g>
<!-- sample&#45;&gt;pdx -->
<g id="edge28" class="edge">
<title>sample&#45;&gt;pdx</title>
<path fill="none" stroke="#000000" d="M447.9712,-262.2714C443.1346,-256.6666 438.5434,-250.0378 435.9954,-243 433.2713,-235.476 433.5291,-227.0194 435.0247,-219.1881"/>
<polygon fill="#000000" stroke="#000000" points="438.4448,-219.9418 437.5571,-209.3842 431.6673,-218.1911 438.4448,-219.9418"/>
<text text-anchor="middle" x="472.4954" y="-231.8" font-family="Times,serif" font-size="14.00" fill="#000000">of_sample</text>
</g>
<!-- sample&#45;&gt;participant -->
<g id="edge27" class="edge">
<title>sample&#45;&gt;participant</title>
<path fill="none" stroke="#000000" d="M499.2286,-266.863C539.695,-252.1268 603.3835,-229.088 608.9954,-228 688.128,-212.6578 1228.7272,-198.4266 1426.6166,-193.6737"/>
<polygon fill="#000000" stroke="#000000" points="1426.7103,-197.1725 1436.6237,-193.4344 1426.5429,-190.1745 1426.7103,-197.1725"/>
<text text-anchor="middle" x="645.4954" y="-231.8" font-family="Times,serif" font-size="14.00" fill="#000000">of_sample</text>
</g>
<!-- cell_line -->
<g id="node26" class="node">
<title>cell_line</title>
<ellipse fill="none" stroke="#000000" cx="327.9954" cy="-192" rx="49.2915" ry="18"/>
<text text-anchor="middle" x="327.9954" y="-188.3" font-family="Times,serif" font-size="14.00" fill="#000000">cell_line</text>
</g>
<!-- sample&#45;&gt;cell_line -->
<g id="edge29" class="edge">
<title>sample&#45;&gt;cell_line</title>
<path fill="none" stroke="#000000" d="M432.2442,-267.3016C424.3633,-264.9128 415.9476,-262.6335 407.9954,-261 370.3504,-253.2672 261.7171,-271.554 235.9954,-243 231.5334,-238.0467 232.2371,-233.5064 235.9954,-228 241.4132,-220.0621 259.7179,-212.1752 278.5885,-205.8158"/>
<polygon fill="#000000" stroke="#000000" points="279.7017,-209.1344 288.1421,-202.7305 277.5504,-202.4731 279.7017,-209.1344"/>
<text text-anchor="middle" x="272.4954" y="-231.8" font-family="Times,serif" font-size="14.00" fill="#000000">of_sample</text>
</g>
<!-- study_personnel -->
<g id="node10" class="node">
<title>study_personnel</title>
<ellipse fill="none" stroke="#000000" cx="597.9954" cy="-105" rx="87.1846" ry="18"/>
<text text-anchor="middle" x="597.9954" y="-101.3" font-family="Times,serif" font-size="14.00" fill="#000000">study_personnel</text>
</g>
<!-- study_personnel&#45;&gt;study -->
<g id="edge11" class="edge">
<title>study_personnel&#45;&gt;study</title>
<path fill="none" stroke="#000000" d="M607.7537,-86.9759C614.8768,-75.6304 625.6116,-61.7193 638.9954,-54 670.0648,-36.0803 767.5238,-25.8622 826.414,-21.1732"/>
<polygon fill="#000000" stroke="#000000" points="826.881,-24.6477 836.5818,-20.3879 826.3419,-17.6684 826.881,-24.6477"/>
<text text-anchor="middle" x="708.4954" y="-57.8" font-family="Times,serif" font-size="14.00" fill="#000000">of_study_personnel</text>
</g>
<!-- sequencing_file -->
<g id="node11" class="node">
<title>sequencing_file</title>
<ellipse fill="none" stroke="#000000" cx="638.9954" cy="-366" rx="83.3857" ry="18"/>
<text text-anchor="middle" x="638.9954" y="-362.3" font-family="Times,serif" font-size="14.00" fill="#000000">sequencing_file</text>
</g>
<!-- sequencing_file&#45;&gt;sample -->
<g id="edge14" class="edge">
<title>sequencing_file&#45;&gt;sample</title>
<path fill="none" stroke="#000000" d="M631.7215,-347.9795C626.2783,-336.7848 617.7438,-323.0419 605.9954,-315 573.4122,-292.6965 557.0953,-307.3687 518.9954,-297 515.6594,-296.0921 512.227,-295.0889 508.7894,-294.0345"/>
<polygon fill="#000000" stroke="#000000" points="509.7542,-290.6685 499.1635,-290.9635 507.6266,-297.3374 509.7542,-290.6685"/>
<text text-anchor="middle" x="686.4954" y="-318.8" font-family="Times,serif" font-size="14.00" fill="#000000">of_sequencing_file</text>
</g>
<!-- genetic_analysis -->
<g id="node12" class="node">
<title>genetic_analysis</title>
<ellipse fill="none" stroke="#000000" cx="2525.9954" cy="-366" rx="87.9851" ry="18"/>
<text text-anchor="middle" x="2525.9954" y="-362.3" font-family="Times,serif" font-size="14.00" fill="#000000">genetic_analysis</text>
</g>
<!-- genetic_analysis&#45;&gt;sample -->
<g id="edge2" class="edge">
<title>genetic_analysis&#45;&gt;sample</title>
<path fill="none" stroke="#000000" d="M2446.6606,-358.2838C2321.6405,-346.4989 2071.0713,-324.3956 1857.9954,-315 1709.3486,-308.4454 665.6311,-322.2346 518.9954,-297 515.2814,-296.3609 511.4763,-295.5023 507.6931,-294.5054"/>
<polygon fill="#000000" stroke="#000000" points="508.3881,-291.0617 497.807,-291.5994 506.414,-297.7776 508.3881,-291.0617"/>
<text text-anchor="middle" x="2166.9954" y="-318.8" font-family="Times,serif" font-size="14.00" fill="#000000">of_genetic_analysis</text>
</g>
<!-- genetic_analysis&#45;&gt;participant -->
<g id="edge3" class="edge">
<title>genetic_analysis&#45;&gt;participant</title>
<path fill="none" stroke="#000000" d="M2607.5371,-359.251C2689.8885,-348.8873 2799.6892,-323.2211 2759.9954,-261 2741.2804,-231.6638 2722.8553,-236.0233 2688.9954,-228 2580.7498,-202.3507 1813.0011,-194.3819 1571.516,-192.4958"/>
<polygon fill="#000000" stroke="#000000" points="1571.4662,-188.9955 1561.4395,-192.4183 1571.4123,-195.9952 1571.4662,-188.9955"/>
<text text-anchor="middle" x="2837.9954" y="-275.3" font-family="Times,serif" font-size="14.00" fill="#000000">of_genetic_analysis</text>
</g>
<!-- clinical_measure_file -->
<g id="node13" class="node">
<title>clinical_measure_file</title>
<ellipse fill="none" stroke="#000000" cx="2962.9954" cy="-366" rx="108.5808" ry="18"/>
<text text-anchor="middle" x="2962.9954" y="-362.3" font-family="Times,serif" font-size="14.00" fill="#000000">clinical_measure_file</text>
</g>
<!-- clinical_measure_file&#45;&gt;study -->
<g id="edge10" class="edge">
<title>clinical_measure_file&#45;&gt;study</title>
<path fill="none" stroke="#000000" d="M3026.0021,-351.3249C3084.6261,-335.786 3162.9954,-309.3394 3162.9954,-279 3162.9954,-279 3162.9954,-279 3162.9954,-105 3162.9954,-46.7314 1244.2693,-22.2407 919.4416,-18.5121"/>
<polygon fill="#000000" stroke="#000000" points="919.4675,-15.0122 909.4282,-18.3979 919.3876,-22.0118 919.4675,-15.0122"/>
<text text-anchor="middle" x="3248.9954" y="-188.3" font-family="Times,serif" font-size="14.00" fill="#000000">of_clinical_measure_file</text>
</g>
<!-- clinical_measure_file&#45;&gt;sample -->
<g id="edge8" class="edge">
<title>clinical_measure_file&#45;&gt;sample</title>
<path fill="none" stroke="#000000" d="M2867.3301,-357.4047C2729.1851,-345.4109 2465.7417,-324.1041 2240.9954,-315 2145.4019,-311.1277 613.3055,-313.0848 518.9954,-297 515.2804,-296.3664 511.4747,-295.5117 507.691,-294.5174"/>
<polygon fill="#000000" stroke="#000000" points="508.3852,-291.0736 497.8042,-291.6155 506.4137,-297.7902 508.3852,-291.0736"/>
<text text-anchor="middle" x="2584.9954" y="-318.8" font-family="Times,serif" font-size="14.00" fill="#000000">of_clinical_measure_file</text>
</g>
<!-- clinical_measure_file&#45;&gt;participant -->
<g id="edge9" class="edge">
<title>clinical_measure_file&#45;&gt;participant</title>
<path fill="none" stroke="#000000" d="M2959.4917,-347.9626C2953.8608,-324.1022 2940.4113,-282.5573 2911.9954,-261 2846.5017,-211.314 2811.7564,-236.559 2729.9954,-228 2503.2918,-204.268 1800.2556,-195.0947 1571.6337,-192.6917"/>
<polygon fill="#000000" stroke="#000000" points="1571.4679,-189.1899 1561.432,-192.5857 1571.395,-196.1895 1571.4679,-189.1899"/>
<text text-anchor="middle" x="3025.9954" y="-275.3" font-family="Times,serif" font-size="14.00" fill="#000000">of_clinical_measure_file</text>
</g>
<!-- study_admin -->
<g id="node14" class="node">
<title>study_admin</title>
<ellipse fill="none" stroke="#000000" cx="948.9954" cy="-105" rx="70.3881" ry="18"/>
<text text-anchor="middle" x="948.9954" y="-101.3" font-family="Times,serif" font-size="14.00" fill="#000000">study_admin</text>
</g>
<!-- study_admin&#45;&gt;study -->
<g id="edge20" class="edge">
<title>study_admin&#45;&gt;study</title>
<path fill="none" stroke="#000000" d="M941.3505,-86.8239C936.4689,-76.5152 929.4689,-63.7652 920.9954,-54 916.1141,-48.3746 910.2152,-43.0833 904.2478,-38.3783"/>
<polygon fill="#000000" stroke="#000000" points="906.2671,-35.5181 896.1572,-32.3494 902.0844,-41.1311 906.2671,-35.5181"/>
<text text-anchor="middle" x="987.4954" y="-57.8" font-family="Times,serif" font-size="14.00" fill="#000000">of_study_admin</text>
</g>
<!-- participant&#45;&gt;consent_group -->
<g id="edge18" class="edge">
<title>participant&#45;&gt;consent_group</title>
<path fill="none" stroke="#000000" d="M1438.4689,-187.2358C1326.0479,-177.9713 1077.5605,-155.5416 869.9954,-123 863.2673,-121.9452 856.2738,-120.7264 849.3012,-119.4304"/>
<polygon fill="#000000" stroke="#000000" points="849.6133,-115.9267 839.1339,-117.4862 848.2986,-122.8021 849.6133,-115.9267"/>
<text text-anchor="middle" x="1161.4954" y="-144.8" font-family="Times,serif" font-size="14.00" fill="#000000">of_participant</text>
</g>
<!-- study_funding -->
<g id="node16" class="node">
<title>study_funding</title>
<ellipse fill="none" stroke="#000000" cx="1114.9954" cy="-105" rx="77.1866" ry="18"/>
<text text-anchor="middle" x="1114.9954" y="-101.3" font-family="Times,serif" font-size="14.00" fill="#000000">study_funding</text>
</g>
<!-- study_funding&#45;&gt;study -->
<g id="edge31" class="edge">
<title>study_funding&#45;&gt;study</title>
<path fill="none" stroke="#000000" d="M1096.5618,-87.312C1083.8714,-76.1084 1066.0934,-62.2292 1047.9954,-54 1006.8764,-35.3032 955.9104,-26.2285 919.606,-21.8789"/>
<polygon fill="#000000" stroke="#000000" points="919.6347,-18.3603 909.307,-20.7243 918.8548,-25.3167 919.6347,-18.3603"/>
<text text-anchor="middle" x="1132.9954" y="-57.8" font-family="Times,serif" font-size="14.00" fill="#000000">of_study_funding</text>
</g>
<!-- cytogenomic_file -->
<g id="node17" class="node">
<title>cytogenomic_file</title>
<ellipse fill="none" stroke="#000000" cx="447.9954" cy="-366" rx="89.8845" ry="18"/>
<text text-anchor="middle" x="447.9954" y="-362.3" font-family="Times,serif" font-size="14.00" fill="#000000">cytogenomic_file</text>
</g>
<!-- cytogenomic_file&#45;&gt;sample -->
<g id="edge4" class="edge">
<title>cytogenomic_file&#45;&gt;sample</title>
<path fill="none" stroke="#000000" d="M451.725,-347.9735C454.1626,-336.1918 457.3966,-320.5607 460.1696,-307.1581"/>
<polygon fill="#000000" stroke="#000000" points="463.6718,-307.5051 462.2706,-297.0034 456.817,-306.0868 463.6718,-307.5051"/>
<text text-anchor="middle" x="530.4954" y="-318.8" font-family="Times,serif" font-size="14.00" fill="#000000">of_cytogenomic_file</text>
</g>
<!-- exposure -->
<g id="node18" class="node">
<title>exposure</title>
<ellipse fill="none" stroke="#000000" cx="580.9954" cy="-279" rx="53.0913" ry="18"/>
<text text-anchor="middle" x="580.9954" y="-275.3" font-family="Times,serif" font-size="14.00" fill="#000000">exposure</text>
</g>
<!-- exposure&#45;&gt;participant -->
<g id="edge17" class="edge">
<title>exposure&#45;&gt;participant</title>
<path fill="none" stroke="#000000" d="M616.3065,-265.3216C649.4876,-253.1517 700.8133,-236.0681 746.9954,-228 875.9764,-205.4669 1263.668,-196.1537 1426.1249,-193.1695"/>
<polygon fill="#000000" stroke="#000000" points="1426.5597,-196.6623 1436.4948,-192.982 1426.4331,-189.6634 1426.5597,-196.6623"/>
<text text-anchor="middle" x="790.4954" y="-231.8" font-family="Times,serif" font-size="14.00" fill="#000000">of_exposure</text>
</g>
<!-- study_status -->
<g id="node19" class="node">
<title>study_status</title>
<ellipse fill="none" stroke="#000000" cx="1280.9954" cy="-105" rx="70.3881" ry="18"/>
<text text-anchor="middle" x="1280.9954" y="-101.3" font-family="Times,serif" font-size="14.00" fill="#000000">study_status</text>
</g>
<!-- study_status&#45;&gt;study -->
<g id="edge1" class="edge">
<title>study_status&#45;&gt;study</title>
<path fill="none" stroke="#000000" d="M1259.4063,-87.8039C1243.62,-76.2095 1221.1755,-61.6765 1198.9954,-54 1148.5666,-36.5467 997.225,-25.3525 919.7733,-20.608"/>
<polygon fill="#000000" stroke="#000000" points="919.5452,-17.0881 909.3531,-19.9814 919.1249,-24.0755 919.5452,-17.0881"/>
<text text-anchor="middle" x="1286.4954" y="-57.8" font-family="Times,serif" font-size="14.00" fill="#000000">of_study_status</text>
</g>
<!-- treatment_chemotherapy -->
<g id="node20" class="node">
<title>treatment_chemotherapy</title>
<ellipse fill="none" stroke="#000000" cx="781.9954" cy="-279" rx="129.1772" ry="18"/>
<text text-anchor="middle" x="781.9954" y="-275.3" font-family="Times,serif" font-size="14.00" fill="#000000">treatment_chemotherapy</text>
</g>
<!-- treatment_chemotherapy&#45;&gt;participant -->
<g id="edge33" class="edge">
<title>treatment_chemotherapy&#45;&gt;participant</title>
<path fill="none" stroke="#000000" d="M806.5024,-261.2011C824.0795,-249.486 848.8311,-235.0568 872.9954,-228 924.8995,-212.8422 1273.3083,-199.5281 1426.7153,-194.3262"/>
<polygon fill="#000000" stroke="#000000" points="1427.0985,-197.8153 1436.975,-193.9805 1426.8627,-190.8193 1427.0985,-197.8153"/>
<text text-anchor="middle" x="974.9954" y="-231.8" font-family="Times,serif" font-size="14.00" fill="#000000">of_treatment_chemotherapy</text>
</g>
<!-- diagnosis -->
<g id="node21" class="node">
<title>diagnosis</title>
<ellipse fill="none" stroke="#000000" cx="1817.9954" cy="-366" rx="54.6905" ry="18"/>
<text text-anchor="middle" x="1817.9954" y="-362.3" font-family="Times,serif" font-size="14.00" fill="#000000">diagnosis</text>
</g>
<!-- diagnosis&#45;&gt;sample -->
<g id="edge23" class="edge">
<title>diagnosis&#45;&gt;sample</title>
<path fill="none" stroke="#000000" d="M1765.0672,-361.2092C1650.6007,-351.0303 1371.4282,-327.186 1136.9954,-315 999.7891,-307.8679 654.2098,-321.3618 518.9954,-297 515.2865,-296.3318 511.485,-295.4529 507.7042,-294.4426"/>
<polygon fill="#000000" stroke="#000000" points="508.404,-290.9996 497.8217,-291.5155 506.416,-297.7114 508.404,-290.9996"/>
<text text-anchor="middle" x="1405.4954" y="-318.8" font-family="Times,serif" font-size="14.00" fill="#000000">of_diagnosis</text>
</g>
<!-- diagnosis&#45;&gt;participant -->
<g id="edge24" class="edge">
<title>diagnosis&#45;&gt;participant</title>
<path fill="none" stroke="#000000" d="M1871.9799,-363.2424C1959.4309,-357.5209 2125.9487,-340.995 2161.9954,-297 2181.5308,-273.157 2178.4053,-248.0524 2154.9954,-228 2133.1335,-209.2737 1737.7296,-197.6933 1571.5793,-193.6349"/>
<polygon fill="#000000" stroke="#000000" points="1571.5319,-190.1328 1561.4502,-193.3899 1571.3626,-197.1308 1571.5319,-190.1328"/>
<text text-anchor="middle" x="2218.4954" y="-275.3" font-family="Times,serif" font-size="14.00" fill="#000000">of_diagnosis</text>
</g>
<!-- publication -->
<g id="node22" class="node">
<title>publication</title>
<ellipse fill="none" stroke="#000000" cx="1431.9954" cy="-105" rx="63.0888" ry="18"/>
<text text-anchor="middle" x="1431.9954" y="-101.3" font-family="Times,serif" font-size="14.00" fill="#000000">publication</text>
</g>
<!-- publication&#45;&gt;study -->
<g id="edge30" class="edge">
<title>publication&#45;&gt;study</title>
<path fill="none" stroke="#000000" d="M1410.2936,-88.0757C1393.8876,-76.2919 1370.2819,-61.4109 1346.9954,-54 1268.3032,-28.9565 1022.9716,-21.0677 919.6308,-18.8172"/>
<polygon fill="#000000" stroke="#000000" points="919.5697,-15.3152 909.4985,-18.6048 919.4229,-22.3137 919.5697,-15.3152"/>
<text text-anchor="middle" x="1429.9954" y="-57.8" font-family="Times,serif" font-size="14.00" fill="#000000">of_publication</text>
</g>
<!-- study_arm -->
<g id="node23" class="node">
<title>study_arm</title>
<ellipse fill="none" stroke="#000000" cx="1572.9954" cy="-105" rx="59.5901" ry="18"/>
<text text-anchor="middle" x="1572.9954" y="-101.3" font-family="Times,serif" font-size="14.00" fill="#000000">study_arm</text>
</g>
<!-- study_arm&#45;&gt;study -->
<g id="edge34" class="edge">
<title>study_arm&#45;&gt;study</title>
<path fill="none" stroke="#000000" d="M1550.8293,-88.2107C1533.8021,-76.3305 1509.1775,-61.269 1484.9954,-54 1431.4674,-37.9099 1053.7215,-23.9863 919.8736,-19.5073"/>
<polygon fill="#000000" stroke="#000000" points="919.6579,-15.9983 909.5472,-19.1644 919.4255,-22.9945 919.6579,-15.9983"/>
<text text-anchor="middle" x="1566.4954" y="-57.8" font-family="Times,serif" font-size="14.00" fill="#000000">of_study_arm</text>
</g>
<!-- pathology_file -->
<g id="node24" class="node">
<title>pathology_file</title>
<ellipse fill="none" stroke="#000000" cx="815.9954" cy="-366" rx="76.0865" ry="18"/>
<text text-anchor="middle" x="815.9954" y="-362.3" font-family="Times,serif" font-size="14.00" fill="#000000">pathology_file</text>
</g>
<!-- pathology_file&#45;&gt;sample -->
<g id="edge44" class="edge">
<title>pathology_file&#45;&gt;sample</title>
<path fill="none" stroke="#000000" d="M801.1777,-348.3078C790.273,-336.6416 774.3722,-322.2271 756.9954,-315 708.0222,-294.6318 570.9628,-307.6124 518.9954,-297 515.3536,-296.2563 511.6168,-295.333 507.8948,-294.3004"/>
<polygon fill="#000000" stroke="#000000" points="508.7371,-290.8987 498.1523,-291.3598 506.7144,-297.6001 508.7371,-290.8987"/>
<text text-anchor="middle" x="840.9954" y="-318.8" font-family="Times,serif" font-size="14.00" fill="#000000">of_pathology_file</text>
</g>
<!-- treatment_surgery -->
<g id="node25" class="node">
<title>treatment_surgery</title>
<ellipse fill="none" stroke="#000000" cx="1027.9954" cy="-279" rx="98.5829" ry="18"/>
<text text-anchor="middle" x="1027.9954" y="-275.3" font-family="Times,serif" font-size="14.00" fill="#000000">treatment_surgery</text>
</g>
<!-- treatment_surgery&#45;&gt;participant -->
<g id="edge32" class="edge">
<title>treatment_surgery&#45;&gt;participant</title>
<path fill="none" stroke="#000000" d="M1051.0869,-261.4526C1067.6666,-249.8529 1091.0487,-235.4582 1113.9954,-228 1170.3591,-209.6804 1332.1191,-199.506 1427.0767,-194.9558"/>
<polygon fill="#000000" stroke="#000000" points="1427.3577,-198.4465 1437.1823,-194.4807 1427.0289,-191.4543 1427.3577,-198.4465"/>
<text text-anchor="middle" x="1192.4954" y="-231.8" font-family="Times,serif" font-size="14.00" fill="#000000">of_treatment_surgery</text>
</g>
<!-- cell_line&#45;&gt;study -->
<g id="edge41" class="edge">
<title>cell_line&#45;&gt;study</title>
<path fill="none" stroke="#000000" d="M327.1208,-173.6375C327.0643,-150.1912 330.7061,-109.9211 353.9954,-87 387.4766,-54.0482 705.3175,-29.3208 826.4337,-21.0225"/>
<polygon fill="#000000" stroke="#000000" points="826.7703,-24.5078 836.5105,-20.339 826.2966,-17.5239 826.7703,-24.5078"/>
<text text-anchor="middle" x="394.4954" y="-101.3" font-family="Times,serif" font-size="14.00" fill="#000000">of_cell_line</text>
</g>
<!-- cell_line&#45;&gt;sample -->
<g id="edge40" class="edge">
<title>cell_line&#45;&gt;sample</title>
<path fill="none" stroke="#000000" d="M331.4226,-210.3185C334.3547,-221.201 339.6458,-234.4946 348.9954,-243 369.2749,-261.4484 381.7925,-252.937 407.9954,-261 412.2482,-262.3086 416.675,-263.675 421.103,-265.0445"/>
<polygon fill="#000000" stroke="#000000" points="420.1435,-268.4112 430.7313,-268.0263 422.2144,-261.7246 420.1435,-268.4112"/>
<text text-anchor="middle" x="389.4954" y="-231.8" font-family="Times,serif" font-size="14.00" fill="#000000">of_cell_line</text>
</g>
<!-- radiology_file -->
<g id="node27" class="node">
<title>radiology_file</title>
<ellipse fill="none" stroke="#000000" cx="1217.9954" cy="-279" rx="73.387" ry="18"/>
<text text-anchor="middle" x="1217.9954" y="-275.3" font-family="Times,serif" font-size="14.00" fill="#000000">radiology_file</text>
</g>
<!-- radiology_file&#45;&gt;participant -->
<g id="edge35" class="edge">
<title>radiology_file&#45;&gt;participant</title>
<path fill="none" stroke="#000000" d="M1242.2852,-261.8784C1259.3586,-250.6247 1283.1452,-236.4662 1305.9954,-228 1345.5816,-213.333 1392.0393,-204.4315 1429.4536,-199.1498"/>
<polygon fill="#000000" stroke="#000000" points="1430.3137,-202.5653 1439.7533,-197.7543 1429.3739,-195.6287 1430.3137,-202.5653"/>
<text text-anchor="middle" x="1364.9954" y="-231.8" font-family="Times,serif" font-size="14.00" fill="#000000">of_radiology_file</text>
</g>
<!-- medical_history -->
<g id="node28" class="node">
<title>medical_history</title>
<ellipse fill="none" stroke="#000000" cx="1394.9954" cy="-279" rx="85.2851" ry="18"/>
<text text-anchor="middle" x="1394.9954" y="-275.3" font-family="Times,serif" font-size="14.00" fill="#000000">medical_history</text>
</g>
<!-- medical_history&#45;&gt;participant -->
<g id="edge19" class="edge">
<title>medical_history&#45;&gt;participant</title>
<path fill="none" stroke="#000000" d="M1410.8273,-261.0922C1420.2713,-250.8729 1432.7713,-238.1229 1444.9954,-228 1450.7826,-223.2076 1457.219,-218.469 1463.5738,-214.0815"/>
<polygon fill="#000000" stroke="#000000" points="1465.7684,-216.8238 1472.1201,-208.3441 1461.8667,-211.012 1465.7684,-216.8238"/>
<text text-anchor="middle" x="1512.9954" y="-231.8" font-family="Times,serif" font-size="14.00" fill="#000000">of_medical_history</text>
</g>
<!-- treatment_radiation -->
<g id="node29" class="node">
<title>treatment_radiation</title>
<ellipse fill="none" stroke="#000000" cx="1602.9954" cy="-279" rx="104.7816" ry="18"/>
<text text-anchor="middle" x="1602.9954" y="-275.3" font-family="Times,serif" font-size="14.00" fill="#000000">treatment_radiation</text>
</g>
<!-- treatment_radiation&#45;&gt;participant -->
<g id="edge21" class="edge">
<title>treatment_radiation&#45;&gt;participant</title>
<path fill="none" stroke="#000000" d="M1598.6744,-260.5602C1595.3661,-249.9051 1589.8309,-236.8925 1580.9954,-228 1573.1926,-220.1469 1563.3868,-213.8773 1553.2958,-208.9179"/>
<polygon fill="#000000" stroke="#000000" points="1554.5524,-205.6451 1543.9976,-204.7238 1551.6741,-212.026 1554.5524,-205.6451"/>
<text text-anchor="middle" x="1673.9954" y="-231.8" font-family="Times,serif" font-size="14.00" fill="#000000">of_treatment_radiation</text>
</g>
<!-- methylation_array_file -->
<g id="node30" class="node">
<title>methylation_array_file</title>
<ellipse fill="none" stroke="#000000" cx="1025.9954" cy="-366" rx="115.8798" ry="18"/>
<text text-anchor="middle" x="1025.9954" y="-362.3" font-family="Times,serif" font-size="14.00" fill="#000000">methylation_array_file</text>
</g>
<!-- methylation_array_file&#45;&gt;sample -->
<g id="edge15" class="edge">
<title>methylation_array_file&#45;&gt;sample</title>
<path fill="none" stroke="#000000" d="M993.9439,-348.6669C970.3573,-336.8461 937.1146,-322.0954 905.9954,-315 738.1179,-276.7228 688.1815,-329.0011 518.9954,-297 515.3432,-296.3092 511.5991,-295.423 507.8723,-294.4152"/>
<polygon fill="#000000" stroke="#000000" points="508.7048,-291.0113 498.1219,-291.5141 506.7085,-297.7206 508.7048,-291.0113"/>
<text text-anchor="middle" x="1041.4954" y="-318.8" font-family="Times,serif" font-size="14.00" fill="#000000">of_methylation_array_file</text>
</g>
<!-- treatment_response -->
<g id="node31" class="node">
<title>treatment_response</title>
<ellipse fill="none" stroke="#000000" cx="1829.9954" cy="-279" rx="104.7816" ry="18"/>
<text text-anchor="middle" x="1829.9954" y="-275.3" font-family="Times,serif" font-size="14.00" fill="#000000">treatment_response</text>
</g>
<!-- treatment_response&#45;&gt;participant -->
<g id="edge39" class="edge">
<title>treatment_response&#45;&gt;participant</title>
<path fill="none" stroke="#000000" d="M1811.3812,-261.1721C1798.3296,-249.7583 1779.8976,-235.6932 1760.9954,-228 1727.3397,-214.302 1635.144,-203.7805 1569.6636,-197.744"/>
<polygon fill="#000000" stroke="#000000" points="1569.6719,-194.2305 1559.3968,-196.8139 1569.0402,-201.202 1569.6719,-194.2305"/>
<text text-anchor="middle" x="1869.9954" y="-231.8" font-family="Times,serif" font-size="14.00" fill="#000000">of_treatment_response</text>
</g>
<!-- family_relationship -->
<g id="node32" class="node">
<title>family_relationship</title>
<ellipse fill="none" stroke="#000000" cx="2052.9954" cy="-279" rx="100.1823" ry="18"/>
<text text-anchor="middle" x="2052.9954" y="-275.3" font-family="Times,serif" font-size="14.00" fill="#000000">family_relationship</text>
</g>
<!-- family_relationship&#45;&gt;participant -->
<g id="edge26" class="edge">
<title>family_relationship&#45;&gt;participant</title>
<path fill="none" stroke="#000000" d="M2026.9504,-261.3753C2008.3197,-249.7402 1982.1819,-235.335 1956.9954,-228 1886.7273,-207.5361 1681.8339,-197.9115 1571.4468,-194.102"/>
<polygon fill="#000000" stroke="#000000" points="1571.5043,-190.6021 1561.3917,-193.7621 1571.2677,-197.5981 1571.5043,-190.6021"/>
<text text-anchor="middle" x="2071.4954" y="-231.8" font-family="Times,serif" font-size="14.00" fill="#000000">of_family_relationship</text>
</g>
</g>
</svg>
