<svg width="3298pt" height="392pt"
 viewBox="0.00 0.00 3298.00 392.00" xmlns="http://www.w3.org/2000/svg" xmlns:xlink="http://www.w3.org/1999/xlink">
<g id="graph0" class="graph" transform="scale(1 1) rotate(0) translate(4 388)">
<title>Perl</title>
<polygon fill="#ffffff" stroke="transparent" points="-4,4 -4,-388 3293.9954,-388 3293.9954,4 -4,4"/>
<!-- methylation_array_file -->
<g id="node1" class="node">
<title>methylation_array_file</title>
<ellipse fill="none" stroke="#000000" cx="788.9954" cy="-366" rx="115.8798" ry="18"/>
<text text-anchor="middle" x="788.9954" y="-362.3" font-family="Times,serif" font-size="14.00" fill="#000000">methylation_array_file</text>
</g>
<!-- sample -->
<g id="node29" class="node">
<title>sample</title>
<ellipse fill="none" stroke="#000000" cx="887.9954" cy="-279" rx="44.393" ry="18"/>
<text text-anchor="middle" x="887.9954" y="-275.3" font-family="Times,serif" font-size="14.00" fill="#000000">sample</text>
</g>
<!-- methylation_array_file&#45;&gt;sample -->
<g id="edge1" class="edge">
<title>methylation_array_file&#45;&gt;sample</title>
<path fill="none" stroke="#000000" d="M720.8316,-351.3713C697.5464,-343.2123 680.4113,-331.3367 693.9954,-315 711.463,-293.9928 782.4813,-285.1877 833.5351,-281.5345"/>
<polygon fill="#000000" stroke="#000000" points="834.034,-285.0091 843.7786,-280.8505 833.5676,-278.0246 834.034,-285.0091"/>
<text text-anchor="middle" x="785.4954" y="-318.8" font-family="Times,serif" font-size="14.00" fill="#000000">of_methylation_array_file</text>
</g>
<!-- family_relationship -->
<g id="node2" class="node">
<title>family_relationship</title>
<ellipse fill="none" stroke="#000000" cx="2711.9954" cy="-279" rx="100.1823" ry="18"/>
<text text-anchor="middle" x="2711.9954" y="-275.3" font-family="Times,serif" font-size="14.00" fill="#000000">family_relationship</text>
</g>
<!-- participant -->
<g id="node14" class="node">
<title>participant</title>
<ellipse fill="none" stroke="#000000" cx="1905.9954" cy="-192" rx="62.2891" ry="18"/>
<text text-anchor="middle" x="1905.9954" y="-188.3" font-family="Times,serif" font-size="14.00" fill="#000000">participant</text>
</g>
<!-- family_relationship&#45;&gt;participant -->
<g id="edge27" class="edge">
<title>family_relationship&#45;&gt;participant</title>
<path fill="none" stroke="#000000" d="M2648.1863,-265.0544C2592.4541,-253.3917 2509.2396,-237.2237 2435.9954,-228 2273.2197,-207.5016 2080.7462,-198.1081 1978.4467,-194.2842"/>
<polygon fill="#000000" stroke="#000000" points="1978.3522,-190.7785 1968.2307,-193.9097 1978.0957,-197.7738 1978.3522,-190.7785"/>
<text text-anchor="middle" x="2606.4954" y="-231.8" font-family="Times,serif" font-size="14.00" fill="#000000">of_family_relationship</text>
</g>
<!-- pdx -->
<g id="node3" class="node">
<title>pdx</title>
<ellipse fill="none" stroke="#000000" cx="791.9954" cy="-192" rx="27.8951" ry="18"/>
<text text-anchor="middle" x="791.9954" y="-188.3" font-family="Times,serif" font-size="14.00" fill="#000000">pdx</text>
</g>
<!-- study -->
<g id="node11" class="node">
<title>study</title>
<ellipse fill="none" stroke="#000000" cx="2413.9954" cy="-18" rx="36.2938" ry="18"/>
<text text-anchor="middle" x="2413.9954" y="-14.3" font-family="Times,serif" font-size="14.00" fill="#000000">study</text>
</g>
<!-- pdx&#45;&gt;study -->
<g id="edge34" class="edge">
<title>pdx&#45;&gt;study</title>
<path fill="none" stroke="#000000" d="M818.9769,-187.0092C910.0972,-170.3274 1214.9163,-115.9311 1468.9954,-87 1812.6704,-47.8669 2229.324,-26.4684 2367.2079,-20.0724"/>
<polygon fill="#000000" stroke="#000000" points="2367.582,-23.559 2377.4106,-19.603 2367.2603,-16.5663 2367.582,-23.559"/>
<text text-anchor="middle" x="1492.9954" y="-101.3" font-family="Times,serif" font-size="14.00" fill="#000000">of_pdx</text>
</g>
<!-- pdx&#45;&gt;sample -->
<g id="edge35" class="edge">
<title>pdx&#45;&gt;sample</title>
<path fill="none" stroke="#000000" d="M768.0005,-201.2888C747.0498,-210.7839 721.8869,-226.4491 734.9954,-243 747.3985,-258.6602 795.6622,-268.1831 834.7093,-273.4664"/>
<polygon fill="#000000" stroke="#000000" points="834.5589,-276.9759 844.9242,-274.7826 835.4535,-270.0333 834.5589,-276.9759"/>
<text text-anchor="middle" x="758.9954" y="-231.8" font-family="Times,serif" font-size="14.00" fill="#000000">of_pdx</text>
</g>
<!-- synonym -->
<g id="node4" class="node">
<title>synonym</title>
<ellipse fill="none" stroke="#000000" cx="51.9954" cy="-366" rx="51.9908" ry="18"/>
<text text-anchor="middle" x="51.9954" y="-362.3" font-family="Times,serif" font-size="14.00" fill="#000000">synonym</text>
</g>
<!-- synonym&#45;&gt;study -->
<g id="edge16" class="edge">
<title>synonym&#45;&gt;study</title>
<path fill="none" stroke="#000000" d="M47.6666,-347.7876C43.8849,-330.2665 38.9954,-302.9768 38.9954,-279 38.9954,-279 38.9954,-279 38.9954,-105 38.9954,-44.5078 2033.1432,-21.8272 2366.8863,-18.4549"/>
<polygon fill="#000000" stroke="#000000" points="2367.2021,-21.952 2377.1664,-18.3519 2367.1318,-14.9524 2367.2021,-21.952"/>
<text text-anchor="middle" x="81.4954" y="-188.3" font-family="Times,serif" font-size="14.00" fill="#000000">of_synonym</text>
</g>
<!-- synonym&#45;&gt;participant -->
<g id="edge14" class="edge">
<title>synonym&#45;&gt;participant</title>
<path fill="none" stroke="#000000" d="M66.5696,-348.403C77.1112,-336.937 92.3764,-322.7202 108.9954,-315 360.5526,-198.1418 450.6263,-251.6013 726.9954,-228 943.5391,-209.5076 1611.4999,-196.9321 1833.4535,-193.1744"/>
<polygon fill="#000000" stroke="#000000" points="1833.7424,-196.6701 1843.682,-193.0021 1833.6244,-189.6711 1833.7424,-196.6701"/>
<text text-anchor="middle" x="293.4954" y="-275.3" font-family="Times,serif" font-size="14.00" fill="#000000">of_synonym</text>
</g>
<!-- synonym&#45;&gt;sample -->
<g id="edge15" class="edge">
<title>synonym&#45;&gt;sample</title>
<path fill="none" stroke="#000000" d="M75.2219,-349.8918C93.9398,-337.8692 121.4285,-322.3089 147.9954,-315 213.4497,-296.9926 674.2039,-284.2027 833.7626,-280.2713"/>
<polygon fill="#000000" stroke="#000000" points="833.9181,-283.7686 843.8295,-280.0252 833.747,-276.7707 833.9181,-283.7686"/>
<text text-anchor="middle" x="190.4954" y="-318.8" font-family="Times,serif" font-size="14.00" fill="#000000">of_synonym</text>
</g>
<!-- diagnosis -->
<g id="node5" class="node">
<title>diagnosis</title>
<ellipse fill="none" stroke="#000000" cx="1393.9954" cy="-366" rx="54.6905" ry="18"/>
<text text-anchor="middle" x="1393.9954" y="-362.3" font-family="Times,serif" font-size="14.00" fill="#000000">diagnosis</text>
</g>
<!-- diagnosis&#45;&gt;participant -->
<g id="edge30" class="edge">
<title>diagnosis&#45;&gt;participant</title>
<path fill="none" stroke="#000000" d="M1447.3149,-362.1241C1494.5466,-356.7297 1552.2479,-344.0913 1525.9954,-315 1499.8041,-285.9765 1377.1867,-326.0235 1350.9954,-297 1340.2761,-285.1216 1340.6686,-273.2212 1350.9954,-261 1381.7289,-224.6285 1691.247,-203.4828 1834.251,-195.5852"/>
<polygon fill="#000000" stroke="#000000" points="1834.459,-199.0792 1844.2534,-195.0395 1834.0775,-192.0896 1834.459,-199.0792"/>
<text text-anchor="middle" x="1395.4954" y="-275.3" font-family="Times,serif" font-size="14.00" fill="#000000">of_diagnosis</text>
</g>
<!-- diagnosis&#45;&gt;sample -->
<g id="edge29" class="edge">
<title>diagnosis&#45;&gt;sample</title>
<path fill="none" stroke="#000000" d="M1340.1602,-362.704C1278.6524,-358.2388 1175.2328,-348.5937 1087.9954,-330 1066.1357,-325.3408 1061.5499,-320.9125 1039.9954,-315 1005.8077,-305.6221 966.9011,-296.4346 937.0093,-289.6884"/>
<polygon fill="#000000" stroke="#000000" points="937.761,-286.2701 927.2375,-287.4974 936.2295,-293.1005 937.761,-286.2701"/>
<text text-anchor="middle" x="1132.4954" y="-318.8" font-family="Times,serif" font-size="14.00" fill="#000000">of_diagnosis</text>
</g>
<!-- clinical_measure_file -->
<g id="node6" class="node">
<title>clinical_measure_file</title>
<ellipse fill="none" stroke="#000000" cx="2421.9954" cy="-366" rx="108.5808" ry="18"/>
<text text-anchor="middle" x="2421.9954" y="-362.3" font-family="Times,serif" font-size="14.00" fill="#000000">clinical_measure_file</text>
</g>
<!-- clinical_measure_file&#45;&gt;study -->
<g id="edge11" class="edge">
<title>clinical_measure_file&#45;&gt;study</title>
<path fill="none" stroke="#000000" d="M2523.5989,-359.6341C2713.9478,-347.2166 3106.9996,-319.0484 3126.9954,-297 3183.2062,-235.0191 3063.4273,-231.8052 3049.9954,-228 2896.9636,-184.6468 2445.8871,-243.4356 2341.9954,-123 2318.3427,-95.5808 2354.4502,-60.2539 2383.5171,-38.3697"/>
<polygon fill="#000000" stroke="#000000" points="2385.8284,-41.0164 2391.8548,-32.3024 2381.7097,-35.3563 2385.8284,-41.0164"/>
<text text-anchor="middle" x="2967.9954" y="-188.3" font-family="Times,serif" font-size="14.00" fill="#000000">of_clinical_measure_file</text>
</g>
<!-- clinical_measure_file&#45;&gt;participant -->
<g id="edge9" class="edge">
<title>clinical_measure_file&#45;&gt;participant</title>
<path fill="none" stroke="#000000" d="M2421.4493,-347.607C2419.7302,-324.1276 2413.1744,-283.8218 2388.9954,-261 2345.3321,-219.7876 2317.1263,-238.415 2257.9954,-228 2161.6986,-211.0388 2049.0694,-201.2521 1977.6453,-196.2752"/>
<polygon fill="#000000" stroke="#000000" points="1977.6286,-192.766 1967.4131,-195.5755 1977.151,-199.7497 1977.6286,-192.766"/>
<text text-anchor="middle" x="2496.9954" y="-275.3" font-family="Times,serif" font-size="14.00" fill="#000000">of_clinical_measure_file</text>
</g>
<!-- clinical_measure_file&#45;&gt;sample -->
<g id="edge10" class="edge">
<title>clinical_measure_file&#45;&gt;sample</title>
<path fill="none" stroke="#000000" d="M2317.5968,-360.9395C2099.5315,-350.2423 1579.774,-324.0825 1143.9954,-297 1074.1036,-292.6564 993.5362,-286.8615 941.7467,-283.0345"/>
<polygon fill="#000000" stroke="#000000" points="941.6968,-279.5213 931.4655,-282.2727 941.1795,-286.5022 941.6968,-279.5213"/>
<text text-anchor="middle" x="1789.9954" y="-318.8" font-family="Times,serif" font-size="14.00" fill="#000000">of_clinical_measure_file</text>
</g>
<!-- generic_file -->
<g id="node7" class="node">
<title>generic_file</title>
<ellipse fill="none" stroke="#000000" cx="2847.9954" cy="-366" rx="65.7887" ry="18"/>
<text text-anchor="middle" x="2847.9954" y="-362.3" font-family="Times,serif" font-size="14.00" fill="#000000">generic_file</text>
</g>
<!-- generic_file&#45;&gt;study -->
<g id="edge20" class="edge">
<title>generic_file&#45;&gt;study</title>
<path fill="none" stroke="#000000" d="M2897.5962,-354.0023C2906.0659,-351.9804 2914.78,-349.9168 2922.9954,-348 2981.4188,-334.3685 3183.9954,-338.9926 3183.9954,-279 3183.9954,-279 3183.9954,-279 3183.9954,-105 3183.9954,-70.339 3157.162,-66.911 3124.9954,-54 3063.7384,-29.4128 2609.6231,-20.792 2460.9577,-18.6116"/>
<polygon fill="#000000" stroke="#000000" points="2460.8405,-15.1097 2450.7913,-18.4656 2460.7399,-22.1089 2460.8405,-15.1097"/>
<text text-anchor="middle" x="3236.9954" y="-188.3" font-family="Times,serif" font-size="14.00" fill="#000000">of_generic_file</text>
</g>
<!-- generic_file&#45;&gt;participant -->
<g id="edge22" class="edge">
<title>generic_file&#45;&gt;participant</title>
<path fill="none" stroke="#000000" d="M2848.605,-347.693C2848.3409,-324.3066 2844.2104,-284.1012 2820.9954,-261 2778.4357,-218.649 2749.3949,-236.7545 2689.9954,-228 2554.083,-207.9687 2145.8309,-197.1576 1978.618,-193.4702"/>
<polygon fill="#000000" stroke="#000000" points="1978.5108,-189.9671 1968.4368,-193.2479 1978.358,-196.9654 1978.5108,-189.9671"/>
<text text-anchor="middle" x="2892.9954" y="-275.3" font-family="Times,serif" font-size="14.00" fill="#000000">of_generic_file</text>
</g>
<!-- generic_file&#45;&gt;sample -->
<g id="edge21" class="edge">
<title>generic_file&#45;&gt;sample</title>
<path fill="none" stroke="#000000" d="M2783.7043,-362.0848C2721.4018,-358.328 2624.2341,-352.5674 2539.9954,-348 2246.7264,-332.099 2173.4919,-325.9246 1879.9954,-315 1553.0129,-302.829 1470.838,-312.4792 1143.9954,-297 1074.0472,-293.6873 993.4926,-287.6574 941.7215,-283.4954"/>
<polygon fill="#000000" stroke="#000000" points="941.694,-279.9818 931.4441,-282.6633 941.129,-286.959 941.694,-279.9818"/>
<text text-anchor="middle" x="2262.9954" y="-318.8" font-family="Times,serif" font-size="14.00" fill="#000000">of_generic_file</text>
</g>
<!-- consent_group -->
<g id="node8" class="node">
<title>consent_group</title>
<ellipse fill="none" stroke="#000000" cx="1976.9954" cy="-105" rx="79.0865" ry="18"/>
<text text-anchor="middle" x="1976.9954" y="-101.3" font-family="Times,serif" font-size="14.00" fill="#000000">consent_group</text>
</g>
<!-- consent_group&#45;&gt;study -->
<g id="edge40" class="edge">
<title>consent_group&#45;&gt;study</title>
<path fill="none" stroke="#000000" d="M2027.6767,-91.0418C2068.99,-79.9906 2128.966,-64.6882 2181.9954,-54 2246.2595,-41.0474 2321.3482,-30.1603 2368.2939,-23.856"/>
<polygon fill="#000000" stroke="#000000" points="2368.9947,-27.2937 2378.4457,-22.5053 2368.0714,-20.3548 2368.9947,-27.2937"/>
<text text-anchor="middle" x="2245.4954" y="-57.8" font-family="Times,serif" font-size="14.00" fill="#000000">of_consent_group</text>
</g>
<!-- study_status -->
<g id="node9" class="node">
<title>study_status</title>
<ellipse fill="none" stroke="#000000" cx="3001.9954" cy="-366" rx="70.3881" ry="18"/>
<text text-anchor="middle" x="3001.9954" y="-362.3" font-family="Times,serif" font-size="14.00" fill="#000000">study_status</text>
</g>
<!-- publication -->
<g id="node10" class="node">
<title>publication</title>
<ellipse fill="none" stroke="#000000" cx="2413.9954" cy="-105" rx="63.0888" ry="18"/>
<text text-anchor="middle" x="2413.9954" y="-101.3" font-family="Times,serif" font-size="14.00" fill="#000000">publication</text>
</g>
<!-- publication&#45;&gt;study -->
<g id="edge28" class="edge">
<title>publication&#45;&gt;study</title>
<path fill="none" stroke="#000000" d="M2413.9954,-86.9735C2413.9954,-75.1918 2413.9954,-59.5607 2413.9954,-46.1581"/>
<polygon fill="#000000" stroke="#000000" points="2417.4955,-46.0033 2413.9954,-36.0034 2410.4955,-46.0034 2417.4955,-46.0033"/>
<text text-anchor="middle" x="2464.9954" y="-57.8" font-family="Times,serif" font-size="14.00" fill="#000000">of_publication</text>
</g>
<!-- radiology_file -->
<g id="node12" class="node">
<title>radiology_file</title>
<ellipse fill="none" stroke="#000000" cx="3044.9954" cy="-279" rx="73.387" ry="18"/>
<text text-anchor="middle" x="3044.9954" y="-275.3" font-family="Times,serif" font-size="14.00" fill="#000000">radiology_file</text>
</g>
<!-- radiology_file&#45;&gt;participant -->
<g id="edge33" class="edge">
<title>radiology_file&#45;&gt;participant</title>
<path fill="none" stroke="#000000" d="M3002.7262,-264.1723C2966.0293,-252.0392 2911.2026,-235.6745 2861.9954,-228 2775.7571,-214.5501 2186.6002,-198.9163 1978.559,-193.7529"/>
<polygon fill="#000000" stroke="#000000" points="1978.4363,-190.2489 1968.3528,-193.5004 1978.2632,-197.2468 1978.4363,-190.2489"/>
<text text-anchor="middle" x="2986.9954" y="-231.8" font-family="Times,serif" font-size="14.00" fill="#000000">of_radiology_file</text>
</g>
<!-- study_personnel -->
<g id="node13" class="node">
<title>study_personnel</title>
<ellipse fill="none" stroke="#000000" cx="2581.9954" cy="-105" rx="87.1846" ry="18"/>
<text text-anchor="middle" x="2581.9954" y="-101.3" font-family="Times,serif" font-size="14.00" fill="#000000">study_personnel</text>
</g>
<!-- study_personnel&#45;&gt;study -->
<g id="edge6" class="edge">
<title>study_personnel&#45;&gt;study</title>
<path fill="none" stroke="#000000" d="M2564.0283,-87.2368C2552.2945,-76.4284 2536.1926,-63.015 2519.9954,-54 2500.2379,-43.0034 2476.5454,-34.5665 2456.5752,-28.634"/>
<polygon fill="#000000" stroke="#000000" points="2457.3859,-25.2256 2446.809,-25.8413 2455.4613,-31.9559 2457.3859,-25.2256"/>
<text text-anchor="middle" x="2610.4954" y="-57.8" font-family="Times,serif" font-size="14.00" fill="#000000">of_study_personnel</text>
</g>
<!-- participant&#45;&gt;consent_group -->
<g id="edge12" class="edge">
<title>participant&#45;&gt;consent_group</title>
<path fill="none" stroke="#000000" d="M1920.3633,-174.3943C1930.5928,-161.8595 1944.5029,-144.8147 1955.9771,-130.7548"/>
<polygon fill="#000000" stroke="#000000" points="1958.7941,-132.8386 1962.4052,-122.8782 1953.3708,-128.4127 1958.7941,-132.8386"/>
<text text-anchor="middle" x="1995.4954" y="-144.8" font-family="Times,serif" font-size="14.00" fill="#000000">of_participant</text>
</g>
<!-- study_funding -->
<g id="node15" class="node">
<title>study_funding</title>
<ellipse fill="none" stroke="#000000" cx="2763.9954" cy="-105" rx="77.1866" ry="18"/>
<text text-anchor="middle" x="2763.9954" y="-101.3" font-family="Times,serif" font-size="14.00" fill="#000000">study_funding</text>
</g>
<!-- study_funding&#45;&gt;study -->
<g id="edge5" class="edge">
<title>study_funding&#45;&gt;study</title>
<path fill="none" stroke="#000000" d="M2742.6156,-87.6991C2727.2388,-76.2124 2705.5018,-61.8516 2683.9954,-54 2643.9375,-39.3757 2526.3152,-27.4895 2460.2979,-21.7418"/>
<polygon fill="#000000" stroke="#000000" points="2460.428,-18.2402 2450.1654,-20.8725 2459.8297,-25.2146 2460.428,-18.2402"/>
<text text-anchor="middle" x="2775.9954" y="-57.8" font-family="Times,serif" font-size="14.00" fill="#000000">of_study_funding</text>
</g>
<!-- sequencing_file -->
<g id="node16" class="node">
<title>sequencing_file</title>
<ellipse fill="none" stroke="#000000" cx="204.9954" cy="-366" rx="83.3857" ry="18"/>
<text text-anchor="middle" x="204.9954" y="-362.3" font-family="Times,serif" font-size="14.00" fill="#000000">sequencing_file</text>
</g>
<!-- sequencing_file&#45;&gt;sample -->
<g id="edge4" class="edge">
<title>sequencing_file&#45;&gt;sample</title>
<path fill="none" stroke="#000000" d="M218.209,-348.2253C228.0298,-336.5213 242.5352,-322.0955 258.9954,-315 310.9928,-292.5854 690.3989,-282.8782 833.5387,-279.9862"/>
<polygon fill="#000000" stroke="#000000" points="833.9037,-283.4798 843.8322,-279.7818 833.7646,-276.4811 833.9037,-283.4798"/>
<text text-anchor="middle" x="325.4954" y="-318.8" font-family="Times,serif" font-size="14.00" fill="#000000">of_sequencing_file</text>
</g>
<!-- genetic_analysis -->
<g id="node17" class="node">
<title>genetic_analysis</title>
<ellipse fill="none" stroke="#000000" cx="1087.9954" cy="-366" rx="87.9851" ry="18"/>
<text text-anchor="middle" x="1087.9954" y="-362.3" font-family="Times,serif" font-size="14.00" fill="#000000">genetic_analysis</text>
</g>
<!-- genetic_analysis&#45;&gt;participant -->
<g id="edge37" class="edge">
<title>genetic_analysis&#45;&gt;participant</title>
<path fill="none" stroke="#000000" d="M1124.1619,-349.4528C1133.8157,-344.06 1143.8245,-337.4999 1151.9954,-330 1179.331,-304.9091 1167.787,-281.0706 1198.9954,-261 1251.5996,-227.1695 1664.7665,-203.6284 1834.0414,-195.3123"/>
<polygon fill="#000000" stroke="#000000" points="1834.2873,-198.8046 1844.105,-194.8218 1833.9465,-191.8129 1834.2873,-198.8046"/>
<text text-anchor="middle" x="1268.9954" y="-275.3" font-family="Times,serif" font-size="14.00" fill="#000000">of_genetic_analysis</text>
</g>
<!-- genetic_analysis&#45;&gt;sample -->
<g id="edge38" class="edge">
<title>genetic_analysis&#45;&gt;sample</title>
<path fill="none" stroke="#000000" d="M1006.5193,-359.1646C963.0824,-353.861 915.466,-344.8358 899.9954,-330 893.9021,-324.1568 890.6498,-315.847 888.9793,-307.6271"/>
<polygon fill="#000000" stroke="#000000" points="892.4134,-306.9015 887.6146,-297.4558 885.4756,-307.8324 892.4134,-306.9015"/>
<text text-anchor="middle" x="969.9954" y="-318.8" font-family="Times,serif" font-size="14.00" fill="#000000">of_genetic_analysis</text>
</g>
<!-- study_admin -->
<g id="node18" class="node">
<title>study_admin</title>
<ellipse fill="none" stroke="#000000" cx="2929.9954" cy="-105" rx="70.3881" ry="18"/>
<text text-anchor="middle" x="2929.9954" y="-101.3" font-family="Times,serif" font-size="14.00" fill="#000000">study_admin</text>
</g>
<!-- study_admin&#45;&gt;study -->
<g id="edge25" class="edge">
<title>study_admin&#45;&gt;study</title>
<path fill="none" stroke="#000000" d="M2907.0547,-87.8917C2890.0306,-76.1797 2865.7473,-61.4667 2841.9954,-54 2771.9729,-31.9877 2556.5306,-22.5411 2460.7419,-19.3515"/>
<polygon fill="#000000" stroke="#000000" points="2460.5959,-15.845 2450.4877,-19.0189 2460.3689,-22.8413 2460.5959,-15.845"/>
<text text-anchor="middle" x="2931.4954" y="-57.8" font-family="Times,serif" font-size="14.00" fill="#000000">of_study_admin</text>
</g>
<!-- survival -->
<g id="node19" class="node">
<title>survival</title>
<ellipse fill="none" stroke="#000000" cx="1496.9954" cy="-279" rx="48.1917" ry="18"/>
<text text-anchor="middle" x="1496.9954" y="-275.3" font-family="Times,serif" font-size="14.00" fill="#000000">survival</text>
</g>
<!-- survival&#45;&gt;participant -->
<g id="edge36" class="edge">
<title>survival&#45;&gt;participant</title>
<path fill="none" stroke="#000000" d="M1518.3644,-262.8141C1535.0447,-251.0819 1559.2928,-235.9373 1582.9954,-228 1628.1472,-212.8799 1754.1629,-202.0488 1834.7886,-196.4236"/>
<polygon fill="#000000" stroke="#000000" points="1835.1382,-199.9079 1844.8747,-195.7304 1834.6582,-192.9244 1835.1382,-199.9079"/>
<text text-anchor="middle" x="1622.4954" y="-231.8" font-family="Times,serif" font-size="14.00" fill="#000000">of_survival</text>
</g>
<!-- pathology_file -->
<g id="node20" class="node">
<title>pathology_file</title>
<ellipse fill="none" stroke="#000000" cx="381.9954" cy="-366" rx="76.0865" ry="18"/>
<text text-anchor="middle" x="381.9954" y="-362.3" font-family="Times,serif" font-size="14.00" fill="#000000">pathology_file</text>
</g>
<!-- pathology_file&#45;&gt;sample -->
<g id="edge26" class="edge">
<title>pathology_file&#45;&gt;sample</title>
<path fill="none" stroke="#000000" d="M387.4235,-347.773C391.8394,-336.3418 399.2925,-322.4114 410.9954,-315 445.9849,-292.8411 716.0698,-283.3569 833.6247,-280.2492"/>
<polygon fill="#000000" stroke="#000000" points="833.9349,-283.7424 843.8411,-279.9851 833.7539,-276.7448 833.9349,-283.7424"/>
<text text-anchor="middle" x="471.9954" y="-318.8" font-family="Times,serif" font-size="14.00" fill="#000000">of_pathology_file</text>
</g>
<!-- study_arm -->
<g id="node21" class="node">
<title>study_arm</title>
<ellipse fill="none" stroke="#000000" cx="3077.9954" cy="-105" rx="59.5901" ry="18"/>
<text text-anchor="middle" x="3077.9954" y="-101.3" font-family="Times,serif" font-size="14.00" fill="#000000">study_arm</text>
</g>
<!-- study_arm&#45;&gt;study -->
<g id="edge2" class="edge">
<title>study_arm&#45;&gt;study</title>
<path fill="none" stroke="#000000" d="M3056.0364,-87.9827C3039.4365,-76.1527 3015.5527,-61.2546 2991.9954,-54 2941.8769,-38.5658 2589.5467,-24.3778 2460.8858,-19.656"/>
<polygon fill="#000000" stroke="#000000" points="2460.6977,-16.1469 2450.5769,-19.2804 2460.4428,-23.1423 2460.6977,-16.1469"/>
<text text-anchor="middle" x="3072.4954" y="-57.8" font-family="Times,serif" font-size="14.00" fill="#000000">of_study_arm</text>
</g>
<!-- exposure -->
<g id="node22" class="node">
<title>exposure</title>
<ellipse fill="none" stroke="#000000" cx="1615.9954" cy="-279" rx="53.0913" ry="18"/>
<text text-anchor="middle" x="1615.9954" y="-275.3" font-family="Times,serif" font-size="14.00" fill="#000000">exposure</text>
</g>
<!-- exposure&#45;&gt;participant -->
<g id="edge3" class="edge">
<title>exposure&#45;&gt;participant</title>
<path fill="none" stroke="#000000" d="M1636.5374,-262.1681C1651.5564,-250.7454 1672.907,-236.2678 1693.9954,-228 1738.9483,-210.3759 1792.5912,-201.371 1834.6694,-196.7746"/>
<polygon fill="#000000" stroke="#000000" points="1835.243,-200.2341 1844.8305,-195.7252 1834.5238,-193.2711 1835.243,-200.2341"/>
<text text-anchor="middle" x="1737.4954" y="-231.8" font-family="Times,serif" font-size="14.00" fill="#000000">of_exposure</text>
</g>
<!-- treatment -->
<g id="node23" class="node">
<title>treatment</title>
<ellipse fill="none" stroke="#000000" cx="1744.9954" cy="-279" rx="57.6901" ry="18"/>
<text text-anchor="middle" x="1744.9954" y="-275.3" font-family="Times,serif" font-size="14.00" fill="#000000">treatment</text>
</g>
<!-- treatment&#45;&gt;participant -->
<g id="edge32" class="edge">
<title>treatment&#45;&gt;participant</title>
<path fill="none" stroke="#000000" d="M1762.8412,-261.875C1774.8579,-251.0479 1791.4741,-237.3781 1807.9954,-228 1821.7019,-220.2197 1837.4034,-213.5714 1852.1635,-208.1838"/>
<polygon fill="#000000" stroke="#000000" points="1853.4272,-211.4495 1861.6965,-204.8261 1851.1017,-204.8471 1853.4272,-211.4495"/>
<text text-anchor="middle" x="1854.9954" y="-231.8" font-family="Times,serif" font-size="14.00" fill="#000000">of_treatment</text>
</g>
<!-- cytogenomic_file -->
<g id="node24" class="node">
<title>cytogenomic_file</title>
<ellipse fill="none" stroke="#000000" cx="565.9954" cy="-366" rx="89.8845" ry="18"/>
<text text-anchor="middle" x="565.9954" y="-362.3" font-family="Times,serif" font-size="14.00" fill="#000000">cytogenomic_file</text>
</g>
<!-- cytogenomic_file&#45;&gt;sample -->
<g id="edge39" class="edge">
<title>cytogenomic_file&#45;&gt;sample</title>
<path fill="none" stroke="#000000" d="M548.0868,-347.9648C539.8003,-337.4532 533.4783,-324.4493 541.9954,-315 561.1412,-293.7587 741.3466,-284.2426 833.8141,-280.7289"/>
<polygon fill="#000000" stroke="#000000" points="833.9662,-284.2258 843.8301,-280.3588 833.7077,-277.2306 833.9662,-284.2258"/>
<text text-anchor="middle" x="613.4954" y="-318.8" font-family="Times,serif" font-size="14.00" fill="#000000">of_cytogenomic_file</text>
</g>
<!-- cell_line -->
<g id="node25" class="node">
<title>cell_line</title>
<ellipse fill="none" stroke="#000000" cx="991.9954" cy="-192" rx="49.2915" ry="18"/>
<text text-anchor="middle" x="991.9954" y="-188.3" font-family="Times,serif" font-size="14.00" fill="#000000">cell_line</text>
</g>
<!-- cell_line&#45;&gt;study -->
<g id="edge7" class="edge">
<title>cell_line&#45;&gt;study</title>
<path fill="none" stroke="#000000" d="M1038.4274,-185.784C1162.9639,-169.1641 1514.8322,-122.5497 1807.9954,-87 2016.8834,-61.6697 2266.6216,-34.0883 2367.9255,-23.0134"/>
<polygon fill="#000000" stroke="#000000" points="2368.5538,-26.4656 2378.1146,-21.9004 2367.7937,-19.507 2368.5538,-26.4656"/>
<text text-anchor="middle" x="1848.4954" y="-101.3" font-family="Times,serif" font-size="14.00" fill="#000000">of_cell_line</text>
</g>
<!-- cell_line&#45;&gt;sample -->
<g id="edge8" class="edge">
<title>cell_line&#45;&gt;sample</title>
<path fill="none" stroke="#000000" d="M950.022,-201.5124C924.9407,-208.1313 896.526,-217.608 888.9954,-228 884.2983,-234.4819 882.7935,-242.7447 882.8123,-250.7226"/>
<polygon fill="#000000" stroke="#000000" points="879.3353,-251.1626 883.5742,-260.8725 886.3157,-250.6386 879.3353,-251.1626"/>
<text text-anchor="middle" x="929.4954" y="-231.8" font-family="Times,serif" font-size="14.00" fill="#000000">of_cell_line</text>
</g>
<!-- medical_history -->
<g id="node26" class="node">
<title>medical_history</title>
<ellipse fill="none" stroke="#000000" cx="1905.9954" cy="-279" rx="85.2851" ry="18"/>
<text text-anchor="middle" x="1905.9954" y="-275.3" font-family="Times,serif" font-size="14.00" fill="#000000">medical_history</text>
</g>
<!-- medical_history&#45;&gt;participant -->
<g id="edge31" class="edge">
<title>medical_history&#45;&gt;participant</title>
<path fill="none" stroke="#000000" d="M1905.9954,-260.9735C1905.9954,-249.1918 1905.9954,-233.5607 1905.9954,-220.1581"/>
<polygon fill="#000000" stroke="#000000" points="1909.4955,-220.0033 1905.9954,-210.0034 1902.4955,-220.0034 1909.4955,-220.0033"/>
<text text-anchor="middle" x="1973.9954" y="-231.8" font-family="Times,serif" font-size="14.00" fill="#000000">of_medical_history</text>
</g>
<!-- treatment_response -->
<g id="node27" class="node">
<title>treatment_response</title>
<ellipse fill="none" stroke="#000000" cx="2113.9954" cy="-279" rx="104.7816" ry="18"/>
<text text-anchor="middle" x="2113.9954" y="-275.3" font-family="Times,serif" font-size="14.00" fill="#000000">treatment_response</text>
</g>
<!-- treatment_response&#45;&gt;participant -->
<g id="edge13" class="edge">
<title>treatment_response&#45;&gt;participant</title>
<path fill="none" stroke="#000000" d="M2094.53,-261.1227C2081.6172,-250.1305 2063.8217,-236.5583 2045.9954,-228 2022.4324,-216.6876 1994.8696,-208.6212 1970.4617,-203.032"/>
<polygon fill="#000000" stroke="#000000" points="1971.0894,-199.5865 1960.5715,-200.8609 1969.5885,-206.4237 1971.0894,-199.5865"/>
<text text-anchor="middle" x="2152.9954" y="-231.8" font-family="Times,serif" font-size="14.00" fill="#000000">of_treatment_response</text>
</g>
<!-- laboratory_test -->
<g id="node28" class="node">
<title>laboratory_test</title>
<ellipse fill="none" stroke="#000000" cx="1953.9954" cy="-366" rx="81.7856" ry="18"/>
<text text-anchor="middle" x="1953.9954" y="-362.3" font-family="Times,serif" font-size="14.00" fill="#000000">laboratory_test</text>
</g>
<!-- laboratory_test&#45;&gt;participant -->
<g id="edge23" class="edge">
<title>laboratory_test&#45;&gt;participant</title>
<path fill="none" stroke="#000000" d="M2025.6519,-357.2392C2130.8535,-341.6416 2307.6803,-303.3724 2239.9954,-228 2222.8354,-208.891 2071.1595,-199.0348 1978.2056,-194.7452"/>
<polygon fill="#000000" stroke="#000000" points="1978.157,-191.2396 1968.0096,-194.2861 1977.842,-198.2325 1978.157,-191.2396"/>
<text text-anchor="middle" x="2319.4954" y="-275.3" font-family="Times,serif" font-size="14.00" fill="#000000">of_laboratory_test</text>
</g>
<!-- laboratory_test&#45;&gt;sample -->
<g id="edge24" class="edge">
<title>laboratory_test&#45;&gt;sample</title>
<path fill="none" stroke="#000000" d="M1872.7544,-363.2658C1684.4101,-356.7716 1231.5387,-340.2019 1199.9954,-330 1188.3836,-326.2445 1188.4557,-319.1952 1176.9954,-315 1135.0219,-299.6349 1013.1762,-288.3218 941.8056,-282.7928"/>
<polygon fill="#000000" stroke="#000000" points="941.8944,-279.2895 931.6573,-282.0192 941.3623,-286.2692 941.8944,-279.2895"/>
<text text-anchor="middle" x="1265.4954" y="-318.8" font-family="Times,serif" font-size="14.00" fill="#000000">of_laboratory_test</text>
</g>
<!-- sample&#45;&gt;pdx -->
<g id="edge19" class="edge">
<title>sample&#45;&gt;pdx</title>
<path fill="none" stroke="#000000" d="M850.5201,-269.4449C827.0659,-262.6306 800.0078,-252.9465 792.9954,-243 788.3829,-236.4576 786.9029,-228.1771 786.9185,-220.2015"/>
<polygon fill="#000000" stroke="#000000" points="790.421,-220.2937 787.6626,-210.0642 783.4398,-219.7811 790.421,-220.2937"/>
<text text-anchor="middle" x="829.4954" y="-231.8" font-family="Times,serif" font-size="14.00" fill="#000000">of_sample</text>
</g>
<!-- sample&#45;&gt;participant -->
<g id="edge18" class="edge">
<title>sample&#45;&gt;participant</title>
<path fill="none" stroke="#000000" d="M929.6808,-272.8502C964.3256,-267.0947 1014.6247,-257.2347 1056.9954,-243 1071.8848,-237.9978 1073.7428,-231.7517 1088.9954,-228 1160.0756,-210.5161 1646.8234,-197.8392 1833.412,-193.5707"/>
<polygon fill="#000000" stroke="#000000" points="1833.7501,-197.064 1843.668,-193.3376 1833.591,-190.0658 1833.7501,-197.064"/>
<text text-anchor="middle" x="1125.4954" y="-231.8" font-family="Times,serif" font-size="14.00" fill="#000000">of_sample</text>
</g>
<!-- sample&#45;&gt;cell_line -->
<g id="edge17" class="edge">
<title>sample&#45;&gt;cell_line</title>
<path fill="none" stroke="#000000" d="M925.4083,-269.2178C940.7997,-263.6364 957.8315,-255.2424 969.9954,-243 976.4436,-236.5102 981.134,-227.8259 984.4838,-219.4651"/>
<polygon fill="#000000" stroke="#000000" points="987.8143,-220.5445 987.8255,-209.9497 981.2097,-218.2251 987.8143,-220.5445"/>
<text text-anchor="middle" x="1016.4954" y="-231.8" font-family="Times,serif" font-size="14.00" fill="#000000">of_sample</text>
</g>
</g>
</svg>
