<svg width="3167pt" height="479pt"
 viewBox="0.00 0.00 3167.19 479.00" xmlns="http://www.w3.org/2000/svg" xmlns:xlink="http://www.w3.org/1999/xlink">
<g id="graph0" class="graph" transform="scale(1 1) rotate(0) translate(4 475)">
<title>Perl</title>
<polygon fill="#ffffff" stroke="transparent" points="-4,4 -4,-475 3163.1938,-475 3163.1938,4 -4,4"/>
<!-- consent_group -->
<g id="node1" class="node">
<title>consent_group</title>
<ellipse fill="none" stroke="#000000" cx="2239" cy="-105" rx="79.0865" ry="18"/>
<text text-anchor="middle" x="2239" y="-101.3" font-family="Times,serif" font-size="14.00" fill="#000000">consent_group</text>
</g>
<!-- study -->
<g id="node14" class="node">
<title>study</title>
<ellipse fill="none" stroke="#000000" cx="2448" cy="-18" rx="36.2938" ry="18"/>
<text text-anchor="middle" x="2448" y="-14.3" font-family="Times,serif" font-size="14.00" fill="#000000">study</text>
</g>
<!-- consent_group&#45;&gt;study -->
<g id="edge32" class="edge">
<title>consent_group&#45;&gt;study</title>
<path fill="none" stroke="#000000" d="M2226.29,-87.2215C2220.3336,-76.5422 2216.0986,-63.2727 2224,-54 2235.4039,-40.617 2339.8763,-28.3891 2402.0389,-22.2158"/>
<polygon fill="#000000" stroke="#000000" points="2402.3918,-25.6981 2412.0039,-21.242 2401.7109,-18.7313 2402.3918,-25.6981"/>
<text text-anchor="middle" x="2287.5" y="-57.8" font-family="Times,serif" font-size="14.00" fill="#000000">of_consent_group</text>
</g>
<!-- study_arm -->
<g id="node2" class="node">
<title>study_arm</title>
<ellipse fill="none" stroke="#000000" cx="1924" cy="-105" rx="59.5901" ry="18"/>
<text text-anchor="middle" x="1924" y="-101.3" font-family="Times,serif" font-size="14.00" fill="#000000">study_arm</text>
</g>
<!-- study_arm&#45;&gt;study -->
<g id="edge16" class="edge">
<title>study_arm&#45;&gt;study</title>
<path fill="none" stroke="#000000" d="M1939.8103,-87.5679C1951.5729,-75.8623 1968.6987,-61.2934 1987,-54 2024.7928,-38.9389 2291.7855,-25.1574 2401.3025,-20.0725"/>
<polygon fill="#000000" stroke="#000000" points="2401.568,-23.5641 2411.3964,-19.6078 2401.246,-16.5715 2401.568,-23.5641"/>
<text text-anchor="middle" x="2035.5" y="-57.8" font-family="Times,serif" font-size="14.00" fill="#000000">of_study_arm</text>
</g>
<!-- study_admin -->
<g id="node3" class="node">
<title>study_admin</title>
<ellipse fill="none" stroke="#000000" cx="2072" cy="-105" rx="70.3881" ry="18"/>
<text text-anchor="middle" x="2072" y="-101.3" font-family="Times,serif" font-size="14.00" fill="#000000">study_admin</text>
</g>
<!-- study_admin&#45;&gt;study -->
<g id="edge4" class="edge">
<title>study_admin&#45;&gt;study</title>
<path fill="none" stroke="#000000" d="M2077.8493,-86.8677C2082.5162,-75.4764 2090.2486,-61.5551 2102,-54 2126.6773,-38.1348 2313.2234,-25.6138 2401.7016,-20.5004"/>
<polygon fill="#000000" stroke="#000000" points="2401.9494,-23.992 2411.7338,-19.9281 2401.5507,-17.0034 2401.9494,-23.992"/>
<text text-anchor="middle" x="2158.5" y="-57.8" font-family="Times,serif" font-size="14.00" fill="#000000">of_study_admin</text>
</g>
<!-- synonym -->
<g id="node4" class="node">
<title>synonym</title>
<ellipse fill="none" stroke="#000000" cx="2373" cy="-453" rx="51.9908" ry="18"/>
<text text-anchor="middle" x="2373" y="-449.3" font-family="Times,serif" font-size="14.00" fill="#000000">synonym</text>
</g>
<!-- synonym&#45;&gt;study -->
<g id="edge37" class="edge">
<title>synonym&#45;&gt;study</title>
<path fill="none" stroke="#000000" d="M2403.773,-438.4488C2481.0722,-399.94 2682.5896,-286.9588 2758,-123 2770.9001,-94.9523 2773.0913,-74.4909 2750,-54 2731.2669,-37.3765 2574.417,-25.6193 2494.4675,-20.6463"/>
<polygon fill="#000000" stroke="#000000" points="2494.3782,-17.1344 2484.1833,-20.0177 2493.9511,-24.1213 2494.3782,-17.1344"/>
<text text-anchor="middle" x="2730.5" y="-231.8" font-family="Times,serif" font-size="14.00" fill="#000000">of_synonym</text>
</g>
<!-- participant -->
<g id="node23" class="node">
<title>participant</title>
<ellipse fill="none" stroke="#000000" cx="1482" cy="-192" rx="62.2891" ry="18"/>
<text text-anchor="middle" x="1482" y="-188.3" font-family="Times,serif" font-size="14.00" fill="#000000">participant</text>
</g>
<!-- synonym&#45;&gt;participant -->
<g id="edge38" class="edge">
<title>synonym&#45;&gt;participant</title>
<path fill="none" stroke="#000000" d="M2369.826,-434.9138C2367.6296,-424.8722 2364.1576,-412.3557 2359,-402 2348.1213,-380.1571 2246.6277,-239.3003 2225,-228 2195.6312,-212.655 1735.6762,-198.773 1554.5196,-193.8733"/>
<polygon fill="#000000" stroke="#000000" points="1554.3803,-190.3684 1544.2898,-193.5982 1554.192,-197.3659 1554.3803,-190.3684"/>
<text text-anchor="middle" x="2351.5" y="-318.8" font-family="Times,serif" font-size="14.00" fill="#000000">of_synonym</text>
</g>
<!-- sample -->
<g id="node27" class="node">
<title>sample</title>
<ellipse fill="none" stroke="#000000" cx="1745" cy="-366" rx="44.393" ry="18"/>
<text text-anchor="middle" x="1745" y="-362.3" font-family="Times,serif" font-size="14.00" fill="#000000">sample</text>
</g>
<!-- synonym&#45;&gt;sample -->
<g id="edge36" class="edge">
<title>synonym&#45;&gt;sample</title>
<path fill="none" stroke="#000000" d="M2333.5869,-440.9832C2315.0841,-434.7621 2292.978,-426.4816 2274,-417 2263.0827,-411.5456 2262.5672,-405.8907 2251,-402 2168.6365,-374.2969 1912.5785,-367.9121 1799.5552,-366.4407"/>
<polygon fill="#000000" stroke="#000000" points="1799.4398,-362.9391 1789.3978,-366.3167 1799.3543,-369.9386 1799.4398,-362.9391"/>
<text text-anchor="middle" x="2316.5" y="-405.8" font-family="Times,serif" font-size="14.00" fill="#000000">of_synonym</text>
</g>
<!-- treatment_surgery -->
<g id="node5" class="node">
<title>treatment_surgery</title>
<ellipse fill="none" stroke="#000000" cx="2394" cy="-279" rx="98.5829" ry="18"/>
<text text-anchor="middle" x="2394" y="-275.3" font-family="Times,serif" font-size="14.00" fill="#000000">treatment_surgery</text>
</g>
<!-- treatment_surgery&#45;&gt;participant -->
<g id="edge20" class="edge">
<title>treatment_surgery&#45;&gt;participant</title>
<path fill="none" stroke="#000000" d="M2356.3525,-262.2272C2327.7878,-250.3553 2287.2173,-235.2971 2250,-228 2118.2524,-202.1686 1719.3393,-194.7045 1554.4851,-192.6921"/>
<polygon fill="#000000" stroke="#000000" points="1554.4837,-189.1919 1544.4428,-192.5727 1554.4004,-196.1914 1554.4837,-189.1919"/>
<text text-anchor="middle" x="2380.5" y="-231.8" font-family="Times,serif" font-size="14.00" fill="#000000">of_treatment_surgery</text>
</g>
<!-- cell_line -->
<g id="node6" class="node">
<title>cell_line</title>
<ellipse fill="none" stroke="#000000" cx="2116" cy="-279" rx="49.2915" ry="18"/>
<text text-anchor="middle" x="2116" y="-275.3" font-family="Times,serif" font-size="14.00" fill="#000000">cell_line</text>
</g>
<!-- cell_line&#45;&gt;study -->
<g id="edge40" class="edge">
<title>cell_line&#45;&gt;study</title>
<path fill="none" stroke="#000000" d="M2151.8746,-266.4579C2159.1231,-264.3244 2166.7464,-262.3616 2174,-261 2202.0252,-255.7392 2410.557,-263.858 2430,-243 2467.1503,-203.1459 2345.8014,-193.0202 2362,-141 2374.0577,-102.2779 2403.2445,-65.1731 2424.274,-42.0332"/>
<polygon fill="#000000" stroke="#000000" points="2427.0799,-44.1557 2431.3308,-34.451 2421.9558,-39.3866 2427.0799,-44.1557"/>
<text text-anchor="middle" x="2402.5" y="-144.8" font-family="Times,serif" font-size="14.00" fill="#000000">of_cell_line</text>
</g>
<!-- cell_line&#45;&gt;participant -->
<g id="edge41" class="edge">
<title>cell_line&#45;&gt;participant</title>
<path fill="none" stroke="#000000" d="M2095.7383,-262.3732C2078.338,-248.2584 2055.2504,-229.9798 2050,-228 2004.8168,-210.9624 1697.4408,-198.9534 1554.6418,-194.2278"/>
<polygon fill="#000000" stroke="#000000" points="1554.3464,-190.7164 1544.237,-193.8868 1554.117,-197.7126 1554.3464,-190.7164"/>
<text text-anchor="middle" x="2110.5" y="-231.8" font-family="Times,serif" font-size="14.00" fill="#000000">of_cell_line</text>
</g>
<!-- diagnosis -->
<g id="node7" class="node">
<title>diagnosis</title>
<ellipse fill="none" stroke="#000000" cx="814" cy="-453" rx="54.6905" ry="18"/>
<text text-anchor="middle" x="814" y="-449.3" font-family="Times,serif" font-size="14.00" fill="#000000">diagnosis</text>
</g>
<!-- diagnosis&#45;&gt;participant -->
<g id="edge2" class="edge">
<title>diagnosis&#45;&gt;participant</title>
<path fill="none" stroke="#000000" d="M772.6795,-441.2334C759.463,-435.7191 745.7478,-427.8909 736,-417 708.8175,-386.6299 713.5287,-370.232 707,-330 698.233,-275.9751 727.3428,-253.0606 776,-228 831.1991,-199.57 1240.2929,-193.5918 1409.2869,-192.3347"/>
<polygon fill="#000000" stroke="#000000" points="1409.3632,-195.8344 1419.3381,-192.2634 1409.3135,-188.8345 1409.3632,-195.8344"/>
<text text-anchor="middle" x="751.5" y="-318.8" font-family="Times,serif" font-size="14.00" fill="#000000">of_diagnosis</text>
</g>
<!-- diagnosis&#45;&gt;sample -->
<g id="edge3" class="edge">
<title>diagnosis&#45;&gt;sample</title>
<path fill="none" stroke="#000000" d="M862.5392,-444.5722C929.647,-433.2213 1054.6515,-413.1606 1162,-402 1355.8119,-381.8502 1587.1306,-371.667 1690.4611,-367.8409"/>
<polygon fill="#000000" stroke="#000000" points="1690.782,-371.3316 1700.6477,-367.469 1690.5266,-364.3362 1690.782,-371.3316"/>
<text text-anchor="middle" x="1206.5" y="-405.8" font-family="Times,serif" font-size="14.00" fill="#000000">of_diagnosis</text>
</g>
<!-- treatment_radiation -->
<g id="node8" class="node">
<title>treatment_radiation</title>
<ellipse fill="none" stroke="#000000" cx="980" cy="-279" rx="104.7816" ry="18"/>
<text text-anchor="middle" x="980" y="-275.3" font-family="Times,serif" font-size="14.00" fill="#000000">treatment_radiation</text>
</g>
<!-- treatment_radiation&#45;&gt;participant -->
<g id="edge42" class="edge">
<title>treatment_radiation&#45;&gt;participant</title>
<path fill="none" stroke="#000000" d="M1003.676,-261.4122C1020.663,-249.794 1044.5954,-235.3938 1068,-228 1129.7719,-208.4855 1308.6055,-198.6342 1409.867,-194.4918"/>
<polygon fill="#000000" stroke="#000000" points="1410.1658,-197.9827 1420.0176,-194.085 1409.8855,-190.9883 1410.1658,-197.9827"/>
<text text-anchor="middle" x="1151" y="-231.8" font-family="Times,serif" font-size="14.00" fill="#000000">of_treatment_radiation</text>
</g>
<!-- radiology_file -->
<g id="node9" class="node">
<title>radiology_file</title>
<ellipse fill="none" stroke="#000000" cx="1176" cy="-279" rx="73.387" ry="18"/>
<text text-anchor="middle" x="1176" y="-275.3" font-family="Times,serif" font-size="14.00" fill="#000000">radiology_file</text>
</g>
<!-- radiology_file&#45;&gt;participant -->
<g id="edge24" class="edge">
<title>radiology_file&#45;&gt;participant</title>
<path fill="none" stroke="#000000" d="M1201.671,-262.0601C1219.9908,-250.739 1245.6072,-236.4276 1270,-228 1315.8002,-212.1762 1369.6562,-203.1438 1411.6251,-198.084"/>
<polygon fill="#000000" stroke="#000000" points="1412.2215,-201.5384 1421.7528,-196.9118 1411.4167,-194.5848 1412.2215,-201.5384"/>
<text text-anchor="middle" x="1329" y="-231.8" font-family="Times,serif" font-size="14.00" fill="#000000">of_radiology_file</text>
</g>
<!-- clinical_measure_file -->
<g id="node10" class="node">
<title>clinical_measure_file</title>
<ellipse fill="none" stroke="#000000" cx="505" cy="-453" rx="108.5808" ry="18"/>
<text text-anchor="middle" x="505" y="-449.3" font-family="Times,serif" font-size="14.00" fill="#000000">clinical_measure_file</text>
</g>
<!-- clinical_measure_file&#45;&gt;study -->
<g id="edge14" class="edge">
<title>clinical_measure_file&#45;&gt;study</title>
<path fill="none" stroke="#000000" d="M405.5297,-445.7651C258.4085,-433.7066 0,-406.7294 0,-366 0,-366 0,-366 0,-105 0,-42.5369 2062.9658,-21.4392 2401.3129,-18.3991"/>
<polygon fill="#000000" stroke="#000000" points="2401.5266,-21.8974 2411.495,-18.3084 2401.4642,-14.8977 2401.5266,-21.8974"/>
<text text-anchor="middle" x="86" y="-231.8" font-family="Times,serif" font-size="14.00" fill="#000000">of_clinical_measure_file</text>
</g>
<!-- clinical_measure_file&#45;&gt;participant -->
<g id="edge13" class="edge">
<title>clinical_measure_file&#45;&gt;participant</title>
<path fill="none" stroke="#000000" d="M502.4455,-434.9145C499.395,-405.4665 498.1689,-347.2144 530,-315 559.5908,-285.0529 583.4446,-311.4157 623,-297 682.2563,-275.4044 686.3589,-245.3301 747,-228 809.4783,-210.1449 1236.858,-197.9326 1409.6936,-193.6711"/>
<polygon fill="#000000" stroke="#000000" points="1409.8031,-197.1696 1419.7145,-193.4259 1409.6319,-190.1716 1409.8031,-197.1696"/>
<text text-anchor="middle" x="616" y="-318.8" font-family="Times,serif" font-size="14.00" fill="#000000">of_clinical_measure_file</text>
</g>
<!-- clinical_measure_file&#45;&gt;sample -->
<g id="edge15" class="edge">
<title>clinical_measure_file&#45;&gt;sample</title>
<path fill="none" stroke="#000000" d="M581.5118,-440.1276C655.3863,-428.2235 770.5219,-411.0482 871,-402 1180.1974,-374.1562 1552.8962,-367.8252 1690.5195,-366.4044"/>
<polygon fill="#000000" stroke="#000000" points="1690.8268,-369.9016 1700.7917,-366.303 1690.7576,-362.902 1690.8268,-369.9016"/>
<text text-anchor="middle" x="957" y="-405.8" font-family="Times,serif" font-size="14.00" fill="#000000">of_clinical_measure_file</text>
</g>
<!-- publication -->
<g id="node11" class="node">
<title>publication</title>
<ellipse fill="none" stroke="#000000" cx="2494" cy="-105" rx="63.0888" ry="18"/>
<text text-anchor="middle" x="2494" y="-101.3" font-family="Times,serif" font-size="14.00" fill="#000000">publication</text>
</g>
<!-- publication&#45;&gt;study -->
<g id="edge29" class="edge">
<title>publication&#45;&gt;study</title>
<path fill="none" stroke="#000000" d="M2484.4688,-86.9735C2478.0115,-74.7609 2469.3674,-58.4123 2462.1157,-44.697"/>
<polygon fill="#000000" stroke="#000000" points="2465.13,-42.9101 2457.3616,-35.7057 2458.9418,-46.182 2465.13,-42.9101"/>
<text text-anchor="middle" x="2524" y="-57.8" font-family="Times,serif" font-size="14.00" fill="#000000">of_publication</text>
</g>
<!-- family_relationship -->
<g id="node12" class="node">
<title>family_relationship</title>
<ellipse fill="none" stroke="#000000" cx="1595" cy="-279" rx="100.1823" ry="18"/>
<text text-anchor="middle" x="1595" y="-275.3" font-family="Times,serif" font-size="14.00" fill="#000000">family_relationship</text>
</g>
<!-- family_relationship&#45;&gt;participant -->
<g id="edge44" class="edge">
<title>family_relationship&#45;&gt;participant</title>
<path fill="none" stroke="#000000" d="M1590.1669,-260.943C1586.4711,-250.1588 1580.3834,-236.8769 1571,-228 1561.9237,-219.4137 1550.5318,-212.7691 1538.9586,-207.6653"/>
<polygon fill="#000000" stroke="#000000" points="1540.261,-204.4167 1529.679,-203.8948 1537.6259,-210.9018 1540.261,-204.4167"/>
<text text-anchor="middle" x="1662.5" y="-231.8" font-family="Times,serif" font-size="14.00" fill="#000000">of_family_relationship</text>
</g>
<!-- treatment_other -->
<g id="node13" class="node">
<title>treatment_other</title>
<ellipse fill="none" stroke="#000000" cx="1800" cy="-279" rx="87.1846" ry="18"/>
<text text-anchor="middle" x="1800" y="-275.3" font-family="Times,serif" font-size="14.00" fill="#000000">treatment_other</text>
</g>
<!-- treatment_other&#45;&gt;participant -->
<g id="edge19" class="edge">
<title>treatment_other&#45;&gt;participant</title>
<path fill="none" stroke="#000000" d="M1785.9566,-260.8761C1776.0721,-249.4884 1761.8206,-235.5679 1746,-228 1712.8577,-212.1462 1619.202,-202.1064 1552.889,-196.7693"/>
<polygon fill="#000000" stroke="#000000" points="1553.1482,-193.279 1542.9046,-195.9844 1552.5995,-200.2575 1553.1482,-193.279"/>
<text text-anchor="middle" x="1837.5" y="-231.8" font-family="Times,serif" font-size="14.00" fill="#000000">of_treatment_other</text>
</g>
<!-- genetic_analysis -->
<g id="node15" class="node">
<title>genetic_analysis</title>
<ellipse fill="none" stroke="#000000" cx="1383" cy="-453" rx="87.9851" ry="18"/>
<text text-anchor="middle" x="1383" y="-449.3" font-family="Times,serif" font-size="14.00" fill="#000000">genetic_analysis</text>
</g>
<!-- genetic_analysis&#45;&gt;participant -->
<g id="edge34" class="edge">
<title>genetic_analysis&#45;&gt;participant</title>
<path fill="none" stroke="#000000" d="M1318.5878,-440.6931C1294.4604,-434.6649 1271.1397,-426.6192 1264,-417 1260.0266,-411.6468 1259.6997,-407.0943 1264,-402 1412.6045,-225.9566 1546.3049,-342.8051 1775,-315 1802.0961,-311.7056 2001.0527,-316.6482 2020,-297 2041.2962,-274.916 2042.9598,-250.4036 2022,-228 2006.2599,-211.1756 1697.5647,-198.997 1554.1263,-194.2232"/>
<polygon fill="#000000" stroke="#000000" points="1554.2006,-190.7239 1544.0907,-193.8923 1553.9699,-197.7201 1554.2006,-190.7239"/>
<text text-anchor="middle" x="1845" y="-318.8" font-family="Times,serif" font-size="14.00" fill="#000000">of_genetic_analysis</text>
</g>
<!-- genetic_analysis&#45;&gt;sample -->
<g id="edge33" class="edge">
<title>genetic_analysis&#45;&gt;sample</title>
<path fill="none" stroke="#000000" d="M1402.5375,-435.36C1416.4276,-423.8749 1436.0847,-409.6527 1456,-402 1497.7231,-385.9673 1619.6642,-374.9088 1691.1179,-369.6011"/>
<polygon fill="#000000" stroke="#000000" points="1691.5595,-373.0783 1701.2783,-368.8598 1691.0501,-366.0968 1691.5595,-373.0783"/>
<text text-anchor="middle" x="1526" y="-405.8" font-family="Times,serif" font-size="14.00" fill="#000000">of_genetic_analysis</text>
</g>
<!-- pathology_file -->
<g id="node16" class="node">
<title>pathology_file</title>
<ellipse fill="none" stroke="#000000" cx="1567" cy="-453" rx="76.0865" ry="18"/>
<text text-anchor="middle" x="1567" y="-449.3" font-family="Times,serif" font-size="14.00" fill="#000000">pathology_file</text>
</g>
<!-- pathology_file&#45;&gt;sample -->
<g id="edge5" class="edge">
<title>pathology_file&#45;&gt;sample</title>
<path fill="none" stroke="#000000" d="M1581.1948,-435.098C1590.7938,-424.0958 1604.3546,-410.522 1619,-402 1641.7975,-388.7344 1669.7887,-380.1007 1693.5934,-374.6242"/>
<polygon fill="#000000" stroke="#000000" points="1694.4846,-378.0122 1703.5118,-372.4661 1692.9963,-371.1723 1694.4846,-378.0122"/>
<text text-anchor="middle" x="1680" y="-405.8" font-family="Times,serif" font-size="14.00" fill="#000000">of_pathology_file</text>
</g>
<!-- study_personnel -->
<g id="node17" class="node">
<title>study_personnel</title>
<ellipse fill="none" stroke="#000000" cx="2662" cy="-105" rx="87.1846" ry="18"/>
<text text-anchor="middle" x="2662" y="-101.3" font-family="Times,serif" font-size="14.00" fill="#000000">study_personnel</text>
</g>
<!-- study_personnel&#45;&gt;study -->
<g id="edge18" class="edge">
<title>study_personnel&#45;&gt;study</title>
<path fill="none" stroke="#000000" d="M2637.9375,-87.6835C2621.8797,-76.7778 2599.9435,-63.0924 2579,-54 2551.0186,-41.8522 2517.8747,-32.7903 2491.9261,-26.7968"/>
<polygon fill="#000000" stroke="#000000" points="2492.5253,-23.3444 2482.0019,-24.5722 2490.9941,-30.1749 2492.5253,-23.3444"/>
<text text-anchor="middle" x="2676.5" y="-57.8" font-family="Times,serif" font-size="14.00" fill="#000000">of_study_personnel</text>
</g>
<!-- laboratory_test -->
<g id="node18" class="node">
<title>laboratory_test</title>
<ellipse fill="none" stroke="#000000" cx="1190" cy="-453" rx="81.7856" ry="18"/>
<text text-anchor="middle" x="1190" y="-449.3" font-family="Times,serif" font-size="14.00" fill="#000000">laboratory_test</text>
</g>
<!-- laboratory_test&#45;&gt;participant -->
<g id="edge23" class="edge">
<title>laboratory_test&#45;&gt;participant</title>
<path fill="none" stroke="#000000" d="M1144.4397,-437.9559C1036.5374,-402.1186 773.5212,-313.462 762,-297 752.8258,-283.8915 753.1011,-274.297 762,-261 783.3916,-229.0358 804.4967,-236.5328 842,-228 948.1027,-203.8593 1265.5641,-195.5933 1409.5589,-193.0357"/>
<polygon fill="#000000" stroke="#000000" points="1409.6836,-196.5341 1419.6214,-192.8613 1409.5622,-189.5352 1409.6836,-196.5341"/>
<text text-anchor="middle" x="899.5" y="-318.8" font-family="Times,serif" font-size="14.00" fill="#000000">of_laboratory_test</text>
</g>
<!-- laboratory_test&#45;&gt;sample -->
<g id="edge22" class="edge">
<title>laboratory_test&#45;&gt;sample</title>
<path fill="none" stroke="#000000" d="M1217.2639,-435.9083C1237.3895,-424.2044 1265.8814,-409.4941 1293,-402 1366.4491,-381.7026 1587.3139,-371.5161 1690.6198,-367.7561"/>
<polygon fill="#000000" stroke="#000000" points="1690.968,-371.246 1700.8367,-367.3913 1690.7182,-364.2505 1690.968,-371.246"/>
<text text-anchor="middle" x="1358.5" y="-405.8" font-family="Times,serif" font-size="14.00" fill="#000000">of_laboratory_test</text>
</g>
<!-- generic_file -->
<g id="node19" class="node">
<title>generic_file</title>
<ellipse fill="none" stroke="#000000" cx="2870" cy="-453" rx="65.7887" ry="18"/>
<text text-anchor="middle" x="2870" y="-449.3" font-family="Times,serif" font-size="14.00" fill="#000000">generic_file</text>
</g>
<!-- generic_file&#45;&gt;study -->
<g id="edge9" class="edge">
<title>generic_file&#45;&gt;study</title>
<path fill="none" stroke="#000000" d="M2916.4357,-440.0581C2950.5583,-427.3872 2991,-404.2925 2991,-366 2991,-366 2991,-366 2991,-105 2991,-76.7332 2977.7956,-67.5718 2953,-54 2913.3798,-32.314 2611.8229,-22.2438 2494.4975,-19.1168"/>
<polygon fill="#000000" stroke="#000000" points="2494.4783,-15.6152 2484.3902,-18.8525 2494.2952,-22.6128 2494.4783,-15.6152"/>
<text text-anchor="middle" x="3044" y="-231.8" font-family="Times,serif" font-size="14.00" fill="#000000">of_generic_file</text>
</g>
<!-- generic_file&#45;&gt;participant -->
<g id="edge7" class="edge">
<title>generic_file&#45;&gt;participant</title>
<path fill="none" stroke="#000000" d="M2869.9085,-434.8238C2869.4664,-383.8144 2866.8963,-242.1191 2852,-228 2828.2657,-205.504 1834.3792,-195.0922 1554.6015,-192.6035"/>
<polygon fill="#000000" stroke="#000000" points="1554.59,-189.1034 1544.5595,-192.5148 1554.5282,-196.1031 1554.59,-189.1034"/>
<text text-anchor="middle" x="2920" y="-318.8" font-family="Times,serif" font-size="14.00" fill="#000000">of_generic_file</text>
</g>
<!-- generic_file&#45;&gt;sample -->
<g id="edge8" class="edge">
<title>generic_file&#45;&gt;sample</title>
<path fill="none" stroke="#000000" d="M2809.2013,-446.0494C2714.1167,-435.3677 2524.3833,-414.8117 2363,-402 2155.1139,-385.4966 1907.3218,-373.3288 1799.5505,-368.4056"/>
<polygon fill="#000000" stroke="#000000" points="1799.4052,-364.8954 1789.2567,-367.9379 1799.0875,-371.8882 1799.4052,-364.8954"/>
<text text-anchor="middle" x="2583" y="-405.8" font-family="Times,serif" font-size="14.00" fill="#000000">of_generic_file</text>
</g>
<!-- sequencing_file -->
<g id="node20" class="node">
<title>sequencing_file</title>
<ellipse fill="none" stroke="#000000" cx="1744" cy="-453" rx="83.3857" ry="18"/>
<text text-anchor="middle" x="1744" y="-449.3" font-family="Times,serif" font-size="14.00" fill="#000000">sequencing_file</text>
</g>
<!-- sequencing_file&#45;&gt;sample -->
<g id="edge30" class="edge">
<title>sequencing_file&#45;&gt;sample</title>
<path fill="none" stroke="#000000" d="M1744.2072,-434.9735C1744.3426,-423.1918 1744.5223,-407.5607 1744.6763,-394.1581"/>
<polygon fill="#000000" stroke="#000000" points="1748.1778,-394.043 1744.7931,-384.0034 1741.1783,-393.9624 1748.1778,-394.043"/>
<text text-anchor="middle" x="1811.5" y="-405.8" font-family="Times,serif" font-size="14.00" fill="#000000">of_sequencing_file</text>
</g>
<!-- treatment_response -->
<g id="node21" class="node">
<title>treatment_response</title>
<ellipse fill="none" stroke="#000000" cx="1372" cy="-279" rx="104.7816" ry="18"/>
<text text-anchor="middle" x="1372" y="-275.3" font-family="Times,serif" font-size="14.00" fill="#000000">treatment_response</text>
</g>
<!-- treatment_response&#45;&gt;participant -->
<g id="edge35" class="edge">
<title>treatment_response&#45;&gt;participant</title>
<path fill="none" stroke="#000000" d="M1380.6024,-260.6443C1386.3166,-250.019 1394.665,-237.0082 1405,-228 1413.0086,-221.0195 1422.6024,-215.118 1432.2564,-210.2408"/>
<polygon fill="#000000" stroke="#000000" points="1433.9383,-213.3171 1441.481,-205.8767 1430.9447,-206.9895 1433.9383,-213.3171"/>
<text text-anchor="middle" x="1488" y="-231.8" font-family="Times,serif" font-size="14.00" fill="#000000">of_treatment_response</text>
</g>
<!-- study_funding -->
<g id="node22" class="node">
<title>study_funding</title>
<ellipse fill="none" stroke="#000000" cx="2882" cy="-105" rx="77.1866" ry="18"/>
<text text-anchor="middle" x="2882" y="-101.3" font-family="Times,serif" font-size="14.00" fill="#000000">study_funding</text>
</g>
<!-- study_funding&#45;&gt;study -->
<g id="edge17" class="edge">
<title>study_funding&#45;&gt;study</title>
<path fill="none" stroke="#000000" d="M2857.7639,-87.8055C2840.1142,-76.2119 2815.164,-61.6791 2791,-54 2737.0028,-36.8402 2575.3865,-25.3771 2494.7806,-20.5661"/>
<polygon fill="#000000" stroke="#000000" points="2494.6184,-17.0507 2484.4305,-19.9584 2494.2081,-24.0386 2494.6184,-17.0507"/>
<text text-anchor="middle" x="2887" y="-57.8" font-family="Times,serif" font-size="14.00" fill="#000000">of_study_funding</text>
</g>
<!-- participant&#45;&gt;consent_group -->
<g id="edge28" class="edge">
<title>participant&#45;&gt;consent_group</title>
<path fill="none" stroke="#000000" d="M1542.6795,-187.7644C1660.4339,-179.0981 1927.9683,-157.2257 2151,-123 2157.7314,-121.967 2164.7272,-120.7626 2171.7012,-119.4754"/>
<polygon fill="#000000" stroke="#000000" points="2172.7005,-122.8481 2181.8699,-117.5405 2171.3919,-115.9715 2172.7005,-122.8481"/>
<text text-anchor="middle" x="2056.5" y="-144.8" font-family="Times,serif" font-size="14.00" fill="#000000">of_participant</text>
</g>
<!-- exposure -->
<g id="node24" class="node">
<title>exposure</title>
<ellipse fill="none" stroke="#000000" cx="1958" cy="-279" rx="53.0913" ry="18"/>
<text text-anchor="middle" x="1958" y="-275.3" font-family="Times,serif" font-size="14.00" fill="#000000">exposure</text>
</g>
<!-- exposure&#45;&gt;participant -->
<g id="edge1" class="edge">
<title>exposure&#45;&gt;participant</title>
<path fill="none" stroke="#000000" d="M1946.9427,-261.3875C1938.5984,-249.758 1926.0341,-235.3544 1911,-228 1879.7992,-212.7371 1667.7127,-200.6584 1553.8852,-195.1871"/>
<polygon fill="#000000" stroke="#000000" points="1554.0102,-191.6892 1543.8551,-194.7099 1553.6774,-198.6813 1554.0102,-191.6892"/>
<text text-anchor="middle" x="1974.5" y="-231.8" font-family="Times,serif" font-size="14.00" fill="#000000">of_exposure</text>
</g>
<!-- pdx -->
<g id="node25" class="node">
<title>pdx</title>
<ellipse fill="none" stroke="#000000" cx="2211" cy="-279" rx="27.8951" ry="18"/>
<text text-anchor="middle" x="2211" y="-275.3" font-family="Times,serif" font-size="14.00" fill="#000000">pdx</text>
</g>
<!-- pdx&#45;&gt;study -->
<g id="edge10" class="edge">
<title>pdx&#45;&gt;study</title>
<path fill="none" stroke="#000000" d="M2236.8605,-271.9189C2251.2374,-268.2037 2269.5054,-263.8455 2286,-261 2323.2182,-254.5795 2429.7478,-271.0846 2455,-243 2469.3831,-227.0036 2519.4968,-267.8433 2447,-141 2440.2061,-129.1131 2428.242,-135.1858 2422,-123 2414.7056,-108.7595 2419.1327,-102.741 2422,-87 2424.6067,-72.6899 2430.0214,-57.4897 2435.238,-45.0087"/>
<polygon fill="#000000" stroke="#000000" points="2438.5297,-46.2163 2439.3217,-35.6511 2432.1141,-43.4165 2438.5297,-46.2163"/>
<text text-anchor="middle" x="2478" y="-144.8" font-family="Times,serif" font-size="14.00" fill="#000000">of_pdx</text>
</g>
<!-- pdx&#45;&gt;participant -->
<g id="edge11" class="edge">
<title>pdx&#45;&gt;participant</title>
<path fill="none" stroke="#000000" d="M2196.0845,-263.5438C2182.6451,-250.0274 2163.5729,-231.9541 2154,-228 2099.8138,-205.6181 1717.491,-196.2028 1554.8962,-193.1801"/>
<polygon fill="#000000" stroke="#000000" points="1554.5723,-189.6737 1544.5099,-192.9902 1554.4442,-196.6725 1554.5723,-189.6737"/>
<text text-anchor="middle" x="2197" y="-231.8" font-family="Times,serif" font-size="14.00" fill="#000000">of_pdx</text>
</g>
<!-- methylation_array_file -->
<g id="node26" class="node">
<title>methylation_array_file</title>
<ellipse fill="none" stroke="#000000" cx="1961" cy="-453" rx="115.8798" ry="18"/>
<text text-anchor="middle" x="1961" y="-449.3" font-family="Times,serif" font-size="14.00" fill="#000000">methylation_array_file</text>
</g>
<!-- methylation_array_file&#45;&gt;sample -->
<g id="edge12" class="edge">
<title>methylation_array_file&#45;&gt;sample</title>
<path fill="none" stroke="#000000" d="M1931.7838,-435.4112C1922.251,-429.6088 1911.6406,-423.083 1902,-417 1891.6788,-410.4876 1890.1425,-406.9783 1879,-402 1852.3999,-390.1154 1821.0248,-381.4251 1795.3237,-375.5635"/>
<polygon fill="#000000" stroke="#000000" points="1795.9323,-372.1137 1785.4131,-373.378 1794.4247,-378.9495 1795.9323,-372.1137"/>
<text text-anchor="middle" x="1993.5" y="-405.8" font-family="Times,serif" font-size="14.00" fill="#000000">of_methylation_array_file</text>
</g>
<!-- sample&#45;&gt;cell_line -->
<g id="edge26" class="edge">
<title>sample&#45;&gt;cell_line</title>
<path fill="none" stroke="#000000" d="M1784.5559,-357.9042C1843.3453,-345.6991 1957.1491,-321.4077 2053,-297 2057.7125,-295.8 2062.6079,-294.4988 2067.4938,-293.1637"/>
<polygon fill="#000000" stroke="#000000" points="2068.7501,-296.4473 2077.4476,-290.3972 2066.8755,-289.703 2068.7501,-296.4473"/>
<text text-anchor="middle" x="2014.5" y="-318.8" font-family="Times,serif" font-size="14.00" fill="#000000">of_sample</text>
</g>
<!-- sample&#45;&gt;participant -->
<g id="edge27" class="edge">
<title>sample&#45;&gt;participant</title>
<path fill="none" stroke="#000000" d="M1701.077,-363.2179C1515.0015,-351.3826 800.8518,-305.4415 793,-297 728.2684,-227.4069 765.5486,-256.9729 1031,-228 1164.8316,-213.3929 1321.6179,-202.2082 1410.6329,-196.4108"/>
<polygon fill="#000000" stroke="#000000" points="1410.8645,-199.9032 1420.6175,-195.7646 1410.4123,-192.9179 1410.8645,-199.9032"/>
<text text-anchor="middle" x="829.5" y="-275.3" font-family="Times,serif" font-size="14.00" fill="#000000">of_sample</text>
</g>
<!-- sample&#45;&gt;pdx -->
<g id="edge25" class="edge">
<title>sample&#45;&gt;pdx</title>
<path fill="none" stroke="#000000" d="M1788.7106,-363.0685C1849.0346,-358.537 1961.014,-348.374 2055,-330 2108.8652,-319.4695 2122.6653,-316.419 2174,-297 2175.8541,-296.2986 2177.7409,-295.5378 2179.6317,-294.7387"/>
<polygon fill="#000000" stroke="#000000" points="2181.307,-297.8227 2188.9844,-290.5215 2178.4295,-291.4414 2181.307,-297.8227"/>
<text text-anchor="middle" x="2157.5" y="-318.8" font-family="Times,serif" font-size="14.00" fill="#000000">of_sample</text>
</g>
<!-- survival -->
<g id="node28" class="node">
<title>survival</title>
<ellipse fill="none" stroke="#000000" cx="102" cy="-279" rx="48.1917" ry="18"/>
<text text-anchor="middle" x="102" y="-275.3" font-family="Times,serif" font-size="14.00" fill="#000000">survival</text>
</g>
<!-- survival&#45;&gt;participant -->
<g id="edge39" class="edge">
<title>survival&#45;&gt;participant</title>
<path fill="none" stroke="#000000" d="M131.4532,-264.6217C160.0628,-250.939 201.6456,-231.8768 219,-228 334.872,-202.1155 1158.0651,-194.2645 1409.3449,-192.458"/>
<polygon fill="#000000" stroke="#000000" points="1409.4862,-195.9572 1419.4611,-192.3863 1409.4365,-188.9574 1409.4862,-195.9572"/>
<text text-anchor="middle" x="258.5" y="-231.8" font-family="Times,serif" font-size="14.00" fill="#000000">of_survival</text>
</g>
<!-- study_status -->
<g id="node29" class="node">
<title>study_status</title>
<ellipse fill="none" stroke="#000000" cx="3089" cy="-105" rx="70.3881" ry="18"/>
<text text-anchor="middle" x="3089" y="-101.3" font-family="Times,serif" font-size="14.00" fill="#000000">study_status</text>
</g>
<!-- study_status&#45;&gt;study -->
<g id="edge6" class="edge">
<title>study_status&#45;&gt;study</title>
<path fill="none" stroke="#000000" d="M3067.267,-87.746C3051.0966,-75.9635 3027.9447,-61.226 3005,-54 2956.9594,-38.8705 2619.577,-24.5713 2494.5046,-19.7325"/>
<polygon fill="#000000" stroke="#000000" points="2494.5978,-16.2336 2484.4708,-19.347 2494.329,-23.2284 2494.5978,-16.2336"/>
<text text-anchor="middle" x="3092.5" y="-57.8" font-family="Times,serif" font-size="14.00" fill="#000000">of_study_status</text>
</g>
<!-- treatment_chemotherapy -->
<g id="node30" class="node">
<title>treatment_chemotherapy</title>
<ellipse fill="none" stroke="#000000" cx="297" cy="-279" rx="129.1772" ry="18"/>
<text text-anchor="middle" x="297" y="-275.3" font-family="Times,serif" font-size="14.00" fill="#000000">treatment_chemotherapy</text>
</g>
<!-- treatment_chemotherapy&#45;&gt;participant -->
<g id="edge21" class="edge">
<title>treatment_chemotherapy&#45;&gt;participant</title>
<path fill="none" stroke="#000000" d="M297.2501,-260.9456C298.4544,-249.5873 302.067,-235.6733 312,-228 333.786,-211.1701 1157.381,-197.0325 1409.4447,-193.0926"/>
<polygon fill="#000000" stroke="#000000" points="1409.6492,-196.59 1419.5935,-192.9347 1409.5402,-189.5908 1409.6492,-196.59"/>
<text text-anchor="middle" x="414" y="-231.8" font-family="Times,serif" font-size="14.00" fill="#000000">of_treatment_chemotherapy</text>
</g>
<!-- medical_history -->
<g id="node31" class="node">
<title>medical_history</title>
<ellipse fill="none" stroke="#000000" cx="529" cy="-279" rx="85.2851" ry="18"/>
<text text-anchor="middle" x="529" y="-275.3" font-family="Times,serif" font-size="14.00" fill="#000000">medical_history</text>
</g>
<!-- medical_history&#45;&gt;participant -->
<g id="edge43" class="edge">
<title>medical_history&#45;&gt;participant</title>
<path fill="none" stroke="#000000" d="M521.3697,-260.6383C518.1852,-249.7395 516.8676,-236.4441 525,-228 540.3092,-212.1041 1188.8673,-197.806 1409.4448,-193.3949"/>
<polygon fill="#000000" stroke="#000000" points="1409.6924,-196.8908 1419.6208,-193.1924 1409.5531,-189.8922 1409.6924,-196.8908"/>
<text text-anchor="middle" x="593" y="-231.8" font-family="Times,serif" font-size="14.00" fill="#000000">of_medical_history</text>
</g>
<!-- cytogenomic_file -->
<g id="node32" class="node">
<title>cytogenomic_file</title>
<ellipse fill="none" stroke="#000000" cx="2184" cy="-453" rx="89.8845" ry="18"/>
<text text-anchor="middle" x="2184" y="-449.3" font-family="Times,serif" font-size="14.00" fill="#000000">cytogenomic_file</text>
</g>
<!-- cytogenomic_file&#45;&gt;sample -->
<g id="edge31" class="edge">
<title>cytogenomic_file&#45;&gt;sample</title>
<path fill="none" stroke="#000000" d="M2146.7676,-436.5916C2134.2632,-430.7585 2120.3587,-423.9152 2108,-417 2097.3498,-411.0408 2096.4985,-406.0894 2085,-402 2033.7141,-383.7604 1881.4017,-373.1778 1799.143,-368.6427"/>
<polygon fill="#000000" stroke="#000000" points="1799.1605,-365.1386 1788.9862,-368.0938 1798.7827,-372.1284 1799.1605,-365.1386"/>
<text text-anchor="middle" x="2179.5" y="-405.8" font-family="Times,serif" font-size="14.00" fill="#000000">of_cytogenomic_file</text>
</g>
</g>
</svg>
